<svg xmlns:xlink="http://www.w3.org/1999/xlink" version="1.2" viewBox="0 -0.04 33.75 8.95"><path stroke="currentColor" stroke-linecap="round" stroke-linejoin="round" stroke-width=".1" d="M.05 7.36h33.7M.05 6.36h33.7M.05 5.36h33.7M.05 4.36h33.7M.05 3.36h33.7"/><rect width="1.805" height=".2" x="12.229" y="-.1" fill="currentColor" ry=".1" transform="translate(0 2.36)"/><rect width="1.956" height=".2" x="8.374" y="-.1" fill="currentColor" ry=".1" transform="translate(0 1.36)"/><rect width="1.956" height=".2" x="8.374" y="-.1" fill="currentColor" ry=".1" transform="translate(0 2.36)"/><rect width=".19" height="4" y="-2" fill="currentColor" ry="0" transform="translate(27.605 5.36)"/><rect width=".13" height="2.501" x="-.065" y="-1.314" fill="currentColor" ry=".04" transform="translate(25.402 5.36)"/><a color="inherit"><path fill="currentColor" d="M26.21 3.316c.22 0 .431.112.431.356 0 .284-.22.484-.408.596a.908.908 0 0 1-.464.136c-.22 0-.432-.112-.432-.356 0-.284.22-.484.408-.596.14-.084.3-.136.464-.136z"/></a><path fill="currentColor" d="M21.085 1.86c.032-.016.068-.028.104-.028s.064.012.096.028l-.008.732.424-.08h.012c.04 0 .072.028.072.068l.028 2.28c-.032.016-.064.028-.1.028s-.068-.012-.1-.028l.012-.732-.424.08h-.012c-.04 0-.072-.028-.072-.068zm.556 1.052l-.368.068-.012.828.368-.068z"/><rect width=".13" height="2.876" x="-.065" y="-1.814" fill="currentColor" ry=".04" transform="translate(22.228 5.36)"/><a color="inherit"><path fill="currentColor" d="M23.035 2.816c.22 0 .432.112.432.356 0 .284-.22.484-.408.596a.908.908 0 0 1-.464.136c-.22 0-.432-.112-.432-.356 0-.284.22-.484.408-.596.14-.084.3-.136.464-.136z"/></a><path fill="currentColor" d="M18.627 4.608c0 .04-.032.076-.072.076s-.076-.036-.076-.076v-.58l-.332.124v.632c0 .04-.036.076-.076.076s-.072-.036-.072-.076v-.58l-.128.048c-.008.004-.02.004-.028.004a.08.08 0 0 1-.08-.08v-.24c0-.032.02-.064.052-.076l.184-.064v-.64l-.128.044c-.008.004-.02.004-.028.004a.08.08 0 0 1-.08-.08v-.24c0-.032.02-.06.052-.072l.184-.068v-.632c0-.04.032-.076.072-.076s.076.036.076.076v.58l.332-.124v-.632c0-.04.036-.076.076-.076s.072.036.072.076v.58l.128-.048c.008-.004.02-.004.028-.004a.08.08 0 0 1 .08.08v.24c0 .032-.02.064-.052.076l-.184.064v.64l.128-.044c.008-.004.02-.004.028-.004a.08.08 0 0 1 .08.08v.24c0 .032-.02.06-.052.072l-.184.068v.632zm-.48-1.508v.64l.332-.12v-.64z"/><path fill="currentColor" stroke="currentColor" stroke-linecap="round" stroke-linejoin="round" stroke-width=".08" d="M25.427 6.35v.4l-9.529-.38v-.4z"/><rect width=".13" height="3.241" x="-.065" y="-.241" fill="currentColor" ry=".04" transform="translate(28.888 5.36)"/><a color="inherit"><path fill="currentColor" d="M30.079 4.6a.168.168 0 0 0-.168-.164c-.016 0-.032 0-.048.004-.124.036-.312.16-.46.256s-.336.212-.416.312a.168.168 0 0 0 .128.276c.016 0 .032 0 .048-.004.124-.036.308-.16.456-.256s.336-.212.416-.312a.172.172 0 0 0 .044-.112zm-.208-.284c.184 0 .328.084.328.284a.739.739 0 0 1-.04.228.71.71 0 0 1-.256.376c-.212.144-.452.2-.748.2-.184 0-.332-.084-.332-.284 0-.076.02-.156.044-.228a.703.703 0 0 1 .252-.376c.212-.144.456-.2.752-.2z"/></a><path fill="currentColor" d="M24.295 3.696l-.004.264v.044c0 .088.004.176.016.264.18-.152.372-.32.372-.556 0-.132-.056-.268-.172-.268-.124 0-.208.12-.212.252zm-.168.716l-.048-2.38c.032-.02.072-.032.108-.032s.076.012.108.032l-.028 1.38a.577.577 0 0 1 .364-.136c.208 0 .356.192.356.408 0 .32-.344.468-.588.676-.06.052-.096.152-.18.152-.052 0-.092-.044-.092-.1z"/><a color="inherit"><path fill="currentColor" d="M13.276 1.316c.22 0 .432.112.432.356 0 .284-.22.484-.408.596a.908.908 0 0 1-.464.136c-.22 0-.432-.112-.432-.356 0-.284.22-.484.408-.596.14-.084.3-.136.464-.136z"/></a><rect width=".13" height="3.814" x="-.065" y="-3.814" fill="currentColor" ry=".04" transform="translate(8.765 5.36)"/><path fill="currentColor" d="M6.436 5.252a.301.301 0 0 1-.3-.3c0-.152.108-.308.288-.308.016 0 .036 0 .056.004A.599.599 0 0 0 6 4.412c-.424 0-.452.292-.452.744v.408c0 .452.028.748.452.748.32 0 .556-.28.632-.604.008-.028.028-.04.048-.04.024 0 .052.016.052.048 0 .376-.42.696-.732.696-.272 0-.548-.084-.736-.28C5.068 5.928 5 5.644 5 5.36s.068-.568.264-.772c.188-.196.464-.276.736-.276.348 0 .64.256.7.6.004.02.004.036.004.052 0 .16-.12.288-.268.288zM2.304 5.312c.016 0 .036-.004.052-.004.62 0 1.024.512 1.024 1.044 0 .304-.132.616-.428.84a.905.905 0 0 1-.292.144c.012.14.02.28.02.42 0 .076-.004.156-.008.232-.028.48-.36.912-.832.912a.783.783 0 0 1-.78-.788c0-.232.212-.412.448-.412.216 0 .38.188.38.412 0 .208-.172.38-.38.38a.326.326 0 0 1-.124-.024c.104.156.272.26.468.26.384 0 .628-.368.652-.764a3.775 3.775 0 0 0-.008-.588c-.116.02-.232.032-.356.032-.752 0-1.332-.688-1.332-1.496 0-.708.524-1.224.992-1.764a4.47 4.47 0 0 1-.18-.76 5.429 5.429 0 0 1-.028-.624c0-.46.22-.896.596-1.168a.077.077 0 0 1 .04-.012c.016 0 .028 0 .04.012.284.336.532.98.532 1.432 0 .572-.344 1.02-.72 1.456.084.272.156.552.224.828zm.34 1.86a.71.71 0 0 0 .452-.656.764.764 0 0 0-.692-.76c.096.464.184.924.24 1.416zm-1.548-.924c0 .54.516.988 1.056.988.112 0 .22-.008.328-.024-.056-.508-.148-.98-.252-1.456-.316.032-.496.244-.496.476 0 .176.1.364.324.492.02.02.028.04.028.06 0 .044-.04.088-.088.088-.012 0-.024-.004-.036-.008-.32-.172-.468-.46-.468-.74 0-.352.232-.696.64-.788a15.048 15.048 0 0 0-.184-.7c-.428.484-.852.972-.852 1.612zM2.432 2.18a1.153 1.153 0 0 0-.648 1.036c0 .296.072.532.144.776.32-.388.584-.792.584-1.296 0-.22-.016-.316-.08-.516z"/><a color="inherit"><path fill="currentColor" d="M9.572.816c.22 0 .432.112.432.356 0 .284-.22.484-.408.596a.908.908 0 0 1-.464.136c-.22 0-.432-.112-.432-.356 0-.284.22-.484.408-.596.14-.084.3-.136.464-.136z"/></a><rect width=".13" height="3.127" x="-.065" y="-2.314" fill="currentColor" ry=".04" transform="translate(15.923 5.36)"/><rect width=".13" height="2.759" x="-.065" y="-1.814" fill="currentColor" ry=".04" transform="translate(19.278 5.36)"/><a color="inherit"><path fill="currentColor" d="M20.085 2.816c.22 0 .432.112.432.356 0 .284-.22.484-.408.596a.908.908 0 0 1-.464.136c-.22 0-.432-.112-.432-.356 0-.284.22-.484.408-.596.14-.084.3-.136.464-.136z"/></a><rect width=".13" height="3.314" x="-.065" y="-3.314" fill="currentColor" ry=".04" transform="translate(12.47 5.36)"/><a color="inherit"><path fill="currentColor" d="M16.73 2.316c.22 0 .432.112.432.356 0 .284-.22.484-.408.596a.908.908 0 0 1-.464.136c-.22 0-.432-.112-.432-.356 0-.284.22-.484.408-.596.14-.084.3-.136.464-.136z"/></a><path fill="currentColor" d="M11.362 1.696l-.004.264v.044c0 .088.004.176.016.264.18-.152.372-.32.372-.556 0-.132-.056-.268-.172-.268-.124 0-.208.12-.212.252zm-.168.716l-.048-2.38c.032-.02.072-.032.108-.032s.076.012.108.032l-.028 1.38a.577.577 0 0 1 .364-.136c.208 0 .356.192.356.408 0 .32-.344.468-.588.676-.06.052-.096.152-.18.152-.052 0-.092-.044-.092-.1z"/></svg>