<svg xmlns:xlink="http://www.w3.org/1999/xlink" version="1.2" viewBox="0 0 87.032 127.535"><text fill="currentColor" font-family="serif" font-size="2.2" transform="translate(1.674 2.008)"></text><rect width=".212" height="4" y="-2" fill="currentColor" ry="0" transform="translate(48.55 83.637)"/><rect width=".212" height="4.056" y="-2.056" fill="currentColor" ry="0" transform="translate(40.244 30.055)"/><path stroke="currentColor" stroke-linecap="round" stroke-linejoin="round" stroke-width=".112" d="M21.814 116.653h26.892M21.814 115.653h26.892M21.814 114.653h26.892M21.814 113.653h26.892M21.814 112.653h26.892"/><rect width=".212" height="4.056" y="-2" fill="currentColor" ry="0" transform="translate(40.244 67.124)"/><rect width=".212" height="4.056" y="-2.056" fill="currentColor" ry="0" transform="translate(48.55 75.38)"/><path stroke="currentColor" stroke-linecap="round" stroke-linejoin="round" stroke-width=".112" d="M21.814 110.2h26.892M21.814 109.2h26.892M21.814 108.2h26.892M21.814 107.2h26.892M21.814 106.2h26.892"/><rect width=".212" height="4.112" y="-2.056" fill="currentColor" ry="0" transform="translate(40.244 114.653)"/><rect width=".212" height="4.201" y="66.171" fill="currentColor" ry="0" transform="translate(48.55 3.008)"/><path stroke="currentColor" stroke-linecap="round" stroke-linejoin="round" stroke-width=".112" d="M21.814 102.748h26.892M21.814 101.748h26.892M21.814 100.748h26.892M21.814 99.748h26.892M21.814 98.748h26.892M21.814 94.99h26.892M21.814 93.99h26.892M21.814 92.99h26.892M21.814 91.99h26.892M21.814 90.99h26.892"/><rect width=".212" height="4.056" y="-2" fill="currentColor" ry="0" transform="translate(48.55 92.99)"/><rect width=".212" height="4.056" y="-2" fill="currentColor" ry="0" transform="translate(40.244 22.298)"/><path stroke="currentColor" stroke-linecap="round" stroke-linejoin="round" stroke-width=".112" d="M21.814 85.637h26.892M21.814 84.637h26.892M21.814 83.637h26.892M21.814 82.637h26.892M21.814 81.637h26.892"/><rect width=".212" height="4.112" y="-2.056" fill="currentColor" ry="0" transform="translate(40.244 108.2)"/><rect width=".212" height="4.112" y="-2.056" fill="currentColor" ry="0" transform="translate(48.55 100.748)"/><rect width=".212" height="4.056" y="-2.056" fill="currentColor" ry="0" transform="translate(40.244 75.38)"/><path stroke="currentColor" stroke-linecap="round" stroke-linejoin="round" stroke-width=".112" d="M21.814 77.38h26.892M21.814 76.38h26.892M21.814 75.38h26.892M21.814 74.38h26.892M21.814 73.38h26.892"/><rect width=".212" height="2.112" y="-1.056" fill="currentColor" ry="0" transform="translate(48.55 37.508)"/><rect width=".212" height="4.056" y="-2" fill="currentColor" ry="0" transform="translate(48.55 6.784)"/><rect width=".212" height="4.056" y="-2.056" fill="currentColor" ry="0" transform="translate(40.244 51.414)"/><rect width=".212" height="4.056" y="-2.056" fill="currentColor" ry="0" transform="translate(48.55 14.541)"/><rect width=".212" height="2.397" y="44.008" fill="currentColor" ry="0" transform="translate(40.244 3.008)"/><rect width=".212" height="3.701" y="5.832" fill="currentColor" ry="0" transform="translate(48.55 3.008)"/><rect width=".212" height="4.056" y="-2" fill="currentColor" ry="0" transform="translate(48.55 22.298)"/><rect width=".212" height="4.056" y="-2" fill="currentColor" ry="0" transform="translate(40.244 44.96)"/><rect width=".212" height="4.056" y="-2.056" fill="currentColor" ry="0" transform="translate(48.55 30.055)"/><rect width=".212" height="2.397" y="113.701" fill="currentColor" ry="0" transform="translate(40.244 3.008)"/><rect width=".212" height="2.397" y="107.248" fill="currentColor" ry="0" transform="translate(40.244 3.008)"/><rect width=".212" height="3.397" y="99.795" fill="currentColor" ry="0" transform="translate(40.244 3.008)"/><rect width=".212" height="3.701" y="92.038" fill="currentColor" ry="0" transform="translate(40.244 3.008)"/><rect width=".212" height="3.701" y="21.346" fill="currentColor" ry="0" transform="translate(48.55 3.008)"/><path stroke="currentColor" stroke-linecap="round" stroke-linejoin="round" stroke-width=".112" d="M21.814 8.784h26.892M21.814 7.784h26.892M21.814 6.784h26.892M21.814 5.784h26.892M21.814 4.784h26.892"/><rect width=".212" height="4" y="-2" fill="currentColor" ry="0" transform="translate(40.244 58.867)"/><rect width=".212" height="4.056" y="-2" fill="currentColor" ry="0" transform="translate(48.55 44.96)"/><rect width=".212" height="2.112" y="-1.056" fill="currentColor" ry="0" transform="translate(40.244 37.508)"/><rect width=".212" height="4.056" y="-2.056" fill="currentColor" ry="0" transform="translate(40.244 121.106)"/><rect width=".212" height="4.056" y="-2.056" fill="currentColor" ry="0" transform="translate(48.55 51.414)"/><rect width=".212" height="3.701" y="21.346" fill="currentColor" ry="0" transform="translate(40.244 3.008)"/><rect width=".212" height="2.397" y="44.008" fill="currentColor" ry="0" transform="translate(48.55 3.008)"/><rect width=".212" height="4" y="-2" fill="currentColor" ry="0" transform="translate(48.55 58.867)"/><rect width=".212" height="4.056" y="-2" fill="currentColor" ry="0" transform="translate(48.55 67.124)"/><path stroke="currentColor" stroke-linecap="round" stroke-linejoin="round" stroke-width=".112" d="M21.814 123.106h26.892M21.814 122.106h26.892M21.814 121.106h26.892M21.814 120.106h26.892M21.814 119.106h26.892"/><rect width=".212" height="4.056" y="-2.056" fill="currentColor" ry="0" transform="translate(40.244 14.541)"/><rect width=".212" height="4.201" y="66.171" fill="currentColor" ry="0" transform="translate(40.244 3.008)"/><rect width=".212" height="4.056" y="-2.056" fill="currentColor" ry="0" transform="translate(48.55 121.106)"/><path stroke="currentColor" stroke-linecap="round" stroke-linejoin="round" stroke-width=".112" d="M21.814 53.414h26.892M21.814 52.414h26.892M21.814 51.414h26.892M21.814 50.414h26.892M21.814 49.414h26.892M21.814 46.96h26.892M21.814 45.96h26.892M21.814 44.96h26.892M21.814 43.96h26.892M21.814 42.96h26.892"/><rect width=".212" height="4.112" y="-2.056" fill="currentColor" ry="0" transform="translate(40.244 100.748)"/><rect width=".212" height="4.056" y="-2" fill="currentColor" ry="0" transform="translate(40.244 92.99)"/><path stroke="currentColor" stroke-linecap="round" stroke-linejoin="round" stroke-width=".112" d="M21.814 37.508h26.892M21.814 24.298h26.892M21.814 23.298h26.892M21.814 22.298h26.892M21.814 21.298h26.892M21.814 20.298h26.892"/><rect width=".212" height="2.397" y="113.701" fill="currentColor" ry="0" transform="translate(48.55 3.008)"/><rect width=".212" height="2.397" y="107.248" fill="currentColor" ry="0" transform="translate(48.55 3.008)"/><rect width=".212" height="3.397" y="99.795" fill="currentColor" ry="0" transform="translate(48.55 3.008)"/><rect width=".212" height="3.701" y="92.038" fill="currentColor" ry="0" transform="translate(48.55 3.008)"/><rect width=".212" height="4" y="-2" fill="currentColor" ry="0" transform="translate(40.244 83.637)"/><rect width=".212" height="4.056" y="-2" fill="currentColor" ry="0" transform="translate(40.244 6.784)"/><path stroke="currentColor" stroke-linecap="round" stroke-linejoin="round" stroke-width=".112" d="M21.814 32.055h26.892M21.814 31.055h26.892M21.814 30.055h26.892M21.814 29.055h26.892M21.814 28.055h26.892"/><rect width="2.918" height=".212" x="40.346" y="-.106" fill="currentColor" ry=".106" transform="translate(1.674 55.867)"/><rect width=".212" height="3.701" y="5.832" fill="currentColor" ry="0" transform="translate(40.244 3.008)"/><rect width=".212" height="3.701" y="92.038" fill="currentColor" ry="0" transform="translate(48.55 3.008)"/><rect width=".212" height="4.112" y="-2.056" fill="currentColor" ry="0" transform="translate(48.55 108.2)"/><path stroke="currentColor" stroke-linecap="round" stroke-linejoin="round" stroke-width=".112" d="M21.814 69.124h26.892M21.814 68.124h26.892M21.814 67.124h26.892M21.814 66.124h26.892M21.814 65.124h26.892"/><rect width=".212" height="4.112" y="-2.056" fill="currentColor" ry="0" transform="translate(48.55 114.653)"/><path stroke="currentColor" stroke-linecap="round" stroke-linejoin="round" stroke-width=".112" d="M21.814 16.541h26.892M21.814 15.541h26.892M21.814 14.541h26.892M21.814 13.541h26.892M21.814 12.541h26.892M21.814 60.867h26.892M21.814 59.867h26.892M21.814 58.867h26.892M21.814 57.867h26.892M21.814 56.867h26.892"/><rect width=".212" height="3.701" y="92.038" fill="currentColor" ry="0" transform="translate(40.244 3.008)"/><a color="inherit"><path fill="currentColor" d="M43.35 115.21c-.196 0-.272.171-.272.351 0 .3.228.536.528.536.196 0 .272-.171.272-.351 0-.3-.228-.537-.528-.537zm1.1.443c0 .172-.132.304-.284.388-.208.117-.448.16-.688.16s-.48-.043-.688-.16c-.152-.083-.284-.215-.284-.387s.132-.305.284-.389c.208-.116.448-.16.688-.16s.48.044.688.16c.152.084.284.216.284.388z"/></a><path fill="currentColor" d="M41.924 25.042c0 .044-.032.076-.076.076s-.08-.032-.08-.076v-.568l-.324.12v.624c0 .044-.036.08-.08.08s-.076-.036-.076-.08v-.568l-.112.044c-.012.004-.02.004-.032.004a.09.09 0 0 1-.088-.092v-.228a.09.09 0 0 1 .06-.084l.172-.064v-.628l-.112.04c-.012.004-.02.004-.032.004a.086.086 0 0 1-.088-.088v-.228a.09.09 0 0 1 .06-.084l.172-.064v-.628c0-.044.032-.076.076-.076s.08.032.08.076v.568l.324-.12v-.624c0-.044.036-.08.08-.08s.076.036.076.08v.568l.112-.044c.012-.004.02-.004.032-.004a.09.09 0 0 1 .088.092v.228a.09.09 0 0 1-.06.084l-.172.064v.628l.112-.04c.012-.004.02-.004.032-.004.048 0 .088.036.088.088v.228a.09.09 0 0 1-.06.084l-.172.064v.628zm-.48-1.5v.632l.324-.12v-.632z"/><a color="inherit"><path fill="currentColor" d="M43.35 121.662c-.196 0-.272.172-.272.352 0 .3.228.536.528.536.196 0 .272-.172.272-.352 0-.3-.228-.536-.528-.536zm1.1.444c0 .172-.132.304-.284.388-.208.116-.448.16-.688.16s-.48-.044-.688-.16c-.152-.084-.284-.216-.284-.388s.132-.304.284-.388c.208-.116.448-.16.688-.16s.48.044.688.16c.152.084.284.216.284.388z"/></a><a color="inherit"><rect width=".66" height=".145" y="-.565" fill="currentColor" ry=".045" transform="translate(39.176 63.27)"/></a><a color="inherit"><rect width=".66" height=".145" y="-.565" fill="currentColor" ry=".045" transform="translate(39.176 71.527)"/></a><a color="inherit"><rect width=".66" height=".145" y="-.565" fill="currentColor" ry=".045" transform="translate(39.076 79.824)"/></a><a color="inherit"><rect width=".66" height=".145" y="-.565" fill="currentColor" ry=".045" transform="translate(39.176 88.04)"/></a><path fill="currentColor" d="M31.94 37.392a.293.293 0 0 1-.296-.292c0-.152.108-.304.284-.304.016 0 .028 0 .044.004a.58.58 0 0 0-.464-.236c-.424 0-.452.296-.452.752 0 .06.004.124.004.192s-.004.132-.004.192c0 .456.028.752.452.752.316 0 .544-.28.62-.6.008-.028.028-.04.052-.04.028 0 .056.02.056.052 0 .38-.42.7-.728.7-.272 0-.548-.08-.736-.28-.196-.204-.264-.492-.264-.776s.068-.572.264-.776c.188-.2.464-.28.736-.28.344 0 .632.264.692.608a.228.228 0 0 1 .004.052c0 .156-.12.28-.264.28z"/><a color="inherit"><path fill="currentColor" d="M35.044 67.68c-.196 0-.272.172-.272.352 0 .3.228.536.528.536.196 0 .272-.172.272-.352 0-.3-.228-.536-.528-.536zm1.1.444c0 .172-.132.304-.284.388-.208.116-.448.16-.688.16s-.48-.044-.688-.16c-.152-.084-.284-.216-.284-.388s.132-.304.284-.388c.208-.116.448-.16.688-.16s.48.044.688.16c.152.084.284.216.284.388z"/></a><a color="inherit"><text fill="currentColor" font-family="serif" font-size="2.469" transform="translate(33.104 63.27)"><tspan> Lyr</tspan></text></a><path fill="currentColor" d="M31.94 58.75a.293.293 0 0 1-.296-.291c0-.152.108-.304.284-.304.016 0 .028 0 .044.004a.58.58 0 0 0-.464-.236c-.424 0-.452.296-.452.752 0 .06.004.124.004.192s-.004.132-.004.192c0 .456.028.752.452.752.316 0 .544-.28.62-.6.008-.028.028-.04.052-.04.028 0 .056.02.056.052 0 .38-.42.7-.728.7-.272 0-.548-.08-.736-.28-.196-.204-.264-.492-.264-.776s.068-.572.264-.776c.188-.2.464-.28.736-.28.344 0 .632.264.692.608a.228.228 0 0 1 .004.052c0 .156-.12.28-.264.28z"/><a color="inherit"><path fill="currentColor" d="M26.926 58.11c0 .045-.032.077-.076.077s-.08-.032-.08-.076v-.568l-.324.12v.624c0 .044-.036.08-.08.08s-.076-.036-.076-.08v-.568l-.112.044c-.012.004-.02.004-.032.004a.09.09 0 0 1-.088-.092v-.228a.09.09 0 0 1 .06-.084l.172-.064v-.628l-.112.04c-.012.004-.02.004-.032.004a.086.086 0 0 1-.088-.088v-.228a.09.09 0 0 1 .06-.084l.172-.064v-.628c0-.044.032-.076.076-.076s.08.032.08.076v.568l.324-.12v-.624c0-.044.036-.08.08-.08s.076.036.076.08v.568l.112-.044c.012-.004.02-.004.032-.004a.09.09 0 0 1 .088.092v.228a.09.09 0 0 1-.06.084l-.172.064v.628l.112-.04c.012-.004.02-.004.032-.004.048 0 .088.036.088.088v.228a.09.09 0 0 1-.06.084l-.172.064v.628zm-.48-1.5v.633l.324-.12v-.632z"/></a><path fill="currentColor" d="M24.07 58.815c.016 0 .028-.004.044-.004.624 0 1.028.516 1.028 1.048 0 .304-.136.616-.432.84a.896.896 0 0 1-.288.148c.012.136.016.272.016.408 0 .08 0 .16-.004.24-.028.484-.36.912-.836.912a.783.783 0 0 1-.784-.784c0-.232.212-.416.448-.416.216 0 .38.192.38.416 0 .208-.172.38-.38.38a.287.287 0 0 1-.116-.024.562.562 0 0 0 .464.252c.38 0 .624-.364.648-.76.004-.076.008-.148.008-.224 0-.12-.008-.24-.016-.36-.116.02-.232.032-.352.032-.752 0-1.332-.692-1.332-1.5 0-.708.52-1.228.984-1.768-.08-.248-.152-.5-.184-.76a5.458 5.458 0 0 1-.028-.628c0-.46.22-.892.592-1.16.012-.008.028-.012.044-.012s.032.004.044.016c.284.332.536.976.536 1.428 0 .572-.34 1.02-.712 1.456.084.272.16.548.228.824zm.336 1.86a.702.702 0 0 0 .444-.648.765.765 0 0 0-.68-.76c.096.46.184.92.236 1.408zm-1.548-.912c0 .536.516.98 1.052.98.112 0 .22-.008.324-.024a15.052 15.052 0 0 0-.244-1.452c-.316.032-.496.244-.496.476 0 .172.1.356.32.484.02.02.028.044.028.064 0 .048-.04.092-.088.092-.012 0-.024-.004-.036-.008-.324-.172-.472-.464-.472-.744 0-.356.232-.7.644-.792a13.54 13.54 0 0 0-.184-.692c-.424.488-.848.976-.848 1.616zm1.324-4.064a1.141 1.141 0 0 0-.648 1.028c0 .292.08.528.152.764.316-.388.576-.796.576-1.296a1.28 1.28 0 0 0-.08-.496z"/><a color="inherit"><path fill="currentColor" d="M35.044 55.923c-.196 0-.272.172-.272.352 0 .3.228.536.528.536.196 0 .272-.172.272-.352 0-.3-.228-.536-.528-.536zm1.1.444c0 .172-.132.304-.284.388-.208.116-.448.16-.688.16s-.48-.044-.688-.16c-.152-.084-.284-.216-.284-.388s.132-.304.284-.388c.208-.116.448-.16.688-.16s.48.044.688.16c.152.084.284.216.284.388z"/></a><path fill="currentColor" d="M31.94 51.298a.293.293 0 0 1-.296-.292c0-.152.108-.304.284-.304.016 0 .028 0 .044.004a.58.58 0 0 0-.464-.236c-.424 0-.452.296-.452.752 0 .06.004.124.004.192s-.004.132-.004.192c0 .456.028.752.452.752.316 0 .544-.28.62-.6.008-.028.028-.04.052-.04.028 0 .056.02.056.052 0 .38-.42.7-.728.7-.272 0-.548-.08-.736-.28-.196-.204-.264-.492-.264-.776s.068-.572.264-.776c.188-.2.464-.28.736-.28.344 0 .632.264.692.608a.228.228 0 0 1 .004.052c0 .156-.12.28-.264.28z"/><a color="inherit"><path fill="currentColor" d="M26.926 51.658c0 .044-.032.076-.076.076s-.08-.032-.08-.076v-.568l-.324.12v.624c0 .044-.036.08-.08.08s-.076-.036-.076-.08v-.568l-.112.044c-.012.004-.02.004-.032.004a.09.09 0 0 1-.088-.092v-.228a.09.09 0 0 1 .06-.084l.172-.064v-.628l-.112.04c-.012.004-.02.004-.032.004a.086.086 0 0 1-.088-.088v-.228a.09.09 0 0 1 .06-.084l.172-.064v-.628c0-.044.032-.076.076-.076s.08.032.08.076v.568l.324-.12v-.624c0-.044.036-.08.08-.08s.076.036.076.08v.568l.112-.044c.012-.004.02-.004.032-.004a.09.09 0 0 1 .088.092v.228a.09.09 0 0 1-.06.084l-.172.064v.628l.112-.04c.012-.004.02-.004.032-.004.048 0 .088.036.088.088v.228a.09.09 0 0 1-.06.084l-.172.064v.628zm-.48-1.5v.632l.324-.12v-.632z"/></a><path fill="currentColor" d="M24.79 50.914c0-.112.088-.204.2-.204s.204.092.204.204-.092.204-.204.204-.2-.092-.2-.204zm0-1c0-.112.088-.204.2-.204s.204.092.204.204-.092.204-.204.204-.2-.092-.2-.204zm-1.308-.556c.688 0 1.176.352 1.176 1.004 0 1.052-1.048 1.664-2.06 2.092a.057.057 0 0 1-.04.016.06.06 0 0 1-.056-.056c0-.012.004-.028.016-.04.804-.472 1.64-1.06 1.64-1.968 0-.476-.244-.936-.676-.936-.288 0-.496.212-.592.492a.301.301 0 0 1 .116-.024c.22 0 .4.18.4.4 0 .232-.176.424-.4.424-.24 0-.448-.188-.448-.424 0-.532.404-.98.924-.98z"/><a color="inherit"><path fill="currentColor" d="M35.044 52.97c-.196 0-.272.172-.272.352 0 .3.228.536.528.536.196 0 .272-.172.272-.352 0-.3-.228-.536-.528-.536zm1.1.444c0 .172-.132.304-.284.388-.208.116-.448.16-.688.16s-.48-.044-.688-.16c-.152-.084-.284-.216-.284-.388s.132-.304.284-.388c.208-.116.448-.16.688-.16s.48.044.688.16c.152.084.284.216.284.388z"/></a><path fill="currentColor" d="M31.94 44.845a.293.293 0 0 1-.296-.292c0-.152.108-.304.284-.304.016 0 .028 0 .044.004a.58.58 0 0 0-.464-.236c-.424 0-.452.296-.452.752 0 .06.004.124.004.192s-.004.132-.004.192c0 .456.028.752.452.752.316 0 .544-.28.62-.6.008-.028.028-.04.052-.04.028 0 .056.02.056.052 0 .38-.42.7-.728.7-.272 0-.548-.08-.736-.28-.196-.204-.264-.492-.264-.776s.068-.572.264-.776c.188-.2.464-.28.736-.28.344 0 .632.264.692.608a.228.228 0 0 1 .004.052c0 .156-.12.28-.264.28z"/><a color="inherit"><path fill="currentColor" d="M26.926 44.205c0 .044-.032.076-.076.076s-.08-.032-.08-.076v-.568l-.324.12v.624c0 .044-.036.08-.08.08s-.076-.036-.076-.08v-.568l-.112.044c-.012.004-.02.004-.032.004a.09.09 0 0 1-.088-.092v-.228a.09.09 0 0 1 .06-.084l.172-.064v-.628l-.112.04c-.012.004-.02.004-.032.004a.086.086 0 0 1-.088-.088v-.228a.09.09 0 0 1 .06-.084l.172-.064v-.628c0-.044.032-.076.076-.076s.08.032.08.076v.568l.324-.12v-.624c0-.044.036-.08.08-.08s.076.036.076.08v.568l.112-.044c.012-.004.02-.004.032-.004a.09.09 0 0 1 .088.092v.228a.09.09 0 0 1-.06.084l-.172.064v.628l.112-.04c.012-.004.02-.004.032-.004.048 0 .088.036.088.088v.228a.09.09 0 0 1-.06.084l-.172.064v.628zm-.48-1.5v.632l.324-.12v-.632z"/></a><path fill="currentColor" d="M24.07 44.909c.016 0 .028-.004.044-.004.624 0 1.028.516 1.028 1.048 0 .304-.136.616-.432.84a.896.896 0 0 1-.288.148c.012.136.016.272.016.408 0 .08 0 .16-.004.24-.028.484-.36.912-.836.912a.783.783 0 0 1-.784-.784c0-.232.212-.416.448-.416.216 0 .38.192.38.416 0 .208-.172.38-.38.38a.287.287 0 0 1-.116-.024.562.562 0 0 0 .464.252c.38 0 .624-.364.648-.76.004-.076.008-.148.008-.224 0-.12-.008-.24-.016-.36-.116.02-.232.032-.352.032-.752 0-1.332-.692-1.332-1.5 0-.708.52-1.228.984-1.768-.08-.248-.152-.5-.184-.76a5.458 5.458 0 0 1-.028-.628c0-.46.22-.892.592-1.16.012-.008.028-.012.044-.012s.032.004.044.016c.284.332.536.976.536 1.428 0 .572-.34 1.02-.712 1.456.084.272.16.548.228.824zm.336 1.86a.702.702 0 0 0 .444-.648.765.765 0 0 0-.68-.76c.096.46.184.92.236 1.408zm-1.548-.912c0 .536.516.98 1.052.98.112 0 .22-.008.324-.024a15.052 15.052 0 0 0-.244-1.452c-.316.032-.496.244-.496.476 0 .172.1.356.32.484.02.02.028.044.028.064 0 .048-.04.092-.088.092-.012 0-.024-.004-.036-.008-.324-.172-.472-.464-.472-.744 0-.356.232-.7.644-.792a13.54 13.54 0 0 0-.184-.692c-.424.488-.848.976-.848 1.616zm1.324-4.064a1.141 1.141 0 0 0-.648 1.028c0 .292.08.528.152.764.316-.388.576-.796.576-1.296a1.28 1.28 0 0 0-.08-.496z"/><a color="inherit"><path fill="currentColor" d="M35.044 45.517c-.196 0-.272.172-.272.352 0 .3.228.536.528.536.196 0 .272-.172.272-.352 0-.3-.228-.536-.528-.536zm1.1.444c0 .172-.132.304-.284.388-.208.116-.448.16-.688.16s-.48-.044-.688-.16c-.152-.084-.284-.216-.284-.388s.132-.304.284-.388c.208-.116.448-.16.688-.16s.48.044.688.16c.152.084.284.216.284.388z"/></a><path fill="currentColor" d="M24.07 67.072c.016 0 .028-.004.044-.004.624 0 1.028.516 1.028 1.048 0 .304-.136.616-.432.84a.896.896 0 0 1-.288.148c.012.136.016.272.016.408 0 .08 0 .16-.004.24-.028.484-.36.912-.836.912a.783.783 0 0 1-.784-.784c0-.232.212-.416.448-.416.216 0 .38.192.38.416 0 .208-.172.38-.38.38a.287.287 0 0 1-.116-.024.562.562 0 0 0 .464.252c.38 0 .624-.364.648-.76.004-.076.008-.148.008-.224 0-.12-.008-.24-.016-.36-.116.02-.232.032-.352.032-.752 0-1.332-.692-1.332-1.5 0-.708.52-1.228.984-1.768-.08-.248-.152-.5-.184-.76a5.458 5.458 0 0 1-.028-.628c0-.46.22-.892.592-1.16.012-.008.028-.012.044-.012s.032.004.044.016c.284.332.536.976.536 1.428 0 .572-.34 1.02-.712 1.456.084.272.16.548.228.824zm.336 1.86a.702.702 0 0 0 .444-.648.765.765 0 0 0-.68-.76c.096.46.184.92.236 1.408zm-1.548-.912c0 .536.516.98 1.052.98.112 0 .22-.008.324-.024a15.052 15.052 0 0 0-.244-1.452c-.316.032-.496.244-.496.476 0 .172.1.356.32.484.02.02.028.044.028.064 0 .048-.04.092-.088.092-.012 0-.024-.004-.036-.008-.324-.172-.472-.464-.472-.744 0-.356.232-.7.644-.792a13.54 13.54 0 0 0-.184-.692c-.424.488-.848.976-.848 1.616zm1.324-4.064a1.141 1.141 0 0 0-.648 1.028c0 .292.08.528.152.764.316-.388.576-.796.576-1.296a1.28 1.28 0 0 0-.08-.496z"/><a color="inherit"><path fill="currentColor" d="M35.044 37.064c-.196 0-.272.172-.272.352 0 .3.228.536.528.536.196 0 .272-.172.272-.352 0-.3-.228-.536-.528-.536zm1.1.444c0 .172-.132.304-.284.388-.208.116-.448.16-.688.16s-.48-.044-.688-.16c-.152-.084-.284-.216-.284-.388s.132-.304.284-.388c.208-.116.448-.16.688-.16s.48.044.688.16c.152.084.284.216.284.388z"/></a><path fill="currentColor" d="M31.94 29.94a.293.293 0 0 1-.296-.293c0-.152.108-.304.284-.304.016 0 .028 0 .044.004a.58.58 0 0 0-.464-.236c-.424 0-.452.296-.452.752 0 .06.004.124.004.192s-.004.132-.004.192c0 .456.028.752.452.752.316 0 .544-.28.62-.6.008-.028.028-.04.052-.04.028 0 .056.02.056.052 0 .38-.42.7-.728.7-.272 0-.548-.08-.736-.28-.196-.204-.264-.492-.264-.776s.068-.572.264-.776c.188-.2.464-.28.736-.28.344 0 .632.264.692.608a.228.228 0 0 1 .004.052c0 .156-.12.28-.264.28z"/><a color="inherit"><path fill="currentColor" d="M26.926 29.3c0 .043-.032.075-.076.075s-.08-.032-.08-.076v-.568l-.324.12v.624c0 .044-.036.08-.08.08s-.076-.036-.076-.08v-.568l-.112.044c-.012.004-.02.004-.032.004a.09.09 0 0 1-.088-.092v-.228a.09.09 0 0 1 .06-.084l.172-.064v-.628l-.112.04c-.012.004-.02.004-.032.004a.086.086 0 0 1-.088-.088v-.228a.09.09 0 0 1 .06-.084l.172-.064v-.628c0-.044.032-.076.076-.076s.08.032.08.076v.568l.324-.12v-.624c0-.044.036-.08.08-.08s.076.036.076.08v.568l.112-.044c.012-.004.02-.004.032-.004a.09.09 0 0 1 .088.092v.228a.09.09 0 0 1-.06.084l-.172.064v.628l.112-.04c.012-.004.02-.004.032-.004.048 0 .088.036.088.088v.228a.09.09 0 0 1-.06.084l-.172.064v.628zm-.48-1.5v.631l.324-.12v-.632z"/></a><path fill="currentColor" d="M24.07 30.003c.016 0 .028-.004.044-.004.624 0 1.028.516 1.028 1.048 0 .304-.136.616-.432.84a.896.896 0 0 1-.288.148c.012.136.016.272.016.408 0 .08 0 .16-.004.24-.028.484-.36.912-.836.912a.783.783 0 0 1-.784-.784c0-.232.212-.416.448-.416.216 0 .38.192.38.416 0 .208-.172.38-.38.38a.287.287 0 0 1-.116-.024.562.562 0 0 0 .464.252c.38 0 .624-.364.648-.76.004-.076.008-.148.008-.224 0-.12-.008-.24-.016-.36-.116.02-.232.032-.352.032-.752 0-1.332-.692-1.332-1.5 0-.708.52-1.228.984-1.768-.08-.248-.152-.5-.184-.76a5.458 5.458 0 0 1-.028-.628c0-.46.22-.892.592-1.16.012-.008.028-.012.044-.012s.032.004.044.016c.284.332.536.976.536 1.428 0 .572-.34 1.02-.712 1.456.084.272.16.548.228.824zm.336 1.86a.702.702 0 0 0 .444-.648.765.765 0 0 0-.68-.76c.096.46.184.92.236 1.408zm-1.548-.912c0 .536.516.98 1.052.98.112 0 .22-.008.324-.024a15.052 15.052 0 0 0-.244-1.452c-.316.032-.496.244-.496.476 0 .172.1.356.32.484.02.02.028.044.028.064 0 .048-.04.092-.088.092-.012 0-.024-.004-.036-.008-.324-.172-.472-.464-.472-.744 0-.356.232-.7.644-.792a13.54 13.54 0 0 0-.184-.692c-.424.488-.848.976-.848 1.616zm1.324-4.064a1.141 1.141 0 0 0-.648 1.028c0 .292.08.528.152.764.316-.388.576-.796.576-1.296a1.28 1.28 0 0 0-.08-.496z"/><a color="inherit"><path fill="currentColor" d="M35.044 30.611c-.196 0-.272.172-.272.352 0 .3.228.536.528.536.196 0 .272-.172.272-.352 0-.3-.228-.536-.528-.536zm1.1.444c0 .172-.132.304-.284.388-.208.116-.448.16-.688.16s-.48-.044-.688-.16c-.152-.084-.284-.216-.284-.388s.132-.304.284-.388c.208-.116.448-.16.688-.16s.48.044.688.16c.152.084.284.216.284.388z"/></a><path fill="currentColor" d="M31.94 22.182a.293.293 0 0 1-.296-.292c0-.152.108-.304.284-.304.016 0 .028 0 .044.004a.58.58 0 0 0-.464-.236c-.424 0-.452.296-.452.752 0 .06.004.124.004.192s-.004.132-.004.192c0 .456.028.752.452.752.316 0 .544-.28.62-.6.008-.028.028-.04.052-.04.028 0 .056.02.056.052 0 .38-.42.7-.728.7-.272 0-.548-.08-.736-.28-.196-.204-.264-.492-.264-.776s.068-.572.264-.776c.188-.2.464-.28.736-.28.344 0 .632.264.692.608a.228.228 0 0 1 .004.052c0 .156-.12.28-.264.28zM24.07 22.246c.016 0 .028-.004.044-.004.624 0 1.028.516 1.028 1.048 0 .304-.136.616-.432.84a.896.896 0 0 1-.288.148c.012.136.016.272.016.408 0 .08 0 .16-.004.24-.028.484-.36.912-.836.912a.783.783 0 0 1-.784-.784c0-.232.212-.416.448-.416.216 0 .38.192.38.416 0 .208-.172.38-.38.38a.287.287 0 0 1-.116-.024.562.562 0 0 0 .464.252c.38 0 .624-.364.648-.76.004-.076.008-.148.008-.224 0-.12-.008-.24-.016-.36-.116.02-.232.032-.352.032-.752 0-1.332-.692-1.332-1.5 0-.708.52-1.228.984-1.768-.08-.248-.152-.5-.184-.76a5.458 5.458 0 0 1-.028-.628c0-.46.22-.892.592-1.16.012-.008.028-.012.044-.012s.032.004.044.016c.284.332.536.976.536 1.428 0 .572-.34 1.02-.712 1.456.084.272.16.548.228.824zm.336 1.86a.702.702 0 0 0 .444-.648.765.765 0 0 0-.68-.76c.096.46.184.92.236 1.408zm-1.548-.912c0 .536.516.98 1.052.98.112 0 .22-.008.324-.024a15.052 15.052 0 0 0-.244-1.452c-.316.032-.496.244-.496.476 0 .172.1.356.32.484.02.02.028.044.028.064 0 .048-.04.092-.088.092-.012 0-.024-.004-.036-.008-.324-.172-.472-.464-.472-.744 0-.356.232-.7.644-.792a13.54 13.54 0 0 0-.184-.692c-.424.488-.848.976-.848 1.616zm1.324-4.064a1.141 1.141 0 0 0-.648 1.028c0 .292.08.528.152.764.316-.388.576-.796.576-1.296a1.28 1.28 0 0 0-.08-.496z"/><a color="inherit"><path fill="currentColor" d="M35.044 24.354c-.196 0-.272.172-.272.352 0 .3.228.536.528.536.196 0 .272-.172.272-.352 0-.3-.228-.536-.528-.536zm1.1.444c0 .172-.132.304-.284.388-.208.116-.448.16-.688.16s-.48-.044-.688-.16c-.152-.084-.284-.216-.284-.388s.132-.304.284-.388c.208-.116.448-.16.688-.16s.48.044.688.16c.152.084.284.216.284.388z"/></a><path fill="currentColor" d="M31.94 14.425a.293.293 0 0 1-.296-.292c0-.152.108-.304.284-.304.016 0 .028 0 .044.004a.58.58 0 0 0-.464-.236c-.424 0-.452.296-.452.752 0 .06.004.124.004.192s-.004.132-.004.192c0 .456.028.752.452.752.316 0 .544-.28.62-.6.008-.028.028-.04.052-.04.028 0 .056.02.056.052 0 .38-.42.7-.728.7-.272 0-.548-.08-.736-.28-.196-.204-.264-.492-.264-.776s.068-.572.264-.776c.188-.2.464-.28.736-.28.344 0 .632.264.692.608a.228.228 0 0 1 .004.052c0 .156-.12.28-.264.28z"/><a color="inherit"><path fill="currentColor" d="M26.926 13.785c0 .044-.032.076-.076.076s-.08-.032-.08-.076v-.568l-.324.12v.624c0 .044-.036.08-.08.08s-.076-.036-.076-.08v-.568l-.112.044c-.012.004-.02.004-.032.004a.09.09 0 0 1-.088-.092v-.228a.09.09 0 0 1 .06-.084l.172-.064v-.628l-.112.04c-.012.004-.02.004-.032.004a.086.086 0 0 1-.088-.088v-.228a.09.09 0 0 1 .06-.084l.172-.064v-.628c0-.044.032-.076.076-.076s.08.032.08.076v.568l.324-.12v-.624c0-.044.036-.08.08-.08s.076.036.076.08v.568l.112-.044c.012-.004.02-.004.032-.004a.09.09 0 0 1 .088.092v.228a.09.09 0 0 1-.06.084l-.172.064v.628l.112-.04c.012-.004.02-.004.032-.004.048 0 .088.036.088.088v.228a.09.09 0 0 1-.06.084l-.172.064v.628zm-.48-1.5v.632l.324-.12v-.632zM28.026 15.285c0 .044-.032.076-.076.076s-.08-.032-.08-.076v-.568l-.324.12v.624c0 .044-.036.08-.08.08s-.076-.036-.076-.08v-.568l-.112.044c-.012.004-.02.004-.032.004a.09.09 0 0 1-.088-.092v-.228a.09.09 0 0 1 .06-.084l.172-.064v-.628l-.112.04c-.012.004-.02.004-.032.004a.086.086 0 0 1-.088-.088v-.228a.09.09 0 0 1 .06-.084l.172-.064v-.628c0-.044.032-.076.076-.076s.08.032.08.076v.568l.324-.12v-.624c0-.044.036-.08.08-.08s.076.036.076.08v.568l.112-.044c.012-.004.02-.004.032-.004a.09.09 0 0 1 .088.092v.228a.09.09 0 0 1-.06.084l-.172.064v.628l.112-.04c.012-.004.02-.004.032-.004.048 0 .088.036.088.088v.228a.09.09 0 0 1-.06.084l-.172.064v.628zm-.48-1.5v.632l.324-.12v-.632zM29.126 13.285c0 .044-.032.076-.076.076s-.08-.032-.08-.076v-.568l-.324.12v.624c0 .044-.036.08-.08.08s-.076-.036-.076-.08v-.568l-.112.044c-.012.004-.02.004-.032.004a.09.09 0 0 1-.088-.092v-.228a.09.09 0 0 1 .06-.084l.172-.064v-.628l-.112.04c-.012.004-.02.004-.032.004a.086.086 0 0 1-.088-.088v-.228a.09.09 0 0 1 .06-.084l.172-.064v-.628c0-.044.032-.076.076-.076s.08.032.08.076v.568l.324-.12v-.624c0-.044.036-.08.08-.08s.076.036.076.08v.568l.112-.044c.012-.004.02-.004.032-.004a.09.09 0 0 1 .088.092v.228a.09.09 0 0 1-.06.084l-.172.064v.628l.112-.04c.012-.004.02-.004.032-.004.048 0 .088.036.088.088v.228a.09.09 0 0 1-.06.084l-.172.064v.628zm-.48-1.5v.632l.324-.12v-.632z"/></a><path fill="currentColor" d="M24.07 14.49c.016 0 .028-.005.044-.005.624 0 1.028.516 1.028 1.048 0 .304-.136.616-.432.84a.896.896 0 0 1-.288.148c.012.136.016.272.016.408 0 .08 0 .16-.004.24-.028.484-.36.912-.836.912a.783.783 0 0 1-.784-.784c0-.232.212-.416.448-.416.216 0 .38.192.38.416 0 .208-.172.38-.38.38a.287.287 0 0 1-.116-.024.562.562 0 0 0 .464.252c.38 0 .624-.364.648-.76.004-.076.008-.148.008-.224 0-.12-.008-.24-.016-.36-.116.02-.232.032-.352.032-.752 0-1.332-.692-1.332-1.5 0-.708.52-1.228.984-1.768-.08-.248-.152-.5-.184-.76a5.458 5.458 0 0 1-.028-.628c0-.46.22-.892.592-1.16.012-.008.028-.012.044-.012s.032.004.044.016c.284.332.536.976.536 1.428 0 .572-.34 1.02-.712 1.456.084.272.16.548.228.824zm.336 1.86a.702.702 0 0 0 .444-.649.765.765 0 0 0-.68-.76c.096.46.184.92.236 1.408zm-1.548-.913c0 .536.516.98 1.052.98.112 0 .22-.008.324-.024a15.052 15.052 0 0 0-.244-1.452c-.316.032-.496.244-.496.476 0 .172.1.356.32.484.02.02.028.044.028.064 0 .048-.04.092-.088.092-.012 0-.024-.004-.036-.008-.324-.172-.472-.464-.472-.744 0-.356.232-.7.644-.792a13.54 13.54 0 0 0-.184-.692c-.424.488-.848.976-.848 1.616zm1.324-4.064a1.141 1.141 0 0 0-.648 1.028c0 .292.08.528.152.764.316-.388.576-.796.576-1.296a1.28 1.28 0 0 0-.08-.496z"/><a color="inherit"><path fill="currentColor" d="M35.044 14.597c-.196 0-.272.172-.272.352 0 .3.228.536.528.536.196 0 .272-.172.272-.352 0-.3-.228-.536-.528-.536zm1.1.444c0 .172-.132.304-.284.388-.208.116-.448.16-.688.16s-.48-.044-.688-.16c-.152-.084-.284-.216-.284-.388s.132-.304.284-.388c.208-.116.448-.16.688-.16s.48.044.688.16c.152.084.284.216.284.388z"/></a><path fill="currentColor" d="M31.94 6.668a.293.293 0 0 1-.296-.292c0-.152.108-.304.284-.304.016 0 .028 0 .044.004a.58.58 0 0 0-.464-.236c-.424 0-.452.296-.452.752 0 .06.004.124.004.192s-.004.132-.004.192c0 .456.028.752.452.752.316 0 .544-.28.62-.6.008-.028.028-.04.052-.04.028 0 .056.02.056.052 0 .38-.42.7-.728.7-.272 0-.548-.08-.736-.28-.196-.204-.264-.492-.264-.776s.068-.572.264-.776c.188-.2.464-.28.736-.28.344 0 .632.264.692.608a.228.228 0 0 1 .004.052c0 .156-.12.28-.264.28z"/><a color="inherit"><text fill="currentColor" font-family="serif" font-size="2.469" transform="translate(33.104 88.04)"><tspan> Lyr</tspan></text></a><a color="inherit"><path fill="currentColor" d="M43.35 108.257c-.196 0-.272.172-.272.352 0 .3.228.536.528.536.196 0 .272-.172.272-.352 0-.3-.228-.536-.528-.536zm1.1.444c0 .172-.132.304-.284.388-.208.116-.448.16-.688.16s-.48-.044-.688-.16c-.152-.084-.284-.216-.284-.388s.132-.304.284-.388c.208-.116.448-.16.688-.16s.48.044.688.16c.152.084.284.216.284.388z"/></a><path fill="currentColor" d="M31.94 108.085a.293.293 0 0 1-.296-.292c0-.152.108-.304.284-.304.016 0 .028 0 .044.004a.58.58 0 0 0-.464-.236c-.424 0-.452.296-.452.752 0 .06.004.124.004.192s-.004.132-.004.192c0 .456.028.752.452.752.316 0 .544-.28.62-.6.008-.028.028-.04.052-.04.028 0 .056.02.056.052 0 .38-.42.7-.728.7-.272 0-.548-.08-.736-.28-.196-.204-.264-.492-.264-.776s.068-.572.264-.776c.188-.2.464-.28.736-.28.344 0 .632.264.692.608a.228.228 0 0 1 .004.052c0 .156-.12.28-.264.28z"/><a color="inherit"><path fill="currentColor" d="M26.926 107.945c0 .044-.032.076-.076.076s-.08-.032-.08-.076v-.568l-.324.12v.624c0 .044-.036.08-.08.08s-.076-.036-.076-.08v-.568l-.112.044c-.012.004-.02.004-.032.004a.09.09 0 0 1-.088-.092v-.228a.09.09 0 0 1 .06-.084l.172-.064v-.628l-.112.04c-.012.004-.02.004-.032.004a.086.086 0 0 1-.088-.088v-.228a.09.09 0 0 1 .06-.084l.172-.064v-.628c0-.044.032-.076.076-.076s.08.032.08.076v.568l.324-.12v-.624c0-.044.036-.08.08-.08s.076.036.076.08v.568l.112-.044c.012-.004.02-.004.032-.004a.09.09 0 0 1 .088.092v.228a.09.09 0 0 1-.06.084l-.172.064v.628l.112-.04c.012-.004.02-.004.032-.004.048 0 .088.036.088.088v.228a.09.09 0 0 1-.06.084l-.172.064v.628zm-.48-1.5v.632l.324-.12v-.632z"/></a><path fill="currentColor" d="M23.846 108.2c0 .129.024.293.176.293.116 0 .224-.128.348-.128.492 0 .916.36.916.836 0 .672-.364 1-1.048 1-.328 0-.608-.248-.608-.568a.304.304 0 1 1 .608 0c0 .156-.192.148-.192.304 0 .092.092.148.192.148.46 0 .552-.356.552-.884 0-.424-.052-.724-.42-.724-.284 0-.464.284-.464.592 0 .04-.032.06-.06.06s-.056-.02-.056-.06c0-.3-.12-.584-.332-.792v1.88c0 .024-.02.044-.044.044h-.084a.044.044 0 0 1-.044-.044v-3.912c0-.024.02-.044.044-.044h.084c.024 0 .044.02.044.044v1.88c.212-.208.332-.492.332-.792 0-.04.028-.06.056-.06s.06.02.06.06c0 .308.18.592.464.592.368 0 .42-.3.42-.724 0-.528-.092-.884-.552-.884-.1 0-.192.056-.192.148 0 .156.192.148.192.304a.304.304 0 1 1-.608 0c0-.32.28-.568.608-.568.684 0 1.048.328 1.048 1 0 .476-.424.836-.916.836-.124 0-.232-.128-.348-.128-.152 0-.176.164-.176.292zm-.776 2h-.468a.044.044 0 0 1-.044-.043v-3.912c0-.024.02-.044.044-.044h.468c.024 0 .044.02.044.044v3.912c0 .024-.02.044-.044.044z"/><a color="inherit"><path fill="currentColor" d="M35.044 109.257c-.196 0-.272.172-.272.352 0 .3.228.536.528.536.196 0 .272-.172.272-.352 0-.3-.228-.536-.528-.536zm1.1.444c0 .172-.132.304-.284.388-.208.116-.448.16-.688.16s-.48-.044-.688-.16c-.152-.084-.284-.216-.284-.388s.132-.304.284-.388c.208-.116.448-.16.688-.16s.48.044.688.16c.152.084.284.216.284.388z"/></a><path fill="currentColor" d="M31.94 100.632a.293.293 0 0 1-.296-.292c0-.152.108-.304.284-.304.016 0 .028 0 .044.004a.58.58 0 0 0-.464-.236c-.424 0-.452.296-.452.752 0 .06.004.124.004.192s-.004.132-.004.192c0 .456.028.752.452.752.316 0 .544-.28.62-.6.008-.028.028-.04.052-.04.028 0 .056.02.056.052 0 .38-.42.7-.728.7-.272 0-.548-.08-.736-.28-.196-.204-.264-.492-.264-.776s.068-.572.264-.776c.188-.2.464-.28.736-.28.344 0 .632.264.692.608a.228.228 0 0 1 .004.052c0 .156-.12.28-.264.28z"/><a color="inherit"><path fill="currentColor" d="M26.926 99.992c0 .044-.032.076-.076.076s-.08-.032-.08-.076v-.568l-.324.12v.624c0 .044-.036.08-.08.08s-.076-.036-.076-.08V99.6l-.112.044c-.012.004-.02.004-.032.004a.09.09 0 0 1-.088-.092v-.228a.09.09 0 0 1 .06-.084l.172-.064v-.628l-.112.04c-.012.004-.02.004-.032.004a.086.086 0 0 1-.088-.088v-.228a.09.09 0 0 1 .06-.084l.172-.064v-.628c0-.044.032-.076.076-.076s.08.032.08.076v.568l.324-.12v-.624c0-.044.036-.08.08-.08s.076.036.076.08v.568l.112-.044c.012-.004.02-.004.032-.004a.09.09 0 0 1 .088.092v.228a.09.09 0 0 1-.06.084l-.172.064v.628l.112-.04c.012-.004.02-.004.032-.004.048 0 .088.036.088.088v.228a.09.09 0 0 1-.06.084l-.172.064v.628zm-.48-1.5v.632l.324-.12v-.632z"/></a><path fill="currentColor" d="M24.07 100.696c.016 0 .028-.004.044-.004.624 0 1.028.516 1.028 1.048 0 .304-.136.616-.432.84a.896.896 0 0 1-.288.148c.012.136.016.272.016.408 0 .08 0 .16-.004.24-.028.484-.36.912-.836.912a.783.783 0 0 1-.784-.784c0-.232.212-.416.448-.416.216 0 .38.192.38.416 0 .208-.172.38-.38.38a.287.287 0 0 1-.116-.024.562.562 0 0 0 .464.252c.38 0 .624-.364.648-.76.004-.076.008-.148.008-.224 0-.12-.008-.24-.016-.36-.116.02-.232.032-.352.032-.752 0-1.332-.692-1.332-1.5 0-.708.52-1.228.984-1.768-.08-.248-.152-.5-.184-.76a5.458 5.458 0 0 1-.028-.628c0-.46.22-.892.592-1.16.012-.008.028-.012.044-.012s.032.004.044.016c.284.332.536.976.536 1.428 0 .572-.34 1.02-.712 1.456.084.272.16.548.228.824zm.336 1.86a.702.702 0 0 0 .444-.648.765.765 0 0 0-.68-.76c.096.46.184.92.236 1.408zm-1.548-.912c0 .536.516.98 1.052.98.112 0 .22-.008.324-.024a15.052 15.052 0 0 0-.244-1.452c-.316.032-.496.244-.496.476 0 .172.1.356.32.484.02.02.028.044.028.064 0 .048-.04.092-.088.092-.012 0-.024-.004-.036-.008-.324-.172-.472-.464-.472-.744 0-.356.232-.7.644-.792a13.54 13.54 0 0 0-.184-.692c-.424.488-.848.976-.848 1.616zm1.324-4.064a1.141 1.141 0 0 0-.648 1.028c0 .292.08.528.152.764.316-.388.576-.796.576-1.296a1.28 1.28 0 0 0-.08-.496z"/><a color="inherit"><path fill="currentColor" d="M35.044 101.304c-.196 0-.272.172-.272.352 0 .3.228.536.528.536.196 0 .272-.172.272-.352 0-.3-.228-.536-.528-.536zm1.1.444c0 .172-.132.304-.284.388-.208.116-.448.16-.688.16s-.48-.044-.688-.16c-.152-.084-.284-.216-.284-.388s.132-.304.284-.388c.208-.116.448-.16.688-.16s.48.044.688.16c.152.084.284.216.284.388z"/></a><path fill="currentColor" d="M31.94 92.875a.293.293 0 0 1-.296-.292c0-.152.108-.304.284-.304.016 0 .028 0 .044.004a.58.58 0 0 0-.464-.236c-.424 0-.452.296-.452.752 0 .06.004.124.004.192s-.004.132-.004.192c0 .456.028.752.452.752.316 0 .544-.28.62-.6.008-.028.028-.04.052-.04.028 0 .056.02.056.052 0 .38-.42.7-.728.7-.272 0-.548-.08-.736-.28-.196-.204-.264-.492-.264-.776s.068-.572.264-.776c.188-.2.464-.28.736-.28.344 0 .632.264.692.608a.228.228 0 0 1 .004.052c0 .156-.12.28-.264.28z"/><a color="inherit"><path fill="currentColor" d="M26.926 92.235c0 .044-.032.076-.076.076s-.08-.032-.08-.076v-.568l-.324.12v.624c0 .044-.036.08-.08.08s-.076-.036-.076-.08v-.568l-.112.044c-.012.004-.02.004-.032.004a.09.09 0 0 1-.088-.092v-.228a.09.09 0 0 1 .06-.084l.172-.064v-.628l-.112.04c-.012.004-.02.004-.032.004a.086.086 0 0 1-.088-.088v-.228a.09.09 0 0 1 .06-.084l.172-.064v-.628c0-.044.032-.076.076-.076s.08.032.08.076v.568l.324-.12v-.624c0-.044.036-.08.08-.08s.076.036.076.08v.568l.112-.044c.012-.004.02-.004.032-.004a.09.09 0 0 1 .088.092v.228a.09.09 0 0 1-.06.084l-.172.064v.628l.112-.04c.012-.004.02-.004.032-.004.048 0 .088.036.088.088v.228a.09.09 0 0 1-.06.084l-.172.064v.628zm-.48-1.5v.632l.324-.12v-.632z"/></a><path fill="currentColor" d="M24.07 92.939c.016 0 .028-.004.044-.004.624 0 1.028.516 1.028 1.048 0 .304-.136.616-.432.84a.896.896 0 0 1-.288.148c.012.136.016.272.016.408 0 .08 0 .16-.004.24-.028.484-.36.912-.836.912a.783.783 0 0 1-.784-.784c0-.232.212-.416.448-.416.216 0 .38.192.38.416 0 .208-.172.38-.38.38a.287.287 0 0 1-.116-.024.562.562 0 0 0 .464.252c.38 0 .624-.364.648-.76.004-.076.008-.148.008-.224 0-.12-.008-.24-.016-.36-.116.02-.232.032-.352.032-.752 0-1.332-.692-1.332-1.5 0-.708.52-1.228.984-1.768-.08-.248-.152-.5-.184-.76a5.458 5.458 0 0 1-.028-.628c0-.46.22-.892.592-1.16.012-.008.028-.012.044-.012s.032.004.044.016c.284.332.536.976.536 1.428 0 .572-.34 1.02-.712 1.456.084.272.16.548.228.824zm.336 1.86a.702.702 0 0 0 .444-.648.765.765 0 0 0-.68-.76c.096.46.184.92.236 1.408zm-1.548-.912c0 .536.516.98 1.052.98.112 0 .22-.008.324-.024a15.052 15.052 0 0 0-.244-1.452c-.316.032-.496.244-.496.476 0 .172.1.356.32.484.02.02.028.044.028.064 0 .048-.04.092-.088.092-.012 0-.024-.004-.036-.008-.324-.172-.472-.464-.472-.744 0-.356.232-.7.644-.792a13.54 13.54 0 0 0-.184-.692c-.424.488-.848.976-.848 1.616zm1.324-4.064a1.141 1.141 0 0 0-.648 1.028c0 .292.08.528.152.764.316-.388.576-.796.576-1.296a1.28 1.28 0 0 0-.08-.496z"/><a color="inherit"><path fill="currentColor" d="M35.044 93.547c-.196 0-.272.172-.272.352 0 .3.228.536.528.536.196 0 .272-.172.272-.352 0-.3-.228-.536-.528-.536zm1.1.444c0 .172-.132.304-.284.388-.208.116-.448.16-.688.16s-.48-.044-.688-.16c-.152-.084-.284-.216-.284-.388s.132-.304.284-.388c.208-.116.448-.16.688-.16s.48.044.688.16c.152.084.284.216.284.388z"/></a><a color="inherit"><path fill="currentColor" d="M26.926 6.028c0 .044-.032.076-.076.076s-.08-.032-.08-.076V5.46l-.324.12v.624c0 .044-.036.08-.08.08s-.076-.036-.076-.08v-.568l-.112.044c-.012.004-.02.004-.032.004a.09.09 0 0 1-.088-.092v-.228a.09.09 0 0 1 .06-.084l.172-.064v-.628l-.112.04c-.012.004-.02.004-.032.004a.086.086 0 0 1-.088-.088v-.228a.09.09 0 0 1 .06-.084l.172-.064V3.54c0-.044.032-.076.076-.076s.08.032.08.076v.568l.324-.12v-.624c0-.044.036-.08.08-.08s.076.036.076.08v.568l.112-.044c.012-.004.02-.004.032-.004a.09.09 0 0 1 .088.092v.228a.09.09 0 0 1-.06.084l-.172.064v.628l.112-.04c.012-.004.02-.004.032-.004.048 0 .088.036.088.088v.228a.09.09 0 0 1-.06.084l-.172.064v.628zm-.48-1.5v.632l.324-.12v-.632z"/></a><path fill="currentColor" d="M31.94 83.521a.293.293 0 0 1-.296-.292c0-.152.108-.304.284-.304.016 0 .028 0 .044.004a.58.58 0 0 0-.464-.236c-.424 0-.452.296-.452.752 0 .06.004.124.004.192s-.004.132-.004.192c0 .456.028.752.452.752.316 0 .544-.28.62-.6.008-.028.028-.04.052-.04.028 0 .056.02.056.052 0 .38-.42.7-.728.7-.272 0-.548-.08-.736-.28-.196-.204-.264-.492-.264-.776s.068-.572.264-.776c.188-.2.464-.28.736-.28.344 0 .632.264.692.608a.228.228 0 0 1 .004.052c0 .156-.12.28-.264.28z"/><a color="inherit"><path fill="currentColor" d="M26.926 82.881c0 .044-.032.076-.076.076s-.08-.032-.08-.076v-.568l-.324.12v.624c0 .044-.036.08-.08.08s-.076-.036-.076-.08v-.568l-.112.044c-.012.004-.02.004-.032.004a.09.09 0 0 1-.088-.092v-.228a.09.09 0 0 1 .06-.084l.172-.064v-.628l-.112.04c-.012.004-.02.004-.032.004a.086.086 0 0 1-.088-.088v-.228a.09.09 0 0 1 .06-.084l.172-.064v-.628c0-.044.032-.076.076-.076s.08.032.08.076v.568l.324-.12v-.624c0-.044.036-.08.08-.08s.076.036.076.08v.568l.112-.044c.012-.004.02-.004.032-.004a.09.09 0 0 1 .088.092v.228a.09.09 0 0 1-.06.084l-.172.064v.628l.112-.04c.012-.004.02-.004.032-.004.048 0 .088.036.088.088v.228a.09.09 0 0 1-.06.084l-.172.064v.628zm-.48-1.5v.632l.324-.12v-.632z"/></a><text fill="currentColor" font-family="serif" font-size="1.386" font-style="italic" transform="translate(23.142 88.222)"><tspan> 8</tspan></text><path fill="currentColor" d="M24.07 83.585c.016 0 .028-.004.044-.004.624 0 1.028.516 1.028 1.048 0 .304-.136.616-.432.84a.896.896 0 0 1-.288.148c.012.136.016.272.016.408 0 .08 0 .16-.004.24-.028.484-.36.912-.836.912a.783.783 0 0 1-.784-.784c0-.232.212-.416.448-.416.216 0 .38.192.38.416 0 .208-.172.38-.38.38a.287.287 0 0 1-.116-.024.562.562 0 0 0 .464.252c.38 0 .624-.364.648-.76.004-.076.008-.148.008-.224 0-.12-.008-.24-.016-.36-.116.02-.232.032-.352.032-.752 0-1.332-.692-1.332-1.5 0-.708.52-1.228.984-1.768-.08-.248-.152-.5-.184-.76a5.458 5.458 0 0 1-.028-.628c0-.46.22-.892.592-1.16.012-.008.028-.012.044-.012s.032.004.044.016c.284.332.536.976.536 1.428 0 .572-.34 1.02-.712 1.456.084.272.16.548.228.824zm.336 1.86a.702.702 0 0 0 .444-.648.765.765 0 0 0-.68-.76c.096.46.184.92.236 1.408zm-1.548-.912c0 .536.516.98 1.052.98.112 0 .22-.008.324-.024a15.052 15.052 0 0 0-.244-1.452c-.316.032-.496.244-.496.476 0 .172.1.356.32.484.02.02.028.044.028.064 0 .048-.04.092-.088.092-.012 0-.024-.004-.036-.008-.324-.172-.472-.464-.472-.744 0-.356.232-.7.644-.792a13.54 13.54 0 0 0-.184-.692c-.424.488-.848.976-.848 1.616zm1.324-4.064a1.141 1.141 0 0 0-.648 1.028c0 .292.08.528.152.764.316-.388.576-.796.576-1.296a1.28 1.28 0 0 0-.08-.496z"/><a color="inherit"><path fill="currentColor" d="M35.044 84.193c-.196 0-.272.172-.272.352 0 .3.228.536.528.536.196 0 .272-.172.272-.352 0-.3-.228-.536-.528-.536zm1.1.444c0 .172-.132.304-.284.388-.208.116-.448.16-.688.16s-.48-.044-.688-.16c-.152-.084-.284-.216-.284-.388s.132-.304.284-.388c.208-.116.448-.16.688-.16s.48.044.688.16c.152.084.284.216.284.388z"/></a><a color="inherit"><text fill="currentColor" font-family="serif" font-size="2.469" transform="translate(33.506 79.824)"><tspan> Ah</tspan></text></a><path fill="currentColor" d="M31.94 75.264a.293.293 0 0 1-.296-.291c0-.153.108-.305.284-.305.016 0 .028 0 .044.004a.58.58 0 0 0-.464-.235c-.424 0-.452.295-.452.751 0 .06.004.124.004.192s-.004.132-.004.192c0 .456.028.752.452.752.316 0 .544-.28.62-.6.008-.028.028-.04.052-.04.028 0 .056.02.056.052 0 .38-.42.7-.728.7-.272 0-.548-.08-.736-.28-.196-.204-.264-.492-.264-.776s.068-.572.264-.776c.188-.2.464-.28.736-.28.344 0 .632.264.692.608a.228.228 0 0 1 .004.052c0 .157-.12.28-.264.28z"/><a color="inherit"><path fill="currentColor" d="M26.926 74.624c0 .045-.032.077-.076.077s-.08-.033-.08-.077v-.567l-.324.12v.623c0 .045-.036.08-.08.08s-.076-.035-.076-.08v-.567l-.112.043c-.012.005-.02.005-.032.005a.09.09 0 0 1-.088-.093v-.227a.09.09 0 0 1 .06-.084l.172-.064v-.628l-.112.04c-.012.004-.02.004-.032.004a.086.086 0 0 1-.088-.088v-.228a.09.09 0 0 1 .06-.084l.172-.064v-.628c0-.044.032-.076.076-.076s.08.032.08.076v.568l.324-.12v-.624c0-.044.036-.08.08-.08s.076.036.076.08v.568l.112-.044c.012-.004.02-.004.032-.004a.09.09 0 0 1 .088.092v.228a.09.09 0 0 1-.06.084l-.172.064v.628l.112-.04c.012-.004.02-.004.032-.004.048 0 .088.036.088.088v.228a.09.09 0 0 1-.06.083l-.172.065v.627zm-.48-1.5v.633l.324-.12v-.633z"/></a><path fill="currentColor" d="M24.07 75.328c.016 0 .028-.004.044-.004.624 0 1.028.516 1.028 1.048 0 .304-.136.616-.432.84a.896.896 0 0 1-.288.148c.012.136.016.272.016.408 0 .08 0 .16-.004.24-.028.484-.36.912-.836.912a.783.783 0 0 1-.784-.784c0-.232.212-.416.448-.416.216 0 .38.192.38.416 0 .208-.172.38-.38.38a.287.287 0 0 1-.116-.024.562.562 0 0 0 .464.252c.38 0 .624-.364.648-.76.004-.076.008-.148.008-.224 0-.12-.008-.24-.016-.36-.116.02-.232.032-.352.032-.752 0-1.332-.692-1.332-1.5 0-.708.52-1.228.984-1.768-.08-.248-.152-.5-.184-.76a5.458 5.458 0 0 1-.028-.628c0-.46.22-.892.592-1.16.012-.008.028-.012.044-.012s.032.004.044.016c.284.332.536.976.536 1.428 0 .572-.34 1.02-.712 1.456.084.272.16.548.228.824zm.336 1.86a.702.702 0 0 0 .444-.648.765.765 0 0 0-.68-.76c.096.46.184.92.236 1.408zm-1.548-.912c0 .536.516.98 1.052.98.112 0 .22-.008.324-.024a15.052 15.052 0 0 0-.244-1.452c-.316.032-.496.244-.496.476 0 .172.1.356.32.484.02.02.028.044.028.064 0 .048-.04.092-.088.092-.012 0-.024-.004-.036-.008-.324-.172-.472-.464-.472-.744 0-.356.232-.7.644-.792a13.54 13.54 0 0 0-.184-.692c-.424.488-.848.976-.848 1.616zm1.324-4.064a1.141 1.141 0 0 0-.648 1.028c0 .292.08.528.152.764.316-.388.576-.796.576-1.296a1.28 1.28 0 0 0-.08-.496z"/><a color="inherit"><path fill="currentColor" d="M35.044 75.936c-.196 0-.272.172-.272.352 0 .3.228.537.528.537.196 0 .272-.173.272-.353 0-.3-.228-.535-.528-.535zm1.1.444c0 .173-.132.305-.284.389-.208.115-.448.16-.688.16s-.48-.045-.688-.16c-.152-.085-.284-.217-.284-.389s.132-.303.284-.387c.208-.117.448-.16.688-.16s.48.043.688.16c.152.083.284.215.284.387z"/></a><a color="inherit"><text fill="currentColor" font-family="serif" font-size="2.469" transform="translate(33.104 71.527)"><tspan> Lyr</tspan></text></a><path fill="currentColor" d="M31.94 67.008a.293.293 0 0 1-.296-.292c0-.152.108-.304.284-.304.016 0 .028 0 .044.004a.58.58 0 0 0-.464-.236c-.424 0-.452.296-.452.752 0 .06.004.124.004.192s-.004.132-.004.192c0 .456.028.752.452.752.316 0 .544-.28.62-.6.008-.028.028-.04.052-.04.028 0 .056.02.056.052 0 .38-.42.7-.728.7-.272 0-.548-.08-.736-.28-.196-.204-.264-.492-.264-.776s.068-.572.264-.776c.188-.2.464-.28.736-.28.344 0 .632.264.692.608a.228.228 0 0 1 .004.052c0 .156-.12.28-.264.28z"/><a color="inherit"><path fill="currentColor" d="M26.926 66.368c0 .044-.032.076-.076.076s-.08-.032-.08-.076V65.8l-.324.12v.624c0 .044-.036.08-.08.08s-.076-.036-.076-.08v-.568l-.112.044c-.012.004-.02.004-.032.004a.09.09 0 0 1-.088-.092v-.228a.09.09 0 0 1 .06-.084l.172-.064v-.628l-.112.04c-.012.004-.02.004-.032.004a.086.086 0 0 1-.088-.088v-.228a.09.09 0 0 1 .06-.084l.172-.064v-.628c0-.044.032-.076.076-.076s.08.032.08.076v.568l.324-.12v-.624c0-.044.036-.08.08-.08s.076.036.076.08v.568l.112-.044c.012-.004.02-.004.032-.004a.09.09 0 0 1 .088.092v.228a.09.09 0 0 1-.06.084l-.172.064v.628l.112-.04c.012-.004.02-.004.032-.004.048 0 .088.036.088.088v.228a.09.09 0 0 1-.06.084l-.172.064v.628zm-.48-1.5v.632l.324-.12v-.632z"/></a><text fill="currentColor" font-family="serif" font-size="2.2" transform="translate(5.405 76.184)"><tspan> Alto II</tspan></text><text fill="currentColor" font-family="serif" font-size="2.2" transform="translate(5.847 67.927)"><tspan> Alto I</tspan></text><text fill="currentColor" font-family="serif" font-size="2.2" transform="translate(4.22 59.47)"><tspan> Soprano</tspan></text><path fill="currentColor" d="M21.307 49.82c0 .84-.336 1.643-.336 2.435 0 .444.108.852.444 1.164.012.012.024.024.024.036 0 .036-.024.06-.06.06-.012 0-.024 0-.036-.012-.468-.42-.636-1.02-.636-1.644 0-.852.36-1.692.36-2.496 0-.444-.108-.852-.444-1.152-.012-.012-.012-.012-.012-.024s0-.012.012-.024c.336-.3.444-.708.444-1.152 0-.804-.36-1.644-.36-2.496 0-.624.168-1.224.636-1.644.012-.012.024-.012.036-.012.036 0 .06.024.06.06 0 .012-.012.024-.024.036-.336.312-.444.72-.444 1.164 0 .792.336 1.596.336 2.436 0 .624-.156 1.212-.6 1.632.444.42.6 1.008.6 1.632z"/><text fill="currentColor" font-family="serif" font-size="2.2" transform="translate(5.767 48.99)"><tspan> Piano</tspan></text><text fill="currentColor" font-family="serif" font-size="2.2" transform="translate(2.834 38.311)"><tspan> Percussion</tspan></text><path fill="currentColor" d="M22.221 18.69c.04 0 .068.031.068.067a.065.065 0 0 1-.012.036c-.384.576-.84 1.448-1.524 1.448h-.324v-.34c0-.06.048-.108.108-.108h.216c.628 0 1.06-.544 1.412-1.072a.069.069 0 0 1 .056-.032zM22.29 33.596a.067.067 0 0 1-.069.068.069.069 0 0 1-.056-.032c-.352-.528-.784-1.072-1.412-1.072h-.216a.108.108 0 0 1-.108-.108v-.34h.324c.684 0 1.14.872 1.524 1.448a.065.065 0 0 1 .012.036z"/><rect width=".45" height="11.959" y="-5.979" fill="currentColor" ry="0" transform="translate(20.43 26.177)"/><text fill="currentColor" font-family="serif" font-size="2.2" transform="translate(1.147 30.658)"><tspan> Trumpet in C</tspan></text><text fill="currentColor" font-family="serif" font-size="2.2" transform="translate(3.537 23.102)"><tspan> Horn in F</tspan></text><path fill="currentColor" d="M22.221 3.176c.04 0 .068.032.068.068a.065.065 0 0 1-.012.036c-.384.576-.84 1.448-1.524 1.448h-.324v-.34c0-.06.048-.108.108-.108h.216c.628 0 1.06-.544 1.412-1.072a.069.069 0 0 1 .056-.032zM22.29 18.082a.067.067 0 0 1-.069.068.069.069 0 0 1-.056-.032c-.352-.528-.784-1.072-1.412-1.072h-.216a.108.108 0 0 1-.108-.108v-.34h.324c.684 0 1.14.872 1.524 1.448a.065.065 0 0 1 .012.036z"/><rect width=".45" height="11.959" y="-5.979" fill="currentColor" ry="0" transform="translate(20.43 10.663)"/><text fill="currentColor" font-family="serif" font-size="2.2" transform="translate(1.325 15.191)"><tspan> Clarinet in B</tspan></text><path fill="currentColor" d="M15.79 15.035l-.007.256v.044c0 .088.008.172.02.26.176-.152.364-.32.364-.552 0-.132-.052-.264-.168-.264-.124 0-.204.124-.208.256zm-.18.712l-.047-2.372c.036-.02.072-.032.112-.032s.076.012.112.032l-.028 1.372a.545.545 0 0 1 .368-.144c.204 0 .348.196.348.412 0 .316-.336.468-.576.676-.064.056-.1.164-.188.164-.056 0-.1-.052-.1-.108z"/><text fill="currentColor" font-family="serif" font-size="2.2" transform="translate(5.968 7.588)"><tspan> Flute</tspan></text><path fill="currentColor" d="M24.07 6.732c.016 0 .028-.004.044-.004.624 0 1.028.516 1.028 1.048 0 .304-.136.616-.432.84a.896.896 0 0 1-.288.148c.012.136.016.272.016.408 0 .08 0 .16-.004.24-.028.484-.36.912-.836.912a.783.783 0 0 1-.784-.784c0-.232.212-.416.448-.416.216 0 .38.192.38.416 0 .208-.172.38-.38.38a.287.287 0 0 1-.116-.024.562.562 0 0 0 .464.252c.38 0 .624-.364.648-.76.004-.076.008-.148.008-.224 0-.12-.008-.24-.016-.36-.116.02-.232.032-.352.032-.752 0-1.332-.692-1.332-1.5 0-.708.52-1.228.984-1.768-.08-.248-.152-.5-.184-.76a5.458 5.458 0 0 1-.028-.628c0-.46.22-.892.592-1.16.012-.008.028-.012.044-.012s.032.004.044.016c.284.332.536.976.536 1.428 0 .572-.34 1.02-.712 1.456.084.272.16.548.228.824zm.336 1.86a.702.702 0 0 0 .444-.648.765.765 0 0 0-.68-.76c.096.46.184.92.236 1.408zm-1.548-.912c0 .536.516.98 1.052.98.112 0 .22-.008.324-.024a15.052 15.052 0 0 0-.244-1.452c-.316.032-.496.244-.496.476 0 .172.1.356.32.484.02.02.028.044.028.064 0 .048-.04.092-.088.092-.012 0-.024-.004-.036-.008-.324-.172-.472-.464-.472-.744 0-.356.232-.7.644-.792a13.54 13.54 0 0 0-.184-.692c-.424.488-.848.976-.848 1.616zm1.324-4.064a1.141 1.141 0 0 0-.648 1.028c0 .292.08.528.152.764.316-.388.576-.796.576-1.296a1.28 1.28 0 0 0-.08-.496z"/><a color="inherit"><path fill="currentColor" d="M35.044 7.34c-.196 0-.272.172-.272.352 0 .3.228.536.528.536.196 0 .272-.172.272-.352 0-.3-.228-.536-.528-.536zm1.1.444c0 .172-.132.304-.284.388-.208.116-.448.16-.688.16s-.48-.044-.688-.16c-.152-.084-.284-.216-.284-.388s.132-.304.284-.388c.208-.116.448-.16.688-.16s.48.044.688.16c.152.084.284.216.284.388z"/></a><rect width=".179" height="118.434" y="-59.217" fill="currentColor" ry=".056" transform="translate(21.68 63.945)"/><path fill="currentColor" d="M22.221 89.382c.04 0 .068.032.068.068a.065.065 0 0 1-.012.036c-.384.576-.84 1.448-1.524 1.448h-.324v-.34c0-.06.048-.108.108-.108h.216c.628 0 1.06-.544 1.412-1.072a.069.069 0 0 1 .056-.032zM22.29 124.647a.067.067 0 0 1-.069.068.069.069 0 0 1-.056-.032c-.352-.528-.784-1.072-1.412-1.072h-.216a.108.108 0 0 1-.108-.108v-.34h.324c.684 0 1.14.872 1.524 1.448a.065.065 0 0 1 .012.036z"/><rect width=".45" height="32.317" y="-16.159" fill="currentColor" ry="0" transform="translate(20.43 107.049)"/><text fill="currentColor" font-family="serif" font-size="2.2" transform="translate(1.99 121.91)"><tspan> Double Bass</tspan></text><text fill="currentColor" font-family="serif" font-size="2.2" transform="translate(6.008 115.457)"><tspan> Cello</tspan></text><text fill="currentColor" font-family="serif" font-size="2.2" transform="translate(6.068 109.004)"><tspan> Viola</tspan></text><a color="inherit"><path fill="currentColor" d="M35.044 116.21c-.196 0-.272.171-.272.351 0 .3.228.536.528.536.196 0 .272-.171.272-.351 0-.3-.228-.537-.528-.537zm1.1.443c0 .172-.132.304-.284.388-.208.117-.448.16-.688.16s-.48-.043-.688-.16c-.152-.083-.284-.215-.284-.387s.132-.305.284-.389c.208-.116.448-.16.688-.16s.48.044.688.16c.152.084.284.216.284.388z"/></a><path fill="currentColor" d="M20.057 98.681c0 .948-.372 1.86-.372 2.748 0 .492.132.96.492 1.308.012.012.012.024.012.036 0 .036-.024.072-.06.072a.091.091 0 0 1-.048-.024c-.492-.48-.66-1.14-.66-1.824 0-.96.384-1.896.384-2.808 0-.492-.12-.948-.48-1.296-.012-.012-.012-.012-.012-.024s0-.012.012-.024c.36-.348.48-.804.48-1.296 0-.912-.384-1.848-.384-2.808 0-.684.168-1.344.66-1.824a.091.091 0 0 1 .048-.024c.036 0 .06.036.06.072 0 .012 0 .024-.012.036-.36.348-.492.816-.492 1.308 0 .888.372 1.8.372 2.748 0 .684-.168 1.332-.648 1.812.48.48.648 1.128.648 1.812z"/><text fill="currentColor" font-family="serif" font-size="2.2" transform="translate(4.441 101.551)"><tspan> Violin II</tspan></text><text fill="currentColor" font-family="serif" font-size="2.2" transform="translate(4.883 93.794)"><tspan> Violin I</tspan></text><path fill="currentColor" d="M22.221 55.258c.04 0 .068.032.068.068a.065.065 0 0 1-.012.036c-.384.576-.84 1.448-1.524 1.448h-.324v-.34c0-.06.048-.108.108-.108h.216c.628 0 1.06-.544 1.412-1.072a.069.069 0 0 1 .056-.032zM22.29 87.178a.067.067 0 0 1-.069.068.069.069 0 0 1-.056-.032c-.352-.528-.784-1.072-1.412-1.072h-.216a.108.108 0 0 1-.108-.108v-.34h.324c.684 0 1.14.872 1.524 1.448a.065.065 0 0 1 .012.036z"/><rect width=".45" height="28.972" y="-14.486" fill="currentColor" ry="0" transform="translate(20.43 71.252)"/><text fill="currentColor" font-family="serif" font-size="2.2" transform="translate(5.686 84.42)"><tspan> Tenor</tspan></text><path fill="currentColor" d="M20.057 73.124c0 .984-.384 1.956-.384 2.88 0 .516.132.972.504 1.344.012.012.012.036.012.048 0 .036-.024.06-.06.06-.012 0-.036 0-.048-.012-.504-.504-.684-1.188-.684-1.896 0-1.008.408-1.98.408-2.928 0-.504-.12-.972-.492-1.344-.012-.012-.012-.012-.012-.024s0-.012.012-.024c.372-.372.492-.84.492-1.344 0-.948-.408-1.92-.408-2.928 0-.708.18-1.392.684-1.896.012-.012.036-.012.048-.012.036 0 .06.024.06.06 0 .012 0 .036-.012.048-.372.372-.504.828-.504 1.344 0 .924.384 1.896.384 2.88 0 .708-.168 1.368-.66 1.872.492.504.66 1.164.66 1.872zM24.79 114.153c0-.112.088-.204.2-.204s.204.093.204.205-.092.203-.204.203-.2-.092-.2-.204zm0-1c0-.112.088-.204.2-.204s.204.093.204.205-.092.203-.204.203-.2-.092-.2-.204zm-1.308-.556c.688 0 1.176.353 1.176 1.005 0 1.051-1.048 1.663-2.06 2.091a.057.057 0 0 1-.04.017.06.06 0 0 1-.056-.056c0-.012.004-.028.016-.04.804-.473 1.64-1.06 1.64-1.969 0-.475-.244-.935-.676-.935-.288 0-.496.211-.592.491a.301.301 0 0 1 .116-.023c.22 0 .4.18.4.4 0 .231-.176.423-.4.423-.24 0-.448-.187-.448-.423 0-.533.404-.98.924-.98z"/><a color="inherit"><path fill="currentColor" d="M43.35 29.611c-.196 0-.272.172-.272.352 0 .3.228.536.528.536.196 0 .272-.172.272-.352 0-.3-.228-.536-.528-.536zm1.1.444c0 .172-.132.304-.284.388-.208.116-.448.16-.688.16s-.48-.044-.688-.16c-.152-.084-.284-.216-.284-.388s.132-.304.284-.388c.208-.116.448-.16.688-.16s.48.044.688.16c.152.084.284.216.284.388z"/></a><a color="inherit"><path fill="currentColor" d="M43.35 100.304c-.196 0-.272.172-.272.352 0 .3.228.536.528.536.196 0 .272-.172.272-.352 0-.3-.228-.536-.528-.536zm1.1.444c0 .172-.132.304-.284.388-.208.116-.448.16-.688.16s-.48-.044-.688-.16c-.152-.084-.284-.216-.284-.388s.132-.304.284-.388c.208-.116.448-.16.688-.16s.48.044.688.16c.152.084.284.216.284.388z"/></a><a color="inherit"><path fill="currentColor" d="M43.35 92.547c-.196 0-.272.172-.272.352 0 .3.228.536.528.536.196 0 .272-.172.272-.352 0-.3-.228-.536-.528-.536zm1.1.444c0 .172-.132.304-.284.388-.208.116-.448.16-.688.16s-.48-.044-.688-.16c-.152-.084-.284-.216-.284-.388s.132-.304.284-.388c.208-.116.448-.16.688-.16s.48.044.688.16c.152.084.284.216.284.388z"/></a><a color="inherit"><text fill="currentColor" font-family="serif" font-size="2.469" transform="translate(41.771 88.04)"><tspan> ics</tspan></text></a><a color="inherit"><path fill="currentColor" d="M43.35 83.193c-.196 0-.272.172-.272.352 0 .3.228.536.528.536.196 0 .272-.172.272-.352 0-.3-.228-.536-.528-.536zm1.1.444c0 .172-.132.304-.284.388-.208.116-.448.16-.688.16s-.48-.044-.688-.16c-.152-.084-.284-.216-.284-.388s.132-.304.284-.388c.208-.116.448-.16.688-.16s.48.044.688.16c.152.084.284.216.284.388z"/></a><a color="inherit"><text fill="currentColor" font-family="serif" font-size="2.469" transform="translate(41.972 79.824)"><tspan> ah</tspan></text></a><a color="inherit"><path fill="currentColor" d="M43.35 74.936c-.196 0-.272.172-.272.352 0 .3.228.537.528.537.196 0 .272-.173.272-.353 0-.3-.228-.535-.528-.535zm1.1.444c0 .173-.132.305-.284.389-.208.115-.448.16-.688.16s-.48-.045-.688-.16c-.152-.085-.284-.217-.284-.389s.132-.303.284-.387c.208-.117.448-.16.688-.16s.48.043.688.16c.152.083.284.215.284.387z"/></a><a color="inherit"><text fill="currentColor" font-family="serif" font-size="2.469" transform="translate(41.771 71.527)"><tspan> ics</tspan></text></a><a color="inherit"><path fill="currentColor" d="M43.35 66.68c-.196 0-.272.172-.272.352 0 .3.228.536.528.536.196 0 .272-.172.272-.352 0-.3-.228-.536-.528-.536zm1.1.444c0 .172-.132.304-.284.388-.208.116-.448.16-.688.16s-.48-.044-.688-.16c-.152-.084-.284-.216-.284-.388s.132-.304.284-.388c.208-.116.448-.16.688-.16s.48.044.688.16c.152.084.284.216.284.388z"/></a><a color="inherit"><text fill="currentColor" font-family="serif" font-size="2.469" transform="translate(41.771 63.27)"><tspan> ics</tspan></text></a><a color="inherit"><path fill="currentColor" d="M43.35 54.923c-.196 0-.272.172-.272.352 0 .3.228.536.528.536.196 0 .272-.172.272-.352 0-.3-.228-.536-.528-.536zm1.1.444c0 .172-.132.304-.284.388-.208.116-.448.16-.688.16s-.48-.044-.688-.16c-.152-.084-.284-.216-.284-.388s.132-.304.284-.388c.208-.116.448-.16.688-.16s.48.044.688.16c.152.084.284.216.284.388z"/></a><a color="inherit"><path fill="currentColor" d="M43.35 51.97c-.196 0-.272.172-.272.352 0 .3.228.536.528.536.196 0 .272-.172.272-.352 0-.3-.228-.536-.528-.536zm1.1.444c0 .172-.132.304-.284.388-.208.116-.448.16-.688.16s-.48-.044-.688-.16c-.152-.084-.284-.216-.284-.388s.132-.304.284-.388c.208-.116.448-.16.688-.16s.48.044.688.16c.152.084.284.216.284.388z"/></a><a color="inherit"><path fill="currentColor" d="M43.35 44.517c-.196 0-.272.172-.272.352 0 .3.228.536.528.536.196 0 .272-.172.272-.352 0-.3-.228-.536-.528-.536zm1.1.444c0 .172-.132.304-.284.388-.208.116-.448.16-.688.16s-.48-.044-.688-.16c-.152-.084-.284-.216-.284-.388s.132-.304.284-.388c.208-.116.448-.16.688-.16s.48.044.688.16c.152.084.284.216.284.388z"/></a><a color="inherit"><path fill="currentColor" d="M43.35 37.064c-.196 0-.272.172-.272.352 0 .3.228.536.528.536.196 0 .272-.172.272-.352 0-.3-.228-.536-.528-.536zm1.1.444c0 .172-.132.304-.284.388-.208.116-.448.16-.688.16s-.48-.044-.688-.16c-.152-.084-.284-.216-.284-.388s.132-.304.284-.388c.208-.116.448-.16.688-.16s.48.044.688.16c.152.084.284.216.284.388z"/></a><a color="inherit"><path fill="currentColor" d="M43.35 23.354c-.196 0-.272.172-.272.352 0 .3.228.536.528.536.196 0 .272-.172.272-.352 0-.3-.228-.536-.528-.536zm1.1.444c0 .172-.132.304-.284.388-.208.116-.448.16-.688.16s-.48-.044-.688-.16c-.152-.084-.284-.216-.284-.388s.132-.304.284-.388c.208-.116.448-.16.688-.16s.48.044.688.16c.152.084.284.216.284.388z"/></a><a color="inherit"><path fill="currentColor" d="M43.35 13.597c-.196 0-.272.172-.272.352 0 .3.228.536.528.536.196 0 .272-.172.272-.352 0-.3-.228-.536-.528-.536zm1.1.444c0 .172-.132.304-.284.388-.208.116-.448.16-.688.16s-.48-.044-.688-.16c-.152-.084-.284-.216-.284-.388s.132-.304.284-.388c.208-.116.448-.16.688-.16s.48.044.688.16c.152.084.284.216.284.388z"/></a><a color="inherit"><path fill="currentColor" d="M43.35 6.34c-.196 0-.272.172-.272.352 0 .3.228.536.528.536.196 0 .272-.172.272-.352 0-.3-.228-.536-.528-.536zm1.1.444c0 .172-.132.304-.284.388-.208.116-.448.16-.688.16s-.48-.044-.688-.16c-.152-.084-.284-.216-.284-.388s.132-.304.284-.388c.208-.116.448-.16.688-.16s.48.044.688.16c.152.084.284.216.284.388z"/></a><path fill="currentColor" d="M31.94 120.99a.293.293 0 0 1-.296-.292c0-.152.108-.304.284-.304.016 0 .028 0 .044.004a.58.58 0 0 0-.464-.236c-.424 0-.452.296-.452.752 0 .06.004.124.004.192s-.004.132-.004.192c0 .456.028.752.452.752.316 0 .544-.28.62-.6.008-.028.028-.04.052-.04.028 0 .056.02.056.052 0 .38-.42.7-.728.7-.272 0-.548-.08-.736-.28-.196-.204-.264-.492-.264-.776s.068-.572.264-.776c.188-.2.464-.28.736-.28.344 0 .632.264.692.608a.228.228 0 0 1 .004.052c0 .156-.12.28-.264.28z"/><a color="inherit"><path fill="currentColor" d="M26.926 121.35c0 .044-.032.076-.076.076s-.08-.032-.08-.076v-.568l-.324.12v.624c0 .044-.036.08-.08.08s-.076-.036-.076-.08v-.568l-.112.044c-.012.004-.02.004-.032.004a.09.09 0 0 1-.088-.092v-.228a.09.09 0 0 1 .06-.084l.172-.064v-.628l-.112.04c-.012.004-.02.004-.032.004a.086.086 0 0 1-.088-.088v-.228a.09.09 0 0 1 .06-.084l.172-.064v-.628c0-.044.032-.076.076-.076s.08.032.08.076v.568l.324-.12v-.624c0-.044.036-.08.08-.08s.076.036.076.08v.568l.112-.044c.012-.004.02-.004.032-.004a.09.09 0 0 1 .088.092v.228a.09.09 0 0 1-.06.084l-.172.064v.628l.112-.04c.012-.004.02-.004.032-.004.048 0 .088.036.088.088v.228a.09.09 0 0 1-.06.084l-.172.064v.628zm-.48-1.5v.632l.324-.12v-.632z"/></a><text fill="currentColor" font-family="serif" font-size="1.386" font-style="italic" transform="translate(23.055 124.364)"><tspan> 8</tspan></text><path fill="currentColor" d="M24.79 120.606c0-.112.088-.204.2-.204s.204.092.204.204-.092.204-.204.204-.2-.092-.2-.204zm0-1c0-.112.088-.204.2-.204s.204.092.204.204-.092.204-.204.204-.2-.092-.2-.204zm-1.308-.556c.688 0 1.176.352 1.176 1.004 0 1.052-1.048 1.664-2.06 2.092a.057.057 0 0 1-.04.016.06.06 0 0 1-.056-.056c0-.012.004-.028.016-.04.804-.472 1.64-1.06 1.64-1.968 0-.476-.244-.936-.676-.936-.288 0-.496.212-.592.492a.301.301 0 0 1 .116-.024c.22 0 .4.18.4.4 0 .232-.176.424-.4.424-.24 0-.448-.188-.448-.424 0-.532.404-.98.924-.98z"/><a color="inherit"><path fill="currentColor" d="M35.044 122.662c-.196 0-.272.172-.272.352 0 .3.228.536.528.536.196 0 .272-.172.272-.352 0-.3-.228-.536-.528-.536zm1.1.444c0 .172-.132.304-.284.388-.208.116-.448.16-.688.16s-.48-.044-.688-.16c-.152-.084-.284-.216-.284-.388s.132-.304.284-.388c.208-.116.448-.16.688-.16s.48.044.688.16c.152.084.284.216.284.388z"/></a><path fill="currentColor" d="M31.94 114.537a.293.293 0 0 1-.296-.292c0-.152.108-.304.284-.304.016 0 .028 0 .044.004a.58.58 0 0 0-.464-.235c-.424 0-.452.295-.452.751 0 .06.004.124.004.192s-.004.132-.004.192c0 .456.028.752.452.752.316 0 .544-.28.62-.6.008-.028.028-.04.052-.04.028 0 .056.02.056.052 0 .38-.42.7-.728.7-.272 0-.548-.08-.736-.28-.196-.204-.264-.492-.264-.776s.068-.572.264-.776c.188-.2.464-.28.736-.28.344 0 .632.264.692.608a.228.228 0 0 1 .004.052c0 .156-.12.28-.264.28z"/><a color="inherit"><path fill="currentColor" d="M26.926 114.897c0 .044-.032.076-.076.076s-.08-.032-.08-.076v-.568l-.324.12v.625c0 .043-.036.08-.08.08s-.076-.037-.076-.08v-.569l-.112.045c-.012.003-.02.003-.032.003a.09.09 0 0 1-.088-.091v-.229a.09.09 0 0 1 .06-.083l.172-.065v-.627l-.112.04c-.012.004-.02.004-.032.004a.086.086 0 0 1-.088-.088v-.228a.09.09 0 0 1 .06-.084l.172-.064v-.628c0-.044.032-.076.076-.076s.08.032.08.076v.568l.324-.12v-.624c0-.044.036-.08.08-.08s.076.036.076.08v.568l.112-.044c.012-.004.02-.004.032-.004a.09.09 0 0 1 .088.092v.228a.09.09 0 0 1-.06.084l-.172.064v.628l.112-.04c.012-.004.02-.004.032-.004.048 0 .088.036.088.088v.227a.09.09 0 0 1-.06.085l-.172.063v.628zm-.48-1.5v.632l.324-.12v-.632z"/></a></svg>