<svg xmlns:xlink="http://www.w3.org/1999/xlink" version="1.2" viewBox="-1.31 -0.036 72.392 20.327"><path stroke="currentColor" stroke-linecap="round" stroke-linejoin="round" stroke-width=".1" d="M.05 5.764h71.032M.05 4.764h71.032M.05 3.764h71.032M.05 2.764h71.032M.05 1.764h71.032"/><rect width=".19" height="4" y="-2" fill="currentColor" ry="0" transform="translate(34.015 13.512)"/><rect width=".19" height="4" y="-2" fill="currentColor" ry="0" transform="translate(34.015 3.764)"/><rect width=".19" height="4" y="-2" fill="currentColor" ry="0" transform="translate(55.395 3.764)"/><rect width=".19" height="4" y="-2" fill="currentColor" ry="0" transform="translate(55.395 13.512)"/><rect width=".19" height="4" y="-2" fill="currentColor" ry="0" transform="translate(12.099 13.512)"/><rect width=".19" height="4" y="-2" fill="currentColor" ry="0" transform="translate(12.099 3.764)"/><path stroke="currentColor" stroke-linecap="round" stroke-linejoin="round" stroke-width=".1" d="M.05 15.512h71.032M.05 14.512h71.032M.05 13.512h71.032M.05 12.512h71.032M.05 11.512h71.032"/><rect width="1.956" height=".2" x="62.013" y="-.1" fill="currentColor" ry=".1" transform="translate(0 16.512)"/><rect width="1.956" height=".2" x="30.198" y="-.1" fill="currentColor" ry=".1" transform="translate(0 16.512)"/><rect width=".13" height="3.314" x="-.065" y="-1" fill="currentColor" ry=".04" transform="translate(54.093 13.512)"/><a color="inherit"><text fill="currentColor" font-family="serif" font-size="2.47" transform="translate(51.474 19.745)"><tspan> the</tspan></text></a><a color="inherit"><path fill="currentColor" d="M53.726 15.468c.22 0 .432.112.432.356 0 .284-.22.484-.408.596a.908.908 0 0 1-.464.136c-.22 0-.432-.112-.432-.356 0-.284.22-.484.408-.596.14-.084.3-.136.464-.136z"/></a><rect width=".13" height="2.817" x="-.065" y="-1.003" fill="currentColor" ry=".04" transform="translate(49.49 13.512)"/><a color="inherit"><path fill="currentColor" d="M49.124 14.968c.22 0 .432.112.432.356 0 .284-.22.484-.408.596a.908.908 0 0 1-.464.136c-.22 0-.432-.112-.432-.356 0-.284.22-.484.408-.596.14-.084.3-.136.464-.136z"/></a><rect width=".13" height="2.501" x="-.065" y="-1.187" fill="currentColor" ry=".04" transform="translate(44.889 13.512)"/><path fill="currentColor" d="M54.158 12.552v1h-.064v-1h.064zm0 0c0 .788.828 1.344.828 2.132 0 .284-.06.564-.164.828a.097.097 0 0 1-.08.048c-.052 0-.104-.044-.092-.108.104-.244.168-.504.168-.768 0-.412-.376-.832-.66-1.132v-1z"/><a color="inherit"><path fill="currentColor" d="M57.455 2.72c.22 0 .432.112.432.356 0 .284-.22.484-.408.596a.908.908 0 0 1-.464.136c-.22 0-.432-.112-.432-.356 0-.284.22-.484.408-.596.14-.084.3-.136.464-.136z"/></a><a color="inherit"><text fill="currentColor" font-family="serif" font-size="2.47" transform="translate(56.583 9.416)"><tspan> dorn,</tspan></text></a><a color="inherit"><path fill="currentColor" d="M57.455 14.968c.22 0 .432.112.432.356 0 .284-.22.484-.408.596a.908.908 0 0 1-.464.136c-.22 0-.432-.112-.432-.356 0-.284.22-.484.408-.596.14-.084.3-.136.464-.136z"/></a><a color="inherit"><text fill="currentColor" font-family="serif" font-size="2.47" transform="translate(56.583 19.745)"><tspan> hills</tspan></text></a><path fill="currentColor" d="M58.337 3.264a.224.224 0 1 1 .447 0 .224.224 0 0 1-.447 0z"/><rect width=".13" height="3.314" x="-.065" y="-.314" fill="currentColor" ry=".04" transform="translate(56.648 3.764)"/><a color="inherit"><path fill="currentColor" stroke="currentColor" stroke-linecap="round" stroke-linejoin="round" stroke-width=".08" d="M16.132 6.564v.4l-2.805-.19v-.4z"/></a><rect width=".13" height="2.818" x="-.065" y="-2.004" fill="currentColor" ry=".04" transform="translate(39.602 13.512)"/><a color="inherit"><path fill="currentColor" d="M39.235 13.968c.22 0 .432.112.432.356 0 .284-.22.484-.408.596a.908.908 0 0 1-.464.136c-.22 0-.432-.112-.432-.356 0-.284.22-.484.408-.596.14-.084.3-.136.464-.136z"/></a><a color="inherit"><path fill="currentColor" d="M41.98 14.468c.22 0 .432.112.432.356 0 .284-.22.484-.408.596a.908.908 0 0 1-.464.136c-.22 0-.432-.112-.432-.356 0-.284.22-.484.408-.596.14-.084.3-.136.464-.136z"/></a><a color="inherit"><text fill="currentColor" font-family="serif" font-size="2.47" transform="translate(43.567 9.416)"><tspan> a</tspan></text></a><rect width=".13" height="3.147" x="-.065" y=".186" fill="currentColor" ry=".04" transform="translate(43.714 3.764)"/><path fill="currentColor" d="M45.404 3.264a.224.224 0 1 1 .447 0 .224.224 0 0 1-.447 0z"/><a color="inherit"><text fill="currentColor" font-family="serif" font-size="2.47" transform="translate(43.65 19.745)"><tspan> flocks</tspan></text></a><a color="inherit"><path fill="currentColor" d="M44.521 14.468c.22 0 .432.112.432.356 0 .284-.22.484-.408.596a.908.908 0 0 1-.464.136c-.22 0-.432-.112-.432-.356 0-.284.22-.484.408-.596.14-.084.3-.136.464-.136z"/></a><path fill="currentColor" d="M42.571 2.264c.032-.016.068-.028.104-.028s.064.012.096.028l-.008.732.424-.08h.012c.04 0 .072.028.072.068l.028 2.28c-.032.016-.064.028-.1.028s-.068-.012-.1-.028l.012-.732-.424.08h-.012c-.04 0-.072-.028-.072-.068zm.556 1.052l-.368.068-.012.828.368-.068z"/><a color="inherit"><path fill="currentColor" d="M44.521 3.22c.22 0 .432.112.432.356 0 .284-.22.484-.408.596a.908.908 0 0 1-.464.136c-.22 0-.432-.112-.432-.356 0-.284.22-.484.408-.596.14-.084.3-.136.464-.136z"/></a><path fill="currentColor" d="M42.413 11.552v1h-.064v-1h.064zm0 0c0 .788.828 1.344.828 2.132 0 .284-.06.564-.164.828a.097.097 0 0 1-.08.048c-.052 0-.104-.044-.092-.108.104-.244.168-.504.168-.768 0-.412-.376-.832-.66-1.132v-1z"/><rect width=".13" height="3.314" x="-.065" y="-2" fill="currentColor" ry=".04" transform="translate(42.347 13.512)"/><a color="inherit"><text fill="currentColor" font-family="serif" font-size="2.47" transform="translate(40.36 19.745)"><tspan> cy</tspan></text></a><a color="inherit"><rect width="4.485" height=".08" y="-.08" fill="currentColor" ry=".032" transform="translate(63.32 9.416)"/></a><a color="inherit"><path fill="currentColor" stroke="currentColor" stroke-linecap="round" stroke-linejoin="round" stroke-width=".08" d="M60.725 12.502v.4l-2.928-.19v-.4z"/></a><a color="inherit"><path fill="currentColor" stroke="currentColor" stroke-linecap="round" stroke-linejoin="round" stroke-width=".08" d="M57.16 16.557c.628.843 2.003 1.082 2.878.5h0c-.854.464-2.23.225-2.878-.5z"/></a><a color="inherit"><path fill="currentColor" stroke="currentColor" stroke-linecap="round" stroke-linejoin="round" stroke-width=".08" d="M57.435 2.123c1.211-.934 8.308-.934 9.519 0h0c-1.211-.814-8.308-.814-9.52 0z"/></a><path fill="currentColor" d="M66.632 16.847h-.064v-1h.064v1zm0 0v-1c.388-.236.896-.592.896-1.036 0-.228-.06-.448-.16-.652-.012-.064.04-.108.092-.108.028 0 .06.012.08.044.1.224.16.468.16.716 0 .812-1.068 1.224-1.068 2.036z"/><rect width=".13" height="3.189" x="-.065" y=".186" fill="currentColor" ry=".04" transform="translate(66.567 13.512)"/><rect width=".13" height="3.314" x="-.065" y="-.314" fill="currentColor" ry=".04" transform="translate(66.567 3.764)"/><a color="inherit"><text fill="currentColor" font-family="serif" font-size="2.47" transform="translate(63.825 19.745)"><tspan> dorn,</tspan></text></a><a color="inherit"><path fill="currentColor" stroke="currentColor" stroke-linecap="round" stroke-linejoin="round" stroke-width=".08" d="M44.255 16.057c.973 1.111 3.413 1.376 4.602.5h0c-1.176.757-3.616.492-4.602-.5z"/></a><a color="inherit"><path fill="currentColor" stroke="currentColor" stroke-linecap="round" stroke-linejoin="round" stroke-width=".08" d="M49.516 12.312v.4l-4.652-.19v-.4z"/></a><a color="inherit"><rect width=".66" height=".13" y="-.55" fill="currentColor" ry=".04" transform="translate(50.48 9.416)"/></a><a color="inherit"><path fill="currentColor" stroke="currentColor" stroke-linecap="round" stroke-linejoin="round" stroke-width=".08" d="M36.17 15.057c.558.856 1.861 1.165 2.745.65h0c-.856.398-2.159.09-2.746-.65z"/></a><a color="inherit"><path fill="currentColor" stroke="currentColor" stroke-linecap="round" stroke-linejoin="round" stroke-width=".08" d="M39.627 11.312v.4l-2.796-.19v-.4z"/></a><a color="inherit"><path fill="currentColor" stroke="currentColor" stroke-linecap="round" stroke-linejoin="round" stroke-width=".08" d="M21.91 5.309c.94 1.144 3.383 1.49 4.603.65h0c-1.204.72-3.646.376-4.603-.65z"/></a><a color="inherit"><path fill="currentColor" stroke="currentColor" stroke-linecap="round" stroke-linejoin="round" stroke-width=".08" d="M27.186 1.564v.4l-4.653-.19v-.4z"/></a><a color="inherit"><path fill="currentColor" d="M60.333 15.468c.22 0 .432.112.432.356 0 .284-.22.484-.408.596a.908.908 0 0 1-.464.136c-.22 0-.432-.112-.432-.356 0-.284.22-.484.408-.596.14-.084.3-.136.464-.136z"/></a><rect width=".13" height="2.81" x="-.065" y="-.996" fill="currentColor" ry=".04" transform="translate(57.822 13.512)"/><rect width=".13" height="3.128" x="-.065" y="-.814" fill="currentColor" ry=".04" transform="translate(60.7 13.512)"/><a color="inherit"><path fill="currentColor" stroke="currentColor" stroke-linecap="round" stroke-linejoin="round" stroke-width=".08" d="M13.994 2.249c.813-.493 2.116-.327 2.755.35h0c-.654-.558-1.957-.723-2.755-.35z"/></a><a color="inherit"><path fill="currentColor" d="M63.21 15.968c.22 0 .433.112.433.356 0 .284-.22.484-.408.596a.908.908 0 0 1-.464.136c-.22 0-.432-.112-.432-.356 0-.284.22-.484.408-.596.14-.084.3-.136.464-.136z"/></a><a color="inherit"><text fill="currentColor" font-family="serif" font-size="2.47" transform="translate(62.257 19.745)"><tspan> a</tspan></text></a><rect width=".13" height="3.314" x="-.065" y="-.5" fill="currentColor" ry=".04" transform="translate(63.578 13.512)"/><path fill="currentColor" d="M63.643 13.052v1h-.064v-1h.064zm0 0c0 .788.828 1.344.828 2.132 0 .284-.06.564-.164.828a.097.097 0 0 1-.08.048c-.052 0-.104-.044-.092-.108.104-.244.168-.504.168-.768 0-.412-.376-.832-.66-1.132v-1z"/><a color="inherit"><path fill="currentColor" d="M67.374 2.72c.22 0 .432.112.432.356 0 .284-.22.484-.408.596a.908.908 0 0 1-.464.136c-.22 0-.432-.112-.432-.356 0-.284.22-.484.408-.596.14-.084.3-.136.464-.136z"/></a><a color="inherit"><path fill="currentColor" d="M67.374 12.968c.22 0 .432.112.432.356 0 .284-.22.484-.408.596a.908.908 0 0 1-.464.136c-.22 0-.432-.112-.432-.356 0-.284.22-.484.408-.596.14-.084.3-.136.464-.136z"/></a><path fill="currentColor" d="M14.687 13.012a.224.224 0 1 1 .447 0 .224.224 0 0 1-.447 0z"/><rect width=".13" height="3.128" x="-.065" y="-.314" fill="currentColor" ry=".04" transform="translate(13.352 3.764)"/><a color="inherit"><path fill="currentColor" d="M13.195 13.976c0-.112.044-.168.16-.168.132 0 .312.052.476.124l-.528-.632a.16.16 0 0 1-.04-.1c0-.136.2-.264.348-.396a.435.435 0 0 0 .148-.332.427.427 0 0 0-.1-.276l-.14-.168a.057.057 0 0 1-.016-.04c0-.036.036-.06.068-.06.016 0 .032.004.044.02l.604.72a.16.16 0 0 1 .04.1c0 .136-.2.264-.348.396a.435.435 0 0 0-.148.332c0 .096.028.196.096.276l.336.396a.057.057 0 0 1 .016.04.066.066 0 0 1-.064.064.063.063 0 0 1-.048-.024c-.072-.084-.252-.152-.388-.152-.164 0-.212.104-.212.268 0 .14.044.296.112.376.028.032-.02.076-.048.044-.18-.216-.368-.592-.368-.808z"/></a><a color="inherit"><text fill="currentColor" font-family="serif" font-size="2.47" transform="translate(13.287 9.416)"><tspan> flee</tspan></text></a><a color="inherit"><path fill="currentColor" d="M14.159 2.72c.22 0 .432.112.432.356 0 .284-.22.484-.408.596a.908.908 0 0 1-.464.136c-.22 0-.432-.112-.432-.356 0-.284.22-.484.408-.596.14-.084.3-.136.464-.136z"/></a><a color="inherit"><path fill="currentColor" d="M19.65 3.72c.22 0 .432.112.432.356 0 .284-.22.484-.408.596a.908.908 0 0 1-.464.136c-.22 0-.432-.112-.432-.356 0-.284.22-.484.408-.596.14-.084.3-.136.464-.136z"/></a><rect width=".13" height="2.81" x="-.065" y=".186" fill="currentColor" ry=".04" transform="translate(16.107 3.764)"/><a color="inherit"><path fill="currentColor" d="M16.914 3.22c.22 0 .432.112.432.356 0 .284-.22.484-.408.596a.908.908 0 0 1-.464.136c-.22 0-.432-.112-.432-.356 0-.284.22-.484.408-.596.14-.084.3-.136.464-.136z"/></a><path fill="currentColor" d="M1.864 17.052H1.84a.783.783 0 0 1-.78-.788c0-.232.212-.412.448-.412.216 0 .38.188.38.412 0 .208-.172.38-.38.38a.326.326 0 0 1-.124-.024c.104.156.272.26.468.26h.016zm.78-1.728a.71.71 0 0 0 .452-.656.764.764 0 0 0-.692-.76c.096.464.184.924.24 1.416zM1.096 14.4c0 .54.516.988 1.056.988.112 0 .22-.008.328-.024-.056-.508-.148-.98-.252-1.456-.316.032-.496.244-.496.476 0 .176.1.364.324.492.02.02.028.04.028.06 0 .044-.04.088-.088.088-.012 0-.024-.004-.036-.008-.32-.172-.468-.46-.468-.74 0-.352.232-.696.64-.788a15.048 15.048 0 0 0-.184-.7c-.428.484-.852.972-.852 1.612zm1.044 1.16c-.752 0-1.332-.688-1.332-1.496 0-.708.524-1.224.992-1.764a4.47 4.47 0 0 1-.18-.76 5.429 5.429 0 0 1-.028-.624c0-.46.22-.896.596-1.168a.06.06 0 0 1 .08 0c.284.336.532.98.532 1.432 0 .572-.344 1.02-.72 1.456.084.272.156.552.224.828.016 0 .036-.004.052-.004.62 0 1.024.512 1.024 1.044 0 .304-.132.616-.428.84a.905.905 0 0 1-.292.144c.012.14.02.28.02.42 0 .076-.004.156-.008.232-.028.476-.352.9-.808.912l.004-.172c.372-.008.612-.368.636-.764a3.775 3.775 0 0 0-.008-.588c-.116.02-.232.032-.356.032zm.372-4.712c0-.22-.016-.316-.08-.516a1.153 1.153 0 0 0-.648 1.036c0 .296.072.532.144.776.32-.388.584-.792.584-1.296z"/><a color="inherit"><path fill="currentColor" d="M10.126 14.512l.468-1.304a1.272 1.272 0 0 1-.42.088c-.184 0-.348-.132-.348-.316a.29.29 0 0 1 .292-.288c.1 0 .192.06.224.156.04.112.024.236.14.236.064 0 .216-.192.244-.252.024-.048.092-.048.112 0l-.492 1.68c-.032.028-.068.04-.108.04s-.08-.012-.112-.04z"/></a><a color="inherit"><text fill="currentColor" font-family="serif" font-size="2.47" transform="translate(8.442 9.416)"><tspan> Let</tspan></text></a><a color="inherit"><path fill="currentColor" d="M7.101 2.74c-.204 0-.212.176-.212.408V3.264c0 .232.008.408.212.408.228 0 .244-.204.244-.468s-.016-.464-.244-.464zM6.89 2.7a.551.551 0 0 1 .212-.052c.404 0 .68.176.68.556s-.276.56-.68.56c-.448 0-.68-.496-.68-1 0-.512.288-1 .76-1 .284 0 .552.156.552.412 0 .144-.116.264-.26.264s-.264-.12-.264-.264c0-.096.156-.1.156-.196 0-.08-.092-.124-.184-.124-.264 0-.3.26-.3.556 0 .096.008.192.008.288zM7.406 4.627c.108-.116.196-.248.196-.408 0-.22-.228-.349-.468-.349-.188 0-.3.144-.3.284 0 .08.04.16.12.208zm.12.068c.22.123.332.315.332.507 0 .292-.264.576-.756.576-.376 0-.732-.216-.732-.56 0-.2.156-.34.304-.48a.515.515 0 0 1-.244-.424c0-.272.244-.536.704-.536.324 0 .644.152.644.44 0 .188-.12.34-.252.476zm-.732.115c-.132.116-.248.236-.248.408 0 .276.264.468.556.468a.334.334 0 0 0 .344-.332.273.273 0 0 0-.14-.248z"/></a><a color="inherit"><path fill="currentColor" d="M4.528 3.6l-.004.264v.044c0 .088.004.176.016.264.18-.152.372-.32.372-.556 0-.132-.056-.268-.172-.268-.124 0-.208.12-.212.252zm-.168.716l-.048-2.38c.032-.02.072-.032.108-.032s.076.012.108.032L4.5 3.316a.577.577 0 0 1 .364-.136c.208 0 .356.192.356.408 0 .32-.344.468-.588.676-.06.052-.096.152-.18.152-.052 0-.092-.044-.092-.1z"/></a><path fill="currentColor" d="M1.864 7.304H1.84a.783.783 0 0 1-.78-.788c0-.232.212-.412.448-.412.216 0 .38.188.38.412 0 .208-.172.38-.38.38a.326.326 0 0 1-.124-.024c.104.156.272.26.468.26h.016zm.78-1.728a.71.71 0 0 0 .452-.656.764.764 0 0 0-.692-.76c.096.464.184.924.24 1.416zm-1.548-.924c0 .54.516.988 1.056.988.112 0 .22-.008.328-.024-.056-.508-.148-.98-.252-1.456-.316.032-.496.244-.496.476 0 .176.1.364.324.492.02.02.028.04.028.06 0 .044-.04.088-.088.088-.012 0-.024-.004-.036-.008-.32-.172-.468-.46-.468-.74 0-.352.232-.696.64-.788a15.048 15.048 0 0 0-.184-.7c-.428.484-.852.972-.852 1.612zm1.044 1.16c-.752 0-1.332-.688-1.332-1.496 0-.708.524-1.224.992-1.764a4.47 4.47 0 0 1-.18-.76 5.429 5.429 0 0 1-.028-.624c0-.46.22-.896.596-1.168a.06.06 0 0 1 .08 0c.284.336.532.98.532 1.432 0 .572-.344 1.02-.72 1.456.084.272.156.552.224.828.016 0 .036-.004.052-.004.62 0 1.024.512 1.024 1.044 0 .304-.132.616-.428.84a.905.905 0 0 1-.292.144c.012.14.02.28.02.42 0 .076-.004.156-.008.232-.028.476-.352.9-.808.912l.004-.172c.372-.008.612-.368.636-.764a3.775 3.775 0 0 0-.008-.588c-.116.02-.232.032-.356.032zM2.512 1.1c0-.22-.016-.316-.08-.516a1.153 1.153 0 0 0-.648 1.036c0 .296.072.532.144.776.32-.388.584-.792.584-1.296z"/><a color="inherit"><path fill="currentColor" d="M10.71 2.72c.22 0 .432.112.432.356 0 .284-.22.484-.408.596a.908.908 0 0 1-.464.136c-.22 0-.432-.112-.432-.356 0-.284.22-.484.408-.596.14-.084.3-.136.464-.136z"/></a><a color="inherit"><path fill="currentColor" d="M4.528 13.348l-.004.264v.044c0 .088.004.176.016.264.18-.152.372-.32.372-.556 0-.132-.056-.268-.172-.268-.124 0-.208.12-.212.252zm-.168.716l-.048-2.38c.032-.02.072-.032.108-.032s.076.012.108.032l-.028 1.38a.577.577 0 0 1 .364-.136c.208 0 .356.192.356.408 0 .32-.344.468-.588.676-.06.052-.096.152-.18.152-.052 0-.092-.044-.092-.1z"/></a><rect width=".16" height="13.848" y="-6.924" fill="currentColor" ry=".05" transform="translate(-.06 8.638)"/><path fill="currentColor" d="M-1.31 1.713v-.348c0-.056.044-.1.1-.1h.2C-.374 1.265.074.721.438.185.482.117.586.189.542.257.146.833-.318 1.713-1.01 1.713h-.3zM-1.31 15.563h.3c.692 0 1.156.88 1.552 1.456.044.068-.06.14-.104.072-.364-.536-.812-1.08-1.448-1.08h-.2a.099.099 0 0 1-.1-.1v-.348z"/><rect width=".45" height="13.938" y="-6.969" fill="currentColor" ry="0" transform="translate(-1.31 8.638)"/><path fill="currentColor" d="M9.968 6.724h-.064v-1h.064v1zm0 0v-1c.388-.236.896-.592.896-1.036 0-.228-.06-.448-.16-.652-.012-.064.04-.108.092-.108.028 0 .06.012.08.044.1.224.16.468.16.716 0 .812-1.068 1.224-1.068 2.036z"/><rect width=".13" height="3.314" x="-.065" y="-.314" fill="currentColor" ry=".04" transform="translate(9.903 3.764)"/><a color="inherit"><path fill="currentColor" d="M7.101 12.488c-.204 0-.212.176-.212.408V13.012c0 .232.008.408.212.408.228 0 .244-.204.244-.468s-.016-.464-.244-.464zm-.212-.04a.551.551 0 0 1 .212-.052c.404 0 .68.176.68.556s-.276.56-.68.56c-.448 0-.68-.496-.68-1 0-.512.288-1 .76-1 .284 0 .552.156.552.412 0 .144-.116.264-.26.264s-.264-.12-.264-.264c0-.096.156-.1.156-.196 0-.08-.092-.124-.184-.124-.264 0-.3.26-.3.556 0 .096.008.192.008.288zM7.406 14.375c.108-.116.196-.248.196-.408 0-.22-.228-.348-.468-.348-.188 0-.3.144-.3.284 0 .08.04.16.12.208zm.12.068c.22.124.332.316.332.508 0 .292-.264.576-.756.576-.376 0-.732-.216-.732-.56 0-.2.156-.34.304-.48a.515.515 0 0 1-.244-.424c0-.272.244-.536.704-.536.324 0 .644.152.644.44 0 .188-.12.34-.252.476zm-.732.116c-.132.116-.248.236-.248.408 0 .276.264.468.556.468a.334.334 0 0 0 .344-.332.273.273 0 0 0-.14-.248z"/></a><a color="inherit"><path fill="currentColor" d="M31.396 4.72c.22 0 .432.112.432.356 0 .284-.22.484-.408.596a.908.908 0 0 1-.464.136c-.22 0-.432-.112-.432-.356 0-.284.22-.484.408-.596.14-.084.3-.136.464-.136z"/></a><a color="inherit"><text fill="currentColor" font-family="serif" font-size="2.47" transform="translate(29.144 9.416)"><tspan> the</tspan></text></a><a color="inherit"><text fill="currentColor" font-family="serif" font-size="2.47" transform="translate(18.03 9.416)"><tspan> cy</tspan></text></a><a color="inherit"><path fill="currentColor" d="M31.396 15.968c.22 0 .432.112.432.356 0 .284-.22.484-.408.596a.908.908 0 0 1-.464.136c-.22 0-.432-.112-.432-.356 0-.284.22-.484.408-.596.14-.084.3-.136.464-.136z"/></a><a color="inherit"><text fill="currentColor" font-family="serif" font-size="2.47" transform="translate(29.127 19.745)"><tspan> Let</tspan></text></a><rect width=".13" height="3.314" x="-.065" y="-2" fill="currentColor" ry=".04" transform="translate(31.763 3.764)"/><path fill="currentColor" d="M31.828 1.804v1h-.064v-1h.064zm0 0c0 .788.828 1.344.828 2.132 0 .284-.06.564-.164.828a.097.097 0 0 1-.08.048c-.052 0-.104-.044-.092-.108.104-.244.168-.504.168-.768 0-.412-.376-.832-.66-1.132v-1z"/><rect width=".13" height="3.314" x="-.065" y="-.5" fill="currentColor" ry=".04" transform="translate(31.763 13.512)"/><rect width=".13" height="3.314" x="-.065" y="-1.814" fill="currentColor" ry=".04" transform="translate(35.682 3.764)"/><path fill="currentColor" d="M37.371 1.264a.224.224 0 1 1 .448 0 .224.224 0 0 1-.448 0zM31.828 13.052v1h-.064v-1h.064zm0 0c0 .788.828 1.344.828 2.132 0 .284-.06.564-.164.828a.097.097 0 0 1-.08.048c-.052 0-.104-.044-.092-.108.104-.244.168-.504.168-.768 0-.412-.376-.832-.66-1.132v-1z"/><a color="inherit"><text fill="currentColor" font-family="serif" font-size="2.47" transform="translate(35.617 19.745)"><tspan> flee</tspan></text></a><a color="inherit"><path fill="currentColor" d="M36.49 1.22c.22 0 .431.112.431.356 0 .284-.22.484-.408.596a.908.908 0 0 1-.464.136c-.22 0-.432-.112-.432-.356 0-.284.22-.484.408-.596.14-.084.3-.136.464-.136z"/></a><a color="inherit"><text fill="currentColor" font-family="serif" font-size="2.47" transform="translate(33.657 9.416)"><tspan> hills</tspan></text></a><a color="inherit"><path fill="currentColor" d="M36.49 13.468c.22 0 .431.112.431.356 0 .284-.22.484-.408.596a.908.908 0 0 1-.464.136c-.22 0-.432-.112-.432-.356 0-.284.22-.484.408-.596.14-.084.3-.136.464-.136z"/></a><rect width=".13" height="3.314" x="-.065" y="-3" fill="currentColor" ry=".04" transform="translate(20.017 3.764)"/><path fill="currentColor" d="M20.082.804v1h-.064v-1h.064zm0 0c0 .788.828 1.344.828 2.132 0 .284-.06.564-.164.828a.097.097 0 0 1-.08.048c-.052 0-.104-.044-.092-.108.104-.244.168-.504.168-.768 0-.412-.376-.832-.66-1.132v-1z"/><a color="inherit"><path fill="currentColor" d="M22.191 3.72c.22 0 .432.112.432.356 0 .284-.22.484-.408.596a.908.908 0 0 1-.464.136c-.22 0-.432-.112-.432-.356 0-.284.22-.484.408-.596.14-.084.3-.136.464-.136z"/></a><rect width=".13" height="2.5" x="-.065" y="-2.186" fill="currentColor" ry=".04" transform="translate(36.856 13.512)"/><a color="inherit"><text fill="currentColor" font-family="serif" font-size="2.47" transform="translate(21.32 9.416)"><tspan> flocks</tspan></text></a><a color="inherit"><path fill="currentColor" d="M21.227 13.976c0-.112.044-.168.16-.168.132 0 .312.052.476.124l-.528-.632a.16.16 0 0 1-.04-.1c0-.136.2-.264.348-.396a.435.435 0 0 0 .148-.332.427.427 0 0 0-.1-.276l-.14-.168a.057.057 0 0 1-.016-.04c0-.036.036-.06.068-.06.016 0 .032.004.044.02l.604.72a.16.16 0 0 1 .04.1c0 .136-.2.264-.348.396a.435.435 0 0 0-.148.332c0 .096.028.196.096.276l.336.396a.057.057 0 0 1 .016.04.066.066 0 0 1-.064.064.063.063 0 0 1-.048-.024c-.072-.084-.252-.152-.388-.152-.164 0-.212.104-.212.268 0 .14.044.296.112.376.028.032-.02.076-.048.044-.18-.216-.368-.592-.368-.808z"/></a><rect width=".13" height="2.501" x="-.065" y="-2.187" fill="currentColor" ry=".04" transform="translate(22.558 3.764)"/><rect width=".13" height="2.817" x="-.065" y="-2.003" fill="currentColor" ry=".04" transform="translate(27.16 3.764)"/><a color="inherit"><path fill="currentColor" d="M26.793 4.22c.22 0 .432.112.432.356 0 .284-.22.484-.408.596a.908.908 0 0 1-.464.136c-.22 0-.432-.112-.432-.356 0-.284.22-.484.408-.596.14-.084.3-.136.464-.136z"/></a></svg>