<svg xmlns:xlink="http://www.w3.org/1999/xlink" version="1.2" viewBox="-1.31 -0.024 72.392 20.325"><path stroke="currentColor" stroke-linecap="round" stroke-linejoin="round" stroke-width=".1" d="M.05 5.776h71.032M.05 4.776h71.032M.05 3.776h71.032M.05 2.776h71.032M.05 1.776h71.032"/><rect width=".19" height="4" y="-2" fill="currentColor" ry="0" transform="translate(33.935 13.524)"/><rect width=".19" height="4" y="-2" fill="currentColor" ry="0" transform="translate(33.935 3.776)"/><rect width=".19" height="4" y="-2" fill="currentColor" ry="0" transform="translate(55.22 3.776)"/><rect width=".19" height="4" y="-2" fill="currentColor" ry="0" transform="translate(55.22 13.524)"/><rect width=".19" height="4" y="-2" fill="currentColor" ry="0" transform="translate(12.176 13.524)"/><rect width=".19" height="4" y="-2" fill="currentColor" ry="0" transform="translate(12.176 3.776)"/><path stroke="currentColor" stroke-linecap="round" stroke-linejoin="round" stroke-width=".1" d="M.05 15.524h71.032M.05 14.524h71.032M.05 13.524h71.032M.05 12.524h71.032M.05 11.524h71.032"/><rect width="1.956" height=".2" x="61.833" y="-.1" fill="currentColor" ry=".1" transform="translate(0 16.524)"/><rect width="1.956" height=".2" x="30.142" y="-.1" fill="currentColor" ry=".1" transform="translate(0 16.524)"/><rect width=".13" height="3.314" x="-.065" y="-1" fill="currentColor" ry=".04" transform="translate(53.841 13.524)"/><a color="inherit"><text fill="currentColor" font-family="serif" font-size="2.47" transform="translate(51.24 19.754)"><tspan> the</tspan></text></a><a color="inherit"><path fill="currentColor" d="M53.474 15.48c.22 0 .432.112.432.356 0 .284-.22.484-.408.596a.908.908 0 0 1-.464.136c-.22 0-.432-.112-.432-.356 0-.284.22-.484.408-.596.14-.084.3-.136.464-.136z"/></a><rect width=".13" height="2.817" x="-.065" y="-1.003" fill="currentColor" ry=".04" transform="translate(49.316 13.524)"/><a color="inherit"><path fill="currentColor" d="M48.949 14.98c.22 0 .432.112.432.356 0 .284-.22.484-.408.596a.908.908 0 0 1-.464.136c-.22 0-.432-.112-.432-.356 0-.284.22-.484.408-.596.14-.084.3-.136.464-.136z"/></a><rect width=".13" height="2.501" x="-.065" y="-1.187" fill="currentColor" ry=".04" transform="translate(44.79 13.524)"/><path fill="currentColor" d="M53.906 12.564c0 .788.828 1.344.828 2.132 0 .284-.06.564-.164.828a.097.097 0 0 1-.08.048c-.052 0-.104-.044-.092-.108.104-.244.168-.504.168-.768 0-.412-.376-.832-.66-1.132h-.064v-1h.064z"/><a color="inherit"><path fill="currentColor" d="M57.309 2.732c.22 0 .432.112.432.356 0 .284-.22.484-.408.596a.908.908 0 0 1-.464.136c-.22 0-.432-.112-.432-.356 0-.284.22-.484.408-.596.14-.084.3-.136.464-.136z"/></a><a color="inherit"><text fill="currentColor" font-family="serif" font-size="2.47" transform="translate(56.437 9.428)"><tspan> dorn,</tspan></text></a><a color="inherit"><path fill="currentColor" d="M57.309 14.98c.22 0 .432.112.432.356 0 .284-.22.484-.408.596a.908.908 0 0 1-.464.136c-.22 0-.432-.112-.432-.356 0-.284.22-.484.408-.596.14-.084.3-.136.464-.136z"/></a><a color="inherit"><text fill="currentColor" font-family="serif" font-size="2.47" transform="translate(56.437 19.754)"><tspan> hills</tspan></text></a><path fill="currentColor" d="M58.191 3.276a.224.224 0 1 1 .447 0 .224.224 0 0 1-.447 0z"/><rect width=".13" height="3.314" x="-.065" y="-.314" fill="currentColor" ry=".04" transform="translate(56.502 3.776)"/><a color="inherit"><path fill="currentColor" stroke="currentColor" stroke-linecap="round" stroke-linejoin="round" stroke-width=".08" d="M16.195 6.576v.4l-2.762-.19v-.4z"/></a><rect width=".13" height="2.818" x="-.065" y="-2.004" fill="currentColor" ry=".04" transform="translate(39.47 13.524)"/><a color="inherit"><path fill="currentColor" d="M39.102 13.98c.22 0 .432.112.432.356 0 .284-.22.484-.408.596a.908.908 0 0 1-.464.136c-.22 0-.432-.112-.432-.356 0-.284.22-.484.408-.596.14-.084.3-.136.464-.136z"/></a><a color="inherit"><path fill="currentColor" d="M41.805 14.48c.22 0 .432.112.432.356 0 .284-.22.484-.408.596a.908.908 0 0 1-.464.136c-.22 0-.432-.112-.432-.356 0-.284.22-.484.408-.596.14-.084.3-.136.464-.136z"/></a><a color="inherit"><text fill="currentColor" font-family="serif" font-size="2.47" transform="translate(43.47 9.428)"><tspan> a</tspan></text></a><rect width=".13" height="3.147" x="-.065" y=".186" fill="currentColor" ry=".04" transform="translate(43.616 3.776)"/><path fill="currentColor" d="M45.305 3.276a.224.224 0 1 1 .448 0 .224.224 0 0 1-.448 0z"/><a color="inherit"><text fill="currentColor" font-family="serif" font-size="2.47" transform="translate(43.551 19.754)"><tspan> flocks</tspan></text></a><a color="inherit"><path fill="currentColor" d="M44.423 14.48c.22 0 .432.112.432.356 0 .284-.22.484-.408.596a.908.908 0 0 1-.464.136c-.22 0-.432-.112-.432-.356 0-.284.22-.484.408-.596.14-.084.3-.136.464-.136z"/></a><path fill="currentColor" d="M42.473 2.276c.032-.016.068-.028.104-.028s.064.012.096.028l-.008.732.424-.08h.012c.04 0 .072.028.072.068l.028 2.28c-.032.016-.064.028-.1.028s-.068-.012-.1-.028l.012-.732-.424.08h-.012c-.04 0-.072-.028-.072-.068zm.556 1.052l-.368.068-.012.828.368-.068z"/><a color="inherit"><path fill="currentColor" d="M44.423 3.232c.22 0 .432.112.432.356 0 .284-.22.484-.408.596a.908.908 0 0 1-.464.136c-.22 0-.432-.112-.432-.356 0-.284.22-.484.408-.596.14-.084.3-.136.464-.136z"/></a><path fill="currentColor" d="M42.237 11.564c0 .788.828 1.344.828 2.132 0 .284-.06.564-.164.828a.097.097 0 0 1-.08.048c-.052 0-.104-.044-.092-.108.104-.244.168-.504.168-.768 0-.412-.376-.832-.66-1.132h-.064v-1h.064z"/><rect width=".13" height="3.314" x="-.065" y="-2" fill="currentColor" ry=".04" transform="translate(42.172 13.524)"/><a color="inherit"><text fill="currentColor" font-family="serif" font-size="2.47" transform="translate(40.202 19.754)"><tspan> cy</tspan></text></a><a color="inherit"><rect width="4.502" height=".08" y="-.08" fill="currentColor" ry=".032" transform="translate(63.072 9.428)"/></a><a color="inherit"><path fill="currentColor" stroke="currentColor" stroke-linecap="round" stroke-linejoin="round" stroke-width=".08" d="M60.562 12.514v.4l-2.91-.19v-.4z"/></a><a color="inherit"><path fill="currentColor" stroke="currentColor" stroke-linecap="round" stroke-linejoin="round" stroke-width=".08" d="M57.014 16.57c.624.839 1.99 1.078 2.861.5h0c-.851.46-2.216.22-2.86-.5z"/></a><a color="inherit"><path fill="currentColor" stroke="currentColor" stroke-linecap="round" stroke-linejoin="round" stroke-width=".08" d="M57.289 2.134c1.207-.932 8.227-.932 9.434 0h0c-1.207-.812-8.227-.812-9.434 0z"/></a><path fill="currentColor" d="M66.4 16.86h-.064v-1h.065c.387-.237.895-.593.895-1.037 0-.228-.06-.448-.16-.652-.011-.064.04-.108.093-.108.027 0 .06.012.08.044.1.224.16.468.16.716 0 .812-1.069 1.224-1.069 2.036z"/><rect width=".13" height="3.189" x="-.065" y=".186" fill="currentColor" ry=".04" transform="translate(66.335 13.524)"/><rect width=".13" height="3.314" x="-.065" y="-.314" fill="currentColor" ry=".04" transform="translate(66.335 3.776)"/><a color="inherit"><text fill="currentColor" font-family="serif" font-size="2.47" transform="translate(63.645 19.754)"><tspan> dorn,</tspan></text></a><a color="inherit"><path fill="currentColor" stroke="currentColor" stroke-linecap="round" stroke-linejoin="round" stroke-width=".08" d="M44.155 16.07c.96 1.1 3.35 1.364 4.526.5h0c-1.163.745-3.553.48-4.525-.5z"/></a><a color="inherit"><path fill="currentColor" stroke="currentColor" stroke-linecap="round" stroke-linejoin="round" stroke-width=".08" d="M49.34 12.324v.4l-4.575-.19v-.4z"/></a><a color="inherit"><rect width=".66" height=".13" y="-.55" fill="currentColor" ry=".04" transform="translate(50.357 9.428)"/></a><a color="inherit"><path fill="currentColor" stroke="currentColor" stroke-linecap="round" stroke-linejoin="round" stroke-width=".08" d="M36.078 15.07c.549.847 1.827 1.155 2.702.65h0c-.847.388-2.125.08-2.703-.65z"/></a><a color="inherit"><path fill="currentColor" stroke="currentColor" stroke-linecap="round" stroke-linejoin="round" stroke-width=".08" d="M39.494 11.324v.4l-2.753-.19v-.4z"/></a><a color="inherit"><path fill="currentColor" stroke="currentColor" stroke-linecap="round" stroke-linejoin="round" stroke-width=".08" d="M22.007 5.321c.926 1.135 3.318 1.478 4.526.65h0c-1.19.71-3.583.366-4.526-.65z"/></a><a color="inherit"><path fill="currentColor" stroke="currentColor" stroke-linecap="round" stroke-linejoin="round" stroke-width=".08" d="M27.207 1.576v.4l-4.576-.19v-.4z"/></a><a color="inherit"><path fill="currentColor" d="M60.17 15.48c.22 0 .432.112.432.356 0 .284-.22.484-.408.596a.908.908 0 0 1-.464.136c-.22 0-.432-.112-.432-.356 0-.284.22-.484.408-.596.14-.084.3-.136.464-.136z"/></a><rect width=".13" height="2.81" x="-.065" y="-.996" fill="currentColor" ry=".04" transform="translate(57.676 13.524)"/><rect width=".13" height="3.128" x="-.065" y="-.814" fill="currentColor" ry=".04" transform="translate(60.537 13.524)"/><a color="inherit"><path fill="currentColor" stroke="currentColor" stroke-linecap="round" stroke-linejoin="round" stroke-width=".08" d="M14.1 2.259c.805-.49 2.084-.325 2.713.35h0c-.644-.556-1.923-.72-2.712-.35z"/></a><a color="inherit"><path fill="currentColor" d="M63.03 15.98c.22 0 .433.112.433.356 0 .284-.22.484-.408.596a.908.908 0 0 1-.464.136c-.22 0-.432-.112-.432-.356 0-.284.22-.484.408-.596.14-.084.3-.136.464-.136z"/></a><a color="inherit"><text fill="currentColor" font-family="serif" font-size="2.47" transform="translate(62.077 19.754)"><tspan> a</tspan></text></a><rect width=".13" height="3.314" x="-.065" y="-.5" fill="currentColor" ry=".04" transform="translate(63.398 13.524)"/><path fill="currentColor" d="M63.463 13.064c0 .788.828 1.344.828 2.132 0 .284-.06.564-.164.828a.097.097 0 0 1-.08.048c-.052 0-.104-.044-.092-.108.104-.244.168-.504.168-.768 0-.412-.376-.832-.66-1.132h-.064v-1h.064z"/><a color="inherit"><path fill="currentColor" d="M67.142 2.732c.22 0 .433.112.433.356 0 .284-.22.484-.409.596a.908.908 0 0 1-.463.136c-.22 0-.433-.112-.433-.356 0-.284.22-.484.409-.596.14-.084.3-.136.463-.136z"/></a><a color="inherit"><path fill="currentColor" d="M67.142 12.98c.22 0 .433.112.433.356 0 .284-.22.484-.409.596a.908.908 0 0 1-.463.136c-.22 0-.433-.112-.433-.356 0-.284.22-.484.409-.596.14-.084.3-.136.463-.136z"/></a><path fill="currentColor" d="M14.793 13.024a.224.224 0 1 1 .447 0 .224.224 0 0 1-.447 0z"/><rect width=".13" height="3.128" x="-.065" y="-.314" fill="currentColor" ry=".04" transform="translate(13.458 3.776)"/><a color="inherit"><path fill="currentColor" d="M13.3 13.988c0-.112.045-.168.16-.168.133 0 .313.052.477.124l-.528-.632a.16.16 0 0 1-.04-.1c0-.136.2-.264.348-.396a.435.435 0 0 0 .148-.332.427.427 0 0 0-.1-.276l-.14-.168a.057.057 0 0 1-.016-.04c0-.036.036-.06.068-.06.016 0 .032.004.044.02l.604.72a.16.16 0 0 1 .04.1c0 .136-.2.264-.348.396a.435.435 0 0 0-.148.332c0 .096.028.196.096.276l.336.396a.057.057 0 0 1 .016.04.066.066 0 0 1-.064.064.063.063 0 0 1-.048-.024c-.072-.084-.252-.152-.388-.152-.164 0-.212.104-.212.268 0 .14.044.296.112.376.02.024 0 .052-.024.052-.008 0-.016 0-.024-.008-.18-.216-.368-.592-.368-.808z"/></a><a color="inherit"><text fill="currentColor" font-family="serif" font-size="2.47" transform="translate(13.393 9.428)"><tspan> flee</tspan></text></a><a color="inherit"><path fill="currentColor" d="M14.265 2.732c.22 0 .432.112.432.356 0 .284-.22.484-.408.596a.908.908 0 0 1-.464.136c-.22 0-.432-.112-.432-.356 0-.284.22-.484.408-.596.14-.084.3-.136.464-.136z"/></a><a color="inherit"><path fill="currentColor" d="M19.67 3.732c.22 0 .433.112.433.356 0 .284-.22.484-.408.596a.908.908 0 0 1-.464.136c-.22 0-.432-.112-.432-.356 0-.284.22-.484.408-.596.14-.084.3-.136.464-.136z"/></a><rect width=".13" height="2.809" x="-.065" y=".186" fill="currentColor" ry=".04" transform="translate(16.17 3.776)"/><a color="inherit"><path fill="currentColor" d="M16.977 3.232c.22 0 .432.112.432.356 0 .284-.22.484-.408.596a.908.908 0 0 1-.464.136c-.22 0-.432-.112-.432-.356 0-.284.22-.484.408-.596.14-.084.3-.136.464-.136z"/></a><path fill="currentColor" d="M2.304 13.476c.016 0 .036-.004.052-.004.62 0 1.024.512 1.024 1.044 0 .304-.132.616-.428.84a.905.905 0 0 1-.292.144c.012.14.02.28.02.42 0 .076-.004.156-.008.232-.028.48-.36.912-.832.912a.783.783 0 0 1-.78-.788c0-.232.212-.412.448-.412.216 0 .38.188.38.412 0 .208-.172.38-.38.38a.326.326 0 0 1-.124-.024c.104.156.272.26.468.26.384 0 .628-.368.652-.764a3.775 3.775 0 0 0-.008-.588c-.116.02-.232.032-.356.032-.752 0-1.332-.688-1.332-1.496 0-.708.524-1.224.992-1.764a4.47 4.47 0 0 1-.18-.76 5.429 5.429 0 0 1-.028-.624c0-.46.22-.896.596-1.168a.077.077 0 0 1 .04-.012c.016 0 .028 0 .04.012.284.336.532.98.532 1.432 0 .572-.344 1.02-.72 1.456.084.272.156.552.224.828zm.34 1.86a.71.71 0 0 0 .452-.656.764.764 0 0 0-.692-.76c.096.464.184.924.24 1.416zm-1.548-.924c0 .54.516.988 1.056.988.112 0 .22-.008.328-.024-.056-.508-.148-.98-.252-1.456-.316.032-.496.244-.496.476 0 .176.1.364.324.492.02.02.028.04.028.06 0 .044-.04.088-.088.088-.012 0-.024-.004-.036-.008-.32-.172-.468-.46-.468-.74 0-.352.232-.696.64-.788a15.048 15.048 0 0 0-.184-.7c-.428.484-.852.972-.852 1.612zm1.336-4.068a1.153 1.153 0 0 0-.648 1.036c0 .296.072.532.144.776.32-.388.584-.792.584-1.296 0-.22-.016-.316-.08-.516z"/><a color="inherit"><path fill="currentColor" d="M10.126 14.524l.468-1.304a1.272 1.272 0 0 1-.42.088c-.184 0-.348-.132-.348-.316a.29.29 0 0 1 .292-.288c.1 0 .192.06.224.156.04.112.024.236.14.236.064 0 .216-.192.244-.252.024-.048.092-.048.112 0l-.492 1.68c-.032.028-.068.04-.108.04s-.08-.012-.112-.04z"/></a><a color="inherit"><text fill="currentColor" font-family="serif" font-size="2.47" transform="translate(8.442 9.428)"><tspan> Let</tspan></text></a><a color="inherit"><path fill="currentColor" d="M7.101 2.752c-.204 0-.212.176-.212.408V3.276c0 .232.008.408.212.408.228 0 .244-.204.244-.468s-.016-.464-.244-.464zm-.212-.04a.551.551 0 0 1 .212-.052c.404 0 .68.176.68.556s-.276.56-.68.56c-.448 0-.68-.496-.68-1 0-.512.288-1 .76-1 .284 0 .552.156.552.412 0 .144-.116.264-.26.264s-.264-.12-.264-.264c0-.096.156-.1.156-.196 0-.08-.092-.124-.184-.124-.264 0-.3.26-.3.556 0 .096.008.192.008.288zM7.406 4.638c.108-.116.196-.248.196-.408 0-.22-.228-.348-.468-.348-.188 0-.3.144-.3.284 0 .08.04.16.12.208zm.12.068c.22.124.332.316.332.508 0 .292-.264.576-.756.576-.376 0-.732-.216-.732-.56 0-.2.156-.34.304-.48a.515.515 0 0 1-.244-.424c0-.272.244-.536.704-.536.324 0 .644.152.644.44 0 .188-.12.34-.252.476zm-.732.116c-.132.116-.248.236-.248.408 0 .276.264.468.556.468a.334.334 0 0 0 .344-.332.273.273 0 0 0-.14-.248z"/></a><a color="inherit"><path fill="currentColor" d="M4.528 3.612l-.004.264v.044c0 .088.004.176.016.264.18-.152.372-.32.372-.556 0-.132-.056-.268-.172-.268-.124 0-.208.12-.212.252zm-.168.716l-.048-2.38c.032-.02.072-.032.108-.032s.076.012.108.032L4.5 3.328a.577.577 0 0 1 .364-.136c.208 0 .356.192.356.408 0 .32-.344.468-.588.676-.06.052-.096.152-.18.152-.052 0-.092-.044-.092-.1z"/></a><path fill="currentColor" d="M2.304 3.728c.016 0 .036-.004.052-.004.62 0 1.024.512 1.024 1.044 0 .304-.132.616-.428.84a.905.905 0 0 1-.292.144c.012.14.02.28.02.42 0 .076-.004.156-.008.232-.028.48-.36.912-.832.912a.783.783 0 0 1-.78-.788c0-.232.212-.412.448-.412.216 0 .38.188.38.412 0 .208-.172.38-.38.38a.326.326 0 0 1-.124-.024c.104.156.272.26.468.26.384 0 .628-.368.652-.764a3.775 3.775 0 0 0-.008-.588c-.116.02-.232.032-.356.032-.752 0-1.332-.688-1.332-1.496 0-.708.524-1.224.992-1.764a4.47 4.47 0 0 1-.18-.76 5.429 5.429 0 0 1-.028-.624c0-.46.22-.896.596-1.168A.077.077 0 0 1 2.228 0c.016 0 .028 0 .04.012.284.336.532.98.532 1.432 0 .572-.344 1.02-.72 1.456.084.272.156.552.224.828zm.34 1.86a.71.71 0 0 0 .452-.656.764.764 0 0 0-.692-.76c.096.464.184.924.24 1.416zm-1.548-.924c0 .54.516.988 1.056.988.112 0 .22-.008.328-.024-.056-.508-.148-.98-.252-1.456-.316.032-.496.244-.496.476 0 .176.1.364.324.492.02.02.028.04.028.06 0 .044-.04.088-.088.088-.012 0-.024-.004-.036-.008-.32-.172-.468-.46-.468-.74 0-.352.232-.696.64-.788a15.048 15.048 0 0 0-.184-.7c-.428.484-.852.972-.852 1.612zM2.432.596a1.153 1.153 0 0 0-.648 1.036c0 .296.072.532.144.776.32-.388.584-.792.584-1.296 0-.22-.016-.316-.08-.516z"/><a color="inherit"><path fill="currentColor" d="M10.71 2.732c.22 0 .432.112.432.356 0 .284-.22.484-.408.596a.908.908 0 0 1-.464.136c-.22 0-.432-.112-.432-.356 0-.284.22-.484.408-.596.14-.084.3-.136.464-.136z"/></a><a color="inherit"><path fill="currentColor" d="M4.528 13.36l-.004.264v.044c0 .088.004.176.016.264.18-.152.372-.32.372-.556 0-.132-.056-.268-.172-.268-.124 0-.208.12-.212.252zm-.168.716l-.048-2.38c.032-.02.072-.032.108-.032s.076.012.108.032l-.028 1.38a.577.577 0 0 1 .364-.136c.208 0 .356.192.356.408 0 .32-.344.468-.588.676-.06.052-.096.152-.18.152-.052 0-.092-.044-.092-.1z"/></a><rect width=".16" height="13.848" y="-6.924" fill="currentColor" ry=".05" transform="translate(-.06 8.65)"/><path fill="currentColor" d="M.49.169c.036 0 .064.032.064.064a.065.065 0 0 1-.012.036C.146.845-.318 1.725-1.01 1.725h-.3v-.348c0-.056.044-.1.1-.1h.2C-.374 1.277.074.733.438.197A.068.068 0 0 1 .49.169zM.554 17.067a.066.066 0 0 1-.064.064.068.068 0 0 1-.052-.028c-.364-.536-.812-1.08-1.448-1.08h-.2a.099.099 0 0 1-.1-.1v-.348h.3c.692 0 1.156.88 1.552 1.456a.065.065 0 0 1 .012.036z"/><rect width=".45" height="13.938" y="-6.969" fill="currentColor" ry="0" transform="translate(-1.31 8.65)"/><path fill="currentColor" d="M9.968 6.736h-.064v-1h.064c.388-.236.896-.592.896-1.036 0-.228-.06-.448-.16-.652-.012-.064.04-.108.092-.108.028 0 .06.012.08.044.1.224.16.468.16.716 0 .812-1.068 1.224-1.068 2.036z"/><rect width=".13" height="3.314" x="-.065" y="-.314" fill="currentColor" ry=".04" transform="translate(9.903 3.776)"/><a color="inherit"><path fill="currentColor" d="M7.101 12.5c-.204 0-.212.176-.212.408V13.024c0 .232.008.408.212.408.228 0 .244-.204.244-.468s-.016-.464-.244-.464zm-.212-.04a.551.551 0 0 1 .212-.052c.404 0 .68.176.68.556s-.276.56-.68.56c-.448 0-.68-.496-.68-1 0-.512.288-1 .76-1 .284 0 .552.156.552.412 0 .144-.116.264-.26.264s-.264-.12-.264-.264c0-.096.156-.1.156-.196 0-.08-.092-.124-.184-.124-.264 0-.3.26-.3.556 0 .096.008.192.008.288zM7.406 14.387c.108-.116.196-.248.196-.408 0-.22-.228-.348-.468-.348-.188 0-.3.144-.3.284 0 .08.04.16.12.208zm.12.068c.22.124.332.316.332.508 0 .292-.264.576-.756.576-.376 0-.732-.216-.732-.56 0-.2.156-.34.304-.48a.515.515 0 0 1-.244-.424c0-.272.244-.536.704-.536.324 0 .644.152.644.44 0 .188-.12.34-.252.476zm-.732.116c-.132.116-.248.236-.248.408 0 .276.264.468.556.468a.334.334 0 0 0 .344-.332.273.273 0 0 0-.14-.248z"/></a><a color="inherit"><path fill="currentColor" d="M31.34 4.732c.22 0 .432.112.432.356 0 .284-.22.484-.408.596a.908.908 0 0 1-.464.136c-.22 0-.432-.112-.432-.356 0-.284.22-.484.408-.596.14-.084.3-.136.464-.136z"/></a><a color="inherit"><text fill="currentColor" font-family="serif" font-size="2.47" transform="translate(29.105 9.428)"><tspan> the</tspan></text></a><a color="inherit"><text fill="currentColor" font-family="serif" font-size="2.47" transform="translate(18.068 9.428)"><tspan> cy</tspan></text></a><a color="inherit"><path fill="currentColor" d="M31.34 15.98c.22 0 .432.112.432.356 0 .284-.22.484-.408.596a.908.908 0 0 1-.464.136c-.22 0-.432-.112-.432-.356 0-.284.22-.484.408-.596.14-.084.3-.136.464-.136z"/></a><a color="inherit"><text fill="currentColor" font-family="serif" font-size="2.47" transform="translate(29.071 19.754)"><tspan> Let</tspan></text></a><rect width=".13" height="3.314" x="-.065" y="-2" fill="currentColor" ry=".04" transform="translate(31.707 3.776)"/><path fill="currentColor" d="M31.772 1.816c0 .788.828 1.344.828 2.132 0 .284-.06.564-.164.828a.097.097 0 0 1-.08.048c-.052 0-.104-.044-.092-.108.104-.244.168-.504.168-.768 0-.412-.376-.832-.66-1.132h-.064v-1h.064z"/><rect width=".13" height="3.314" x="-.065" y="-.5" fill="currentColor" ry=".04" transform="translate(31.707 13.524)"/><rect width=".13" height="3.314" x="-.065" y="-1.814" fill="currentColor" ry=".04" transform="translate(35.592 3.776)"/><path fill="currentColor" d="M37.281 1.276a.224.224 0 1 1 .447 0 .224.224 0 0 1-.447 0zM31.772 13.064c0 .788.828 1.344.828 2.132 0 .284-.06.564-.164.828a.097.097 0 0 1-.08.048c-.052 0-.104-.044-.092-.108.104-.244.168-.504.168-.768 0-.412-.376-.832-.66-1.132h-.064v-1h.064z"/><a color="inherit"><text fill="currentColor" font-family="serif" font-size="2.47" transform="translate(35.527 19.754)"><tspan> flee</tspan></text></a><a color="inherit"><path fill="currentColor" d="M36.399 1.232c.22 0 .432.112.432.356 0 .284-.22.484-.408.596a.908.908 0 0 1-.464.136c-.22 0-.432-.112-.432-.356 0-.284.22-.484.408-.596.14-.084.3-.136.464-.136z"/></a><a color="inherit"><text fill="currentColor" font-family="serif" font-size="2.47" transform="translate(33.584 9.428)"><tspan> hills</tspan></text></a><a color="inherit"><path fill="currentColor" d="M36.399 13.48c.22 0 .432.112.432.356 0 .284-.22.484-.408.596a.908.908 0 0 1-.464.136c-.22 0-.432-.112-.432-.356 0-.284.22-.484.408-.596.14-.084.3-.136.464-.136z"/></a><rect width=".13" height="3.314" x="-.065" y="-3" fill="currentColor" ry=".04" transform="translate(20.038 3.776)"/><path fill="currentColor" d="M20.103.816c0 .788.828 1.344.828 2.132 0 .284-.06.564-.164.828a.097.097 0 0 1-.08.048c-.052 0-.104-.044-.092-.108.104-.244.168-.504.168-.768 0-.412-.376-.832-.66-1.132h-.064v-1h.064z"/><a color="inherit"><path fill="currentColor" d="M22.289 3.732c.22 0 .432.112.432.356 0 .284-.22.484-.408.596a.908.908 0 0 1-.464.136c-.22 0-.432-.112-.432-.356 0-.284.22-.484.408-.596.14-.084.3-.136.464-.136z"/></a><rect width=".13" height="2.499" x="-.065" y="-2.186" fill="currentColor" ry=".04" transform="translate(36.766 13.524)"/><a color="inherit"><text fill="currentColor" font-family="serif" font-size="2.47" transform="translate(21.417 9.428)"><tspan> flocks</tspan></text></a><a color="inherit"><path fill="currentColor" d="M21.325 13.988c0-.112.044-.168.16-.168.132 0 .312.052.476.124l-.528-.632a.16.16 0 0 1-.04-.1c0-.136.2-.264.348-.396a.435.435 0 0 0 .148-.332.427.427 0 0 0-.1-.276l-.14-.168a.057.057 0 0 1-.016-.04c0-.036.036-.06.068-.06.016 0 .032.004.044.02l.604.72a.16.16 0 0 1 .04.1c0 .136-.2.264-.348.396a.435.435 0 0 0-.148.332c0 .096.028.196.096.276l.336.396a.057.057 0 0 1 .016.04.066.066 0 0 1-.064.064.063.063 0 0 1-.048-.024c-.072-.084-.252-.152-.388-.152-.164 0-.212.104-.212.268 0 .14.044.296.112.376.02.024 0 .052-.024.052-.008 0-.016 0-.024-.008-.18-.216-.368-.592-.368-.808z"/></a><rect width=".13" height="2.501" x="-.065" y="-2.187" fill="currentColor" ry=".04" transform="translate(22.656 3.776)"/><rect width=".13" height="2.817" x="-.065" y="-2.003" fill="currentColor" ry=".04" transform="translate(27.181 3.776)"/><a color="inherit"><path fill="currentColor" d="M26.814 4.232c.22 0 .432.112.432.356 0 .284-.22.484-.408.596a.908.908 0 0 1-.464.136c-.22 0-.432-.112-.432-.356 0-.284.22-.484.408-.596.14-.084.3-.136.464-.136z"/></a></svg>