<svg xmlns:xlink="http://www.w3.org/1999/xlink" version="1.2" viewBox="0 0 73.977 33.244"><text fill="currentColor" font-family="serif" font-size="2.2" transform="translate(1.423 .57)"></text><path stroke="currentColor" stroke-linecap="round" stroke-linejoin="round" stroke-width=".1" d="M1.473 7.333h71.032M1.473 6.333h71.032M1.473 5.333h71.032M1.473 4.333h71.032M1.473 3.333h71.032"/><rect width="2.943" height=".2" x="57.062" y="-.1" fill="currentColor" ry=".1" transform="translate(1.423 8.333)"/><rect width="2.943" height=".2" x="40.778" y="-.1" fill="currentColor" ry=".1" transform="translate(1.423 8.333)"/><rect width="2.943" height=".2" x="8.21" y="-.1" fill="currentColor" ry=".1" transform="translate(1.423 8.333)"/><rect width=".19" height="4" y="-2" fill="currentColor" ry="0" transform="translate(56.08 5.333)"/><rect width=".19" height="4" y="-2" fill="currentColor" ry="0" transform="translate(39.796 5.333)"/><rect width=".19" height="4" y="-2" fill="currentColor" ry="0" transform="translate(23.512 5.333)"/><rect width=".19" height="4" y="-2" fill="currentColor" ry="0" transform="translate(72.365 5.333)"/><a color="inherit"><path fill="currentColor" d="M59.827 7.885c-.2 0-.276.172-.276.352 0 .308.228.544.536.544.2 0 .276-.172.276-.352a.528.528 0 0 0-.536-.544zm1.112.448c0 .172-.136.3-.288.384-.212.116-.456.16-.696.16s-.48-.044-.692-.16c-.152-.084-.288-.212-.288-.384s.136-.3.288-.384c.212-.116.452-.16.692-.16s.484.044.696.16c.152.084.288.212.288.384z"/></a><a color="inherit"><path fill="currentColor" d="M27.259 6.385c-.2 0-.276.172-.276.352 0 .308.228.544.536.544.2 0 .276-.172.276-.352a.528.528 0 0 0-.536-.544zm1.112.448c0 .172-.136.3-.288.384-.212.116-.456.16-.696.16s-.48-.044-.692-.16c-.152-.084-.288-.212-.288-.384s.136-.3.288-.384c.212-.116.452-.16.692-.16s.484.044.696.16c.152.084.288.212.288.384z"/></a><path fill="currentColor" d="M7.859 5.225a.301.301 0 0 1-.3-.3c0-.152.108-.308.288-.308.016 0 .036 0 .056.004a.599.599 0 0 0-.48-.236c-.424 0-.452.292-.452.744v.408c0 .452.028.748.452.748.32 0 .556-.28.632-.604.008-.028.028-.04.048-.04.024 0 .052.016.052.048 0 .376-.42.696-.732.696-.272 0-.548-.084-.736-.28-.196-.204-.264-.488-.264-.772s.068-.568.264-.772c.188-.196.464-.276.736-.276.348 0 .64.252.7.596.004.02.004.04.004.056 0 .16-.12.288-.268.288zM3.287 8.873h-.024a.783.783 0 0 1-.78-.788c0-.232.212-.412.448-.412.216 0 .38.188.38.412 0 .208-.172.38-.38.38a.326.326 0 0 1-.124-.024c.104.156.272.26.468.26h.016zm.78-1.728a.71.71 0 0 0 .452-.656.764.764 0 0 0-.692-.76c.096.464.184.924.24 1.416zm-1.548-.924c0 .54.516.988 1.056.988.112 0 .22-.008.328-.024-.056-.508-.148-.98-.252-1.456-.316.032-.496.244-.496.476 0 .176.1.364.324.492.02.02.028.04.028.06 0 .044-.04.088-.088.088-.012 0-.024-.004-.036-.008-.32-.172-.468-.46-.468-.74 0-.352.232-.696.64-.788a15.048 15.048 0 0 0-.184-.7c-.428.484-.852.972-.852 1.612zm1.044 1.16c-.752 0-1.332-.688-1.332-1.496 0-.708.524-1.224.992-1.764a4.47 4.47 0 0 1-.18-.76 5.429 5.429 0 0 1-.028-.624c0-.46.22-.896.596-1.168a.06.06 0 0 1 .08 0c.284.336.532.98.532 1.432 0 .572-.344 1.02-.72 1.456.084.272.156.552.224.828.016 0 .036-.004.052-.004.62 0 1.024.512 1.024 1.044 0 .304-.132.616-.428.84a.905.905 0 0 1-.292.144c.012.14.02.28.02.42 0 .076-.004.156-.008.232-.028.476-.352.9-.808.912l.004-.172c.372-.008.612-.368.636-.764a3.775 3.775 0 0 0-.008-.588c-.116.02-.232.032-.356.032zm.372-4.712c0-.22-.016-.316-.08-.516a1.153 1.153 0 0 0-.648 1.036c0 .296.072.532.144.776.32-.388.584-.792.584-1.296z"/><a color="inherit"><path fill="currentColor" d="M10.975 7.885c-.2 0-.276.172-.276.352 0 .308.228.544.536.544.2 0 .276-.172.276-.352a.528.528 0 0 0-.536-.544zm1.112.448c0 .172-.136.3-.288.384-.212.116-.456.16-.696.16s-.48-.044-.692-.16c-.152-.084-.288-.212-.288-.384s.136-.3.288-.384c.212-.116.452-.16.692-.16s.484.044.696.16c.152.084.288.212.288.384z"/></a><a color="inherit"><path fill="currentColor" d="M43.543 7.885c-.2 0-.276.172-.276.352 0 .308.228.544.536.544.2 0 .276-.172.276-.352a.528.528 0 0 0-.536-.544zm1.112.448c0 .172-.136.3-.288.384-.212.116-.456.16-.696.16s-.48-.044-.692-.16c-.152-.084-.288-.212-.288-.384s.136-.3.288-.384c.212-.116.452-.16.692-.16s.484.044.696.16c.152.084.288.212.288.384z"/></a><path stroke="currentColor" stroke-linecap="round" stroke-linejoin="round" stroke-width=".1" d="M1.473 18.732h71.032M1.473 17.732h71.032M1.473 16.732h71.032M1.473 15.732h71.032M1.473 14.732h71.032"/><rect width=".19" height="4" y="-2" fill="currentColor" ry="0" transform="translate(38.31 16.732)"/><rect width=".19" height="4" y="-2" fill="currentColor" ry="0" transform="translate(21.282 16.732)"/><rect width=".19" height="4" y="-2" fill="currentColor" ry="0" transform="translate(55.337 16.732)"/><rect width=".19" height="4" y="-2" fill="currentColor" ry="0" transform="translate(72.365 16.732)"/><rect width="2.943" height=".2" x="56.392" y="-.1" fill="currentColor" ry=".1" transform="translate(1.423 19.732)"/><rect width="2.943" height=".2" x="39.365" y="-.1" fill="currentColor" ry=".1" transform="translate(1.423 19.732)"/><a color="inherit"><path fill="currentColor" d="M59.157 19.284c-.2 0-.276.172-.276.352 0 .308.228.544.536.544.2 0 .276-.172.276-.352a.528.528 0 0 0-.536-.544zm1.112.448c0 .172-.136.3-.288.384-.212.116-.456.16-.696.16s-.48-.044-.692-.16c-.152-.084-.288-.212-.288-.384s.136-.3.288-.384c.212-.116.452-.16.692-.16s.484.044.696.16c.152.084.288.212.288.384z"/></a><a color="inherit"><path fill="currentColor" d="M42.13 19.284c-.2 0-.276.172-.276.352 0 .308.228.544.536.544.2 0 .276-.172.276-.352a.528.528 0 0 0-.536-.544zm1.112.448c0 .172-.136.3-.288.384-.212.116-.456.16-.696.16s-.48-.044-.692-.16c-.152-.084-.288-.212-.288-.384s.136-.3.288-.384c.212-.116.452-.16.692-.16s.484.044.696.16c.152.084.288.212.288.384z"/></a><a color="inherit"><path fill="currentColor" d="M8.075 17.784c-.2 0-.276.172-.276.352 0 .308.228.544.536.544.2 0 .276-.172.276-.352a.528.528 0 0 0-.536-.544zm1.112.448c0 .172-.136.3-.288.384-.212.116-.456.16-.696.16s-.48-.044-.692-.16c-.152-.084-.288-.212-.288-.384s.136-.3.288-.384c.212-.116.452-.16.692-.16s.484.044.696.16c.152.084.288.212.288.384z"/></a><path fill="currentColor" d="M3.287 20.272h-.024a.783.783 0 0 1-.78-.788c0-.232.212-.412.448-.412.216 0 .38.188.38.412 0 .208-.172.38-.38.38a.326.326 0 0 1-.124-.024c.104.156.272.26.468.26h.016zm.78-1.728a.71.71 0 0 0 .452-.656.764.764 0 0 0-.692-.76c.096.464.184.924.24 1.416zm-1.548-.924c0 .54.516.988 1.056.988.112 0 .22-.008.328-.024-.056-.508-.148-.98-.252-1.456-.316.032-.496.244-.496.476 0 .176.1.364.324.492.02.02.028.04.028.06 0 .044-.04.088-.088.088-.012 0-.024-.004-.036-.008-.32-.172-.468-.46-.468-.74 0-.352.232-.696.64-.788a15.048 15.048 0 0 0-.184-.7c-.428.484-.852.972-.852 1.612zm1.044 1.16c-.752 0-1.332-.688-1.332-1.496 0-.708.524-1.224.992-1.764a4.47 4.47 0 0 1-.18-.76 5.429 5.429 0 0 1-.028-.624c0-.46.22-.896.596-1.168a.06.06 0 0 1 .08 0c.284.336.532.98.532 1.432 0 .572-.344 1.02-.72 1.456.084.272.156.552.224.828.016 0 .036-.004.052-.004.62 0 1.024.512 1.024 1.044 0 .304-.132.616-.428.84a.905.905 0 0 1-.292.144c.012.14.02.28.02.42 0 .076-.004.156-.008.232-.028.476-.352.9-.808.912l.004-.172c.372-.008.612-.368.636-.764a3.775 3.775 0 0 0-.008-.588c-.116.02-.232.032-.356.032zm.372-4.712c0-.22-.016-.316-.08-.516a1.153 1.153 0 0 0-.648 1.036c0 .296.072.532.144.776.32-.388.584-.792.584-1.296z"/><text fill="currentColor" font-family="serif" font-size="1.746" transform="translate(.296 13.648)"><tspan> 5</tspan></text><a color="inherit"><path fill="currentColor" d="M25.102 17.784c-.2 0-.276.172-.276.352 0 .308.228.544.536.544.2 0 .276-.172.276-.352a.528.528 0 0 0-.536-.544zm1.112.448c0 .172-.136.3-.288.384-.212.116-.456.16-.696.16s-.48-.044-.692-.16c-.152-.084-.288-.212-.288-.384s.136-.3.288-.384c.212-.116.452-.16.692-.16s.484.044.696.16c.152.084.288.212.288.384z"/></a><path stroke="currentColor" stroke-linecap="round" stroke-linejoin="round" stroke-width=".1" d="M1.473 30.13h71.032M1.473 29.13h71.032M1.473 28.13h71.032M1.473 27.13h71.032M1.473 26.13h71.032"/><rect width=".19" height="4" y="-2" fill="currentColor" ry="0" transform="translate(38.31 28.13)"/><rect width=".19" height="4" y="-2" fill="currentColor" ry="0" transform="translate(21.282 28.13)"/><rect width=".19" height="4" y="-2" fill="currentColor" ry="0" transform="translate(55.337 28.13)"/><rect width=".19" height="4" y="-2" fill="currentColor" ry="0" transform="translate(72.365 28.13)"/><rect width="2.943" height=".2" x="56.392" y="-.1" fill="currentColor" ry=".1" transform="translate(1.423 31.13)"/><rect width="2.943" height=".2" x="39.365" y="-.1" fill="currentColor" ry=".1" transform="translate(1.423 31.13)"/><a color="inherit"><path fill="currentColor" d="M59.157 30.682c-.2 0-.276.172-.276.352 0 .308.228.544.536.544.2 0 .276-.172.276-.352a.528.528 0 0 0-.536-.544zm1.112.448c0 .172-.136.3-.288.384-.212.116-.456.16-.696.16s-.48-.044-.692-.16c-.152-.084-.288-.212-.288-.384s.136-.3.288-.384c.212-.116.452-.16.692-.16s.484.044.696.16c.152.084.288.212.288.384z"/></a><a color="inherit"><path fill="currentColor" d="M42.13 30.682c-.2 0-.276.172-.276.352 0 .308.228.544.536.544.2 0 .276-.172.276-.352a.528.528 0 0 0-.536-.544zm1.112.448c0 .172-.136.3-.288.384-.212.116-.456.16-.696.16s-.48-.044-.692-.16c-.152-.084-.288-.212-.288-.384s.136-.3.288-.384c.212-.116.452-.16.692-.16s.484.044.696.16c.152.084.288.212.288.384z"/></a><a color="inherit"><path fill="currentColor" d="M8.075 28.682c-.2 0-.276.172-.276.352 0 .308.228.544.536.544.2 0 .276-.172.276-.352a.528.528 0 0 0-.536-.544zm1.112.448c0 .172-.136.3-.288.384-.212.116-.456.16-.696.16s-.48-.044-.692-.16c-.152-.084-.288-.212-.288-.384s.136-.3.288-.384c.212-.116.452-.16.692-.16s.484.044.696.16c.152.084.288.212.288.384z"/></a><path fill="currentColor" d="M3.287 31.67h-.024a.783.783 0 0 1-.78-.788c0-.232.212-.412.448-.412.216 0 .38.188.38.412 0 .208-.172.38-.38.38a.326.326 0 0 1-.124-.024c.104.156.272.26.468.26h.016zm.78-1.728a.71.71 0 0 0 .452-.656.764.764 0 0 0-.692-.76c.096.464.184.924.24 1.416zm-1.548-.924c0 .54.516.988 1.056.988.112 0 .22-.008.328-.024-.056-.508-.148-.98-.252-1.456-.316.032-.496.244-.496.476 0 .176.1.364.324.492.02.02.028.04.028.06 0 .044-.04.088-.088.088-.012 0-.024-.004-.036-.008-.32-.172-.468-.46-.468-.74 0-.352.232-.696.64-.788a15.048 15.048 0 0 0-.184-.7c-.428.484-.852.972-.852 1.612zm1.044 1.16c-.752 0-1.332-.688-1.332-1.496 0-.708.524-1.224.992-1.764a4.47 4.47 0 0 1-.18-.76 5.429 5.429 0 0 1-.028-.624c0-.46.22-.896.596-1.168a.06.06 0 0 1 .08 0c.284.336.532.98.532 1.432 0 .572-.344 1.02-.72 1.456.084.272.156.552.224.828.016 0 .036-.004.052-.004.62 0 1.024.512 1.024 1.044 0 .304-.132.616-.428.84a.905.905 0 0 1-.292.144c.012.14.02.28.02.42 0 .076-.004.156-.008.232-.028.476-.352.9-.808.912l.004-.172c.372-.008.612-.368.636-.764a3.775 3.775 0 0 0-.008-.588c-.116.02-.232.032-.356.032zm.372-4.712c0-.22-.016-.316-.08-.516a1.153 1.153 0 0 0-.648 1.036c0 .296.072.532.144.776.32-.388.584-.792.584-1.296z"/><text fill="currentColor" font-family="serif" font-size="1.746" transform="translate(.296 25.046)"><tspan> 9</tspan></text><a color="inherit"><path fill="currentColor" d="M25.102 29.182c-.2 0-.276.172-.276.352 0 .308.228.544.536.544.2 0 .276-.172.276-.352a.528.528 0 0 0-.536-.544zm1.112.448c0 .172-.136.3-.288.384-.212.116-.456.16-.696.16s-.48-.044-.692-.16c-.152-.084-.288-.212-.288-.384s.136-.3.288-.384c.212-.116.452-.16.692-.16s.484.044.696.16c.152.084.288.212.288.384z"/></a></svg>