<svg xmlns:xlink="http://www.w3.org/1999/xlink" version="1.2" viewBox="0 0 87.032 127.535"><text fill="currentColor" font-family="serif" font-size="2.2" transform="translate(1.674 2.008)"></text><rect width=".212" height="4" y="-2" fill="currentColor" ry="0" transform="translate(48.55 83.64)"/><rect width=".212" height="4.056" y="-2.056" fill="currentColor" ry="0" transform="translate(40.244 30.048)"/><path stroke="currentColor" stroke-linecap="round" stroke-linejoin="round" stroke-width=".112" d="M21.814 116.65h26.892M21.814 115.65h26.892M21.814 114.65h26.892M21.814 113.65h26.892M21.814 112.65h26.892"/><rect width=".212" height="4.056" y="-2" fill="currentColor" ry="0" transform="translate(40.244 67.124)"/><rect width=".212" height="4.056" y="-2.056" fill="currentColor" ry="0" transform="translate(48.55 75.382)"/><path stroke="currentColor" stroke-linecap="round" stroke-linejoin="round" stroke-width=".112" d="M21.814 110.196h26.892M21.814 109.196h26.892M21.814 108.196h26.892M21.814 107.196h26.892M21.814 106.196h26.892"/><rect width=".212" height="4.112" y="-2.056" fill="currentColor" ry="0" transform="translate(40.244 114.65)"/><rect width=".212" height="4.203" y="66.171" fill="currentColor" ry="0" transform="translate(48.55 3.008)"/><path stroke="currentColor" stroke-linecap="round" stroke-linejoin="round" stroke-width=".112" d="M21.814 102.742h26.892M21.814 101.742h26.892M21.814 100.742h26.892M21.814 99.742h26.892M21.814 98.742h26.892M21.814 94.983h26.892M21.814 93.983h26.892M21.814 92.983h26.892M21.814 91.983h26.892M21.814 90.983h26.892"/><rect width=".212" height="4.056" y="-2" fill="currentColor" ry="0" transform="translate(48.55 92.983)"/><rect width=".212" height="4.056" y="-2" fill="currentColor" ry="0" transform="translate(40.244 22.29)"/><path stroke="currentColor" stroke-linecap="round" stroke-linejoin="round" stroke-width=".112" d="M21.814 85.64h26.892M21.814 84.64h26.892M21.814 83.64h26.892M21.814 82.64h26.892M21.814 81.64h26.892"/><rect width=".212" height="4.112" y="-2.056" fill="currentColor" ry="0" transform="translate(40.244 108.196)"/><rect width=".212" height="4.112" y="-2.056" fill="currentColor" ry="0" transform="translate(48.55 100.742)"/><rect width=".212" height="4.056" y="-2.056" fill="currentColor" ry="0" transform="translate(40.244 75.382)"/><path stroke="currentColor" stroke-linecap="round" stroke-linejoin="round" stroke-width=".112" d="M21.814 77.382h26.892M21.814 76.382h26.892M21.814 75.382h26.892M21.814 74.382h26.892M21.814 73.382h26.892"/><rect width=".212" height="2.112" y="-1.056" fill="currentColor" ry="0" transform="translate(48.55 37.502)"/><rect width=".212" height="4.056" y="-2" fill="currentColor" ry="0" transform="translate(48.55 6.772)"/><rect width=".212" height="4.056" y="-2.056" fill="currentColor" ry="0" transform="translate(40.244 51.41)"/><rect width=".212" height="4.056" y="-2.056" fill="currentColor" ry="0" transform="translate(48.55 14.53)"/><rect width=".212" height="2.399" y="44.004" fill="currentColor" ry="0" transform="translate(40.244 3.008)"/><rect width=".212" height="3.703" y="5.82" fill="currentColor" ry="0" transform="translate(48.55 3.008)"/><rect width=".212" height="4.056" y="-2" fill="currentColor" ry="0" transform="translate(48.55 22.29)"/><rect width=".212" height="4.056" y="-2" fill="currentColor" ry="0" transform="translate(40.244 44.956)"/><rect width=".212" height="4.056" y="-2.056" fill="currentColor" ry="0" transform="translate(48.55 30.048)"/><rect width=".212" height="2.399" y="113.698" fill="currentColor" ry="0" transform="translate(40.244 3.008)"/><rect width=".212" height="2.399" y="107.243" fill="currentColor" ry="0" transform="translate(40.244 3.008)"/><rect width=".212" height="3.399" y="99.789" fill="currentColor" ry="0" transform="translate(40.244 3.008)"/><rect width=".212" height="3.703" y="92.031" fill="currentColor" ry="0" transform="translate(40.244 3.008)"/><rect width=".212" height="3.703" y="21.337" fill="currentColor" ry="0" transform="translate(48.55 3.008)"/><path stroke="currentColor" stroke-linecap="round" stroke-linejoin="round" stroke-width=".112" d="M21.814 8.772h26.892M21.814 7.772h26.892M21.814 6.772h26.892M21.814 5.772h26.892M21.814 4.772h26.892"/><rect width=".212" height="4" y="-2" fill="currentColor" ry="0" transform="translate(40.244 58.865)"/><rect width=".212" height="4.056" y="-2" fill="currentColor" ry="0" transform="translate(48.55 44.956)"/><rect width=".212" height="2.112" y="-1.056" fill="currentColor" ry="0" transform="translate(40.244 37.502)"/><rect width=".212" height="4.056" y="-2.056" fill="currentColor" ry="0" transform="translate(40.244 121.105)"/><rect width=".212" height="4.056" y="-2.056" fill="currentColor" ry="0" transform="translate(48.55 51.41)"/><rect width=".212" height="3.703" y="21.337" fill="currentColor" ry="0" transform="translate(40.244 3.008)"/><rect width=".212" height="2.399" y="44.004" fill="currentColor" ry="0" transform="translate(48.55 3.008)"/><rect width=".212" height="4" y="-2" fill="currentColor" ry="0" transform="translate(48.55 58.865)"/><rect width=".212" height="4.056" y="-2" fill="currentColor" ry="0" transform="translate(48.55 67.124)"/><path stroke="currentColor" stroke-linecap="round" stroke-linejoin="round" stroke-width=".112" d="M21.814 123.105h26.892M21.814 122.105h26.892M21.814 121.105h26.892M21.814 120.105h26.892M21.814 119.105h26.892"/><rect width=".212" height="4.056" y="-2.056" fill="currentColor" ry="0" transform="translate(40.244 14.53)"/><rect width=".212" height="4.203" y="66.171" fill="currentColor" ry="0" transform="translate(40.244 3.008)"/><rect width=".212" height="4.056" y="-2.056" fill="currentColor" ry="0" transform="translate(48.55 121.105)"/><path stroke="currentColor" stroke-linecap="round" stroke-linejoin="round" stroke-width=".112" d="M21.814 53.41h26.892M21.814 52.41h26.892M21.814 51.41h26.892M21.814 50.41h26.892M21.814 49.41h26.892M21.814 46.956h26.892M21.814 45.956h26.892M21.814 44.956h26.892M21.814 43.956h26.892M21.814 42.956h26.892"/><rect width=".212" height="4.112" y="-2.056" fill="currentColor" ry="0" transform="translate(40.244 100.742)"/><rect width=".212" height="4.056" y="-2" fill="currentColor" ry="0" transform="translate(40.244 92.983)"/><path stroke="currentColor" stroke-linecap="round" stroke-linejoin="round" stroke-width=".112" d="M21.814 37.502h26.892M21.814 24.29h26.892M21.814 23.29h26.892M21.814 22.29h26.892M21.814 21.29h26.892M21.814 20.29h26.892"/><rect width=".212" height="2.399" y="113.698" fill="currentColor" ry="0" transform="translate(48.55 3.008)"/><rect width=".212" height="2.399" y="107.243" fill="currentColor" ry="0" transform="translate(48.55 3.008)"/><rect width=".212" height="3.399" y="99.789" fill="currentColor" ry="0" transform="translate(48.55 3.008)"/><rect width=".212" height="3.703" y="92.031" fill="currentColor" ry="0" transform="translate(48.55 3.008)"/><rect width=".212" height="4" y="-2" fill="currentColor" ry="0" transform="translate(40.244 83.64)"/><rect width=".212" height="4.056" y="-2" fill="currentColor" ry="0" transform="translate(40.244 6.772)"/><path stroke="currentColor" stroke-linecap="round" stroke-linejoin="round" stroke-width=".112" d="M21.814 32.048h26.892M21.814 31.048h26.892M21.814 30.048h26.892M21.814 29.048h26.892M21.814 28.048h26.892"/><rect width="2.918" height=".212" x="40.346" y="-.106" fill="currentColor" ry=".106" transform="translate(1.674 55.865)"/><rect width=".212" height="3.703" y="5.82" fill="currentColor" ry="0" transform="translate(40.244 3.008)"/><rect width=".212" height="3.703" y="92.031" fill="currentColor" ry="0" transform="translate(48.55 3.008)"/><rect width=".212" height="4.112" y="-2.056" fill="currentColor" ry="0" transform="translate(48.55 108.196)"/><path stroke="currentColor" stroke-linecap="round" stroke-linejoin="round" stroke-width=".112" d="M21.814 69.124h26.892M21.814 68.124h26.892M21.814 67.124h26.892M21.814 66.124h26.892M21.814 65.124h26.892"/><rect width=".212" height="4.112" y="-2.056" fill="currentColor" ry="0" transform="translate(48.55 114.65)"/><path stroke="currentColor" stroke-linecap="round" stroke-linejoin="round" stroke-width=".112" d="M21.814 16.53h26.892M21.814 15.53h26.892M21.814 14.53h26.892M21.814 13.53h26.892M21.814 12.53h26.892M21.814 60.865h26.892M21.814 59.865h26.892M21.814 58.865h26.892M21.814 57.865h26.892M21.814 56.865h26.892"/><rect width=".212" height="3.703" y="92.031" fill="currentColor" ry="0" transform="translate(40.244 3.008)"/><a color="inherit"><path fill="currentColor" d="M43.35 115.206c-.196 0-.272.172-.272.352 0 .3.228.536.528.536.196 0 .272-.171.272-.351 0-.3-.228-.537-.528-.537zm1.1.444c0 .172-.132.304-.284.388-.208.117-.448.16-.688.16s-.48-.043-.688-.16c-.152-.083-.284-.215-.284-.387s.132-.305.284-.389c.208-.116.448-.16.688-.16s.48.044.688.16c.152.084.284.216.284.388z"/></a><path fill="currentColor" d="M41.924 25.033c0 .044-.032.076-.076.076s-.08-.032-.08-.076v-.568l-.324.12v.624c0 .044-.036.08-.08.08s-.076-.036-.076-.08v-.568l-.112.044c-.012.004-.02.004-.032.004a.09.09 0 0 1-.088-.092v-.228a.09.09 0 0 1 .06-.084l.172-.064v-.628l-.112.04c-.012.004-.02.004-.032.004a.086.086 0 0 1-.088-.088v-.228a.09.09 0 0 1 .06-.084l.172-.064v-.628c0-.044.032-.076.076-.076s.08.032.08.076v.568l.324-.12v-.624c0-.044.036-.08.08-.08s.076.036.076.08v.568l.112-.044c.012-.004.02-.004.032-.004a.09.09 0 0 1 .088.092v.228a.09.09 0 0 1-.06.084l-.172.064v.628l.112-.04c.012-.004.02-.004.032-.004.048 0 .088.036.088.088v.228a.09.09 0 0 1-.06.084l-.172.064v.628zm-.48-1.5v.632l.324-.12v-.632z"/><a color="inherit"><path fill="currentColor" d="M43.35 121.66c-.196 0-.272.173-.272.353 0 .3.228.536.528.536.196 0 .272-.172.272-.352 0-.3-.228-.536-.528-.536zm1.1.445c0 .172-.132.304-.284.388-.208.116-.448.16-.688.16s-.48-.044-.688-.16c-.152-.084-.284-.216-.284-.388s.132-.304.284-.388c.208-.116.448-.16.688-.16s.48.044.688.16c.152.084.284.216.284.388z"/></a><a color="inherit"><rect width=".66" height=".145" y="-.565" fill="currentColor" ry=".045" transform="translate(39.166 63.269)"/></a><a color="inherit"><rect width=".66" height=".145" y="-.565" fill="currentColor" ry=".045" transform="translate(39.166 71.527)"/></a><a color="inherit"><rect width=".66" height=".145" y="-.565" fill="currentColor" ry=".045" transform="translate(39.066 79.826)"/></a><a color="inherit"><rect width=".66" height=".145" y="-.565" fill="currentColor" ry=".045" transform="translate(39.166 88.044)"/></a><path fill="currentColor" d="M31.94 37.386a.293.293 0 0 1-.296-.292c0-.152.108-.304.284-.304.016 0 .028 0 .044.004a.58.58 0 0 0-.464-.236c-.424 0-.452.296-.452.752 0 .06.004.124.004.192s-.004.132-.004.192c0 .456.028.752.452.752.316 0 .544-.28.62-.6.008-.028.028-.04.052-.04.028 0 .056.02.056.052 0 .38-.42.7-.728.7-.272 0-.548-.08-.736-.28-.196-.204-.264-.492-.264-.776s.068-.572.264-.776c.188-.2.464-.28.736-.28.344 0 .632.264.692.608a.228.228 0 0 1 .004.052c0 .156-.12.28-.264.28z"/><a color="inherit"><path fill="currentColor" d="M35.044 67.68c-.196 0-.272.172-.272.352 0 .3.228.536.528.536.196 0 .272-.172.272-.352 0-.3-.228-.536-.528-.536zm1.1.444c0 .172-.132.304-.284.388-.208.116-.448.16-.688.16s-.48-.044-.688-.16c-.152-.084-.284-.216-.284-.388s.132-.304.284-.388c.208-.116.448-.16.688-.16s.48.044.688.16c.152.084.284.216.284.388z"/></a><a color="inherit"><text fill="currentColor" font-family="serif" font-size="2.469" transform="translate(33.104 63.269)"><tspan> Lyr</tspan></text></a><path fill="currentColor" d="M31.94 58.75a.293.293 0 0 1-.296-.293c0-.152.108-.304.284-.304.016 0 .028 0 .044.004a.58.58 0 0 0-.464-.236c-.424 0-.452.296-.452.752 0 .06.004.124.004.192s-.004.132-.004.192c0 .456.028.752.452.752.316 0 .544-.28.62-.6.008-.028.028-.04.052-.04.028 0 .056.02.056.052 0 .38-.42.7-.728.7-.272 0-.548-.08-.736-.28-.196-.204-.264-.492-.264-.776s.068-.572.264-.776c.188-.2.464-.28.736-.28.344 0 .632.264.692.608a.228.228 0 0 1 .004.052c0 .156-.12.28-.264.28z"/><a color="inherit"><path fill="currentColor" d="M26.926 58.11c0 .043-.032.075-.076.075s-.08-.032-.08-.076v-.568l-.324.12v.624c0 .044-.036.08-.08.08s-.076-.036-.076-.08v-.568l-.112.044c-.012.004-.02.004-.032.004a.09.09 0 0 1-.088-.092v-.228a.09.09 0 0 1 .06-.084l.172-.064v-.628l-.112.04c-.012.004-.02.004-.032.004a.086.086 0 0 1-.088-.088v-.228a.09.09 0 0 1 .06-.084l.172-.064v-.628c0-.044.032-.076.076-.076s.08.032.08.076v.568l.324-.12v-.624c0-.044.036-.08.08-.08s.076.036.076.08v.568l.112-.044c.012-.004.02-.004.032-.004a.09.09 0 0 1 .088.092v.228a.09.09 0 0 1-.06.084l-.172.064v.628l.112-.04c.012-.004.02-.004.032-.004.048 0 .088.036.088.088v.228a.09.09 0 0 1-.06.084l-.172.064v.628zm-.48-1.5v.631l.324-.12v-.632z"/></a><path fill="currentColor" d="M24.07 58.813c.016 0 .028-.004.044-.004.624 0 1.028.516 1.028 1.048 0 .304-.136.616-.432.84a.896.896 0 0 1-.288.148c.012.136.016.272.016.408 0 .08 0 .16-.004.24-.028.484-.36.912-.836.912a.783.783 0 0 1-.784-.784c0-.232.212-.416.448-.416.216 0 .38.192.38.416 0 .208-.172.38-.38.38a.287.287 0 0 1-.116-.024.562.562 0 0 0 .464.252h.012c.372-.008.612-.368.636-.76.004-.076.008-.148.008-.224 0-.12-.008-.24-.016-.36-.116.02-.232.032-.352.032-.752 0-1.332-.692-1.332-1.5 0-.708.52-1.228.984-1.768-.08-.248-.152-.5-.184-.76a5.458 5.458 0 0 1-.028-.628c0-.46.22-.892.592-1.16a.072.072 0 0 1 .088.004c.284.332.536.976.536 1.428 0 .572-.34 1.02-.712 1.456.084.272.16.548.228.824zm.336 1.86a.702.702 0 0 0 .444-.648.765.765 0 0 0-.68-.76c.096.46.184.92.236 1.408zm-1.548-.912c0 .536.516.98 1.052.98.112 0 .22-.008.324-.024a15.052 15.052 0 0 0-.244-1.452c-.316.032-.496.244-.496.476 0 .172.1.356.32.484.02.02.028.044.028.064 0 .048-.04.092-.088.092-.012 0-.024-.004-.036-.008-.324-.172-.472-.464-.472-.744 0-.356.232-.7.644-.792a13.54 13.54 0 0 0-.184-.692c-.424.488-.848.976-.848 1.616zm.676-3.036c0 .292.08.528.152.764.316-.388.576-.796.576-1.296a1.28 1.28 0 0 0-.08-.496 1.141 1.141 0 0 0-.648 1.028z"/><a color="inherit"><path fill="currentColor" d="M35.044 55.921c-.196 0-.272.172-.272.352 0 .3.228.536.528.536.196 0 .272-.172.272-.352 0-.3-.228-.536-.528-.536zm1.1.444c0 .172-.132.304-.284.388-.208.116-.448.16-.688.16s-.48-.044-.688-.16c-.152-.084-.284-.216-.284-.388s.132-.304.284-.388c.208-.116.448-.16.688-.16s.48.044.688.16c.152.084.284.216.284.388z"/></a><path fill="currentColor" d="M31.94 51.295a.293.293 0 0 1-.296-.292c0-.152.108-.304.284-.304.016 0 .028 0 .044.004a.58.58 0 0 0-.464-.236c-.424 0-.452.296-.452.752 0 .06.004.124.004.192s-.004.132-.004.192c0 .456.028.752.452.752.316 0 .544-.28.62-.6.008-.028.028-.04.052-.04.028 0 .056.02.056.052 0 .38-.42.7-.728.7-.272 0-.548-.08-.736-.28-.196-.204-.264-.492-.264-.776s.068-.572.264-.776c.188-.2.464-.28.736-.28.344 0 .632.264.692.608a.228.228 0 0 1 .004.052c0 .156-.12.28-.264.28z"/><a color="inherit"><path fill="currentColor" d="M26.926 51.655c0 .044-.032.076-.076.076s-.08-.032-.08-.076v-.568l-.324.12v.624c0 .044-.036.08-.08.08s-.076-.036-.076-.08v-.568l-.112.044c-.012.004-.02.004-.032.004a.09.09 0 0 1-.088-.092v-.228a.09.09 0 0 1 .06-.084l.172-.064v-.628l-.112.04c-.012.004-.02.004-.032.004a.086.086 0 0 1-.088-.088v-.228a.09.09 0 0 1 .06-.084l.172-.064v-.628c0-.044.032-.076.076-.076s.08.032.08.076v.568l.324-.12v-.624c0-.044.036-.08.08-.08s.076.036.076.08v.568l.112-.044c.012-.004.02-.004.032-.004a.09.09 0 0 1 .088.092v.228a.09.09 0 0 1-.06.084l-.172.064v.628l.112-.04c.012-.004.02-.004.032-.004.048 0 .088.036.088.088v.228a.09.09 0 0 1-.06.084l-.172.064v.628zm-.48-1.5v.632l.324-.12v-.632z"/></a><path fill="currentColor" d="M24.79 50.91c0-.111.088-.203.2-.203s.204.092.204.204-.092.204-.204.204-.2-.092-.2-.204zm0-1c0-.111.088-.203.2-.203s.204.092.204.204-.092.204-.204.204-.2-.092-.2-.204zm-1.308-.555c.688 0 1.176.352 1.176 1.004 0 1.052-1.048 1.664-2.06 2.092a.057.057 0 0 1-.04.016.06.06 0 0 1-.056-.056c0-.012.004-.028.016-.04.804-.472 1.64-1.06 1.64-1.968 0-.476-.244-.936-.676-.936-.288 0-.496.212-.592.492a.301.301 0 0 1 .116-.024c.22 0 .4.18.4.4 0 .232-.176.424-.4.424-.24 0-.448-.188-.448-.424 0-.532.404-.98.924-.98z"/><a color="inherit"><path fill="currentColor" d="M35.044 52.967c-.196 0-.272.172-.272.352 0 .3.228.536.528.536.196 0 .272-.172.272-.352 0-.3-.228-.536-.528-.536zm1.1.444c0 .172-.132.304-.284.388-.208.116-.448.16-.688.16s-.48-.044-.688-.16c-.152-.084-.284-.216-.284-.388s.132-.304.284-.388c.208-.116.448-.16.688-.16s.48.044.688.16c.152.084.284.216.284.388z"/></a><path fill="currentColor" d="M31.94 44.84a.293.293 0 0 1-.296-.292c0-.152.108-.304.284-.304.016 0 .028 0 .044.004a.58.58 0 0 0-.464-.236c-.424 0-.452.296-.452.752 0 .06.004.124.004.192s-.004.132-.004.192c0 .456.028.752.452.752.316 0 .544-.28.62-.6.008-.028.028-.04.052-.04.028 0 .056.02.056.052 0 .38-.42.7-.728.7-.272 0-.548-.08-.736-.28-.196-.204-.264-.492-.264-.776s.068-.572.264-.776c.188-.2.464-.28.736-.28.344 0 .632.264.692.608a.228.228 0 0 1 .004.052c0 .156-.12.28-.264.28z"/><a color="inherit"><path fill="currentColor" d="M26.926 44.2c0 .044-.032.076-.076.076s-.08-.032-.08-.076v-.568l-.324.12v.624c0 .044-.036.08-.08.08s-.076-.036-.076-.08v-.568l-.112.044c-.012.004-.02.004-.032.004a.09.09 0 0 1-.088-.092v-.228a.09.09 0 0 1 .06-.084l.172-.064v-.628l-.112.04c-.012.004-.02.004-.032.004a.086.086 0 0 1-.088-.088v-.228a.09.09 0 0 1 .06-.084l.172-.064v-.628c0-.044.032-.076.076-.076s.08.032.08.076v.568l.324-.12v-.624c0-.044.036-.08.08-.08s.076.036.076.08v.568l.112-.044c.012-.004.02-.004.032-.004a.09.09 0 0 1 .088.092v.228a.09.09 0 0 1-.06.084l-.172.064v.628l.112-.04c.012-.004.02-.004.032-.004.048 0 .088.036.088.088v.228a.09.09 0 0 1-.06.084l-.172.064v.628zm-.48-1.5v.632l.324-.12v-.632z"/></a><path fill="currentColor" d="M24.07 44.904c.016 0 .028-.004.044-.004.624 0 1.028.516 1.028 1.048 0 .304-.136.616-.432.84a.896.896 0 0 1-.288.148c.012.136.016.272.016.408 0 .08 0 .16-.004.24-.028.484-.36.912-.836.912a.783.783 0 0 1-.784-.784c0-.232.212-.416.448-.416.216 0 .38.192.38.416 0 .208-.172.38-.38.38a.287.287 0 0 1-.116-.024.562.562 0 0 0 .464.252h.012c.372-.008.612-.368.636-.76.004-.076.008-.148.008-.224 0-.12-.008-.24-.016-.36-.116.02-.232.032-.352.032-.752 0-1.332-.692-1.332-1.5 0-.708.52-1.228.984-1.768-.08-.248-.152-.5-.184-.76a5.458 5.458 0 0 1-.028-.628c0-.46.22-.892.592-1.16a.072.072 0 0 1 .088.004c.284.332.536.976.536 1.428 0 .572-.34 1.02-.712 1.456.084.272.16.548.228.824zm.336 1.86a.702.702 0 0 0 .444-.648.765.765 0 0 0-.68-.76c.096.46.184.92.236 1.408zm-1.548-.912c0 .536.516.98 1.052.98.112 0 .22-.008.324-.024a15.052 15.052 0 0 0-.244-1.452c-.316.032-.496.244-.496.476 0 .172.1.356.32.484.02.02.028.044.028.064 0 .048-.04.092-.088.092-.012 0-.024-.004-.036-.008-.324-.172-.472-.464-.472-.744 0-.356.232-.7.644-.792a13.54 13.54 0 0 0-.184-.692c-.424.488-.848.976-.848 1.616zm.676-3.036c0 .292.08.528.152.764.316-.388.576-.796.576-1.296a1.28 1.28 0 0 0-.08-.496 1.141 1.141 0 0 0-.648 1.028z"/><a color="inherit"><path fill="currentColor" d="M35.044 45.512c-.196 0-.272.172-.272.352 0 .3.228.536.528.536.196 0 .272-.172.272-.352 0-.3-.228-.536-.528-.536zm1.1.444c0 .172-.132.304-.284.388-.208.116-.448.16-.688.16s-.48-.044-.688-.16c-.152-.084-.284-.216-.284-.388s.132-.304.284-.388c.208-.116.448-.16.688-.16s.48.044.688.16c.152.084.284.216.284.388z"/></a><path fill="currentColor" d="M24.07 67.072c.016 0 .028-.004.044-.004.624 0 1.028.516 1.028 1.048 0 .304-.136.616-.432.84a.896.896 0 0 1-.288.148c.012.136.016.272.016.408 0 .08 0 .16-.004.24-.028.484-.36.912-.836.912a.783.783 0 0 1-.784-.784c0-.232.212-.416.448-.416.216 0 .38.192.38.416 0 .208-.172.38-.38.38a.287.287 0 0 1-.116-.024.562.562 0 0 0 .464.252h.012c.372-.008.612-.368.636-.76.004-.076.008-.148.008-.224 0-.12-.008-.24-.016-.36-.116.02-.232.032-.352.032-.752 0-1.332-.692-1.332-1.5 0-.708.52-1.228.984-1.768-.08-.248-.152-.5-.184-.76a5.458 5.458 0 0 1-.028-.628c0-.46.22-.892.592-1.16a.072.072 0 0 1 .088.004c.284.332.536.976.536 1.428 0 .572-.34 1.02-.712 1.456.084.272.16.548.228.824zm.336 1.86a.702.702 0 0 0 .444-.648.765.765 0 0 0-.68-.76c.096.46.184.92.236 1.408zm-1.548-.912c0 .536.516.98 1.052.98.112 0 .22-.008.324-.024a15.052 15.052 0 0 0-.244-1.452c-.316.032-.496.244-.496.476 0 .172.1.356.32.484.02.02.028.044.028.064 0 .048-.04.092-.088.092-.012 0-.024-.004-.036-.008-.324-.172-.472-.464-.472-.744 0-.356.232-.7.644-.792a13.54 13.54 0 0 0-.184-.692c-.424.488-.848.976-.848 1.616zm.676-3.036c0 .292.08.528.152.764.316-.388.576-.796.576-1.296a1.28 1.28 0 0 0-.08-.496 1.141 1.141 0 0 0-.648 1.028z"/><a color="inherit"><path fill="currentColor" d="M35.044 37.058c-.196 0-.272.172-.272.352 0 .3.228.536.528.536.196 0 .272-.172.272-.352 0-.3-.228-.536-.528-.536zm1.1.444c0 .172-.132.304-.284.388-.208.116-.448.16-.688.16s-.48-.044-.688-.16c-.152-.084-.284-.216-.284-.388s.132-.304.284-.388c.208-.116.448-.16.688-.16s.48.044.688.16c.152.084.284.216.284.388z"/></a><path fill="currentColor" d="M31.94 29.932a.293.293 0 0 1-.296-.292c0-.152.108-.304.284-.304.016 0 .028 0 .044.004a.58.58 0 0 0-.464-.236c-.424 0-.452.296-.452.752 0 .06.004.124.004.192s-.004.132-.004.192c0 .456.028.752.452.752.316 0 .544-.28.62-.6.008-.028.028-.04.052-.04.028 0 .056.02.056.052 0 .38-.42.7-.728.7-.272 0-.548-.08-.736-.28-.196-.204-.264-.492-.264-.776s.068-.572.264-.776c.188-.2.464-.28.736-.28.344 0 .632.264.692.608a.228.228 0 0 1 .004.052c0 .156-.12.28-.264.28z"/><a color="inherit"><path fill="currentColor" d="M26.926 29.292c0 .044-.032.076-.076.076s-.08-.032-.08-.076v-.568l-.324.12v.624c0 .044-.036.08-.08.08s-.076-.036-.076-.08V28.9l-.112.044c-.012.004-.02.004-.032.004a.09.09 0 0 1-.088-.092v-.228a.09.09 0 0 1 .06-.084l.172-.064v-.628l-.112.04c-.012.004-.02.004-.032.004a.086.086 0 0 1-.088-.088v-.228a.09.09 0 0 1 .06-.084l.172-.064v-.628c0-.044.032-.076.076-.076s.08.032.08.076v.568l.324-.12v-.624c0-.044.036-.08.08-.08s.076.036.076.08v.568l.112-.044c.012-.004.02-.004.032-.004a.09.09 0 0 1 .088.092v.228a.09.09 0 0 1-.06.084l-.172.064v.628l.112-.04c.012-.004.02-.004.032-.004.048 0 .088.036.088.088v.228a.09.09 0 0 1-.06.084l-.172.064v.628zm-.48-1.5v.632l.324-.12v-.632z"/></a><path fill="currentColor" d="M24.07 29.996c.016 0 .028-.004.044-.004.624 0 1.028.516 1.028 1.048 0 .304-.136.616-.432.84a.896.896 0 0 1-.288.148c.012.136.016.272.016.408 0 .08 0 .16-.004.24-.028.484-.36.912-.836.912a.783.783 0 0 1-.784-.784c0-.232.212-.416.448-.416.216 0 .38.192.38.416 0 .208-.172.38-.38.38a.287.287 0 0 1-.116-.024.562.562 0 0 0 .464.252h.012c.372-.008.612-.368.636-.76.004-.076.008-.148.008-.224 0-.12-.008-.24-.016-.36-.116.02-.232.032-.352.032-.752 0-1.332-.692-1.332-1.5 0-.708.52-1.228.984-1.768-.08-.248-.152-.5-.184-.76a5.458 5.458 0 0 1-.028-.628c0-.46.22-.892.592-1.16a.072.072 0 0 1 .088.004c.284.332.536.976.536 1.428 0 .572-.34 1.02-.712 1.456.084.272.16.548.228.824zm.336 1.86a.702.702 0 0 0 .444-.648.765.765 0 0 0-.68-.76c.096.46.184.92.236 1.408zm-1.548-.912c0 .536.516.98 1.052.98.112 0 .22-.008.324-.024a15.052 15.052 0 0 0-.244-1.452c-.316.032-.496.244-.496.476 0 .172.1.356.32.484.02.02.028.044.028.064 0 .048-.04.092-.088.092-.012 0-.024-.004-.036-.008-.324-.172-.472-.464-.472-.744 0-.356.232-.7.644-.792a13.54 13.54 0 0 0-.184-.692c-.424.488-.848.976-.848 1.616zm.676-3.036c0 .292.08.528.152.764.316-.388.576-.796.576-1.296a1.28 1.28 0 0 0-.08-.496 1.141 1.141 0 0 0-.648 1.028z"/><a color="inherit"><path fill="currentColor" d="M35.044 30.604c-.196 0-.272.172-.272.352 0 .3.228.536.528.536.196 0 .272-.172.272-.352 0-.3-.228-.536-.528-.536zm1.1.444c0 .172-.132.304-.284.388-.208.116-.448.16-.688.16s-.48-.044-.688-.16c-.152-.084-.284-.216-.284-.388s.132-.304.284-.388c.208-.116.448-.16.688-.16s.48.044.688.16c.152.084.284.216.284.388z"/></a><path fill="currentColor" d="M31.94 22.173a.293.293 0 0 1-.296-.292c0-.152.108-.304.284-.304.016 0 .028 0 .044.004a.58.58 0 0 0-.464-.236c-.424 0-.452.296-.452.752 0 .06.004.124.004.192s-.004.132-.004.192c0 .456.028.752.452.752.316 0 .544-.28.62-.6.008-.028.028-.04.052-.04.028 0 .056.02.056.052 0 .38-.42.7-.728.7-.272 0-.548-.08-.736-.28-.196-.204-.264-.492-.264-.776s.068-.572.264-.776c.188-.2.464-.28.736-.28.344 0 .632.264.692.608a.228.228 0 0 1 .004.052c0 .156-.12.28-.264.28zM24.07 22.237c.016 0 .028-.004.044-.004.624 0 1.028.516 1.028 1.048 0 .304-.136.616-.432.84a.896.896 0 0 1-.288.148c.012.136.016.272.016.408 0 .08 0 .16-.004.24-.028.484-.36.912-.836.912a.783.783 0 0 1-.784-.784c0-.232.212-.416.448-.416.216 0 .38.192.38.416 0 .208-.172.38-.38.38a.287.287 0 0 1-.116-.024.562.562 0 0 0 .464.252h.012c.372-.008.612-.368.636-.76.004-.076.008-.148.008-.224 0-.12-.008-.24-.016-.36-.116.02-.232.032-.352.032-.752 0-1.332-.692-1.332-1.5 0-.708.52-1.228.984-1.768-.08-.248-.152-.5-.184-.76a5.458 5.458 0 0 1-.028-.628c0-.46.22-.892.592-1.16a.072.072 0 0 1 .088.004c.284.332.536.976.536 1.428 0 .572-.34 1.02-.712 1.456.084.272.16.548.228.824zm.336 1.86a.702.702 0 0 0 .444-.648.765.765 0 0 0-.68-.76c.096.46.184.92.236 1.408zm-1.548-.912c0 .536.516.98 1.052.98.112 0 .22-.008.324-.024a15.052 15.052 0 0 0-.244-1.452c-.316.032-.496.244-.496.476 0 .172.1.356.32.484.02.02.028.044.028.064 0 .048-.04.092-.088.092-.012 0-.024-.004-.036-.008-.324-.172-.472-.464-.472-.744 0-.356.232-.7.644-.792a13.54 13.54 0 0 0-.184-.692c-.424.488-.848.976-.848 1.616zm.676-3.036c0 .292.08.528.152.764.316-.388.576-.796.576-1.296a1.28 1.28 0 0 0-.08-.496 1.141 1.141 0 0 0-.648 1.028z"/><a color="inherit"><path fill="currentColor" d="M35.044 24.345c-.196 0-.272.172-.272.352 0 .3.228.536.528.536.196 0 .272-.172.272-.352 0-.3-.228-.536-.528-.536zm1.1.444c0 .172-.132.304-.284.388-.208.116-.448.16-.688.16s-.48-.044-.688-.16c-.152-.084-.284-.216-.284-.388s.132-.304.284-.388c.208-.116.448-.16.688-.16s.48.044.688.16c.152.084.284.216.284.388z"/></a><path fill="currentColor" d="M31.94 14.415a.293.293 0 0 1-.296-.292c0-.152.108-.304.284-.304.016 0 .028 0 .044.004a.58.58 0 0 0-.464-.236c-.424 0-.452.296-.452.752 0 .06.004.124.004.192s-.004.132-.004.192c0 .456.028.752.452.752.316 0 .544-.28.62-.6.008-.028.028-.04.052-.04.028 0 .056.02.056.052 0 .38-.42.7-.728.7-.272 0-.548-.08-.736-.28-.196-.204-.264-.492-.264-.776s.068-.572.264-.776c.188-.2.464-.28.736-.28.344 0 .632.264.692.608a.228.228 0 0 1 .004.052c0 .156-.12.28-.264.28z"/><a color="inherit"><path fill="currentColor" d="M26.926 13.775c0 .044-.032.076-.076.076s-.08-.032-.08-.076v-.568l-.324.12v.624c0 .044-.036.08-.08.08s-.076-.036-.076-.08v-.568l-.112.044c-.012.004-.02.004-.032.004a.09.09 0 0 1-.088-.092v-.228a.09.09 0 0 1 .06-.084l.172-.064v-.628l-.112.04c-.012.004-.02.004-.032.004a.086.086 0 0 1-.088-.088v-.228a.09.09 0 0 1 .06-.084l.172-.064v-.628c0-.044.032-.076.076-.076s.08.032.08.076v.568l.324-.12v-.624c0-.044.036-.08.08-.08s.076.036.076.08v.568l.112-.044c.012-.004.02-.004.032-.004a.09.09 0 0 1 .088.092v.228a.09.09 0 0 1-.06.084l-.172.064v.628l.112-.04c.012-.004.02-.004.032-.004.048 0 .088.036.088.088v.228a.09.09 0 0 1-.06.084l-.172.064v.628zm-.48-1.5v.632l.324-.12v-.632zM28.026 15.275c0 .044-.032.076-.076.076s-.08-.032-.08-.076v-.568l-.324.12v.624c0 .044-.036.08-.08.08s-.076-.036-.076-.08v-.568l-.112.044c-.012.004-.02.004-.032.004a.09.09 0 0 1-.088-.092v-.228a.09.09 0 0 1 .06-.084l.172-.064v-.628l-.112.04c-.012.004-.02.004-.032.004a.086.086 0 0 1-.088-.088v-.228a.09.09 0 0 1 .06-.084l.172-.064v-.628c0-.044.032-.076.076-.076s.08.032.08.076v.568l.324-.12v-.624c0-.044.036-.08.08-.08s.076.036.076.08v.568l.112-.044c.012-.004.02-.004.032-.004a.09.09 0 0 1 .088.092v.228a.09.09 0 0 1-.06.084l-.172.064v.628l.112-.04c.012-.004.02-.004.032-.004.048 0 .088.036.088.088v.228a.09.09 0 0 1-.06.084l-.172.064v.628zm-.48-1.5v.632l.324-.12v-.632zM29.126 13.275c0 .044-.032.076-.076.076s-.08-.032-.08-.076v-.568l-.324.12v.624c0 .044-.036.08-.08.08s-.076-.036-.076-.08v-.568l-.112.044c-.012.004-.02.004-.032.004a.09.09 0 0 1-.088-.092v-.228a.09.09 0 0 1 .06-.084l.172-.064v-.628l-.112.04c-.012.004-.02.004-.032.004a.086.086 0 0 1-.088-.088v-.228a.09.09 0 0 1 .06-.084l.172-.064v-.628c0-.044.032-.076.076-.076s.08.032.08.076v.568l.324-.12v-.624c0-.044.036-.08.08-.08s.076.036.076.08v.568l.112-.044c.012-.004.02-.004.032-.004a.09.09 0 0 1 .088.092v.228a.09.09 0 0 1-.06.084l-.172.064v.628l.112-.04c.012-.004.02-.004.032-.004.048 0 .088.036.088.088v.228a.09.09 0 0 1-.06.084l-.172.064v.628zm-.48-1.5v.632l.324-.12v-.632z"/></a><path fill="currentColor" d="M24.07 14.479c.016 0 .028-.004.044-.004.624 0 1.028.516 1.028 1.048 0 .304-.136.616-.432.84a.896.896 0 0 1-.288.148c.012.136.016.272.016.408 0 .08 0 .16-.004.24-.028.484-.36.912-.836.912a.783.783 0 0 1-.784-.784c0-.232.212-.416.448-.416.216 0 .38.192.38.416 0 .208-.172.38-.38.38a.287.287 0 0 1-.116-.024.562.562 0 0 0 .464.252h.012c.372-.008.612-.368.636-.76.004-.076.008-.148.008-.224 0-.12-.008-.24-.016-.36-.116.02-.232.032-.352.032-.752 0-1.332-.692-1.332-1.5 0-.708.52-1.228.984-1.768-.08-.248-.152-.5-.184-.76a5.458 5.458 0 0 1-.028-.628c0-.46.22-.892.592-1.16a.072.072 0 0 1 .088.004c.284.332.536.976.536 1.428 0 .572-.34 1.02-.712 1.456.084.272.16.548.228.824zm.336 1.86a.702.702 0 0 0 .444-.648.765.765 0 0 0-.68-.76c.096.46.184.92.236 1.408zm-1.548-.912c0 .536.516.98 1.052.98.112 0 .22-.008.324-.024a15.052 15.052 0 0 0-.244-1.452c-.316.032-.496.244-.496.476 0 .172.1.356.32.484.02.02.028.044.028.064 0 .048-.04.092-.088.092-.012 0-.024-.004-.036-.008-.324-.172-.472-.464-.472-.744 0-.356.232-.7.644-.792a13.54 13.54 0 0 0-.184-.692c-.424.488-.848.976-.848 1.616zm.676-3.036c0 .292.08.528.152.764.316-.388.576-.796.576-1.296a1.28 1.28 0 0 0-.08-.496 1.141 1.141 0 0 0-.648 1.028z"/><a color="inherit"><path fill="currentColor" d="M35.044 14.587c-.196 0-.272.172-.272.352 0 .3.228.536.528.536.196 0 .272-.172.272-.352 0-.3-.228-.536-.528-.536zm1.1.444c0 .172-.132.304-.284.388-.208.116-.448.16-.688.16s-.48-.044-.688-.16c-.152-.084-.284-.216-.284-.388s.132-.304.284-.388c.208-.116.448-.16.688-.16s.48.044.688.16c.152.084.284.216.284.388z"/></a><path fill="currentColor" d="M31.94 6.656a.293.293 0 0 1-.296-.292c0-.152.108-.304.284-.304.016 0 .028 0 .044.004a.58.58 0 0 0-.464-.236c-.424 0-.452.296-.452.752 0 .06.004.124.004.192s-.004.132-.004.192c0 .456.028.752.452.752.316 0 .544-.28.62-.6.008-.028.028-.04.052-.04.028 0 .056.02.056.052 0 .38-.42.7-.728.7-.272 0-.548-.08-.736-.28-.196-.204-.264-.492-.264-.776s.068-.572.264-.776c.188-.2.464-.28.736-.28.344 0 .632.264.692.608a.228.228 0 0 1 .004.052c0 .156-.12.28-.264.28z"/><a color="inherit"><text fill="currentColor" font-family="serif" font-size="2.469" transform="translate(33.104 88.044)"><tspan> Lyr</tspan></text></a><a color="inherit"><path fill="currentColor" d="M43.35 108.252c-.196 0-.272.172-.272.352 0 .3.228.536.528.536.196 0 .272-.172.272-.352 0-.3-.228-.536-.528-.536zm1.1.444c0 .172-.132.304-.284.388-.208.116-.448.16-.688.16s-.48-.044-.688-.16c-.152-.084-.284-.216-.284-.388s.132-.304.284-.388c.208-.116.448-.16.688-.16s.48.044.688.16c.152.084.284.216.284.388z"/></a><path fill="currentColor" d="M31.94 108.08a.293.293 0 0 1-.296-.292c0-.152.108-.304.284-.304.016 0 .028 0 .044.004a.58.58 0 0 0-.464-.236c-.424 0-.452.296-.452.752 0 .06.004.124.004.192s-.004.132-.004.192c0 .456.028.752.452.752.316 0 .544-.28.62-.6.008-.028.028-.04.052-.04.028 0 .056.02.056.052 0 .38-.42.7-.728.7-.272 0-.548-.08-.736-.28-.196-.204-.264-.492-.264-.776s.068-.572.264-.776c.188-.2.464-.28.736-.28.344 0 .632.264.692.608a.228.228 0 0 1 .004.052c0 .156-.12.28-.264.28z"/><a color="inherit"><path fill="currentColor" d="M26.926 107.94c0 .044-.032.076-.076.076s-.08-.032-.08-.076v-.568l-.324.12v.624c0 .044-.036.08-.08.08s-.076-.036-.076-.08v-.568l-.112.044c-.012.004-.02.004-.032.004a.09.09 0 0 1-.088-.092v-.228a.09.09 0 0 1 .06-.084l.172-.064v-.628l-.112.04c-.012.004-.02.004-.032.004a.086.086 0 0 1-.088-.088v-.228a.09.09 0 0 1 .06-.084l.172-.064v-.628c0-.044.032-.076.076-.076s.08.032.08.076v.568l.324-.12v-.624c0-.044.036-.08.08-.08s.076.036.076.08v.568l.112-.044c.012-.004.02-.004.032-.004a.09.09 0 0 1 .088.092v.228a.09.09 0 0 1-.06.084l-.172.064v.628l.112-.04c.012-.004.02-.004.032-.004.048 0 .088.036.088.088v.228a.09.09 0 0 1-.06.084l-.172.064v.628zm-.48-1.5v.632l.324-.12v-.632z"/></a><path fill="currentColor" d="M23.846 108.196c0 .128.024.292.176.292.116 0 .224-.128.348-.128.492 0 .916.36.916.836 0 .672-.364 1-1.048 1-.328 0-.608-.248-.608-.568a.304.304 0 1 1 .608 0c0 .156-.192.148-.192.304 0 .092.092.148.192.148.46 0 .552-.356.552-.884 0-.424-.052-.724-.42-.724-.284 0-.464.284-.464.592 0 .04-.032.06-.06.06s-.056-.02-.056-.06c0-.3-.12-.584-.332-.792v1.88c0 .024-.02.044-.044.044h-.084a.044.044 0 0 1-.044-.044v-3.912c0-.024.02-.044.044-.044h.084c.024 0 .044.02.044.044v1.88c.212-.208.332-.492.332-.792 0-.04.028-.06.056-.06s.06.02.06.06c0 .308.18.592.464.592.368 0 .42-.3.42-.724 0-.528-.092-.884-.552-.884-.1 0-.192.056-.192.148 0 .156.192.148.192.304a.304.304 0 1 1-.608 0c0-.32.28-.568.608-.568.684 0 1.048.328 1.048 1 0 .476-.424.836-.916.836-.124 0-.232-.128-.348-.128-.152 0-.176.164-.176.292zm-.776 2h-.468a.044.044 0 0 1-.044-.044v-3.912c0-.024.02-.044.044-.044h.468c.024 0 .044.02.044.044v3.912c0 .024-.02.044-.044.044z"/><a color="inherit"><path fill="currentColor" d="M35.044 109.252c-.196 0-.272.172-.272.352 0 .3.228.536.528.536.196 0 .272-.172.272-.352 0-.3-.228-.536-.528-.536zm1.1.444c0 .172-.132.304-.284.388-.208.116-.448.16-.688.16s-.48-.044-.688-.16c-.152-.084-.284-.216-.284-.388s.132-.304.284-.388c.208-.116.448-.16.688-.16s.48.044.688.16c.152.084.284.216.284.388z"/></a><path fill="currentColor" d="M31.94 100.626a.293.293 0 0 1-.296-.292c0-.152.108-.304.284-.304.016 0 .028 0 .044.004a.58.58 0 0 0-.464-.236c-.424 0-.452.296-.452.752 0 .06.004.124.004.192s-.004.132-.004.192c0 .456.028.752.452.752.316 0 .544-.28.62-.6.008-.028.028-.04.052-.04.028 0 .056.02.056.052 0 .38-.42.7-.728.7-.272 0-.548-.08-.736-.28-.196-.204-.264-.492-.264-.776s.068-.572.264-.776c.188-.2.464-.28.736-.28.344 0 .632.264.692.608a.228.228 0 0 1 .004.052c0 .156-.12.28-.264.28z"/><a color="inherit"><path fill="currentColor" d="M26.926 99.986c0 .044-.032.076-.076.076s-.08-.032-.08-.076v-.568l-.324.12v.624c0 .044-.036.08-.08.08s-.076-.036-.076-.08v-.568l-.112.044c-.012.004-.02.004-.032.004a.09.09 0 0 1-.088-.092v-.228a.09.09 0 0 1 .06-.084l.172-.064v-.628l-.112.04c-.012.004-.02.004-.032.004a.086.086 0 0 1-.088-.088v-.228a.09.09 0 0 1 .06-.084l.172-.064v-.628c0-.044.032-.076.076-.076s.08.032.08.076v.568l.324-.12v-.624c0-.044.036-.08.08-.08s.076.036.076.08v.568l.112-.044c.012-.004.02-.004.032-.004a.09.09 0 0 1 .088.092v.228a.09.09 0 0 1-.06.084l-.172.064v.628l.112-.04c.012-.004.02-.004.032-.004.048 0 .088.036.088.088v.228a.09.09 0 0 1-.06.084l-.172.064v.628zm-.48-1.5v.632l.324-.12v-.632z"/></a><path fill="currentColor" d="M24.07 100.69c.016 0 .028-.004.044-.004.624 0 1.028.516 1.028 1.048 0 .304-.136.616-.432.84a.896.896 0 0 1-.288.148c.012.136.016.272.016.408 0 .08 0 .16-.004.24-.028.484-.36.912-.836.912a.783.783 0 0 1-.784-.784c0-.232.212-.416.448-.416.216 0 .38.192.38.416 0 .208-.172.38-.38.38a.287.287 0 0 1-.116-.024.562.562 0 0 0 .464.252h.012c.372-.008.612-.368.636-.76.004-.076.008-.148.008-.224 0-.12-.008-.24-.016-.36-.116.02-.232.032-.352.032-.752 0-1.332-.692-1.332-1.5 0-.708.52-1.228.984-1.768-.08-.248-.152-.5-.184-.76a5.458 5.458 0 0 1-.028-.628c0-.46.22-.892.592-1.16a.072.072 0 0 1 .088.004c.284.332.536.976.536 1.428 0 .572-.34 1.02-.712 1.456.084.272.16.548.228.824zm.336 1.86a.702.702 0 0 0 .444-.648.765.765 0 0 0-.68-.76c.096.46.184.92.236 1.408zm-1.548-.912c0 .536.516.98 1.052.98.112 0 .22-.008.324-.024a15.052 15.052 0 0 0-.244-1.452c-.316.032-.496.244-.496.476 0 .172.1.356.32.484.02.02.028.044.028.064 0 .048-.04.092-.088.092-.012 0-.024-.004-.036-.008-.324-.172-.472-.464-.472-.744 0-.356.232-.7.644-.792a13.54 13.54 0 0 0-.184-.692c-.424.488-.848.976-.848 1.616zm.676-3.036c0 .292.08.528.152.764.316-.388.576-.796.576-1.296a1.28 1.28 0 0 0-.08-.496 1.141 1.141 0 0 0-.648 1.028z"/><a color="inherit"><path fill="currentColor" d="M35.044 101.298c-.196 0-.272.172-.272.352 0 .3.228.536.528.536.196 0 .272-.172.272-.352 0-.3-.228-.536-.528-.536zm1.1.444c0 .172-.132.304-.284.388-.208.116-.448.16-.688.16s-.48-.044-.688-.16c-.152-.084-.284-.216-.284-.388s.132-.304.284-.388c.208-.116.448-.16.688-.16s.48.044.688.16c.152.084.284.216.284.388z"/></a><path fill="currentColor" d="M31.94 92.867a.293.293 0 0 1-.296-.292c0-.152.108-.304.284-.304.016 0 .028 0 .044.004a.58.58 0 0 0-.464-.236c-.424 0-.452.296-.452.752 0 .06.004.124.004.192s-.004.132-.004.192c0 .456.028.752.452.752.316 0 .544-.28.62-.6.008-.028.028-.04.052-.04.028 0 .056.02.056.052 0 .38-.42.7-.728.7-.272 0-.548-.08-.736-.28-.196-.204-.264-.492-.264-.776s.068-.572.264-.776c.188-.2.464-.28.736-.28.344 0 .632.264.692.608a.228.228 0 0 1 .004.052c0 .156-.12.28-.264.28z"/><a color="inherit"><path fill="currentColor" d="M26.926 92.227c0 .044-.032.076-.076.076s-.08-.032-.08-.076v-.568l-.324.12v.624c0 .044-.036.08-.08.08s-.076-.036-.076-.08v-.568l-.112.044c-.012.004-.02.004-.032.004a.09.09 0 0 1-.088-.092v-.228a.09.09 0 0 1 .06-.084l.172-.064v-.628l-.112.04c-.012.004-.02.004-.032.004a.086.086 0 0 1-.088-.088v-.228a.09.09 0 0 1 .06-.084l.172-.064v-.628c0-.044.032-.076.076-.076s.08.032.08.076v.568l.324-.12v-.624c0-.044.036-.08.08-.08s.076.036.076.08v.568l.112-.044c.012-.004.02-.004.032-.004a.09.09 0 0 1 .088.092v.228a.09.09 0 0 1-.06.084l-.172.064v.628l.112-.04c.012-.004.02-.004.032-.004.048 0 .088.036.088.088v.228a.09.09 0 0 1-.06.084l-.172.064v.628zm-.48-1.5v.632l.324-.12v-.632z"/></a><path fill="currentColor" d="M24.07 92.931c.016 0 .028-.004.044-.004.624 0 1.028.516 1.028 1.048 0 .304-.136.616-.432.84a.896.896 0 0 1-.288.148c.012.136.016.272.016.408 0 .08 0 .16-.004.24-.028.484-.36.912-.836.912a.783.783 0 0 1-.784-.784c0-.232.212-.416.448-.416.216 0 .38.192.38.416 0 .208-.172.38-.38.38a.287.287 0 0 1-.116-.024.562.562 0 0 0 .464.252h.012c.372-.008.612-.368.636-.76.004-.076.008-.148.008-.224 0-.12-.008-.24-.016-.36-.116.02-.232.032-.352.032-.752 0-1.332-.692-1.332-1.5 0-.708.52-1.228.984-1.768-.08-.248-.152-.5-.184-.76a5.458 5.458 0 0 1-.028-.628c0-.46.22-.892.592-1.16a.072.072 0 0 1 .088.004c.284.332.536.976.536 1.428 0 .572-.34 1.02-.712 1.456.084.272.16.548.228.824zm.336 1.86a.702.702 0 0 0 .444-.648.765.765 0 0 0-.68-.76c.096.46.184.92.236 1.408zm-1.548-.912c0 .536.516.98 1.052.98.112 0 .22-.008.324-.024a15.052 15.052 0 0 0-.244-1.452c-.316.032-.496.244-.496.476 0 .172.1.356.32.484.02.02.028.044.028.064 0 .048-.04.092-.088.092-.012 0-.024-.004-.036-.008-.324-.172-.472-.464-.472-.744 0-.356.232-.7.644-.792a13.54 13.54 0 0 0-.184-.692c-.424.488-.848.976-.848 1.616zm.676-3.036c0 .292.08.528.152.764.316-.388.576-.796.576-1.296a1.28 1.28 0 0 0-.08-.496 1.141 1.141 0 0 0-.648 1.028z"/><a color="inherit"><path fill="currentColor" d="M35.044 93.54c-.196 0-.272.171-.272.351 0 .3.228.536.528.536.196 0 .272-.172.272-.352 0-.3-.228-.536-.528-.536zm1.1.443c0 .172-.132.304-.284.388-.208.116-.448.16-.688.16s-.48-.044-.688-.16c-.152-.084-.284-.216-.284-.388s.132-.304.284-.388c.208-.116.448-.16.688-.16s.48.044.688.16c.152.084.284.216.284.388z"/></a><a color="inherit"><path fill="currentColor" d="M26.926 6.016c0 .044-.032.076-.076.076s-.08-.032-.08-.076v-.568l-.324.12v.624c0 .044-.036.08-.08.08s-.076-.036-.076-.08v-.568l-.112.044c-.012.004-.02.004-.032.004a.09.09 0 0 1-.088-.092v-.228a.09.09 0 0 1 .06-.084l.172-.064v-.628l-.112.04c-.012.004-.02.004-.032.004a.086.086 0 0 1-.088-.088v-.228a.09.09 0 0 1 .06-.084l.172-.064v-.628c0-.044.032-.076.076-.076s.08.032.08.076v.568l.324-.12v-.624c0-.044.036-.08.08-.08s.076.036.076.08v.568l.112-.044c.012-.004.02-.004.032-.004a.09.09 0 0 1 .088.092v.228a.09.09 0 0 1-.06.084l-.172.064v.628l.112-.04c.012-.004.02-.004.032-.004.048 0 .088.036.088.088v.228a.09.09 0 0 1-.06.084l-.172.064v.628zm-.48-1.5v.632l.324-.12v-.632z"/></a><path fill="currentColor" d="M31.94 83.524a.293.293 0 0 1-.296-.292c0-.152.108-.304.284-.304.016 0 .028 0 .044.004a.58.58 0 0 0-.464-.236c-.424 0-.452.296-.452.752 0 .06.004.124.004.192s-.004.132-.004.192c0 .456.028.752.452.752.316 0 .544-.28.62-.6.008-.028.028-.04.052-.04.028 0 .056.02.056.052 0 .38-.42.7-.728.7-.272 0-.548-.08-.736-.28-.196-.204-.264-.492-.264-.776s.068-.572.264-.776c.188-.2.464-.28.736-.28.344 0 .632.264.692.608a.228.228 0 0 1 .004.052c0 .156-.12.28-.264.28z"/><a color="inherit"><path fill="currentColor" d="M26.926 82.884c0 .044-.032.076-.076.076s-.08-.032-.08-.076v-.568l-.324.12v.624c0 .044-.036.08-.08.08s-.076-.036-.076-.08v-.568l-.112.044c-.012.004-.02.004-.032.004a.09.09 0 0 1-.088-.092v-.228a.09.09 0 0 1 .06-.084l.172-.064v-.628l-.112.04c-.012.004-.02.004-.032.004a.086.086 0 0 1-.088-.088v-.228a.09.09 0 0 1 .06-.084l.172-.064v-.628c0-.044.032-.076.076-.076s.08.032.08.076v.568l.324-.12v-.624c0-.044.036-.08.08-.08s.076.036.076.08v.568l.112-.044c.012-.004.02-.004.032-.004a.09.09 0 0 1 .088.092v.228a.09.09 0 0 1-.06.084l-.172.064v.628l.112-.04c.012-.004.02-.004.032-.004.048 0 .088.036.088.088v.228a.09.09 0 0 1-.06.084l-.172.064v.628zm-.48-1.5v.632l.324-.12v-.632z"/></a><text fill="currentColor" font-family="serif" font-size="1.386" font-style="italic" transform="translate(23.142 88.225)"><tspan> 8</tspan></text><path fill="currentColor" d="M24.07 83.588c.016 0 .028-.004.044-.004.624 0 1.028.516 1.028 1.048 0 .304-.136.616-.432.84a.896.896 0 0 1-.288.148c.012.136.016.272.016.408 0 .08 0 .16-.004.24-.028.484-.36.912-.836.912a.783.783 0 0 1-.784-.784c0-.232.212-.416.448-.416.216 0 .38.192.38.416 0 .208-.172.38-.38.38a.287.287 0 0 1-.116-.024.562.562 0 0 0 .464.252h.012c.372-.008.612-.368.636-.76.004-.076.008-.148.008-.224 0-.12-.008-.24-.016-.36-.116.02-.232.032-.352.032-.752 0-1.332-.692-1.332-1.5 0-.708.52-1.228.984-1.768-.08-.248-.152-.5-.184-.76a5.458 5.458 0 0 1-.028-.628c0-.46.22-.892.592-1.16a.072.072 0 0 1 .088.004c.284.332.536.976.536 1.428 0 .572-.34 1.02-.712 1.456.084.272.16.548.228.824zm.336 1.86a.702.702 0 0 0 .444-.648.765.765 0 0 0-.68-.76c.096.46.184.92.236 1.408zm-1.548-.912c0 .536.516.98 1.052.98.112 0 .22-.008.324-.024a15.052 15.052 0 0 0-.244-1.452c-.316.032-.496.244-.496.476 0 .172.1.356.32.484.02.02.028.044.028.064 0 .048-.04.092-.088.092-.012 0-.024-.004-.036-.008-.324-.172-.472-.464-.472-.744 0-.356.232-.7.644-.792a13.54 13.54 0 0 0-.184-.692c-.424.488-.848.976-.848 1.616zm.676-3.036c0 .292.08.528.152.764.316-.388.576-.796.576-1.296a1.28 1.28 0 0 0-.08-.496 1.141 1.141 0 0 0-.648 1.028z"/><a color="inherit"><path fill="currentColor" d="M35.044 84.196c-.196 0-.272.172-.272.352 0 .3.228.536.528.536.196 0 .272-.172.272-.352 0-.3-.228-.536-.528-.536zm1.1.444c0 .172-.132.304-.284.388-.208.116-.448.16-.688.16s-.48-.044-.688-.16c-.152-.084-.284-.216-.284-.388s.132-.304.284-.388c.208-.116.448-.16.688-.16s.48.044.688.16c.152.084.284.216.284.388z"/></a><a color="inherit"><text fill="currentColor" font-family="serif" font-size="2.469" transform="translate(33.486 79.826)"><tspan> Ah</tspan></text></a><path fill="currentColor" d="M31.94 75.266a.293.293 0 0 1-.296-.292c0-.152.108-.304.284-.304.016 0 .028 0 .044.004a.58.58 0 0 0-.464-.236c-.424 0-.452.296-.452.752 0 .06.004.124.004.192s-.004.132-.004.192c0 .456.028.752.452.752.316 0 .544-.28.62-.6.008-.028.028-.04.052-.04.028 0 .056.02.056.052 0 .38-.42.7-.728.7-.272 0-.548-.08-.736-.28-.196-.204-.264-.492-.264-.776s.068-.572.264-.776c.188-.2.464-.28.736-.28.344 0 .632.264.692.608a.228.228 0 0 1 .004.052c0 .156-.12.28-.264.28z"/><a color="inherit"><path fill="currentColor" d="M26.926 74.626c0 .044-.032.076-.076.076s-.08-.032-.08-.076v-.568l-.324.12v.624c0 .044-.036.08-.08.08s-.076-.036-.076-.08v-.568l-.112.044c-.012.004-.02.004-.032.004a.09.09 0 0 1-.088-.092v-.228a.09.09 0 0 1 .06-.084l.172-.064v-.628l-.112.04c-.012.004-.02.004-.032.004a.086.086 0 0 1-.088-.088v-.228a.09.09 0 0 1 .06-.084l.172-.064v-.628c0-.044.032-.076.076-.076s.08.032.08.076v.568l.324-.12v-.624c0-.044.036-.08.08-.08s.076.036.076.08v.568l.112-.044c.012-.004.02-.004.032-.004a.09.09 0 0 1 .088.092v.228a.09.09 0 0 1-.06.084l-.172.064v.628l.112-.04c.012-.004.02-.004.032-.004.048 0 .088.036.088.088v.228a.09.09 0 0 1-.06.084l-.172.064v.628zm-.48-1.5v.632l.324-.12v-.632z"/></a><path fill="currentColor" d="M24.07 75.33c.016 0 .028-.004.044-.004.624 0 1.028.516 1.028 1.048 0 .304-.136.616-.432.84a.896.896 0 0 1-.288.148c.012.136.016.272.016.408 0 .08 0 .16-.004.24-.028.484-.36.912-.836.912a.783.783 0 0 1-.784-.784c0-.232.212-.416.448-.416.216 0 .38.192.38.416 0 .208-.172.38-.38.38a.287.287 0 0 1-.116-.024.562.562 0 0 0 .464.252h.012c.372-.008.612-.368.636-.76.004-.076.008-.148.008-.224 0-.12-.008-.24-.016-.36-.116.02-.232.032-.352.032-.752 0-1.332-.692-1.332-1.5 0-.708.52-1.228.984-1.768-.08-.248-.152-.5-.184-.76a5.458 5.458 0 0 1-.028-.628c0-.46.22-.892.592-1.16a.072.072 0 0 1 .088.004c.284.332.536.976.536 1.428 0 .572-.34 1.02-.712 1.456.084.272.16.548.228.824zm.336 1.86a.702.702 0 0 0 .444-.648.765.765 0 0 0-.68-.76c.096.46.184.92.236 1.408zm-1.548-.912c0 .536.516.98 1.052.98.112 0 .22-.008.324-.024a15.052 15.052 0 0 0-.244-1.452c-.316.032-.496.244-.496.476 0 .172.1.356.32.484.02.02.028.044.028.064 0 .048-.04.092-.088.092-.012 0-.024-.004-.036-.008-.324-.172-.472-.464-.472-.744 0-.356.232-.7.644-.792a13.54 13.54 0 0 0-.184-.692c-.424.488-.848.976-.848 1.616zm.676-3.036c0 .292.08.528.152.764.316-.388.576-.796.576-1.296a1.28 1.28 0 0 0-.08-.496 1.141 1.141 0 0 0-.648 1.028z"/><a color="inherit"><path fill="currentColor" d="M35.044 75.938c-.196 0-.272.172-.272.352 0 .3.228.536.528.536.196 0 .272-.172.272-.352 0-.3-.228-.536-.528-.536zm1.1.444c0 .172-.132.304-.284.388-.208.116-.448.16-.688.16s-.48-.044-.688-.16c-.152-.084-.284-.216-.284-.388s.132-.304.284-.388c.208-.116.448-.16.688-.16s.48.044.688.16c.152.084.284.216.284.388z"/></a><a color="inherit"><text fill="currentColor" font-family="serif" font-size="2.469" transform="translate(33.104 71.527)"><tspan> Lyr</tspan></text></a><path fill="currentColor" d="M31.94 67.008a.293.293 0 0 1-.296-.292c0-.152.108-.304.284-.304.016 0 .028 0 .044.004a.58.58 0 0 0-.464-.236c-.424 0-.452.296-.452.752 0 .06.004.124.004.192s-.004.132-.004.192c0 .456.028.752.452.752.316 0 .544-.28.62-.6.008-.028.028-.04.052-.04.028 0 .056.02.056.052 0 .38-.42.7-.728.7-.272 0-.548-.08-.736-.28-.196-.204-.264-.492-.264-.776s.068-.572.264-.776c.188-.2.464-.28.736-.28.344 0 .632.264.692.608a.228.228 0 0 1 .004.052c0 .156-.12.28-.264.28z"/><a color="inherit"><path fill="currentColor" d="M26.926 66.368c0 .044-.032.076-.076.076s-.08-.032-.08-.076V65.8l-.324.12v.624c0 .044-.036.08-.08.08s-.076-.036-.076-.08v-.568l-.112.044c-.012.004-.02.004-.032.004a.09.09 0 0 1-.088-.092v-.228a.09.09 0 0 1 .06-.084l.172-.064v-.628l-.112.04c-.012.004-.02.004-.032.004a.086.086 0 0 1-.088-.088v-.228a.09.09 0 0 1 .06-.084l.172-.064v-.628c0-.044.032-.076.076-.076s.08.032.08.076v.568l.324-.12v-.624c0-.044.036-.08.08-.08s.076.036.076.08v.568l.112-.044c.012-.004.02-.004.032-.004a.09.09 0 0 1 .088.092v.228a.09.09 0 0 1-.06.084l-.172.064v.628l.112-.04c.012-.004.02-.004.032-.004.048 0 .088.036.088.088v.228a.09.09 0 0 1-.06.084l-.172.064v.628zm-.48-1.5v.632l.324-.12v-.632z"/></a><text fill="currentColor" font-family="serif" font-size="2.2" transform="translate(5.405 76.185)"><tspan> Alto II</tspan></text><text fill="currentColor" font-family="serif" font-size="2.2" transform="translate(5.847 67.927)"><tspan> Alto I</tspan></text><text fill="currentColor" font-family="serif" font-size="2.2" transform="translate(4.22 59.468)"><tspan> Soprano</tspan></text><path fill="currentColor" d="M21.307 49.816c0 .84-.336 1.644-.336 2.436 0 .444.108.852.444 1.164.06.048-.012.132-.072.084-.468-.42-.636-1.02-.636-1.644 0-.852.36-1.692.36-2.496 0-.444-.108-.852-.444-1.152-.012-.012-.012-.012-.012-.024s0-.012.012-.024c.336-.3.444-.708.444-1.152 0-.804-.36-1.644-.36-2.496 0-.624.168-1.224.636-1.644.06-.048.132.036.072.084-.336.312-.444.72-.444 1.164 0 .792.336 1.596.336 2.436 0 .624-.156 1.212-.6 1.632.444.42.6 1.008.6 1.632z"/><text fill="currentColor" font-family="serif" font-size="2.2" transform="translate(5.767 48.987)"><tspan> Piano</tspan></text><text fill="currentColor" font-family="serif" font-size="2.2" transform="translate(2.854 38.305)"><tspan> Percussion</tspan></text><path fill="currentColor" d="M20.43 20.232v-.34c0-.06.047-.108.107-.108h.216c.628 0 1.06-.544 1.412-1.072.048-.072.16 0 .112.072-.384.576-.84 1.448-1.524 1.448h-.324zM20.43 32.104h.323c.684 0 1.14.872 1.524 1.448.048.072-.064.144-.112.072-.352-.528-.784-1.072-1.412-1.072h-.216a.108.108 0 0 1-.108-.108v-.34z"/><rect width=".45" height="11.96" y="-5.98" fill="currentColor" ry="0" transform="translate(20.43 26.168)"/><text fill="currentColor" font-family="serif" font-size="2.2" transform="translate(1.167 30.65)"><tspan> Trumpet in C</tspan></text><text fill="currentColor" font-family="serif" font-size="2.2" transform="translate(3.537 23.093)"><tspan> Horn in F</tspan></text><path fill="currentColor" d="M20.43 4.716v-.34c0-.06.047-.108.107-.108h.216c.628 0 1.06-.544 1.412-1.072.048-.072.16 0 .112.072-.384.576-.84 1.448-1.524 1.448h-.324zM20.43 16.588h.323c.684 0 1.14.872 1.524 1.448.048.072-.064.144-.112.072-.352-.528-.784-1.072-1.412-1.072h-.216a.108.108 0 0 1-.108-.108v-.34z"/><rect width=".45" height="11.96" y="-5.98" fill="currentColor" ry="0" transform="translate(20.43 10.652)"/><text fill="currentColor" font-family="serif" font-size="2.2" transform="translate(1.345 15.18)"><tspan> Clarinet in B</tspan></text><path fill="currentColor" d="M15.77 15.025l-.007.256v.044c0 .088.008.172.02.26.176-.152.364-.32.364-.552 0-.132-.052-.264-.168-.264-.124 0-.204.124-.208.256zm-.227-1.66c.036-.02.072-.032.112-.032s.076.012.112.032l-.028 1.372a.545.545 0 0 1 .367-.144c.204 0 .348.196.348.412 0 .316-.336.468-.576.676-.064.056-.1.164-.188.164-.056 0-.1-.052-.1-.108z"/><text fill="currentColor" font-family="serif" font-size="2.2" transform="translate(5.988 7.576)"><tspan> Flute</tspan></text><path fill="currentColor" d="M24.07 6.72c.016 0 .028-.004.044-.004.624 0 1.028.516 1.028 1.048 0 .304-.136.616-.432.84a.896.896 0 0 1-.288.148c.012.136.016.272.016.408 0 .08 0 .16-.004.24-.028.484-.36.912-.836.912a.783.783 0 0 1-.784-.784c0-.232.212-.416.448-.416.216 0 .38.192.38.416 0 .208-.172.38-.38.38a.287.287 0 0 1-.116-.024.562.562 0 0 0 .464.252h.012c.372-.008.612-.368.636-.76.004-.076.008-.148.008-.224 0-.12-.008-.24-.016-.36-.116.02-.232.032-.352.032-.752 0-1.332-.692-1.332-1.5 0-.708.52-1.228.984-1.768-.08-.248-.152-.5-.184-.76a5.458 5.458 0 0 1-.028-.628c0-.46.22-.892.592-1.16a.072.072 0 0 1 .088.004c.284.332.536.976.536 1.428 0 .572-.34 1.02-.712 1.456.084.272.16.548.228.824zm.336 1.86a.702.702 0 0 0 .444-.648.765.765 0 0 0-.68-.76c.096.46.184.92.236 1.408zm-1.548-.912c0 .536.516.98 1.052.98.112 0 .22-.008.324-.024a15.052 15.052 0 0 0-.244-1.452c-.316.032-.496.244-.496.476 0 .172.1.356.32.484.02.02.028.044.028.064 0 .048-.04.092-.088.092-.012 0-.024-.004-.036-.008-.324-.172-.472-.464-.472-.744 0-.356.232-.7.644-.792a13.54 13.54 0 0 0-.184-.692c-.424.488-.848.976-.848 1.616zm.676-3.036c0 .292.08.528.152.764.316-.388.576-.796.576-1.296a1.28 1.28 0 0 0-.08-.496 1.141 1.141 0 0 0-.648 1.028z"/><a color="inherit"><path fill="currentColor" d="M35.044 7.328c-.196 0-.272.172-.272.352 0 .3.228.536.528.536.196 0 .272-.172.272-.352 0-.3-.228-.536-.528-.536zm1.1.444c0 .172-.132.304-.284.388-.208.116-.448.16-.688.16s-.48-.044-.688-.16c-.152-.084-.284-.216-.284-.388s.132-.304.284-.388c.208-.116.448-.16.688-.16s.48.044.688.16c.152.084.284.216.284.388z"/></a><rect width=".179" height="118.444" y="-59.222" fill="currentColor" ry=".056" transform="translate(21.68 63.939)"/><path fill="currentColor" d="M20.43 90.927v-.34c0-.06.047-.109.107-.109h.216c.628 0 1.06-.543 1.412-1.071.048-.073.16 0 .112.071-.384.577-.84 1.449-1.524 1.449h-.324zM20.43 123.162h.323c.684 0 1.14.872 1.524 1.448.048.072-.064.144-.112.072-.352-.528-.784-1.072-1.412-1.072h-.216a.108.108 0 0 1-.108-.108v-.34z"/><rect width=".45" height="32.323" y="-16.162" fill="currentColor" ry="0" transform="translate(20.43 107.044)"/><text fill="currentColor" font-family="serif" font-size="2.2" transform="translate(2.011 121.908)"><tspan> Double Bass</tspan></text><text fill="currentColor" font-family="serif" font-size="2.2" transform="translate(6.028 115.454)"><tspan> Cello</tspan></text><text fill="currentColor" font-family="serif" font-size="2.2" transform="translate(6.048 109)"><tspan> Viola</tspan></text><a color="inherit"><path fill="currentColor" d="M35.044 116.206c-.196 0-.272.172-.272.352 0 .3.228.536.528.536.196 0 .272-.171.272-.351 0-.3-.228-.537-.528-.537zm1.1.444c0 .172-.132.304-.284.388-.208.117-.448.16-.688.16s-.48-.043-.688-.16c-.152-.083-.284-.215-.284-.387s.132-.305.284-.389c.208-.116.448-.16.688-.16s.48.044.688.16c.152.084.284.216.284.388z"/></a><path fill="currentColor" d="M20.057 98.674c0 .948-.372 1.86-.372 2.748 0 .493.132.96.492 1.309.06.06-.036.144-.096.084-.492-.48-.66-1.14-.66-1.824 0-.96.384-1.896.384-2.808 0-.493-.12-.949-.48-1.297-.012-.011-.012-.011-.012-.023s0-.013.012-.025c.36-.347.48-.803.48-1.295 0-.913-.384-1.849-.384-2.809 0-.684.168-1.344.66-1.824.06-.06.156.024.096.084-.36.348-.492.816-.492 1.308 0 .888.372 1.8.372 2.748 0 .685-.168 1.333-.648 1.813.48.48.648 1.127.648 1.811z"/><text fill="currentColor" font-family="serif" font-size="2.2" transform="translate(4.421 101.545)"><tspan> Violin II</tspan></text><text fill="currentColor" font-family="serif" font-size="2.2" transform="translate(4.863 93.787)"><tspan> Violin I</tspan></text><path fill="currentColor" d="M20.43 56.808v-.34c0-.06.047-.108.107-.108h.216c.628 0 1.06-.544 1.412-1.072.048-.072.16 0 .112.072-.384.576-.84 1.448-1.524 1.448h-.324zM20.43 85.697h.323c.684 0 1.14.872 1.524 1.448.048.072-.064.144-.112.072-.352-.528-.784-1.072-1.412-1.072h-.216a.108.108 0 0 1-.108-.108v-.34z"/><rect width=".45" height="28.977" y="-14.488" fill="currentColor" ry="0" transform="translate(20.43 71.253)"/><text fill="currentColor" font-family="serif" font-size="2.2" transform="translate(5.707 84.424)"><tspan> Tenor</tspan></text><path fill="currentColor" d="M20.057 73.125c0 .984-.384 1.956-.384 2.88 0 .516.132.972.504 1.344.06.06-.036.156-.096.096-.504-.504-.684-1.188-.684-1.896 0-1.008.408-1.98.408-2.928 0-.504-.12-.972-.492-1.344-.012-.012-.012-.012-.012-.024s0-.012.012-.024c.372-.372.492-.84.492-1.344 0-.948-.408-1.92-.408-2.928 0-.708.18-1.392.684-1.896.06-.06.156.036.096.096-.372.372-.504.828-.504 1.344 0 .924.384 1.896.384 2.88 0 .708-.168 1.368-.66 1.872.492.504.66 1.164.66 1.872zM24.79 114.15c0-.112.088-.204.2-.204s.204.093.204.205-.092.203-.204.203-.2-.092-.2-.204zm0-1c0-.112.088-.204.2-.204s.204.093.204.205-.092.203-.204.203-.2-.092-.2-.204zm-1.308-.556c.688 0 1.176.353 1.176 1.005 0 1.051-1.048 1.663-2.06 2.091a.057.057 0 0 1-.04.017.06.06 0 0 1-.056-.056c0-.012.004-.028.016-.04.804-.473 1.64-1.06 1.64-1.969 0-.475-.244-.935-.676-.935-.288 0-.496.211-.592.491a.301.301 0 0 1 .116-.023c.22 0 .4.18.4.4 0 .231-.176.423-.4.423-.24 0-.448-.187-.448-.423 0-.533.404-.98.924-.98z"/><a color="inherit"><path fill="currentColor" d="M43.35 29.604c-.196 0-.272.172-.272.352 0 .3.228.536.528.536.196 0 .272-.172.272-.352 0-.3-.228-.536-.528-.536zm1.1.444c0 .172-.132.304-.284.388-.208.116-.448.16-.688.16s-.48-.044-.688-.16c-.152-.084-.284-.216-.284-.388s.132-.304.284-.388c.208-.116.448-.16.688-.16s.48.044.688.16c.152.084.284.216.284.388z"/></a><a color="inherit"><path fill="currentColor" d="M43.35 100.298c-.196 0-.272.172-.272.352 0 .3.228.536.528.536.196 0 .272-.172.272-.352 0-.3-.228-.536-.528-.536zm1.1.444c0 .172-.132.304-.284.388-.208.116-.448.16-.688.16s-.48-.044-.688-.16c-.152-.084-.284-.216-.284-.388s.132-.304.284-.388c.208-.116.448-.16.688-.16s.48.044.688.16c.152.084.284.216.284.388z"/></a><a color="inherit"><path fill="currentColor" d="M43.35 92.54c-.196 0-.272.171-.272.351 0 .3.228.536.528.536.196 0 .272-.172.272-.352 0-.3-.228-.536-.528-.536zm1.1.443c0 .172-.132.304-.284.388-.208.116-.448.16-.688.16s-.48-.044-.688-.16c-.152-.084-.284-.216-.284-.388s.132-.304.284-.388c.208-.116.448-.16.688-.16s.48.044.688.16c.152.084.284.216.284.388z"/></a><a color="inherit"><text fill="currentColor" font-family="serif" font-size="2.469" transform="translate(41.751 88.044)"><tspan> ics</tspan></text></a><a color="inherit"><path fill="currentColor" d="M43.35 83.196c-.196 0-.272.172-.272.352 0 .3.228.536.528.536.196 0 .272-.172.272-.352 0-.3-.228-.536-.528-.536zm1.1.444c0 .172-.132.304-.284.388-.208.116-.448.16-.688.16s-.48-.044-.688-.16c-.152-.084-.284-.216-.284-.388s.132-.304.284-.388c.208-.116.448-.16.688-.16s.48.044.688.16c.152.084.284.216.284.388z"/></a><a color="inherit"><text fill="currentColor" font-family="serif" font-size="2.469" transform="translate(41.932 79.826)"><tspan> ah</tspan></text></a><a color="inherit"><path fill="currentColor" d="M43.35 74.938c-.196 0-.272.172-.272.352 0 .3.228.536.528.536.196 0 .272-.172.272-.352 0-.3-.228-.536-.528-.536zm1.1.444c0 .172-.132.304-.284.388-.208.116-.448.16-.688.16s-.48-.044-.688-.16c-.152-.084-.284-.216-.284-.388s.132-.304.284-.388c.208-.116.448-.16.688-.16s.48.044.688.16c.152.084.284.216.284.388z"/></a><a color="inherit"><text fill="currentColor" font-family="serif" font-size="2.469" transform="translate(41.751 71.527)"><tspan> ics</tspan></text></a><a color="inherit"><path fill="currentColor" d="M43.35 66.68c-.196 0-.272.172-.272.352 0 .3.228.536.528.536.196 0 .272-.172.272-.352 0-.3-.228-.536-.528-.536zm1.1.444c0 .172-.132.304-.284.388-.208.116-.448.16-.688.16s-.48-.044-.688-.16c-.152-.084-.284-.216-.284-.388s.132-.304.284-.388c.208-.116.448-.16.688-.16s.48.044.688.16c.152.084.284.216.284.388z"/></a><a color="inherit"><text fill="currentColor" font-family="serif" font-size="2.469" transform="translate(41.751 63.269)"><tspan> ics</tspan></text></a><a color="inherit"><path fill="currentColor" d="M43.35 54.921c-.196 0-.272.172-.272.352 0 .3.228.536.528.536.196 0 .272-.172.272-.352 0-.3-.228-.536-.528-.536zm1.1.444c0 .172-.132.304-.284.388-.208.116-.448.16-.688.16s-.48-.044-.688-.16c-.152-.084-.284-.216-.284-.388s.132-.304.284-.388c.208-.116.448-.16.688-.16s.48.044.688.16c.152.084.284.216.284.388z"/></a><a color="inherit"><path fill="currentColor" d="M43.35 51.967c-.196 0-.272.172-.272.352 0 .3.228.536.528.536.196 0 .272-.172.272-.352 0-.3-.228-.536-.528-.536zm1.1.444c0 .172-.132.304-.284.388-.208.116-.448.16-.688.16s-.48-.044-.688-.16c-.152-.084-.284-.216-.284-.388s.132-.304.284-.388c.208-.116.448-.16.688-.16s.48.044.688.16c.152.084.284.216.284.388z"/></a><a color="inherit"><path fill="currentColor" d="M43.35 44.512c-.196 0-.272.172-.272.352 0 .3.228.536.528.536.196 0 .272-.172.272-.352 0-.3-.228-.536-.528-.536zm1.1.444c0 .172-.132.304-.284.388-.208.116-.448.16-.688.16s-.48-.044-.688-.16c-.152-.084-.284-.216-.284-.388s.132-.304.284-.388c.208-.116.448-.16.688-.16s.48.044.688.16c.152.084.284.216.284.388z"/></a><a color="inherit"><path fill="currentColor" d="M43.35 37.058c-.196 0-.272.172-.272.352 0 .3.228.536.528.536.196 0 .272-.172.272-.352 0-.3-.228-.536-.528-.536zm1.1.444c0 .172-.132.304-.284.388-.208.116-.448.16-.688.16s-.48-.044-.688-.16c-.152-.084-.284-.216-.284-.388s.132-.304.284-.388c.208-.116.448-.16.688-.16s.48.044.688.16c.152.084.284.216.284.388z"/></a><a color="inherit"><path fill="currentColor" d="M43.35 23.345c-.196 0-.272.172-.272.352 0 .3.228.536.528.536.196 0 .272-.172.272-.352 0-.3-.228-.536-.528-.536zm1.1.444c0 .172-.132.304-.284.388-.208.116-.448.16-.688.16s-.48-.044-.688-.16c-.152-.084-.284-.216-.284-.388s.132-.304.284-.388c.208-.116.448-.16.688-.16s.48.044.688.16c.152.084.284.216.284.388z"/></a><a color="inherit"><path fill="currentColor" d="M43.35 13.587c-.196 0-.272.172-.272.352 0 .3.228.536.528.536.196 0 .272-.172.272-.352 0-.3-.228-.536-.528-.536zm1.1.444c0 .172-.132.304-.284.388-.208.116-.448.16-.688.16s-.48-.044-.688-.16c-.152-.084-.284-.216-.284-.388s.132-.304.284-.388c.208-.116.448-.16.688-.16s.48.044.688.16c.152.084.284.216.284.388z"/></a><a color="inherit"><path fill="currentColor" d="M43.35 6.328c-.196 0-.272.172-.272.352 0 .3.228.536.528.536.196 0 .272-.172.272-.352 0-.3-.228-.536-.528-.536zm1.1.444c0 .172-.132.304-.284.388-.208.116-.448.16-.688.16s-.48-.044-.688-.16c-.152-.084-.284-.216-.284-.388s.132-.304.284-.388c.208-.116.448-.16.688-.16s.48.044.688.16c.152.084.284.216.284.388z"/></a><path fill="currentColor" d="M31.94 120.989a.293.293 0 0 1-.296-.292c0-.152.108-.304.284-.304.016 0 .028 0 .044.004a.58.58 0 0 0-.464-.236c-.424 0-.452.296-.452.752 0 .06.004.124.004.192s-.004.132-.004.192c0 .456.028.752.452.752.316 0 .544-.28.62-.6.008-.028.028-.04.052-.04.028 0 .056.02.056.052 0 .38-.42.7-.728.7-.272 0-.548-.08-.736-.28-.196-.204-.264-.492-.264-.776s.068-.572.264-.776c.188-.2.464-.28.736-.28.344 0 .632.264.692.608a.228.228 0 0 1 .004.052c0 .156-.12.28-.264.28z"/><a color="inherit"><path fill="currentColor" d="M26.926 121.349c0 .044-.032.076-.076.076s-.08-.032-.08-.076v-.568l-.324.12v.624c0 .044-.036.08-.08.08s-.076-.036-.076-.08v-.568l-.112.044c-.012.004-.02.004-.032.004a.09.09 0 0 1-.088-.092v-.228a.09.09 0 0 1 .06-.084l.172-.064v-.628l-.112.04c-.012.004-.02.004-.032.004a.086.086 0 0 1-.088-.088v-.228a.09.09 0 0 1 .06-.084l.172-.064v-.628c0-.044.032-.076.076-.076s.08.032.08.076v.568l.324-.12v-.624c0-.044.036-.08.08-.08s.076.036.076.08v.568l.112-.044c.012-.004.02-.004.032-.004a.09.09 0 0 1 .088.092v.228a.09.09 0 0 1-.06.084l-.172.064v.628l.112-.04c.012-.004.02-.004.032-.004.048 0 .088.036.088.088v.228a.09.09 0 0 1-.06.084l-.172.064v.628zm-.48-1.5v.632l.324-.12v-.632z"/></a><text fill="currentColor" font-family="serif" font-size="1.386" font-style="italic" transform="translate(23.055 124.363)"><tspan> 8</tspan></text><path fill="currentColor" d="M24.79 120.605c0-.112.088-.204.2-.204s.204.092.204.204-.092.204-.204.204-.2-.092-.2-.204zm0-1c0-.112.088-.204.2-.204s.204.092.204.204-.092.204-.204.204-.2-.092-.2-.204zm-1.308-.556c.688 0 1.176.352 1.176 1.004 0 1.052-1.048 1.664-2.06 2.092a.057.057 0 0 1-.04.016.06.06 0 0 1-.056-.056c0-.012.004-.028.016-.04.804-.472 1.64-1.06 1.64-1.968 0-.476-.244-.936-.676-.936-.288 0-.496.212-.592.492a.301.301 0 0 1 .116-.024c.22 0 .4.18.4.4 0 .232-.176.424-.4.424-.24 0-.448-.188-.448-.424 0-.532.404-.98.924-.98z"/><a color="inherit"><path fill="currentColor" d="M35.044 122.66c-.196 0-.272.173-.272.353 0 .3.228.536.528.536.196 0 .272-.172.272-.352 0-.3-.228-.536-.528-.536zm1.1.445c0 .172-.132.304-.284.388-.208.116-.448.16-.688.16s-.48-.044-.688-.16c-.152-.084-.284-.216-.284-.388s.132-.304.284-.388c.208-.116.448-.16.688-.16s.48.044.688.16c.152.084.284.216.284.388z"/></a><path fill="currentColor" d="M31.94 114.534a.293.293 0 0 1-.296-.292c0-.152.108-.304.284-.304.016 0 .028 0 .044.004a.58.58 0 0 0-.464-.235c-.424 0-.452.295-.452.751 0 .06.004.124.004.192s-.004.132-.004.192c0 .456.028.752.452.752.316 0 .544-.28.62-.6.008-.028.028-.04.052-.04.028 0 .056.02.056.052 0 .38-.42.7-.728.7-.272 0-.548-.08-.736-.28-.196-.204-.264-.492-.264-.776s.068-.572.264-.776c.188-.2.464-.28.736-.28.344 0 .632.264.692.608a.228.228 0 0 1 .004.052c0 .156-.12.28-.264.28z"/><a color="inherit"><path fill="currentColor" d="M26.926 114.894c0 .044-.032.076-.076.076s-.08-.032-.08-.076v-.568l-.324.12v.625c0 .043-.036.08-.08.08s-.076-.037-.076-.08v-.569l-.112.045c-.012.003-.02.003-.032.003a.09.09 0 0 1-.088-.091v-.229a.09.09 0 0 1 .06-.083l.172-.065v-.627l-.112.04c-.012.004-.02.004-.032.004a.086.086 0 0 1-.088-.088v-.228a.09.09 0 0 1 .06-.084l.172-.064v-.628c0-.044.032-.076.076-.076s.08.032.08.076v.568l.324-.12v-.624c0-.044.036-.08.08-.08s.076.036.076.08v.568l.112-.044c.012-.004.02-.004.032-.004a.09.09 0 0 1 .088.092v.228a.09.09 0 0 1-.06.084l-.172.064v.628l.112-.04c.012-.004.02-.004.032-.004.048 0 .088.036.088.088v.227a.09.09 0 0 1-.06.085l-.172.063v.628zm-.48-1.5v.632l.324-.12v-.632z"/></a></svg>