<svg xmlns="http://www.w3.org/2000/svg" xmlns:xlink="http://www.w3.org/1999/xlink" version="1.2" width="130.00mm" height="190.50mm" viewBox="0 0 87.0320 127.5353">
<!-- Page: 1/1 -->
<text transform="translate(1.6737, 2.0084)" font-family="serif" font-size="2.2000" text-anchor="start" fill="currentColor">
<tspan/>
</text>
<rect transform="translate(48.5494, 83.6404)" x="0.0000" y="-2.0000" width="0.2120" height="4.0000" ry="0.0000" fill="currentColor"/>
<rect transform="translate(40.2437, 30.0476)" x="0.0000" y="-2.0558" width="0.2120" height="4.0558" ry="0.0000" fill="currentColor"/>
<line transform="translate(21.7580, 116.6505)" stroke-linejoin="round" stroke-linecap="round" stroke-width="0.1116" stroke="currentColor" x1="0.0558" y1="-0.0000" x2="26.9476" y2="-0.0000"/>
<line transform="translate(21.7580, 115.6505)" stroke-linejoin="round" stroke-linecap="round" stroke-width="0.1116" stroke="currentColor" x1="0.0558" y1="-0.0000" x2="26.9476" y2="-0.0000"/>
<line transform="translate(21.7580, 114.6505)" stroke-linejoin="round" stroke-linecap="round" stroke-width="0.1116" stroke="currentColor" x1="0.0558" y1="-0.0000" x2="26.9476" y2="-0.0000"/>
<line transform="translate(21.7580, 113.6505)" stroke-linejoin="round" stroke-linecap="round" stroke-width="0.1116" stroke="currentColor" x1="0.0558" y1="-0.0000" x2="26.9476" y2="-0.0000"/>
<line transform="translate(21.7580, 112.6505)" stroke-linejoin="round" stroke-linecap="round" stroke-width="0.1116" stroke="currentColor" x1="0.0558" y1="-0.0000" x2="26.9476" y2="-0.0000"/>
<rect transform="translate(40.2437, 67.1236)" x="0.0000" y="-2.0000" width="0.2120" height="4.0558" ry="0.0000" fill="currentColor"/>
<rect transform="translate(48.5494, 75.3820)" x="0.0000" y="-2.0558" width="0.2120" height="4.0558" ry="0.0000" fill="currentColor"/>
<line transform="translate(21.7580, 110.1961)" stroke-linejoin="round" stroke-linecap="round" stroke-width="0.1116" stroke="currentColor" x1="0.0558" y1="-0.0000" x2="26.9476" y2="-0.0000"/>
<line transform="translate(21.7580, 109.1961)" stroke-linejoin="round" stroke-linecap="round" stroke-width="0.1116" stroke="currentColor" x1="0.0558" y1="-0.0000" x2="26.9476" y2="-0.0000"/>
<line transform="translate(21.7580, 108.1961)" stroke-linejoin="round" stroke-linecap="round" stroke-width="0.1116" stroke="currentColor" x1="0.0558" y1="-0.0000" x2="26.9476" y2="-0.0000"/>
<line transform="translate(21.7580, 107.1961)" stroke-linejoin="round" stroke-linecap="round" stroke-width="0.1116" stroke="currentColor" x1="0.0558" y1="-0.0000" x2="26.9476" y2="-0.0000"/>
<line transform="translate(21.7580, 106.1961)" stroke-linejoin="round" stroke-linecap="round" stroke-width="0.1116" stroke="currentColor" x1="0.0558" y1="-0.0000" x2="26.9476" y2="-0.0000"/>
<rect transform="translate(40.2437, 114.6505)" x="0.0000" y="-2.0558" width="0.2120" height="4.1116" ry="0.0000" fill="currentColor"/>
<rect transform="translate(48.5494, 3.0084)" x="0.0000" y="66.1710" width="0.2120" height="4.2026" ry="0.0000" fill="currentColor"/>
<line transform="translate(21.7580, 102.7417)" stroke-linejoin="round" stroke-linecap="round" stroke-width="0.1116" stroke="currentColor" x1="0.0558" y1="-0.0000" x2="26.9476" y2="-0.0000"/>
<line transform="translate(21.7580, 101.7417)" stroke-linejoin="round" stroke-linecap="round" stroke-width="0.1116" stroke="currentColor" x1="0.0558" y1="-0.0000" x2="26.9476" y2="-0.0000"/>
<line transform="translate(21.7580, 100.7417)" stroke-linejoin="round" stroke-linecap="round" stroke-width="0.1116" stroke="currentColor" x1="0.0558" y1="-0.0000" x2="26.9476" y2="-0.0000"/>
<line transform="translate(21.7580, 99.7417)" stroke-linejoin="round" stroke-linecap="round" stroke-width="0.1116" stroke="currentColor" x1="0.0558" y1="-0.0000" x2="26.9476" y2="-0.0000"/>
<line transform="translate(21.7580, 98.7417)" stroke-linejoin="round" stroke-linecap="round" stroke-width="0.1116" stroke="currentColor" x1="0.0558" y1="-0.0000" x2="26.9476" y2="-0.0000"/>
<line transform="translate(21.7580, 94.9833)" stroke-linejoin="round" stroke-linecap="round" stroke-width="0.1116" stroke="currentColor" x1="0.0558" y1="-0.0000" x2="26.9476" y2="-0.0000"/>
<line transform="translate(21.7580, 93.9833)" stroke-linejoin="round" stroke-linecap="round" stroke-width="0.1116" stroke="currentColor" x1="0.0558" y1="-0.0000" x2="26.9476" y2="-0.0000"/>
<line transform="translate(21.7580, 92.9833)" stroke-linejoin="round" stroke-linecap="round" stroke-width="0.1116" stroke="currentColor" x1="0.0558" y1="-0.0000" x2="26.9476" y2="-0.0000"/>
<line transform="translate(21.7580, 91.9833)" stroke-linejoin="round" stroke-linecap="round" stroke-width="0.1116" stroke="currentColor" x1="0.0558" y1="-0.0000" x2="26.9476" y2="-0.0000"/>
<line transform="translate(21.7580, 90.9833)" stroke-linejoin="round" stroke-linecap="round" stroke-width="0.1116" stroke="currentColor" x1="0.0558" y1="-0.0000" x2="26.9476" y2="-0.0000"/>
<rect transform="translate(48.5494, 92.9833)" x="0.0000" y="-2.0000" width="0.2120" height="4.0558" ry="0.0000" fill="currentColor"/>
<rect transform="translate(40.2437, 22.2892)" x="0.0000" y="-2.0000" width="0.2120" height="4.0558" ry="0.0000" fill="currentColor"/>
<line transform="translate(21.7580, 85.6404)" stroke-linejoin="round" stroke-linecap="round" stroke-width="0.1116" stroke="currentColor" x1="0.0558" y1="-0.0000" x2="26.9476" y2="-0.0000"/>
<line transform="translate(21.7580, 84.6404)" stroke-linejoin="round" stroke-linecap="round" stroke-width="0.1116" stroke="currentColor" x1="0.0558" y1="-0.0000" x2="26.9476" y2="-0.0000"/>
<line transform="translate(21.7580, 83.6404)" stroke-linejoin="round" stroke-linecap="round" stroke-width="0.1116" stroke="currentColor" x1="0.0558" y1="-0.0000" x2="26.9476" y2="-0.0000"/>
<line transform="translate(21.7580, 82.6404)" stroke-linejoin="round" stroke-linecap="round" stroke-width="0.1116" stroke="currentColor" x1="0.0558" y1="-0.0000" x2="26.9476" y2="-0.0000"/>
<line transform="translate(21.7580, 81.6404)" stroke-linejoin="round" stroke-linecap="round" stroke-width="0.1116" stroke="currentColor" x1="0.0558" y1="-0.0000" x2="26.9476" y2="-0.0000"/>
<rect transform="translate(40.2437, 108.1961)" x="0.0000" y="-2.0558" width="0.2120" height="4.1116" ry="0.0000" fill="currentColor"/>
<rect transform="translate(48.5494, 100.7417)" x="0.0000" y="-2.0558" width="0.2120" height="4.1116" ry="0.0000" fill="currentColor"/>
<rect transform="translate(40.2437, 75.3820)" x="0.0000" y="-2.0558" width="0.2120" height="4.0558" ry="0.0000" fill="currentColor"/>
<line transform="translate(21.7580, 77.3820)" stroke-linejoin="round" stroke-linecap="round" stroke-width="0.1116" stroke="currentColor" x1="0.0558" y1="-0.0000" x2="26.9476" y2="-0.0000"/>
<line transform="translate(21.7580, 76.3820)" stroke-linejoin="round" stroke-linecap="round" stroke-width="0.1116" stroke="currentColor" x1="0.0558" y1="-0.0000" x2="26.9476" y2="-0.0000"/>
<line transform="translate(21.7580, 75.3820)" stroke-linejoin="round" stroke-linecap="round" stroke-width="0.1116" stroke="currentColor" x1="0.0558" y1="-0.0000" x2="26.9476" y2="-0.0000"/>
<line transform="translate(21.7580, 74.3820)" stroke-linejoin="round" stroke-linecap="round" stroke-width="0.1116" stroke="currentColor" x1="0.0558" y1="-0.0000" x2="26.9476" y2="-0.0000"/>
<line transform="translate(21.7580, 73.3820)" stroke-linejoin="round" stroke-linecap="round" stroke-width="0.1116" stroke="currentColor" x1="0.0558" y1="-0.0000" x2="26.9476" y2="-0.0000"/>
<rect transform="translate(48.5494, 37.5020)" x="0.0000" y="-1.0558" width="0.2120" height="2.1116" ry="0.0000" fill="currentColor"/>
<rect transform="translate(48.5494, 6.7724)" x="0.0000" y="-2.0000" width="0.2120" height="4.0558" ry="0.0000" fill="currentColor"/>
<rect transform="translate(40.2437, 51.4108)" x="0.0000" y="-2.0558" width="0.2120" height="4.0558" ry="0.0000" fill="currentColor"/>
<rect transform="translate(48.5494, 14.5308)" x="0.0000" y="-2.0558" width="0.2120" height="4.0558" ry="0.0000" fill="currentColor"/>
<rect transform="translate(40.2437, 3.0084)" x="0.0000" y="44.0038" width="0.2120" height="2.3986" ry="0.0000" fill="currentColor"/>
<rect transform="translate(48.5494, 3.0084)" x="0.0000" y="5.8198" width="0.2120" height="3.7026" ry="0.0000" fill="currentColor"/>
<rect transform="translate(48.5494, 22.2892)" x="0.0000" y="-2.0000" width="0.2120" height="4.0558" ry="0.0000" fill="currentColor"/>
<rect transform="translate(40.2437, 44.9564)" x="0.0000" y="-2.0000" width="0.2120" height="4.0558" ry="0.0000" fill="currentColor"/>
<rect transform="translate(48.5494, 30.0476)" x="0.0000" y="-2.0558" width="0.2120" height="4.0558" ry="0.0000" fill="currentColor"/>
<rect transform="translate(40.2437, 3.0084)" x="0.0000" y="113.6979" width="0.2120" height="2.3986" ry="0.0000" fill="currentColor"/>
<rect transform="translate(40.2437, 3.0084)" x="0.0000" y="107.2435" width="0.2120" height="2.3986" ry="0.0000" fill="currentColor"/>
<rect transform="translate(40.2437, 3.0084)" x="0.0000" y="99.7891" width="0.2120" height="3.3986" ry="0.0000" fill="currentColor"/>
<rect transform="translate(40.2437, 3.0084)" x="0.0000" y="92.0307" width="0.2120" height="3.7026" ry="0.0000" fill="currentColor"/>
<rect transform="translate(48.5494, 3.0084)" x="0.0000" y="21.3366" width="0.2120" height="3.7026" ry="0.0000" fill="currentColor"/>
<line transform="translate(21.7580, 8.7724)" stroke-linejoin="round" stroke-linecap="round" stroke-width="0.1116" stroke="currentColor" x1="0.0558" y1="-0.0000" x2="26.9476" y2="-0.0000"/>
<line transform="translate(21.7580, 7.7724)" stroke-linejoin="round" stroke-linecap="round" stroke-width="0.1116" stroke="currentColor" x1="0.0558" y1="-0.0000" x2="26.9476" y2="-0.0000"/>
<line transform="translate(21.7580, 6.7724)" stroke-linejoin="round" stroke-linecap="round" stroke-width="0.1116" stroke="currentColor" x1="0.0558" y1="-0.0000" x2="26.9476" y2="-0.0000"/>
<line transform="translate(21.7580, 5.7724)" stroke-linejoin="round" stroke-linecap="round" stroke-width="0.1116" stroke="currentColor" x1="0.0558" y1="-0.0000" x2="26.9476" y2="-0.0000"/>
<line transform="translate(21.7580, 4.7724)" stroke-linejoin="round" stroke-linecap="round" stroke-width="0.1116" stroke="currentColor" x1="0.0558" y1="-0.0000" x2="26.9476" y2="-0.0000"/>
<rect transform="translate(40.2437, 58.8652)" x="0.0000" y="-2.0000" width="0.2120" height="4.0000" ry="0.0000" fill="currentColor"/>
<rect transform="translate(48.5494, 44.9564)" x="0.0000" y="-2.0000" width="0.2120" height="4.0558" ry="0.0000" fill="currentColor"/>
<rect transform="translate(40.2437, 37.5020)" x="0.0000" y="-1.0558" width="0.2120" height="2.1116" ry="0.0000" fill="currentColor"/>
<rect transform="translate(40.2437, 121.1049)" x="0.0000" y="-2.0558" width="0.2120" height="4.0558" ry="0.0000" fill="currentColor"/>
<rect transform="translate(48.5494, 51.4108)" x="0.0000" y="-2.0558" width="0.2120" height="4.0558" ry="0.0000" fill="currentColor"/>
<rect transform="translate(40.2437, 3.0084)" x="0.0000" y="21.3366" width="0.2120" height="3.7026" ry="0.0000" fill="currentColor"/>
<rect transform="translate(48.5494, 3.0084)" x="0.0000" y="44.0038" width="0.2120" height="2.3986" ry="0.0000" fill="currentColor"/>
<rect transform="translate(48.5494, 58.8652)" x="0.0000" y="-2.0000" width="0.2120" height="4.0000" ry="0.0000" fill="currentColor"/>
<rect transform="translate(48.5494, 67.1236)" x="0.0000" y="-2.0000" width="0.2120" height="4.0558" ry="0.0000" fill="currentColor"/>
<line transform="translate(21.7580, 123.1049)" stroke-linejoin="round" stroke-linecap="round" stroke-width="0.1116" stroke="currentColor" x1="0.0558" y1="-0.0000" x2="26.9476" y2="-0.0000"/>
<line transform="translate(21.7580, 122.1049)" stroke-linejoin="round" stroke-linecap="round" stroke-width="0.1116" stroke="currentColor" x1="0.0558" y1="-0.0000" x2="26.9476" y2="-0.0000"/>
<line transform="translate(21.7580, 121.1049)" stroke-linejoin="round" stroke-linecap="round" stroke-width="0.1116" stroke="currentColor" x1="0.0558" y1="-0.0000" x2="26.9476" y2="-0.0000"/>
<line transform="translate(21.7580, 120.1049)" stroke-linejoin="round" stroke-linecap="round" stroke-width="0.1116" stroke="currentColor" x1="0.0558" y1="-0.0000" x2="26.9476" y2="-0.0000"/>
<line transform="translate(21.7580, 119.1049)" stroke-linejoin="round" stroke-linecap="round" stroke-width="0.1116" stroke="currentColor" x1="0.0558" y1="-0.0000" x2="26.9476" y2="-0.0000"/>
<rect transform="translate(40.2437, 14.5308)" x="0.0000" y="-2.0558" width="0.2120" height="4.0558" ry="0.0000" fill="currentColor"/>
<rect transform="translate(40.2437, 3.0084)" x="0.0000" y="66.1710" width="0.2120" height="4.2026" ry="0.0000" fill="currentColor"/>
<rect transform="translate(48.5494, 121.1049)" x="0.0000" y="-2.0558" width="0.2120" height="4.0558" ry="0.0000" fill="currentColor"/>
<line transform="translate(21.7580, 53.4108)" stroke-linejoin="round" stroke-linecap="round" stroke-width="0.1116" stroke="currentColor" x1="0.0558" y1="-0.0000" x2="26.9476" y2="-0.0000"/>
<line transform="translate(21.7580, 52.4108)" stroke-linejoin="round" stroke-linecap="round" stroke-width="0.1116" stroke="currentColor" x1="0.0558" y1="-0.0000" x2="26.9476" y2="-0.0000"/>
<line transform="translate(21.7580, 51.4108)" stroke-linejoin="round" stroke-linecap="round" stroke-width="0.1116" stroke="currentColor" x1="0.0558" y1="-0.0000" x2="26.9476" y2="-0.0000"/>
<line transform="translate(21.7580, 50.4108)" stroke-linejoin="round" stroke-linecap="round" stroke-width="0.1116" stroke="currentColor" x1="0.0558" y1="-0.0000" x2="26.9476" y2="-0.0000"/>
<line transform="translate(21.7580, 49.4108)" stroke-linejoin="round" stroke-linecap="round" stroke-width="0.1116" stroke="currentColor" x1="0.0558" y1="-0.0000" x2="26.9476" y2="-0.0000"/>
<line transform="translate(21.7580, 46.9564)" stroke-linejoin="round" stroke-linecap="round" stroke-width="0.1116" stroke="currentColor" x1="0.0558" y1="-0.0000" x2="26.9476" y2="-0.0000"/>
<line transform="translate(21.7580, 45.9564)" stroke-linejoin="round" stroke-linecap="round" stroke-width="0.1116" stroke="currentColor" x1="0.0558" y1="-0.0000" x2="26.9476" y2="-0.0000"/>
<line transform="translate(21.7580, 44.9564)" stroke-linejoin="round" stroke-linecap="round" stroke-width="0.1116" stroke="currentColor" x1="0.0558" y1="-0.0000" x2="26.9476" y2="-0.0000"/>
<line transform="translate(21.7580, 43.9564)" stroke-linejoin="round" stroke-linecap="round" stroke-width="0.1116" stroke="currentColor" x1="0.0558" y1="-0.0000" x2="26.9476" y2="-0.0000"/>
<line transform="translate(21.7580, 42.9564)" stroke-linejoin="round" stroke-linecap="round" stroke-width="0.1116" stroke="currentColor" x1="0.0558" y1="-0.0000" x2="26.9476" y2="-0.0000"/>
<rect transform="translate(40.2437, 100.7417)" x="0.0000" y="-2.0558" width="0.2120" height="4.1116" ry="0.0000" fill="currentColor"/>
<rect transform="translate(40.2437, 92.9833)" x="0.0000" y="-2.0000" width="0.2120" height="4.0558" ry="0.0000" fill="currentColor"/>
<line transform="translate(21.7580, 37.5020)" stroke-linejoin="round" stroke-linecap="round" stroke-width="0.1116" stroke="currentColor" x1="0.0558" y1="-0.0000" x2="26.9476" y2="-0.0000"/>
<line transform="translate(21.7580, 24.2892)" stroke-linejoin="round" stroke-linecap="round" stroke-width="0.1116" stroke="currentColor" x1="0.0558" y1="-0.0000" x2="26.9476" y2="-0.0000"/>
<line transform="translate(21.7580, 23.2892)" stroke-linejoin="round" stroke-linecap="round" stroke-width="0.1116" stroke="currentColor" x1="0.0558" y1="-0.0000" x2="26.9476" y2="-0.0000"/>
<line transform="translate(21.7580, 22.2892)" stroke-linejoin="round" stroke-linecap="round" stroke-width="0.1116" stroke="currentColor" x1="0.0558" y1="-0.0000" x2="26.9476" y2="-0.0000"/>
<line transform="translate(21.7580, 21.2892)" stroke-linejoin="round" stroke-linecap="round" stroke-width="0.1116" stroke="currentColor" x1="0.0558" y1="-0.0000" x2="26.9476" y2="-0.0000"/>
<line transform="translate(21.7580, 20.2892)" stroke-linejoin="round" stroke-linecap="round" stroke-width="0.1116" stroke="currentColor" x1="0.0558" y1="-0.0000" x2="26.9476" y2="-0.0000"/>
<rect transform="translate(48.5494, 3.0084)" x="0.0000" y="113.6979" width="0.2120" height="2.3986" ry="0.0000" fill="currentColor"/>
<rect transform="translate(48.5494, 3.0084)" x="0.0000" y="107.2435" width="0.2120" height="2.3986" ry="0.0000" fill="currentColor"/>
<rect transform="translate(48.5494, 3.0084)" x="0.0000" y="99.7891" width="0.2120" height="3.3986" ry="0.0000" fill="currentColor"/>
<rect transform="translate(48.5494, 3.0084)" x="0.0000" y="92.0307" width="0.2120" height="3.7026" ry="0.0000" fill="currentColor"/>
<rect transform="translate(40.2437, 83.6404)" x="0.0000" y="-2.0000" width="0.2120" height="4.0000" ry="0.0000" fill="currentColor"/>
<rect transform="translate(40.2437, 6.7724)" x="0.0000" y="-2.0000" width="0.2120" height="4.0558" ry="0.0000" fill="currentColor"/>
<line transform="translate(21.7580, 32.0476)" stroke-linejoin="round" stroke-linecap="round" stroke-width="0.1116" stroke="currentColor" x1="0.0558" y1="-0.0000" x2="26.9476" y2="-0.0000"/>
<line transform="translate(21.7580, 31.0476)" stroke-linejoin="round" stroke-linecap="round" stroke-width="0.1116" stroke="currentColor" x1="0.0558" y1="-0.0000" x2="26.9476" y2="-0.0000"/>
<line transform="translate(21.7580, 30.0476)" stroke-linejoin="round" stroke-linecap="round" stroke-width="0.1116" stroke="currentColor" x1="0.0558" y1="-0.0000" x2="26.9476" y2="-0.0000"/>
<line transform="translate(21.7580, 29.0476)" stroke-linejoin="round" stroke-linecap="round" stroke-width="0.1116" stroke="currentColor" x1="0.0558" y1="-0.0000" x2="26.9476" y2="-0.0000"/>
<line transform="translate(21.7580, 28.0476)" stroke-linejoin="round" stroke-linecap="round" stroke-width="0.1116" stroke="currentColor" x1="0.0558" y1="-0.0000" x2="26.9476" y2="-0.0000"/>
<rect transform="translate(1.6737, 55.8652)" x="40.3456" y="-0.1058" width="2.9185" height="0.2116" ry="0.1058" fill="currentColor"/>
<rect transform="translate(40.2437, 3.0084)" x="0.0000" y="5.8198" width="0.2120" height="3.7026" ry="0.0000" fill="currentColor"/>
<rect transform="translate(48.5494, 3.0084)" x="0.0000" y="92.0307" width="0.2120" height="3.7026" ry="0.0000" fill="currentColor"/>
<rect transform="translate(48.5494, 108.1961)" x="0.0000" y="-2.0558" width="0.2120" height="4.1116" ry="0.0000" fill="currentColor"/>
<line transform="translate(21.7580, 69.1236)" stroke-linejoin="round" stroke-linecap="round" stroke-width="0.1116" stroke="currentColor" x1="0.0558" y1="-0.0000" x2="26.9476" y2="-0.0000"/>
<line transform="translate(21.7580, 68.1236)" stroke-linejoin="round" stroke-linecap="round" stroke-width="0.1116" stroke="currentColor" x1="0.0558" y1="-0.0000" x2="26.9476" y2="-0.0000"/>
<line transform="translate(21.7580, 67.1236)" stroke-linejoin="round" stroke-linecap="round" stroke-width="0.1116" stroke="currentColor" x1="0.0558" y1="-0.0000" x2="26.9476" y2="-0.0000"/>
<line transform="translate(21.7580, 66.1236)" stroke-linejoin="round" stroke-linecap="round" stroke-width="0.1116" stroke="currentColor" x1="0.0558" y1="-0.0000" x2="26.9476" y2="-0.0000"/>
<line transform="translate(21.7580, 65.1236)" stroke-linejoin="round" stroke-linecap="round" stroke-width="0.1116" stroke="currentColor" x1="0.0558" y1="-0.0000" x2="26.9476" y2="-0.0000"/>
<rect transform="translate(48.5494, 114.6505)" x="0.0000" y="-2.0558" width="0.2120" height="4.1116" ry="0.0000" fill="currentColor"/>
<line transform="translate(21.7580, 16.5308)" stroke-linejoin="round" stroke-linecap="round" stroke-width="0.1116" stroke="currentColor" x1="0.0558" y1="-0.0000" x2="26.9476" y2="-0.0000"/>
<line transform="translate(21.7580, 15.5308)" stroke-linejoin="round" stroke-linecap="round" stroke-width="0.1116" stroke="currentColor" x1="0.0558" y1="-0.0000" x2="26.9476" y2="-0.0000"/>
<line transform="translate(21.7580, 14.5308)" stroke-linejoin="round" stroke-linecap="round" stroke-width="0.1116" stroke="currentColor" x1="0.0558" y1="-0.0000" x2="26.9476" y2="-0.0000"/>
<line transform="translate(21.7580, 13.5308)" stroke-linejoin="round" stroke-linecap="round" stroke-width="0.1116" stroke="currentColor" x1="0.0558" y1="-0.0000" x2="26.9476" y2="-0.0000"/>
<line transform="translate(21.7580, 12.5308)" stroke-linejoin="round" stroke-linecap="round" stroke-width="0.1116" stroke="currentColor" x1="0.0558" y1="-0.0000" x2="26.9476" y2="-0.0000"/>
<line transform="translate(21.7580, 60.8652)" stroke-linejoin="round" stroke-linecap="round" stroke-width="0.1116" stroke="currentColor" x1="0.0558" y1="-0.0000" x2="26.9476" y2="-0.0000"/>
<line transform="translate(21.7580, 59.8652)" stroke-linejoin="round" stroke-linecap="round" stroke-width="0.1116" stroke="currentColor" x1="0.0558" y1="-0.0000" x2="26.9476" y2="-0.0000"/>
<line transform="translate(21.7580, 58.8652)" stroke-linejoin="round" stroke-linecap="round" stroke-width="0.1116" stroke="currentColor" x1="0.0558" y1="-0.0000" x2="26.9476" y2="-0.0000"/>
<line transform="translate(21.7580, 57.8652)" stroke-linejoin="round" stroke-linecap="round" stroke-width="0.1116" stroke="currentColor" x1="0.0558" y1="-0.0000" x2="26.9476" y2="-0.0000"/>
<line transform="translate(21.7580, 56.8652)" stroke-linejoin="round" stroke-linecap="round" stroke-width="0.1116" stroke="currentColor" x1="0.0558" y1="-0.0000" x2="26.9476" y2="-0.0000"/>
<rect transform="translate(40.2437, 3.0084)" x="0.0000" y="92.0307" width="0.2120" height="3.7026" ry="0.0000" fill="currentColor"/>
<a style="color:inherit;" xlink:href="textedit:///home/ryan/projects/lilypond-in-markdown/_lilypond/6a9092e2a02d7c55dd7c8c7a5fa19562.ly:44:55:56">
<path transform="translate(42.5057, 115.6505) scale(0.0040, -0.0040)" d="M211 111c-49 0 -68 -43 -68 -88c0 -75 57 -134 132 -134c49 0 68 43 68 88c0 75 -57 134 -132 134zM486 0c0 -43 -33 -76 -71 -97c-52 -29 -112 -40 -172 -40s-120 11 -172 40c-38 21 -71 54 -71 97s33 76 71 97c52 29 112 40 172 40s120 -11 172 -40
c38 -21 71 -54 71 -97z" fill="currentColor"/>
</a>
<path transform="translate(41.0557, 23.7892) scale(0.0040, -0.0040)" d="M217 -311c0 -11 -8 -19 -19 -19s-20 8 -20 19v142l-81 -30v-156c0 -11 -9 -20 -20 -20s-19 9 -19 20v142l-28 -11c-3 -1 -5 -1 -8 -1c-12 0 -22 10 -22 23v57c0 9 6 18 15 21l43 16v157l-28 -10c-3 -1 -5 -1 -8 -1c-12 0 -22 9 -22 22v57c0 9 6 18 15 21l43 16v157
c0 11 8 19 19 19s20 -8 20 -19v-142l81 30v156c0 11 9 20 20 20s19 -9 19 -20v-142l28 11c3 1 5 1 8 1c12 0 22 -10 22 -23v-57c0 -9 -6 -18 -15 -21l-43 -16v-157l28 10c3 1 5 1 8 1c12 0 22 -9 22 -22v-57c0 -9 -6 -18 -15 -21l-43 -16v-157zM97 64v-158l81 30v158z" fill="currentColor"/>
<a style="color:inherit;" xlink:href="textedit:///home/ryan/projects/lilypond-in-markdown/_lilypond/6a9092e2a02d7c55dd7c8c7a5fa19562.ly:45:59:60">
<path transform="translate(42.5057, 122.1049) scale(0.0040, -0.0040)" d="M211 111c-49 0 -68 -43 -68 -88c0 -75 57 -134 132 -134c49 0 68 43 68 88c0 75 -57 134 -132 134zM486 0c0 -43 -33 -76 -71 -97c-52 -29 -112 -40 -172 -40s-120 11 -172 40c-38 21 -71 54 -71 97s33 76 71 97c52 29 112 40 172 40s120 -11 172 -40
c38 -21 71 -54 71 -97z" fill="currentColor"/>
</a>
<a style="color:inherit;" xlink:href="textedit:///home/ryan/projects/lilypond-in-markdown/_lilypond/6a9092e2a02d7c55dd7c8c7a5fa19562.ly:32:33:34">
<rect transform="translate(39.1664, 63.2688)" x="0.0000" y="-0.5651" width="0.6600" height="0.1451" ry="0.0446" fill="currentColor"/>
</a>
<a style="color:inherit;" xlink:href="textedit:///home/ryan/projects/lilypond-in-markdown/_lilypond/6a9092e2a02d7c55dd7c8c7a5fa19562.ly:32:33:34">
<rect transform="translate(39.1664, 71.5271)" x="0.0000" y="-0.5651" width="0.6600" height="0.1451" ry="0.0446" fill="currentColor"/>
</a>
<a style="color:inherit;" xlink:href="textedit:///home/ryan/projects/lilypond-in-markdown/_lilypond/6a9092e2a02d7c55dd7c8c7a5fa19562.ly:36:31:32">
<rect transform="translate(39.0659, 79.8257)" x="0.0000" y="-0.5651" width="0.6600" height="0.1451" ry="0.0446" fill="currentColor"/>
</a>
<a style="color:inherit;" xlink:href="textedit:///home/ryan/projects/lilypond-in-markdown/_lilypond/6a9092e2a02d7c55dd7c8c7a5fa19562.ly:32:33:34">
<rect transform="translate(39.1664, 88.0439)" x="0.0000" y="-0.5651" width="0.6600" height="0.1451" ry="0.0446" fill="currentColor"/>
</a>
<path transform="translate(30.5080, 37.5020) scale(0.0040, -0.0040)" d="M358 29c-49 0 -74 41 -74 73c0 38 27 76 71 76c4 0 7 0 11 -1c-27 36 -69 59 -116 59c-106 0 -113 -74 -113 -188c0 -15 1 -31 1 -48s-1 -33 -1 -48c0 -114 7 -188 113 -188c79 0 136 70 155 150c2 7 7 10 13 10c7 0 14 -5 14 -13c0 -95 -105 -175 -182 -175
c-68 0 -137 20 -184 70c-49 51 -66 123 -66 194s17 143 66 194c47 50 116 70 184 70c86 0 158 -66 173 -152c1 -4 1 -9 1 -13c0 -39 -30 -70 -66 -70z" fill="currentColor"/>
<a style="color:inherit;" xlink:href="textedit:///home/ryan/projects/lilypond-in-markdown/_lilypond/6a9092e2a02d7c55dd7c8c7a5fa19562.ly:33:42:43">
<path transform="translate(34.2000, 68.1236) scale(0.0040, -0.0040)" d="M211 111c-49 0 -68 -43 -68 -88c0 -75 57 -134 132 -134c49 0 68 43 68 88c0 75 -57 134 -132 134zM486 0c0 -43 -33 -76 -71 -97c-52 -29 -112 -40 -172 -40s-120 11 -172 40c-38 21 -71 54 -71 97s33 76 71 97c52 29 112 40 172 40s120 -11 172 -40
c38 -21 71 -54 71 -97z" fill="currentColor"/>
</a>
<a style="color:inherit;" xlink:href="textedit:///home/ryan/projects/lilypond-in-markdown/_lilypond/6a9092e2a02d7c55dd7c8c7a5fa19562.ly:32:29:30">
<text transform="translate(33.1041, 63.2688)" font-family="serif" font-size="2.4693" text-anchor="start" fill="currentColor">
<tspan>
Lyr</tspan>
</text>
</a>
<path transform="translate(30.5080, 58.8652) scale(0.0040, -0.0040)" d="M358 29c-49 0 -74 41 -74 73c0 38 27 76 71 76c4 0 7 0 11 -1c-27 36 -69 59 -116 59c-106 0 -113 -74 -113 -188c0 -15 1 -31 1 -48s-1 -33 -1 -48c0 -114 7 -188 113 -188c79 0 136 70 155 150c2 7 7 10 13 10c7 0 14 -5 14 -13c0 -95 -105 -175 -182 -175
c-68 0 -137 20 -184 70c-49 51 -66 123 -66 194s17 143 66 194c47 50 116 70 184 70c86 0 158 -66 173 -152c1 -4 1 -9 1 -13c0 -39 -30 -70 -66 -70z" fill="currentColor"/>
<a style="color:inherit;" xlink:href="textedit:///home/ryan/projects/lilypond-in-markdown/_lilypond/6a9092e2a02d7c55dd7c8c7a5fa19562.ly:31:31:32">
<path transform="translate(26.0580, 56.8652) scale(0.0040, -0.0040)" d="M217 -311c0 -11 -8 -19 -19 -19s-20 8 -20 19v142l-81 -30v-156c0 -11 -9 -20 -20 -20s-19 9 -19 20v142l-28 -11c-3 -1 -5 -1 -8 -1c-12 0 -22 10 -22 23v57c0 9 6 18 15 21l43 16v157l-28 -10c-3 -1 -5 -1 -8 -1c-12 0 -22 9 -22 22v57c0 9 6 18 15 21l43 16v157
c0 11 8 19 19 19s20 -8 20 -19v-142l81 30v156c0 11 9 20 20 20s19 -9 19 -20v-142l28 11c3 1 5 1 8 1c12 0 22 -10 22 -23v-57c0 -9 -6 -18 -15 -21l-43 -16v-157l28 10c3 1 5 1 8 1c12 0 22 -9 22 -22v-57c0 -9 -6 -18 -15 -21l-43 -16v-157zM97 64v-158l81 30v158z" fill="currentColor"/>
</a>
<path transform="translate(22.5580, 59.8652) scale(0.0040, -0.0040)" d="M378 263c4 0 7 1 11 1c156 0 257 -129 257 -262c0 -76 -34 -154 -108 -210c-22 -17 -46 -29 -72 -37c3 -34 4 -68 4 -102c0 -20 0 -40 -1 -60c-7 -121 -90 -228 -209 -228c-108 0 -196 87 -196 196c0 58 53 104 112 104c54 0 95 -48 95 -104c0 -52 -43 -95 -95 -95
c-10 0 -20 2 -29 6c26 -38 68 -63 116 -63h3c93 2 153 92 159 190c1 19 2 37 2 56c0 30 -2 60 -4 90c-29 -5 -58 -8 -88 -8c-188 0 -333 173 -333 375c0 177 130 307 246 442c-20 62 -38 125 -46 190c-6 52 -7 104 -7 157c0 115 55 223 148 290c7 5 16 4 22 -1
c71 -83 134 -244 134 -357c0 -143 -85 -255 -178 -364c21 -68 40 -137 57 -206zM462 -202c67 24 111 94 111 162c0 89 -65 178 -170 190c24 -115 46 -230 59 -352zM75 26c0 -134 129 -245 263 -245c28 0 55 2 81 6c-14 126 -36 244 -61 363c-79 -8 -124 -61 -124 -119
c0 -43 25 -89 80 -121c5 -5 7 -11 7 -16c0 -12 -10 -23 -22 -23c-3 0 -6 1 -9 2c-81 43 -118 116 -118 186c0 89 58 175 161 198c-14 58 -29 116 -46 173c-106 -122 -212 -244 -212 -404zM244 785c0 -73 20 -132 38 -191c79 97 144 199 144 324c0 53 -4 76 -20 124
c-99 -47 -162 -148 -162 -257z" fill="currentColor"/>
<a style="color:inherit;" xlink:href="textedit:///home/ryan/projects/lilypond-in-markdown/_lilypond/6a9092e2a02d7c55dd7c8c7a5fa19562.ly:31:45:46">
<path transform="translate(34.2000, 56.3652) scale(0.0040, -0.0040)" d="M211 111c-49 0 -68 -43 -68 -88c0 -75 57 -134 132 -134c49 0 68 43 68 88c0 75 -57 134 -132 134zM486 0c0 -43 -33 -76 -71 -97c-52 -29 -112 -40 -172 -40s-120 11 -172 40c-38 21 -71 54 -71 97s33 76 71 97c52 29 112 40 172 40s120 -11 172 -40
c38 -21 71 -54 71 -97z" fill="currentColor"/>
</a>
<path transform="translate(30.5080, 51.4108) scale(0.0040, -0.0040)" d="M358 29c-49 0 -74 41 -74 73c0 38 27 76 71 76c4 0 7 0 11 -1c-27 36 -69 59 -116 59c-106 0 -113 -74 -113 -188c0 -15 1 -31 1 -48s-1 -33 -1 -48c0 -114 7 -188 113 -188c79 0 136 70 155 150c2 7 7 10 13 10c7 0 14 -5 14 -13c0 -95 -105 -175 -182 -175
c-68 0 -137 20 -184 70c-49 51 -66 123 -66 194s17 143 66 194c47 50 116 70 184 70c86 0 158 -66 173 -152c1 -4 1 -9 1 -13c0 -39 -30 -70 -66 -70z" fill="currentColor"/>
<a style="color:inherit;" xlink:href="textedit:///home/ryan/projects/lilypond-in-markdown/_lilypond/6a9092e2a02d7c55dd7c8c7a5fa19562.ly:40:40:41">
<path transform="translate(26.0580, 50.4108) scale(0.0040, -0.0040)" d="M217 -311c0 -11 -8 -19 -19 -19s-20 8 -20 19v142l-81 -30v-156c0 -11 -9 -20 -20 -20s-19 9 -19 20v142l-28 -11c-3 -1 -5 -1 -8 -1c-12 0 -22 10 -22 23v57c0 9 6 18 15 21l43 16v157l-28 -10c-3 -1 -5 -1 -8 -1c-12 0 -22 9 -22 22v57c0 9 6 18 15 21l43 16v157
c0 11 8 19 19 19s20 -8 20 -19v-142l81 30v156c0 11 9 20 20 20s19 -9 19 -20v-142l28 11c3 1 5 1 8 1c12 0 22 -10 22 -23v-57c0 -9 -6 -18 -15 -21l-43 -16v-157l28 10c3 1 5 1 8 1c12 0 22 -9 22 -22v-57c0 -9 -6 -18 -15 -21l-43 -16v-157zM97 64v-158l81 30v158z" fill="currentColor"/>
</a>
<path transform="translate(22.5580, 50.4108) scale(0.0040, -0.0040)" d="M558 -125c0 28 22 51 50 51s51 -23 51 -51s-23 -51 -51 -51s-50 23 -50 51zM558 125c0 28 22 51 50 51s51 -23 51 -51s-23 -51 -51 -51s-50 23 -50 51zM231 264c172 0 294 -88 294 -251c0 -263 -262 -416 -515 -523c-3 -3 -7 -4 -10 -4c-7 0 -14 7 -14 14c0 3 1 7 4 10
c201 118 410 265 410 492c0 119 -61 234 -169 234c-72 0 -124 -53 -148 -123c10 4 19 6 29 6c55 0 100 -45 100 -100c0 -58 -44 -106 -100 -106c-60 0 -112 47 -112 106c0 133 101 245 231 245z" fill="currentColor"/>
<a style="color:inherit;" xlink:href="textedit:///home/ryan/projects/lilypond-in-markdown/_lilypond/6a9092e2a02d7c55dd7c8c7a5fa19562.ly:40:54:55">
<path transform="translate(34.2000, 53.4108) scale(0.0040, -0.0040)" d="M211 111c-49 0 -68 -43 -68 -88c0 -75 57 -134 132 -134c49 0 68 43 68 88c0 75 -57 134 -132 134zM486 0c0 -43 -33 -76 -71 -97c-52 -29 -112 -40 -172 -40s-120 11 -172 40c-38 21 -71 54 -71 97s33 76 71 97c52 29 112 40 172 40s120 -11 172 -40
c38 -21 71 -54 71 -97z" fill="currentColor"/>
</a>
<path transform="translate(30.5080, 44.9564) scale(0.0040, -0.0040)" d="M358 29c-49 0 -74 41 -74 73c0 38 27 76 71 76c4 0 7 0 11 -1c-27 36 -69 59 -116 59c-106 0 -113 -74 -113 -188c0 -15 1 -31 1 -48s-1 -33 -1 -48c0 -114 7 -188 113 -188c79 0 136 70 155 150c2 7 7 10 13 10c7 0 14 -5 14 -13c0 -95 -105 -175 -182 -175
c-68 0 -137 20 -184 70c-49 51 -66 123 -66 194s17 143 66 194c47 50 116 70 184 70c86 0 158 -66 173 -152c1 -4 1 -9 1 -13c0 -39 -30 -70 -66 -70z" fill="currentColor"/>
<a style="color:inherit;" xlink:href="textedit:///home/ryan/projects/lilypond-in-markdown/_lilypond/6a9092e2a02d7c55dd7c8c7a5fa19562.ly:39:29:30">
<path transform="translate(26.0580, 42.9564) scale(0.0040, -0.0040)" d="M217 -311c0 -11 -8 -19 -19 -19s-20 8 -20 19v142l-81 -30v-156c0 -11 -9 -20 -20 -20s-19 9 -19 20v142l-28 -11c-3 -1 -5 -1 -8 -1c-12 0 -22 10 -22 23v57c0 9 6 18 15 21l43 16v157l-28 -10c-3 -1 -5 -1 -8 -1c-12 0 -22 9 -22 22v57c0 9 6 18 15 21l43 16v157
c0 11 8 19 19 19s20 -8 20 -19v-142l81 30v156c0 11 9 20 20 20s19 -9 19 -20v-142l28 11c3 1 5 1 8 1c12 0 22 -10 22 -23v-57c0 -9 -6 -18 -15 -21l-43 -16v-157l28 10c3 1 5 1 8 1c12 0 22 -9 22 -22v-57c0 -9 -6 -18 -15 -21l-43 -16v-157zM97 64v-158l81 30v158z" fill="currentColor"/>
</a>
<path transform="translate(22.5580, 45.9564) scale(0.0040, -0.0040)" d="M378 263c4 0 7 1 11 1c156 0 257 -129 257 -262c0 -76 -34 -154 -108 -210c-22 -17 -46 -29 -72 -37c3 -34 4 -68 4 -102c0 -20 0 -40 -1 -60c-7 -121 -90 -228 -209 -228c-108 0 -196 87 -196 196c0 58 53 104 112 104c54 0 95 -48 95 -104c0 -52 -43 -95 -95 -95
c-10 0 -20 2 -29 6c26 -38 68 -63 116 -63h3c93 2 153 92 159 190c1 19 2 37 2 56c0 30 -2 60 -4 90c-29 -5 -58 -8 -88 -8c-188 0 -333 173 -333 375c0 177 130 307 246 442c-20 62 -38 125 -46 190c-6 52 -7 104 -7 157c0 115 55 223 148 290c7 5 16 4 22 -1
c71 -83 134 -244 134 -357c0 -143 -85 -255 -178 -364c21 -68 40 -137 57 -206zM462 -202c67 24 111 94 111 162c0 89 -65 178 -170 190c24 -115 46 -230 59 -352zM75 26c0 -134 129 -245 263 -245c28 0 55 2 81 6c-14 126 -36 244 -61 363c-79 -8 -124 -61 -124 -119
c0 -43 25 -89 80 -121c5 -5 7 -11 7 -16c0 -12 -10 -23 -22 -23c-3 0 -6 1 -9 2c-81 43 -118 116 -118 186c0 89 58 175 161 198c-14 58 -29 116 -46 173c-106 -122 -212 -244 -212 -404zM244 785c0 -73 20 -132 38 -191c79 97 144 199 144 324c0 53 -4 76 -20 124
c-99 -47 -162 -148 -162 -257z" fill="currentColor"/>
<a style="color:inherit;" xlink:href="textedit:///home/ryan/projects/lilypond-in-markdown/_lilypond/6a9092e2a02d7c55dd7c8c7a5fa19562.ly:39:43:44">
<path transform="translate(34.2000, 45.9564) scale(0.0040, -0.0040)" d="M211 111c-49 0 -68 -43 -68 -88c0 -75 57 -134 132 -134c49 0 68 43 68 88c0 75 -57 134 -132 134zM486 0c0 -43 -33 -76 -71 -97c-52 -29 -112 -40 -172 -40s-120 11 -172 40c-38 21 -71 54 -71 97s33 76 71 97c52 29 112 40 172 40s120 -11 172 -40
c38 -21 71 -54 71 -97z" fill="currentColor"/>
</a>
<path transform="translate(22.5580, 68.1236) scale(0.0040, -0.0040)" d="M378 263c4 0 7 1 11 1c156 0 257 -129 257 -262c0 -76 -34 -154 -108 -210c-22 -17 -46 -29 -72 -37c3 -34 4 -68 4 -102c0 -20 0 -40 -1 -60c-7 -121 -90 -228 -209 -228c-108 0 -196 87 -196 196c0 58 53 104 112 104c54 0 95 -48 95 -104c0 -52 -43 -95 -95 -95
c-10 0 -20 2 -29 6c26 -38 68 -63 116 -63h3c93 2 153 92 159 190c1 19 2 37 2 56c0 30 -2 60 -4 90c-29 -5 -58 -8 -88 -8c-188 0 -333 173 -333 375c0 177 130 307 246 442c-20 62 -38 125 -46 190c-6 52 -7 104 -7 157c0 115 55 223 148 290c7 5 16 4 22 -1
c71 -83 134 -244 134 -357c0 -143 -85 -255 -178 -364c21 -68 40 -137 57 -206zM462 -202c67 24 111 94 111 162c0 89 -65 178 -170 190c24 -115 46 -230 59 -352zM75 26c0 -134 129 -245 263 -245c28 0 55 2 81 6c-14 126 -36 244 -61 363c-79 -8 -124 -61 -124 -119
c0 -43 25 -89 80 -121c5 -5 7 -11 7 -16c0 -12 -10 -23 -22 -23c-3 0 -6 1 -9 2c-81 43 -118 116 -118 186c0 89 58 175 161 198c-14 58 -29 116 -46 173c-106 -122 -212 -244 -212 -404zM244 785c0 -73 20 -132 38 -191c79 97 144 199 144 324c0 53 -4 76 -20 124
c-99 -47 -162 -148 -162 -257z" fill="currentColor"/>
<a style="color:inherit;" xlink:href="textedit:///home/ryan/projects/lilypond-in-markdown/_lilypond/6a9092e2a02d7c55dd7c8c7a5fa19562.ly:30:46:47">
<path transform="translate(34.2000, 37.5020) scale(0.0040, -0.0040)" d="M211 111c-49 0 -68 -43 -68 -88c0 -75 57 -134 132 -134c49 0 68 43 68 88c0 75 -57 134 -132 134zM486 0c0 -43 -33 -76 -71 -97c-52 -29 -112 -40 -172 -40s-120 11 -172 40c-38 21 -71 54 -71 97s33 76 71 97c52 29 112 40 172 40s120 -11 172 -40
c38 -21 71 -54 71 -97z" fill="currentColor"/>
</a>
<path transform="translate(30.5080, 30.0476) scale(0.0040, -0.0040)" d="M358 29c-49 0 -74 41 -74 73c0 38 27 76 71 76c4 0 7 0 11 -1c-27 36 -69 59 -116 59c-106 0 -113 -74 -113 -188c0 -15 1 -31 1 -48s-1 -33 -1 -48c0 -114 7 -188 113 -188c79 0 136 70 155 150c2 7 7 10 13 10c7 0 14 -5 14 -13c0 -95 -105 -175 -182 -175
c-68 0 -137 20 -184 70c-49 51 -66 123 -66 194s17 143 66 194c47 50 116 70 184 70c86 0 158 -66 173 -152c1 -4 1 -9 1 -13c0 -39 -30 -70 -66 -70z" fill="currentColor"/>
<a style="color:inherit;" xlink:href="textedit:///home/ryan/projects/lilypond-in-markdown/_lilypond/6a9092e2a02d7c55dd7c8c7a5fa19562.ly:26:29:30">
<path transform="translate(26.0580, 28.0476) scale(0.0040, -0.0040)" d="M217 -311c0 -11 -8 -19 -19 -19s-20 8 -20 19v142l-81 -30v-156c0 -11 -9 -20 -20 -20s-19 9 -19 20v142l-28 -11c-3 -1 -5 -1 -8 -1c-12 0 -22 10 -22 23v57c0 9 6 18 15 21l43 16v157l-28 -10c-3 -1 -5 -1 -8 -1c-12 0 -22 9 -22 22v57c0 9 6 18 15 21l43 16v157
c0 11 8 19 19 19s20 -8 20 -19v-142l81 30v156c0 11 9 20 20 20s19 -9 19 -20v-142l28 11c3 1 5 1 8 1c12 0 22 -10 22 -23v-57c0 -9 -6 -18 -15 -21l-43 -16v-157l28 10c3 1 5 1 8 1c12 0 22 -9 22 -22v-57c0 -9 -6 -18 -15 -21l-43 -16v-157zM97 64v-158l81 30v158z" fill="currentColor"/>
</a>
<path transform="translate(22.5580, 31.0476) scale(0.0040, -0.0040)" d="M378 263c4 0 7 1 11 1c156 0 257 -129 257 -262c0 -76 -34 -154 -108 -210c-22 -17 -46 -29 -72 -37c3 -34 4 -68 4 -102c0 -20 0 -40 -1 -60c-7 -121 -90 -228 -209 -228c-108 0 -196 87 -196 196c0 58 53 104 112 104c54 0 95 -48 95 -104c0 -52 -43 -95 -95 -95
c-10 0 -20 2 -29 6c26 -38 68 -63 116 -63h3c93 2 153 92 159 190c1 19 2 37 2 56c0 30 -2 60 -4 90c-29 -5 -58 -8 -88 -8c-188 0 -333 173 -333 375c0 177 130 307 246 442c-20 62 -38 125 -46 190c-6 52 -7 104 -7 157c0 115 55 223 148 290c7 5 16 4 22 -1
c71 -83 134 -244 134 -357c0 -143 -85 -255 -178 -364c21 -68 40 -137 57 -206zM462 -202c67 24 111 94 111 162c0 89 -65 178 -170 190c24 -115 46 -230 59 -352zM75 26c0 -134 129 -245 263 -245c28 0 55 2 81 6c-14 126 -36 244 -61 363c-79 -8 -124 -61 -124 -119
c0 -43 25 -89 80 -121c5 -5 7 -11 7 -16c0 -12 -10 -23 -22 -23c-3 0 -6 1 -9 2c-81 43 -118 116 -118 186c0 89 58 175 161 198c-14 58 -29 116 -46 173c-106 -122 -212 -244 -212 -404zM244 785c0 -73 20 -132 38 -191c79 97 144 199 144 324c0 53 -4 76 -20 124
c-99 -47 -162 -148 -162 -257z" fill="currentColor"/>
<a style="color:inherit;" xlink:href="textedit:///home/ryan/projects/lilypond-in-markdown/_lilypond/6a9092e2a02d7c55dd7c8c7a5fa19562.ly:26:43:44">
<path transform="translate(34.2000, 31.0476) scale(0.0040, -0.0040)" d="M211 111c-49 0 -68 -43 -68 -88c0 -75 57 -134 132 -134c49 0 68 43 68 88c0 75 -57 134 -132 134zM486 0c0 -43 -33 -76 -71 -97c-52 -29 -112 -40 -172 -40s-120 11 -172 40c-38 21 -71 54 -71 97s33 76 71 97c52 29 112 40 172 40s120 -11 172 -40
c38 -21 71 -54 71 -97z" fill="currentColor"/>
</a>
<path transform="translate(30.5080, 22.2892) scale(0.0040, -0.0040)" d="M358 29c-49 0 -74 41 -74 73c0 38 27 76 71 76c4 0 7 0 11 -1c-27 36 -69 59 -116 59c-106 0 -113 -74 -113 -188c0 -15 1 -31 1 -48s-1 -33 -1 -48c0 -114 7 -188 113 -188c79 0 136 70 155 150c2 7 7 10 13 10c7 0 14 -5 14 -13c0 -95 -105 -175 -182 -175
c-68 0 -137 20 -184 70c-49 51 -66 123 -66 194s17 143 66 194c47 50 116 70 184 70c86 0 158 -66 173 -152c1 -4 1 -9 1 -13c0 -39 -30 -70 -66 -70z" fill="currentColor"/>
<path transform="translate(22.5580, 23.2892) scale(0.0040, -0.0040)" d="M378 263c4 0 7 1 11 1c156 0 257 -129 257 -262c0 -76 -34 -154 -108 -210c-22 -17 -46 -29 -72 -37c3 -34 4 -68 4 -102c0 -20 0 -40 -1 -60c-7 -121 -90 -228 -209 -228c-108 0 -196 87 -196 196c0 58 53 104 112 104c54 0 95 -48 95 -104c0 -52 -43 -95 -95 -95
c-10 0 -20 2 -29 6c26 -38 68 -63 116 -63h3c93 2 153 92 159 190c1 19 2 37 2 56c0 30 -2 60 -4 90c-29 -5 -58 -8 -88 -8c-188 0 -333 173 -333 375c0 177 130 307 246 442c-20 62 -38 125 -46 190c-6 52 -7 104 -7 157c0 115 55 223 148 290c7 5 16 4 22 -1
c71 -83 134 -244 134 -357c0 -143 -85 -255 -178 -364c21 -68 40 -137 57 -206zM462 -202c67 24 111 94 111 162c0 89 -65 178 -170 190c24 -115 46 -230 59 -352zM75 26c0 -134 129 -245 263 -245c28 0 55 2 81 6c-14 126 -36 244 -61 363c-79 -8 -124 -61 -124 -119
c0 -43 25 -89 80 -121c5 -5 7 -11 7 -16c0 -12 -10 -23 -22 -23c-3 0 -6 1 -9 2c-81 43 -118 116 -118 186c0 89 58 175 161 198c-14 58 -29 116 -46 173c-106 -122 -212 -244 -212 -404zM244 785c0 -73 20 -132 38 -191c79 97 144 199 144 324c0 53 -4 76 -20 124
c-99 -47 -162 -148 -162 -257z" fill="currentColor"/>
<a style="color:inherit;" xlink:href="textedit:///home/ryan/projects/lilypond-in-markdown/_lilypond/6a9092e2a02d7c55dd7c8c7a5fa19562.ly:29:16:17">
<path transform="translate(34.2000, 24.7892) scale(0.0040, -0.0040)" d="M211 111c-49 0 -68 -43 -68 -88c0 -75 57 -134 132 -134c49 0 68 43 68 88c0 75 -57 134 -132 134zM486 0c0 -43 -33 -76 -71 -97c-52 -29 -112 -40 -172 -40s-120 11 -172 40c-38 21 -71 54 -71 97s33 76 71 97c52 29 112 40 172 40s120 -11 172 -40
c38 -21 71 -54 71 -97z" fill="currentColor"/>
</a>
<path transform="translate(30.5080, 14.5308) scale(0.0040, -0.0040)" d="M358 29c-49 0 -74 41 -74 73c0 38 27 76 71 76c4 0 7 0 11 -1c-27 36 -69 59 -116 59c-106 0 -113 -74 -113 -188c0 -15 1 -31 1 -48s-1 -33 -1 -48c0 -114 7 -188 113 -188c79 0 136 70 155 150c2 7 7 10 13 10c7 0 14 -5 14 -13c0 -95 -105 -175 -182 -175
c-68 0 -137 20 -184 70c-49 51 -66 123 -66 194s17 143 66 194c47 50 116 70 184 70c86 0 158 -66 173 -152c1 -4 1 -9 1 -13c0 -39 -30 -70 -66 -70z" fill="currentColor"/>
<a style="color:inherit;" xlink:href="textedit:///home/ryan/projects/lilypond-in-markdown/_lilypond/6a9092e2a02d7c55dd7c8c7a5fa19562.ly:25:18:19">
<path transform="translate(26.0580, 12.5308) scale(0.0040, -0.0040)" d="M217 -311c0 -11 -8 -19 -19 -19s-20 8 -20 19v142l-81 -30v-156c0 -11 -9 -20 -20 -20s-19 9 -19 20v142l-28 -11c-3 -1 -5 -1 -8 -1c-12 0 -22 10 -22 23v57c0 9 6 18 15 21l43 16v157l-28 -10c-3 -1 -5 -1 -8 -1c-12 0 -22 9 -22 22v57c0 9 6 18 15 21l43 16v157
c0 11 8 19 19 19s20 -8 20 -19v-142l81 30v156c0 11 9 20 20 20s19 -9 19 -20v-142l28 11c3 1 5 1 8 1c12 0 22 -10 22 -23v-57c0 -9 -6 -18 -15 -21l-43 -16v-157l28 10c3 1 5 1 8 1c12 0 22 -9 22 -22v-57c0 -9 -6 -18 -15 -21l-43 -16v-157zM97 64v-158l81 30v158z" fill="currentColor"/>
<path transform="translate(27.1580, 14.0308) scale(0.0040, -0.0040)" d="M217 -311c0 -11 -8 -19 -19 -19s-20 8 -20 19v142l-81 -30v-156c0 -11 -9 -20 -20 -20s-19 9 -19 20v142l-28 -11c-3 -1 -5 -1 -8 -1c-12 0 -22 10 -22 23v57c0 9 6 18 15 21l43 16v157l-28 -10c-3 -1 -5 -1 -8 -1c-12 0 -22 9 -22 22v57c0 9 6 18 15 21l43 16v157
c0 11 8 19 19 19s20 -8 20 -19v-142l81 30v156c0 11 9 20 20 20s19 -9 19 -20v-142l28 11c3 1 5 1 8 1c12 0 22 -10 22 -23v-57c0 -9 -6 -18 -15 -21l-43 -16v-157l28 10c3 1 5 1 8 1c12 0 22 -9 22 -22v-57c0 -9 -6 -18 -15 -21l-43 -16v-157zM97 64v-158l81 30v158z" fill="currentColor"/>
<path transform="translate(28.2580, 12.0308) scale(0.0040, -0.0040)" d="M217 -311c0 -11 -8 -19 -19 -19s-20 8 -20 19v142l-81 -30v-156c0 -11 -9 -20 -20 -20s-19 9 -19 20v142l-28 -11c-3 -1 -5 -1 -8 -1c-12 0 -22 10 -22 23v57c0 9 6 18 15 21l43 16v157l-28 -10c-3 -1 -5 -1 -8 -1c-12 0 -22 9 -22 22v57c0 9 6 18 15 21l43 16v157
c0 11 8 19 19 19s20 -8 20 -19v-142l81 30v156c0 11 9 20 20 20s19 -9 19 -20v-142l28 11c3 1 5 1 8 1c12 0 22 -10 22 -23v-57c0 -9 -6 -18 -15 -21l-43 -16v-157l28 10c3 1 5 1 8 1c12 0 22 -9 22 -22v-57c0 -9 -6 -18 -15 -21l-43 -16v-157zM97 64v-158l81 30v158z" fill="currentColor"/>
</a>
<path transform="translate(22.5580, 15.5308) scale(0.0040, -0.0040)" d="M378 263c4 0 7 1 11 1c156 0 257 -129 257 -262c0 -76 -34 -154 -108 -210c-22 -17 -46 -29 -72 -37c3 -34 4 -68 4 -102c0 -20 0 -40 -1 -60c-7 -121 -90 -228 -209 -228c-108 0 -196 87 -196 196c0 58 53 104 112 104c54 0 95 -48 95 -104c0 -52 -43 -95 -95 -95
c-10 0 -20 2 -29 6c26 -38 68 -63 116 -63h3c93 2 153 92 159 190c1 19 2 37 2 56c0 30 -2 60 -4 90c-29 -5 -58 -8 -88 -8c-188 0 -333 173 -333 375c0 177 130 307 246 442c-20 62 -38 125 -46 190c-6 52 -7 104 -7 157c0 115 55 223 148 290c7 5 16 4 22 -1
c71 -83 134 -244 134 -357c0 -143 -85 -255 -178 -364c21 -68 40 -137 57 -206zM462 -202c67 24 111 94 111 162c0 89 -65 178 -170 190c24 -115 46 -230 59 -352zM75 26c0 -134 129 -245 263 -245c28 0 55 2 81 6c-14 126 -36 244 -61 363c-79 -8 -124 -61 -124 -119
c0 -43 25 -89 80 -121c5 -5 7 -11 7 -16c0 -12 -10 -23 -22 -23c-3 0 -6 1 -9 2c-81 43 -118 116 -118 186c0 89 58 175 161 198c-14 58 -29 116 -46 173c-106 -122 -212 -244 -212 -404zM244 785c0 -73 20 -132 38 -191c79 97 144 199 144 324c0 53 -4 76 -20 124
c-99 -47 -162 -148 -162 -257z" fill="currentColor"/>
<a style="color:inherit;" xlink:href="textedit:///home/ryan/projects/lilypond-in-markdown/_lilypond/6a9092e2a02d7c55dd7c8c7a5fa19562.ly:25:34:35">
<path transform="translate(34.2000, 15.0308) scale(0.0040, -0.0040)" d="M211 111c-49 0 -68 -43 -68 -88c0 -75 57 -134 132 -134c49 0 68 43 68 88c0 75 -57 134 -132 134zM486 0c0 -43 -33 -76 -71 -97c-52 -29 -112 -40 -172 -40s-120 11 -172 40c-38 21 -71 54 -71 97s33 76 71 97c52 29 112 40 172 40s120 -11 172 -40
c38 -21 71 -54 71 -97z" fill="currentColor"/>
</a>
<path transform="translate(30.5080, 6.7724) scale(0.0040, -0.0040)" d="M358 29c-49 0 -74 41 -74 73c0 38 27 76 71 76c4 0 7 0 11 -1c-27 36 -69 59 -116 59c-106 0 -113 -74 -113 -188c0 -15 1 -31 1 -48s-1 -33 -1 -48c0 -114 7 -188 113 -188c79 0 136 70 155 150c2 7 7 10 13 10c7 0 14 -5 14 -13c0 -95 -105 -175 -182 -175
c-68 0 -137 20 -184 70c-49 51 -66 123 -66 194s17 143 66 194c47 50 116 70 184 70c86 0 158 -66 173 -152c1 -4 1 -9 1 -13c0 -39 -30 -70 -66 -70z" fill="currentColor"/>
<a style="color:inherit;" xlink:href="textedit:///home/ryan/projects/lilypond-in-markdown/_lilypond/6a9092e2a02d7c55dd7c8c7a5fa19562.ly:32:29:30">
<text transform="translate(33.1041, 88.0439)" font-family="serif" font-size="2.4693" text-anchor="start" fill="currentColor">
<tspan>
Lyr</tspan>
</text>
</a>
<a style="color:inherit;" xlink:href="textedit:///home/ryan/projects/lilypond-in-markdown/_lilypond/6a9092e2a02d7c55dd7c8c7a5fa19562.ly:43:56:57">
<path transform="translate(42.5057, 108.6961) scale(0.0040, -0.0040)" d="M211 111c-49 0 -68 -43 -68 -88c0 -75 57 -134 132 -134c49 0 68 43 68 88c0 75 -57 134 -132 134zM486 0c0 -43 -33 -76 -71 -97c-52 -29 -112 -40 -172 -40s-120 11 -172 40c-38 21 -71 54 -71 97s33 76 71 97c52 29 112 40 172 40s120 -11 172 -40
c38 -21 71 -54 71 -97z" fill="currentColor"/>
</a>
<path transform="translate(30.5080, 108.1961) scale(0.0040, -0.0040)" d="M358 29c-49 0 -74 41 -74 73c0 38 27 76 71 76c4 0 7 0 11 -1c-27 36 -69 59 -116 59c-106 0 -113 -74 -113 -188c0 -15 1 -31 1 -48s-1 -33 -1 -48c0 -114 7 -188 113 -188c79 0 136 70 155 150c2 7 7 10 13 10c7 0 14 -5 14 -13c0 -95 -105 -175 -182 -175
c-68 0 -137 20 -184 70c-49 51 -66 123 -66 194s17 143 66 194c47 50 116 70 184 70c86 0 158 -66 173 -152c1 -4 1 -9 1 -13c0 -39 -30 -70 -66 -70z" fill="currentColor"/>
<a style="color:inherit;" xlink:href="textedit:///home/ryan/projects/lilypond-in-markdown/_lilypond/6a9092e2a02d7c55dd7c8c7a5fa19562.ly:43:38:39">
<path transform="translate(26.0580, 106.6961) scale(0.0040, -0.0040)" d="M217 -311c0 -11 -8 -19 -19 -19s-20 8 -20 19v142l-81 -30v-156c0 -11 -9 -20 -20 -20s-19 9 -19 20v142l-28 -11c-3 -1 -5 -1 -8 -1c-12 0 -22 10 -22 23v57c0 9 6 18 15 21l43 16v157l-28 -10c-3 -1 -5 -1 -8 -1c-12 0 -22 9 -22 22v57c0 9 6 18 15 21l43 16v157
c0 11 8 19 19 19s20 -8 20 -19v-142l81 30v156c0 11 9 20 20 20s19 -9 19 -20v-142l28 11c3 1 5 1 8 1c12 0 22 -10 22 -23v-57c0 -9 -6 -18 -15 -21l-43 -16v-157l28 10c3 1 5 1 8 1c12 0 22 -9 22 -22v-57c0 -9 -6 -18 -15 -21l-43 -16v-157zM97 64v-158l81 30v158z" fill="currentColor"/>
</a>
<path transform="translate(22.5580, 108.1961) scale(0.0040, -0.0040)" d="M322 0c0 -32 6 -73 44 -73c29 0 56 32 87 32c123 0 229 -90 229 -209c0 -168 -91 -250 -262 -250c-82 0 -152 62 -152 142c0 42 34 76 76 76s76 -34 76 -76c0 -39 -48 -37 -48 -76c0 -23 23 -37 48 -37c115 0 138 89 138 221c0 106 -13 181 -105 181
c-71 0 -116 -71 -116 -148c0 -10 -8 -15 -15 -15s-14 5 -14 15c0 75 -30 146 -83 198v-470c0 -6 -5 -11 -11 -11h-21c-6 0 -11 5 -11 11v978c0 6 5 11 11 11h21c6 0 11 -5 11 -11v-470c53 52 83 123 83 198c0 10 7 15 14 15s15 -5 15 -15c0 -77 45 -148 116 -148
c92 0 105 75 105 181c0 132 -23 221 -138 221c-25 0 -48 -14 -48 -37c0 -39 48 -37 48 -76c0 -42 -34 -76 -76 -76s-76 34 -76 76c0 80 70 142 152 142c171 0 262 -82 262 -250c0 -119 -106 -209 -229 -209c-31 0 -58 32 -87 32c-38 0 -44 -41 -44 -73zM128 -500h-117
c-6 0 -11 5 -11 11v978c0 6 5 11 11 11h117c6 0 11 -5 11 -11v-978c0 -6 -5 -11 -11 -11z" fill="currentColor"/>
<a style="color:inherit;" xlink:href="textedit:///home/ryan/projects/lilypond-in-markdown/_lilypond/6a9092e2a02d7c55dd7c8c7a5fa19562.ly:43:52:53">
<path transform="translate(34.2000, 109.6961) scale(0.0040, -0.0040)" d="M211 111c-49 0 -68 -43 -68 -88c0 -75 57 -134 132 -134c49 0 68 43 68 88c0 75 -57 134 -132 134zM486 0c0 -43 -33 -76 -71 -97c-52 -29 -112 -40 -172 -40s-120 11 -172 40c-38 21 -71 54 -71 97s33 76 71 97c52 29 112 40 172 40s120 -11 172 -40
c38 -21 71 -54 71 -97z" fill="currentColor"/>
</a>
<path transform="translate(30.5080, 100.7417) scale(0.0040, -0.0040)" d="M358 29c-49 0 -74 41 -74 73c0 38 27 76 71 76c4 0 7 0 11 -1c-27 36 -69 59 -116 59c-106 0 -113 -74 -113 -188c0 -15 1 -31 1 -48s-1 -33 -1 -48c0 -114 7 -188 113 -188c79 0 136 70 155 150c2 7 7 10 13 10c7 0 14 -5 14 -13c0 -95 -105 -175 -182 -175
c-68 0 -137 20 -184 70c-49 51 -66 123 -66 194s17 143 66 194c47 50 116 70 184 70c86 0 158 -66 173 -152c1 -4 1 -9 1 -13c0 -39 -30 -70 -66 -70z" fill="currentColor"/>
<a style="color:inherit;" xlink:href="textedit:///home/ryan/projects/lilypond-in-markdown/_lilypond/6a9092e2a02d7c55dd7c8c7a5fa19562.ly:42:31:32">
<path transform="translate(26.0580, 98.7417) scale(0.0040, -0.0040)" d="M217 -311c0 -11 -8 -19 -19 -19s-20 8 -20 19v142l-81 -30v-156c0 -11 -9 -20 -20 -20s-19 9 -19 20v142l-28 -11c-3 -1 -5 -1 -8 -1c-12 0 -22 10 -22 23v57c0 9 6 18 15 21l43 16v157l-28 -10c-3 -1 -5 -1 -8 -1c-12 0 -22 9 -22 22v57c0 9 6 18 15 21l43 16v157
c0 11 8 19 19 19s20 -8 20 -19v-142l81 30v156c0 11 9 20 20 20s19 -9 19 -20v-142l28 11c3 1 5 1 8 1c12 0 22 -10 22 -23v-57c0 -9 -6 -18 -15 -21l-43 -16v-157l28 10c3 1 5 1 8 1c12 0 22 -9 22 -22v-57c0 -9 -6 -18 -15 -21l-43 -16v-157zM97 64v-158l81 30v158z" fill="currentColor"/>
</a>
<path transform="translate(22.5580, 101.7417) scale(0.0040, -0.0040)" d="M378 263c4 0 7 1 11 1c156 0 257 -129 257 -262c0 -76 -34 -154 -108 -210c-22 -17 -46 -29 -72 -37c3 -34 4 -68 4 -102c0 -20 0 -40 -1 -60c-7 -121 -90 -228 -209 -228c-108 0 -196 87 -196 196c0 58 53 104 112 104c54 0 95 -48 95 -104c0 -52 -43 -95 -95 -95
c-10 0 -20 2 -29 6c26 -38 68 -63 116 -63h3c93 2 153 92 159 190c1 19 2 37 2 56c0 30 -2 60 -4 90c-29 -5 -58 -8 -88 -8c-188 0 -333 173 -333 375c0 177 130 307 246 442c-20 62 -38 125 -46 190c-6 52 -7 104 -7 157c0 115 55 223 148 290c7 5 16 4 22 -1
c71 -83 134 -244 134 -357c0 -143 -85 -255 -178 -364c21 -68 40 -137 57 -206zM462 -202c67 24 111 94 111 162c0 89 -65 178 -170 190c24 -115 46 -230 59 -352zM75 26c0 -134 129 -245 263 -245c28 0 55 2 81 6c-14 126 -36 244 -61 363c-79 -8 -124 -61 -124 -119
c0 -43 25 -89 80 -121c5 -5 7 -11 7 -16c0 -12 -10 -23 -22 -23c-3 0 -6 1 -9 2c-81 43 -118 116 -118 186c0 89 58 175 161 198c-14 58 -29 116 -46 173c-106 -122 -212 -244 -212 -404zM244 785c0 -73 20 -132 38 -191c79 97 144 199 144 324c0 53 -4 76 -20 124
c-99 -47 -162 -148 -162 -257z" fill="currentColor"/>
<a style="color:inherit;" xlink:href="textedit:///home/ryan/projects/lilypond-in-markdown/_lilypond/6a9092e2a02d7c55dd7c8c7a5fa19562.ly:42:45:46">
<path transform="translate(34.2000, 101.7417) scale(0.0040, -0.0040)" d="M211 111c-49 0 -68 -43 -68 -88c0 -75 57 -134 132 -134c49 0 68 43 68 88c0 75 -57 134 -132 134zM486 0c0 -43 -33 -76 -71 -97c-52 -29 -112 -40 -172 -40s-120 11 -172 40c-38 21 -71 54 -71 97s33 76 71 97c52 29 112 40 172 40s120 -11 172 -40
c38 -21 71 -54 71 -97z" fill="currentColor"/>
</a>
<path transform="translate(30.5080, 92.9833) scale(0.0040, -0.0040)" d="M358 29c-49 0 -74 41 -74 73c0 38 27 76 71 76c4 0 7 0 11 -1c-27 36 -69 59 -116 59c-106 0 -113 -74 -113 -188c0 -15 1 -31 1 -48s-1 -33 -1 -48c0 -114 7 -188 113 -188c79 0 136 70 155 150c2 7 7 10 13 10c7 0 14 -5 14 -13c0 -95 -105 -175 -182 -175
c-68 0 -137 20 -184 70c-49 51 -66 123 -66 194s17 143 66 194c47 50 116 70 184 70c86 0 158 -66 173 -152c1 -4 1 -9 1 -13c0 -39 -30 -70 -66 -70z" fill="currentColor"/>
<a style="color:inherit;" xlink:href="textedit:///home/ryan/projects/lilypond-in-markdown/_lilypond/6a9092e2a02d7c55dd7c8c7a5fa19562.ly:41:30:31">
<path transform="translate(26.0580, 90.9833) scale(0.0040, -0.0040)" d="M217 -311c0 -11 -8 -19 -19 -19s-20 8 -20 19v142l-81 -30v-156c0 -11 -9 -20 -20 -20s-19 9 -19 20v142l-28 -11c-3 -1 -5 -1 -8 -1c-12 0 -22 10 -22 23v57c0 9 6 18 15 21l43 16v157l-28 -10c-3 -1 -5 -1 -8 -1c-12 0 -22 9 -22 22v57c0 9 6 18 15 21l43 16v157
c0 11 8 19 19 19s20 -8 20 -19v-142l81 30v156c0 11 9 20 20 20s19 -9 19 -20v-142l28 11c3 1 5 1 8 1c12 0 22 -10 22 -23v-57c0 -9 -6 -18 -15 -21l-43 -16v-157l28 10c3 1 5 1 8 1c12 0 22 -9 22 -22v-57c0 -9 -6 -18 -15 -21l-43 -16v-157zM97 64v-158l81 30v158z" fill="currentColor"/>
</a>
<path transform="translate(22.5580, 93.9833) scale(0.0040, -0.0040)" d="M378 263c4 0 7 1 11 1c156 0 257 -129 257 -262c0 -76 -34 -154 -108 -210c-22 -17 -46 -29 -72 -37c3 -34 4 -68 4 -102c0 -20 0 -40 -1 -60c-7 -121 -90 -228 -209 -228c-108 0 -196 87 -196 196c0 58 53 104 112 104c54 0 95 -48 95 -104c0 -52 -43 -95 -95 -95
c-10 0 -20 2 -29 6c26 -38 68 -63 116 -63h3c93 2 153 92 159 190c1 19 2 37 2 56c0 30 -2 60 -4 90c-29 -5 -58 -8 -88 -8c-188 0 -333 173 -333 375c0 177 130 307 246 442c-20 62 -38 125 -46 190c-6 52 -7 104 -7 157c0 115 55 223 148 290c7 5 16 4 22 -1
c71 -83 134 -244 134 -357c0 -143 -85 -255 -178 -364c21 -68 40 -137 57 -206zM462 -202c67 24 111 94 111 162c0 89 -65 178 -170 190c24 -115 46 -230 59 -352zM75 26c0 -134 129 -245 263 -245c28 0 55 2 81 6c-14 126 -36 244 -61 363c-79 -8 -124 -61 -124 -119
c0 -43 25 -89 80 -121c5 -5 7 -11 7 -16c0 -12 -10 -23 -22 -23c-3 0 -6 1 -9 2c-81 43 -118 116 -118 186c0 89 58 175 161 198c-14 58 -29 116 -46 173c-106 -122 -212 -244 -212 -404zM244 785c0 -73 20 -132 38 -191c79 97 144 199 144 324c0 53 -4 76 -20 124
c-99 -47 -162 -148 -162 -257z" fill="currentColor"/>
<a style="color:inherit;" xlink:href="textedit:///home/ryan/projects/lilypond-in-markdown/_lilypond/6a9092e2a02d7c55dd7c8c7a5fa19562.ly:41:44:45">
<path transform="translate(34.2000, 93.9833) scale(0.0040, -0.0040)" d="M211 111c-49 0 -68 -43 -68 -88c0 -75 57 -134 132 -134c49 0 68 43 68 88c0 75 -57 134 -132 134zM486 0c0 -43 -33 -76 -71 -97c-52 -29 -112 -40 -172 -40s-120 11 -172 40c-38 21 -71 54 -71 97s33 76 71 97c52 29 112 40 172 40s120 -11 172 -40
c38 -21 71 -54 71 -97z" fill="currentColor"/>
</a>
<a style="color:inherit;" xlink:href="textedit:///home/ryan/projects/lilypond-in-markdown/_lilypond/6a9092e2a02d7c55dd7c8c7a5fa19562.ly:21:28:29">
<path transform="translate(26.0580, 4.7724) scale(0.0040, -0.0040)" d="M217 -311c0 -11 -8 -19 -19 -19s-20 8 -20 19v142l-81 -30v-156c0 -11 -9 -20 -20 -20s-19 9 -19 20v142l-28 -11c-3 -1 -5 -1 -8 -1c-12 0 -22 10 -22 23v57c0 9 6 18 15 21l43 16v157l-28 -10c-3 -1 -5 -1 -8 -1c-12 0 -22 9 -22 22v57c0 9 6 18 15 21l43 16v157
c0 11 8 19 19 19s20 -8 20 -19v-142l81 30v156c0 11 9 20 20 20s19 -9 19 -20v-142l28 11c3 1 5 1 8 1c12 0 22 -10 22 -23v-57c0 -9 -6 -18 -15 -21l-43 -16v-157l28 10c3 1 5 1 8 1c12 0 22 -9 22 -22v-57c0 -9 -6 -18 -15 -21l-43 -16v-157zM97 64v-158l81 30v158z" fill="currentColor"/>
</a>
<path transform="translate(30.5080, 83.6404) scale(0.0040, -0.0040)" d="M358 29c-49 0 -74 41 -74 73c0 38 27 76 71 76c4 0 7 0 11 -1c-27 36 -69 59 -116 59c-106 0 -113 -74 -113 -188c0 -15 1 -31 1 -48s-1 -33 -1 -48c0 -114 7 -188 113 -188c79 0 136 70 155 150c2 7 7 10 13 10c7 0 14 -5 14 -13c0 -95 -105 -175 -182 -175
c-68 0 -137 20 -184 70c-49 51 -66 123 -66 194s17 143 66 194c47 50 116 70 184 70c86 0 158 -66 173 -152c1 -4 1 -9 1 -13c0 -39 -30 -70 -66 -70z" fill="currentColor"/>
<a style="color:inherit;" xlink:href="textedit:///home/ryan/projects/lilypond-in-markdown/_lilypond/6a9092e2a02d7c55dd7c8c7a5fa19562.ly:37:45:46">
<path transform="translate(26.0580, 81.6404) scale(0.0040, -0.0040)" d="M217 -311c0 -11 -8 -19 -19 -19s-20 8 -20 19v142l-81 -30v-156c0 -11 -9 -20 -20 -20s-19 9 -19 20v142l-28 -11c-3 -1 -5 -1 -8 -1c-12 0 -22 10 -22 23v57c0 9 6 18 15 21l43 16v157l-28 -10c-3 -1 -5 -1 -8 -1c-12 0 -22 9 -22 22v57c0 9 6 18 15 21l43 16v157
c0 11 8 19 19 19s20 -8 20 -19v-142l81 30v156c0 11 9 20 20 20s19 -9 19 -20v-142l28 11c3 1 5 1 8 1c12 0 22 -10 22 -23v-57c0 -9 -6 -18 -15 -21l-43 -16v-157l28 10c3 1 5 1 8 1c12 0 22 -9 22 -22v-57c0 -9 -6 -18 -15 -21l-43 -16v-157zM97 64v-158l81 30v158z" fill="currentColor"/>
</a>
<text transform="translate(23.1421, 88.2248)" font-family="serif" font-style="italic" font-size="1.3860" text-anchor="start" fill="currentColor">
<tspan>
8</tspan>
</text>
<path transform="translate(22.5580, 84.6404) scale(0.0040, -0.0040)" d="M378 263c4 0 7 1 11 1c156 0 257 -129 257 -262c0 -76 -34 -154 -108 -210c-22 -17 -46 -29 -72 -37c3 -34 4 -68 4 -102c0 -20 0 -40 -1 -60c-7 -121 -90 -228 -209 -228c-108 0 -196 87 -196 196c0 58 53 104 112 104c54 0 95 -48 95 -104c0 -52 -43 -95 -95 -95
c-10 0 -20 2 -29 6c26 -38 68 -63 116 -63h3c93 2 153 92 159 190c1 19 2 37 2 56c0 30 -2 60 -4 90c-29 -5 -58 -8 -88 -8c-188 0 -333 173 -333 375c0 177 130 307 246 442c-20 62 -38 125 -46 190c-6 52 -7 104 -7 157c0 115 55 223 148 290c7 5 16 4 22 -1
c71 -83 134 -244 134 -357c0 -143 -85 -255 -178 -364c21 -68 40 -137 57 -206zM462 -202c67 24 111 94 111 162c0 89 -65 178 -170 190c24 -115 46 -230 59 -352zM75 26c0 -134 129 -245 263 -245c28 0 55 2 81 6c-14 126 -36 244 -61 363c-79 -8 -124 -61 -124 -119
c0 -43 25 -89 80 -121c5 -5 7 -11 7 -16c0 -12 -10 -23 -22 -23c-3 0 -6 1 -9 2c-81 43 -118 116 -118 186c0 89 58 175 161 198c-14 58 -29 116 -46 173c-106 -122 -212 -244 -212 -404zM244 785c0 -73 20 -132 38 -191c79 97 144 199 144 324c0 53 -4 76 -20 124
c-99 -47 -162 -148 -162 -257z" fill="currentColor"/>
<a style="color:inherit;" xlink:href="textedit:///home/ryan/projects/lilypond-in-markdown/_lilypond/6a9092e2a02d7c55dd7c8c7a5fa19562.ly:37:59:60">
<path transform="translate(34.2000, 84.6404) scale(0.0040, -0.0040)" d="M211 111c-49 0 -68 -43 -68 -88c0 -75 57 -134 132 -134c49 0 68 43 68 88c0 75 -57 134 -132 134zM486 0c0 -43 -33 -76 -71 -97c-52 -29 -112 -40 -172 -40s-120 11 -172 40c-38 21 -71 54 -71 97s33 76 71 97c52 29 112 40 172 40s120 -11 172 -40
c38 -21 71 -54 71 -97z" fill="currentColor"/>
</a>
<a style="color:inherit;" xlink:href="textedit:///home/ryan/projects/lilypond-in-markdown/_lilypond/6a9092e2a02d7c55dd7c8c7a5fa19562.ly:36:28:29">
<text transform="translate(33.4857, 79.8257)" font-family="serif" font-size="2.4693" text-anchor="start" fill="currentColor">
<tspan>
Ah</tspan>
</text>
</a>
<path transform="translate(30.5080, 75.3820) scale(0.0040, -0.0040)" d="M358 29c-49 0 -74 41 -74 73c0 38 27 76 71 76c4 0 7 0 11 -1c-27 36 -69 59 -116 59c-106 0 -113 -74 -113 -188c0 -15 1 -31 1 -48s-1 -33 -1 -48c0 -114 7 -188 113 -188c79 0 136 70 155 150c2 7 7 10 13 10c7 0 14 -5 14 -13c0 -95 -105 -175 -182 -175
c-68 0 -137 20 -184 70c-49 51 -66 123 -66 194s17 143 66 194c47 50 116 70 184 70c86 0 158 -66 173 -152c1 -4 1 -9 1 -13c0 -39 -30 -70 -66 -70z" fill="currentColor"/>
<a style="color:inherit;" xlink:href="textedit:///home/ryan/projects/lilypond-in-markdown/_lilypond/6a9092e2a02d7c55dd7c8c7a5fa19562.ly:34:29:30">
<path transform="translate(26.0580, 73.3820) scale(0.0040, -0.0040)" d="M217 -311c0 -11 -8 -19 -19 -19s-20 8 -20 19v142l-81 -30v-156c0 -11 -9 -20 -20 -20s-19 9 -19 20v142l-28 -11c-3 -1 -5 -1 -8 -1c-12 0 -22 10 -22 23v57c0 9 6 18 15 21l43 16v157l-28 -10c-3 -1 -5 -1 -8 -1c-12 0 -22 9 -22 22v57c0 9 6 18 15 21l43 16v157
c0 11 8 19 19 19s20 -8 20 -19v-142l81 30v156c0 11 9 20 20 20s19 -9 19 -20v-142l28 11c3 1 5 1 8 1c12 0 22 -10 22 -23v-57c0 -9 -6 -18 -15 -21l-43 -16v-157l28 10c3 1 5 1 8 1c12 0 22 -9 22 -22v-57c0 -9 -6 -18 -15 -21l-43 -16v-157zM97 64v-158l81 30v158z" fill="currentColor"/>
</a>
<path transform="translate(22.5580, 76.3820) scale(0.0040, -0.0040)" d="M378 263c4 0 7 1 11 1c156 0 257 -129 257 -262c0 -76 -34 -154 -108 -210c-22 -17 -46 -29 -72 -37c3 -34 4 -68 4 -102c0 -20 0 -40 -1 -60c-7 -121 -90 -228 -209 -228c-108 0 -196 87 -196 196c0 58 53 104 112 104c54 0 95 -48 95 -104c0 -52 -43 -95 -95 -95
c-10 0 -20 2 -29 6c26 -38 68 -63 116 -63h3c93 2 153 92 159 190c1 19 2 37 2 56c0 30 -2 60 -4 90c-29 -5 -58 -8 -88 -8c-188 0 -333 173 -333 375c0 177 130 307 246 442c-20 62 -38 125 -46 190c-6 52 -7 104 -7 157c0 115 55 223 148 290c7 5 16 4 22 -1
c71 -83 134 -244 134 -357c0 -143 -85 -255 -178 -364c21 -68 40 -137 57 -206zM462 -202c67 24 111 94 111 162c0 89 -65 178 -170 190c24 -115 46 -230 59 -352zM75 26c0 -134 129 -245 263 -245c28 0 55 2 81 6c-14 126 -36 244 -61 363c-79 -8 -124 -61 -124 -119
c0 -43 25 -89 80 -121c5 -5 7 -11 7 -16c0 -12 -10 -23 -22 -23c-3 0 -6 1 -9 2c-81 43 -118 116 -118 186c0 89 58 175 161 198c-14 58 -29 116 -46 173c-106 -122 -212 -244 -212 -404zM244 785c0 -73 20 -132 38 -191c79 97 144 199 144 324c0 53 -4 76 -20 124
c-99 -47 -162 -148 -162 -257z" fill="currentColor"/>
<a style="color:inherit;" xlink:href="textedit:///home/ryan/projects/lilypond-in-markdown/_lilypond/6a9092e2a02d7c55dd7c8c7a5fa19562.ly:34:43:44">
<path transform="translate(34.2000, 76.3820) scale(0.0040, -0.0040)" d="M211 111c-49 0 -68 -43 -68 -88c0 -75 57 -134 132 -134c49 0 68 43 68 88c0 75 -57 134 -132 134zM486 0c0 -43 -33 -76 -71 -97c-52 -29 -112 -40 -172 -40s-120 11 -172 40c-38 21 -71 54 -71 97s33 76 71 97c52 29 112 40 172 40s120 -11 172 -40
c38 -21 71 -54 71 -97z" fill="currentColor"/>
</a>
<a style="color:inherit;" xlink:href="textedit:///home/ryan/projects/lilypond-in-markdown/_lilypond/6a9092e2a02d7c55dd7c8c7a5fa19562.ly:32:29:30">
<text transform="translate(33.1041, 71.5271)" font-family="serif" font-size="2.4693" text-anchor="start" fill="currentColor">
<tspan>
Lyr</tspan>
</text>
</a>
<path transform="translate(30.5080, 67.1236) scale(0.0040, -0.0040)" d="M358 29c-49 0 -74 41 -74 73c0 38 27 76 71 76c4 0 7 0 11 -1c-27 36 -69 59 -116 59c-106 0 -113 -74 -113 -188c0 -15 1 -31 1 -48s-1 -33 -1 -48c0 -114 7 -188 113 -188c79 0 136 70 155 150c2 7 7 10 13 10c7 0 14 -5 14 -13c0 -95 -105 -175 -182 -175
c-68 0 -137 20 -184 70c-49 51 -66 123 -66 194s17 143 66 194c47 50 116 70 184 70c86 0 158 -66 173 -152c1 -4 1 -9 1 -13c0 -39 -30 -70 -66 -70z" fill="currentColor"/>
<a style="color:inherit;" xlink:href="textedit:///home/ryan/projects/lilypond-in-markdown/_lilypond/6a9092e2a02d7c55dd7c8c7a5fa19562.ly:33:28:29">
<path transform="translate(26.0580, 65.1236) scale(0.0040, -0.0040)" d="M217 -311c0 -11 -8 -19 -19 -19s-20 8 -20 19v142l-81 -30v-156c0 -11 -9 -20 -20 -20s-19 9 -19 20v142l-28 -11c-3 -1 -5 -1 -8 -1c-12 0 -22 10 -22 23v57c0 9 6 18 15 21l43 16v157l-28 -10c-3 -1 -5 -1 -8 -1c-12 0 -22 9 -22 22v57c0 9 6 18 15 21l43 16v157
c0 11 8 19 19 19s20 -8 20 -19v-142l81 30v156c0 11 9 20 20 20s19 -9 19 -20v-142l28 11c3 1 5 1 8 1c12 0 22 -10 22 -23v-57c0 -9 -6 -18 -15 -21l-43 -16v-157l28 10c3 1 5 1 8 1c12 0 22 -9 22 -22v-57c0 -9 -6 -18 -15 -21l-43 -16v-157zM97 64v-158l81 30v158z" fill="currentColor"/>
</a>
<text transform="translate(5.4052, 76.1854)" font-family="serif" font-size="2.2000" text-anchor="start" fill="currentColor">
<tspan>
Alto II</tspan>
</text>
<text transform="translate(5.8471, 67.9270)" font-family="serif" font-size="2.2000" text-anchor="start" fill="currentColor">
<tspan>
Alto I</tspan>
</text>
<text transform="translate(4.2203, 59.4677)" font-family="serif" font-size="2.2000" text-anchor="start" fill="currentColor">
<tspan>
Soprano</tspan>
</text>
<path transform="translate(21.3794, 48.1836) scale(0.0040, -0.0040)" d="M-18 -408c0 -210 -84 -411 -84 -609c0 -111 27 -213 111 -291c15 -12 -3 -33 -18 -21c-117 105 -159 255 -159 411c0 213 90 423 90 624c0 111 -27 213 -111 288c-3 3 -3 3 -3 6s0 3 3 6c84 75 111 177 111 288c0 201 -90 411 -90 624c0 156 42 306 159 411
c15 12 33 -9 18 -21c-84 -78 -111 -180 -111 -291c0 -198 84 -399 84 -609c0 -156 -39 -303 -150 -408c111 -105 150 -252 150 -408z" fill="currentColor"/>
<text transform="translate(5.7668, 48.9870)" font-family="serif" font-size="2.2000" text-anchor="start" fill="currentColor">
<tspan>
Piano</tspan>
</text>
<text transform="translate(2.8545, 38.3054)" font-family="serif" font-size="2.2000" text-anchor="start" fill="currentColor">
<tspan>
Percussion</tspan>
</text>
<path transform="translate(20.4294, 20.0084) scale(0.0040, -0.0040)" d="M0 -56v85c0 15 12 27 27 27h54c157 0 265 136 353 268c12 18 40 0 28 -18c-96 -144 -210 -362 -381 -362h-81z" fill="currentColor"/>
<path transform="translate(20.4294, 32.3284) scale(0.0040, -0.0040)" d="M0 56h81c171 0 285 -218 381 -362c12 -18 -16 -36 -28 -18c-88 132 -196 268 -353 268h-54c-15 0 -27 12 -27 27v85z" fill="currentColor"/>
<rect transform="translate(20.4294, 26.1684)" x="0.0000" y="-5.9800" width="0.4500" height="11.9600" ry="0.0000" fill="currentColor"/>
<text transform="translate(1.1675, 30.6501)" font-family="serif" font-size="2.2000" text-anchor="start" fill="currentColor">
<tspan>
Trumpet in  C</tspan>
</text>
<text transform="translate(3.5374, 23.0926)" font-family="serif" font-size="2.2000" text-anchor="start" fill="currentColor">
<tspan>
Horn in F</tspan>
</text>
<path transform="translate(20.4294, 4.4916) scale(0.0040, -0.0040)" d="M0 -56v85c0 15 12 27 27 27h54c157 0 265 136 353 268c12 18 40 0 28 -18c-96 -144 -210 -362 -381 -362h-81z" fill="currentColor"/>
<path transform="translate(20.4294, 16.8116) scale(0.0040, -0.0040)" d="M0 56h81c171 0 285 -218 381 -362c12 -18 -16 -36 -28 -18c-88 132 -196 268 -353 268h-54c-15 0 -27 12 -27 27v85z" fill="currentColor"/>
<rect transform="translate(20.4294, 10.6516)" x="0.0000" y="-5.9800" width="0.4500" height="11.9600" ry="0.0000" fill="currentColor"/>
<text transform="translate(1.3453, 15.1808)" font-family="serif" font-size="2.2000" text-anchor="start" fill="currentColor">
<tspan>
Clarinet in B</tspan>
</text>
<path transform="translate(15.6545, 15.1808) scale(0.0040, -0.0040)" d="M29 39l-2 -64v-11c0 -22 2 -43 5 -65c44 38 91 80 91 138c0 33 -13 66 -42 66c-31 0 -51 -31 -52 -64zM-28 454c9 5 18 8 28 8s19 -3 28 -8l-7 -343c25 23 58 36 92 36c51 0 87 -49 87 -103c0 -79 -84 -117 -144 -169c-16 -14 -25 -41 -47 -41c-14 0 -25 13 -25 27z" fill="currentColor"/>
<text transform="translate(5.9877, 7.5758)" font-family="serif" font-size="2.2000" text-anchor="start" fill="currentColor">
<tspan>
Flute</tspan>
</text>
<path transform="translate(22.5580, 7.7724) scale(0.0040, -0.0040)" d="M378 263c4 0 7 1 11 1c156 0 257 -129 257 -262c0 -76 -34 -154 -108 -210c-22 -17 -46 -29 -72 -37c3 -34 4 -68 4 -102c0 -20 0 -40 -1 -60c-7 -121 -90 -228 -209 -228c-108 0 -196 87 -196 196c0 58 53 104 112 104c54 0 95 -48 95 -104c0 -52 -43 -95 -95 -95
c-10 0 -20 2 -29 6c26 -38 68 -63 116 -63h3c93 2 153 92 159 190c1 19 2 37 2 56c0 30 -2 60 -4 90c-29 -5 -58 -8 -88 -8c-188 0 -333 173 -333 375c0 177 130 307 246 442c-20 62 -38 125 -46 190c-6 52 -7 104 -7 157c0 115 55 223 148 290c7 5 16 4 22 -1
c71 -83 134 -244 134 -357c0 -143 -85 -255 -178 -364c21 -68 40 -137 57 -206zM462 -202c67 24 111 94 111 162c0 89 -65 178 -170 190c24 -115 46 -230 59 -352zM75 26c0 -134 129 -245 263 -245c28 0 55 2 81 6c-14 126 -36 244 -61 363c-79 -8 -124 -61 -124 -119
c0 -43 25 -89 80 -121c5 -5 7 -11 7 -16c0 -12 -10 -23 -22 -23c-3 0 -6 1 -9 2c-81 43 -118 116 -118 186c0 89 58 175 161 198c-14 58 -29 116 -46 173c-106 -122 -212 -244 -212 -404zM244 785c0 -73 20 -132 38 -191c79 97 144 199 144 324c0 53 -4 76 -20 124
c-99 -47 -162 -148 -162 -257z" fill="currentColor"/>
<a style="color:inherit;" xlink:href="textedit:///home/ryan/projects/lilypond-in-markdown/_lilypond/6a9092e2a02d7c55dd7c8c7a5fa19562.ly:21:42:43">
<path transform="translate(34.2000, 7.7724) scale(0.0040, -0.0040)" d="M211 111c-49 0 -68 -43 -68 -88c0 -75 57 -134 132 -134c49 0 68 43 68 88c0 75 -57 134 -132 134zM486 0c0 -43 -33 -76 -71 -97c-52 -29 -112 -40 -172 -40s-120 11 -172 40c-38 21 -71 54 -71 97s33 76 71 97c52 29 112 40 172 40s120 -11 172 -40
c38 -21 71 -54 71 -97z" fill="currentColor"/>
</a>
<rect transform="translate(21.6794, 63.9387)" x="0.0000" y="-59.2220" width="0.1786" height="118.4441" ry="0.0558" fill="currentColor"/>
<path transform="translate(20.4294, 90.7025) scale(0.0040, -0.0040)" d="M0 -56v85c0 15 12 27 27 27h54c157 0 265 136 353 268c12 18 40 0 28 -18c-96 -144 -210 -362 -381 -362h-81z" fill="currentColor"/>
<path transform="translate(20.4294, 123.3857) scale(0.0040, -0.0040)" d="M0 56h81c171 0 285 -218 381 -362c12 -18 -16 -36 -28 -18c-88 132 -196 268 -353 268h-54c-15 0 -27 12 -27 27v85z" fill="currentColor"/>
<rect transform="translate(20.4294, 107.0441)" x="0.0000" y="-16.1616" width="0.4500" height="32.3232" ry="0.0000" fill="currentColor"/>
<text transform="translate(2.0110, 121.9083)" font-family="serif" font-size="2.2000" text-anchor="start" fill="currentColor">
<tspan>
Double Bass</tspan>
</text>
<text transform="translate(6.0279, 115.4539)" font-family="serif" font-size="2.2000" text-anchor="start" fill="currentColor">
<tspan>
Cello</tspan>
</text>
<text transform="translate(6.0479, 108.9995)" font-family="serif" font-size="2.2000" text-anchor="start" fill="currentColor">
<tspan>
Viola</tspan>
</text>
<a style="color:inherit;" xlink:href="textedit:///home/ryan/projects/lilypond-in-markdown/_lilypond/6a9092e2a02d7c55dd7c8c7a5fa19562.ly:44:52:53">
<path transform="translate(34.2000, 116.6505) scale(0.0040, -0.0040)" d="M211 111c-49 0 -68 -43 -68 -88c0 -75 57 -134 132 -134c49 0 68 43 68 88c0 75 -57 134 -132 134zM486 0c0 -43 -33 -76 -71 -97c-52 -29 -112 -40 -172 -40s-120 11 -172 40c-38 21 -71 54 -71 97s33 76 71 97c52 29 112 40 172 40s120 -11 172 -40
c38 -21 71 -54 71 -97z" fill="currentColor"/>
</a>
<path transform="translate(20.1294, 96.8625) scale(0.0040, -0.0040)" d="M-18 -453c0 -237 -93 -465 -93 -687c0 -123 33 -240 123 -327c15 -15 -9 -36 -24 -21c-123 120 -165 285 -165 456c0 240 96 474 96 702c0 123 -30 237 -120 324c-3 3 -3 3 -3 6s0 3 3 6c90 87 120 201 120 324c0 228 -96 462 -96 702c0 171 42 336 165 456
c15 15 39 -6 24 -21c-90 -87 -123 -204 -123 -327c0 -222 93 -450 93 -687c0 -171 -42 -333 -162 -453c120 -120 162 -282 162 -453z" fill="currentColor"/>
<text transform="translate(4.4211, 101.5451)" font-family="serif" font-size="2.2000" text-anchor="start" fill="currentColor">
<tspan>
Violin II</tspan>
</text>
<text transform="translate(4.8630, 93.7867)" font-family="serif" font-size="2.2000" text-anchor="start" fill="currentColor">
<tspan>
Violin I</tspan>
</text>
<path transform="translate(20.4294, 56.5844) scale(0.0040, -0.0040)" d="M0 -56v85c0 15 12 27 27 27h54c157 0 265 136 353 268c12 18 40 0 28 -18c-96 -144 -210 -362 -381 -362h-81z" fill="currentColor"/>
<path transform="translate(20.4294, 85.9212) scale(0.0040, -0.0040)" d="M0 56h81c171 0 285 -218 381 -362c12 -18 -16 -36 -28 -18c-88 132 -196 268 -353 268h-54c-15 0 -27 12 -27 27v85z" fill="currentColor"/>
<rect transform="translate(20.4294, 71.2528)" x="0.0000" y="-14.4884" width="0.4500" height="28.9768" ry="0.0000" fill="currentColor"/>
<text transform="translate(5.7065, 84.4237)" font-family="serif" font-size="2.2000" text-anchor="start" fill="currentColor">
<tspan>
Tenor</tspan>
</text>
<path transform="translate(20.1294, 71.2528) scale(0.0040, -0.0040)" d="M-18 -468c0 -246 -96 -489 -96 -720c0 -129 33 -243 126 -336c15 -15 -9 -39 -24 -24c-126 126 -171 297 -171 474c0 252 102 495 102 732c0 126 -30 243 -123 336c-3 3 -3 3 -3 6s0 3 3 6c93 93 123 210 123 336c0 237 -102 480 -102 732c0 177 45 348 171 474
c15 15 39 -9 24 -24c-93 -93 -126 -207 -126 -336c0 -231 96 -474 96 -720c0 -177 -42 -342 -165 -468c123 -126 165 -291 165 -468z" fill="currentColor"/>
<path transform="translate(22.5580, 113.6505) scale(0.0040, -0.0040)" d="M558 -125c0 28 22 51 50 51s51 -23 51 -51s-23 -51 -51 -51s-50 23 -50 51zM558 125c0 28 22 51 50 51s51 -23 51 -51s-23 -51 -51 -51s-50 23 -50 51zM231 264c172 0 294 -88 294 -251c0 -263 -262 -416 -515 -523c-3 -3 -7 -4 -10 -4c-7 0 -14 7 -14 14c0 3 1 7 4 10
c201 118 410 265 410 492c0 119 -61 234 -169 234c-72 0 -124 -53 -148 -123c10 4 19 6 29 6c55 0 100 -45 100 -100c0 -58 -44 -106 -100 -106c-60 0 -112 47 -112 106c0 133 101 245 231 245z" fill="currentColor"/>
<a style="color:inherit;" xlink:href="textedit:///home/ryan/projects/lilypond-in-markdown/_lilypond/6a9092e2a02d7c55dd7c8c7a5fa19562.ly:26:48:49">
<path transform="translate(42.5057, 30.0476) scale(0.0040, -0.0040)" d="M211 111c-49 0 -68 -43 -68 -88c0 -75 57 -134 132 -134c49 0 68 43 68 88c0 75 -57 134 -132 134zM486 0c0 -43 -33 -76 -71 -97c-52 -29 -112 -40 -172 -40s-120 11 -172 40c-38 21 -71 54 -71 97s33 76 71 97c52 29 112 40 172 40s120 -11 172 -40
c38 -21 71 -54 71 -97z" fill="currentColor"/>
</a>
<a style="color:inherit;" xlink:href="textedit:///home/ryan/projects/lilypond-in-markdown/_lilypond/6a9092e2a02d7c55dd7c8c7a5fa19562.ly:42:49:50">
<path transform="translate(42.5057, 100.7417) scale(0.0040, -0.0040)" d="M211 111c-49 0 -68 -43 -68 -88c0 -75 57 -134 132 -134c49 0 68 43 68 88c0 75 -57 134 -132 134zM486 0c0 -43 -33 -76 -71 -97c-52 -29 -112 -40 -172 -40s-120 11 -172 40c-38 21 -71 54 -71 97s33 76 71 97c52 29 112 40 172 40s120 -11 172 -40
c38 -21 71 -54 71 -97z" fill="currentColor"/>
</a>
<a style="color:inherit;" xlink:href="textedit:///home/ryan/projects/lilypond-in-markdown/_lilypond/6a9092e2a02d7c55dd7c8c7a5fa19562.ly:41:48:49">
<path transform="translate(42.5057, 92.9833) scale(0.0040, -0.0040)" d="M211 111c-49 0 -68 -43 -68 -88c0 -75 57 -134 132 -134c49 0 68 43 68 88c0 75 -57 134 -132 134zM486 0c0 -43 -33 -76 -71 -97c-52 -29 -112 -40 -172 -40s-120 11 -172 40c-38 21 -71 54 -71 97s33 76 71 97c52 29 112 40 172 40s120 -11 172 -40
c38 -21 71 -54 71 -97z" fill="currentColor"/>
</a>
<a style="color:inherit;" xlink:href="textedit:///home/ryan/projects/lilypond-in-markdown/_lilypond/6a9092e2a02d7c55dd7c8c7a5fa19562.ly:32:36:37">
<text transform="translate(41.7513, 88.0439)" font-family="serif" font-size="2.4693" text-anchor="start" fill="currentColor">
<tspan>
ics</tspan>
</text>
</a>
<a style="color:inherit;" xlink:href="textedit:///home/ryan/projects/lilypond-in-markdown/_lilypond/6a9092e2a02d7c55dd7c8c7a5fa19562.ly:37:62:63">
<path transform="translate(42.5057, 83.6404) scale(0.0040, -0.0040)" d="M211 111c-49 0 -68 -43 -68 -88c0 -75 57 -134 132 -134c49 0 68 43 68 88c0 75 -57 134 -132 134zM486 0c0 -43 -33 -76 -71 -97c-52 -29 -112 -40 -172 -40s-120 11 -172 40c-38 21 -71 54 -71 97s33 76 71 97c52 29 112 40 172 40s120 -11 172 -40
c38 -21 71 -54 71 -97z" fill="currentColor"/>
</a>
<a style="color:inherit;" xlink:href="textedit:///home/ryan/projects/lilypond-in-markdown/_lilypond/6a9092e2a02d7c55dd7c8c7a5fa19562.ly:36:34:35">
<text transform="translate(41.9320, 79.8257)" font-family="serif" font-size="2.4693" text-anchor="start" fill="currentColor">
<tspan>
ah</tspan>
</text>
</a>
<a style="color:inherit;" xlink:href="textedit:///home/ryan/projects/lilypond-in-markdown/_lilypond/6a9092e2a02d7c55dd7c8c7a5fa19562.ly:34:47:48">
<path transform="translate(42.5057, 75.3820) scale(0.0040, -0.0040)" d="M211 111c-49 0 -68 -43 -68 -88c0 -75 57 -134 132 -134c49 0 68 43 68 88c0 75 -57 134 -132 134zM486 0c0 -43 -33 -76 -71 -97c-52 -29 -112 -40 -172 -40s-120 11 -172 40c-38 21 -71 54 -71 97s33 76 71 97c52 29 112 40 172 40s120 -11 172 -40
c38 -21 71 -54 71 -97z" fill="currentColor"/>
</a>
<a style="color:inherit;" xlink:href="textedit:///home/ryan/projects/lilypond-in-markdown/_lilypond/6a9092e2a02d7c55dd7c8c7a5fa19562.ly:32:36:37">
<text transform="translate(41.7513, 71.5271)" font-family="serif" font-size="2.4693" text-anchor="start" fill="currentColor">
<tspan>
ics</tspan>
</text>
</a>
<a style="color:inherit;" xlink:href="textedit:///home/ryan/projects/lilypond-in-markdown/_lilypond/6a9092e2a02d7c55dd7c8c7a5fa19562.ly:33:46:47">
<path transform="translate(42.5057, 67.1236) scale(0.0040, -0.0040)" d="M211 111c-49 0 -68 -43 -68 -88c0 -75 57 -134 132 -134c49 0 68 43 68 88c0 75 -57 134 -132 134zM486 0c0 -43 -33 -76 -71 -97c-52 -29 -112 -40 -172 -40s-120 11 -172 40c-38 21 -71 54 -71 97s33 76 71 97c52 29 112 40 172 40s120 -11 172 -40
c38 -21 71 -54 71 -97z" fill="currentColor"/>
</a>
<a style="color:inherit;" xlink:href="textedit:///home/ryan/projects/lilypond-in-markdown/_lilypond/6a9092e2a02d7c55dd7c8c7a5fa19562.ly:32:36:37">
<text transform="translate(41.7513, 63.2688)" font-family="serif" font-size="2.4693" text-anchor="start" fill="currentColor">
<tspan>
ics</tspan>
</text>
</a>
<a style="color:inherit;" xlink:href="textedit:///home/ryan/projects/lilypond-in-markdown/_lilypond/6a9092e2a02d7c55dd7c8c7a5fa19562.ly:31:49:50">
<path transform="translate(42.5057, 55.3652) scale(0.0040, -0.0040)" d="M211 111c-49 0 -68 -43 -68 -88c0 -75 57 -134 132 -134c49 0 68 43 68 88c0 75 -57 134 -132 134zM486 0c0 -43 -33 -76 -71 -97c-52 -29 -112 -40 -172 -40s-120 11 -172 40c-38 21 -71 54 -71 97s33 76 71 97c52 29 112 40 172 40s120 -11 172 -40
c38 -21 71 -54 71 -97z" fill="currentColor"/>
</a>
<a style="color:inherit;" xlink:href="textedit:///home/ryan/projects/lilypond-in-markdown/_lilypond/6a9092e2a02d7c55dd7c8c7a5fa19562.ly:40:57:58">
<path transform="translate(42.5057, 52.4108) scale(0.0040, -0.0040)" d="M211 111c-49 0 -68 -43 -68 -88c0 -75 57 -134 132 -134c49 0 68 43 68 88c0 75 -57 134 -132 134zM486 0c0 -43 -33 -76 -71 -97c-52 -29 -112 -40 -172 -40s-120 11 -172 40c-38 21 -71 54 -71 97s33 76 71 97c52 29 112 40 172 40s120 -11 172 -40
c38 -21 71 -54 71 -97z" fill="currentColor"/>
</a>
<a style="color:inherit;" xlink:href="textedit:///home/ryan/projects/lilypond-in-markdown/_lilypond/6a9092e2a02d7c55dd7c8c7a5fa19562.ly:39:48:49">
<path transform="translate(42.5057, 44.9564) scale(0.0040, -0.0040)" d="M211 111c-49 0 -68 -43 -68 -88c0 -75 57 -134 132 -134c49 0 68 43 68 88c0 75 -57 134 -132 134zM486 0c0 -43 -33 -76 -71 -97c-52 -29 -112 -40 -172 -40s-120 11 -172 40c-38 21 -71 54 -71 97s33 76 71 97c52 29 112 40 172 40s120 -11 172 -40
c38 -21 71 -54 71 -97z" fill="currentColor"/>
</a>
<a style="color:inherit;" xlink:href="textedit:///home/ryan/projects/lilypond-in-markdown/_lilypond/6a9092e2a02d7c55dd7c8c7a5fa19562.ly:30:49:50">
<path transform="translate(42.5057, 37.5020) scale(0.0040, -0.0040)" d="M211 111c-49 0 -68 -43 -68 -88c0 -75 57 -134 132 -134c49 0 68 43 68 88c0 75 -57 134 -132 134zM486 0c0 -43 -33 -76 -71 -97c-52 -29 -112 -40 -172 -40s-120 11 -172 40c-38 21 -71 54 -71 97s33 76 71 97c52 29 112 40 172 40s120 -11 172 -40
c38 -21 71 -54 71 -97z" fill="currentColor"/>
</a>
<a style="color:inherit;" xlink:href="textedit:///home/ryan/projects/lilypond-in-markdown/_lilypond/6a9092e2a02d7c55dd7c8c7a5fa19562.ly:29:20:21">
<path transform="translate(42.5057, 23.7892) scale(0.0040, -0.0040)" d="M211 111c-49 0 -68 -43 -68 -88c0 -75 57 -134 132 -134c49 0 68 43 68 88c0 75 -57 134 -132 134zM486 0c0 -43 -33 -76 -71 -97c-52 -29 -112 -40 -172 -40s-120 11 -172 40c-38 21 -71 54 -71 97s33 76 71 97c52 29 112 40 172 40s120 -11 172 -40
c38 -21 71 -54 71 -97z" fill="currentColor"/>
</a>
<a style="color:inherit;" xlink:href="textedit:///home/ryan/projects/lilypond-in-markdown/_lilypond/6a9092e2a02d7c55dd7c8c7a5fa19562.ly:25:39:40">
<path transform="translate(42.5057, 14.0308) scale(0.0040, -0.0040)" d="M211 111c-49 0 -68 -43 -68 -88c0 -75 57 -134 132 -134c49 0 68 43 68 88c0 75 -57 134 -132 134zM486 0c0 -43 -33 -76 -71 -97c-52 -29 -112 -40 -172 -40s-120 11 -172 40c-38 21 -71 54 -71 97s33 76 71 97c52 29 112 40 172 40s120 -11 172 -40
c38 -21 71 -54 71 -97z" fill="currentColor"/>
</a>
<a style="color:inherit;" xlink:href="textedit:///home/ryan/projects/lilypond-in-markdown/_lilypond/6a9092e2a02d7c55dd7c8c7a5fa19562.ly:21:46:47">
<path transform="translate(42.5057, 6.7724) scale(0.0040, -0.0040)" d="M211 111c-49 0 -68 -43 -68 -88c0 -75 57 -134 132 -134c49 0 68 43 68 88c0 75 -57 134 -132 134zM486 0c0 -43 -33 -76 -71 -97c-52 -29 -112 -40 -172 -40s-120 11 -172 40c-38 21 -71 54 -71 97s33 76 71 97c52 29 112 40 172 40s120 -11 172 -40
c38 -21 71 -54 71 -97z" fill="currentColor"/>
</a>
<path transform="translate(30.5080, 121.1049) scale(0.0040, -0.0040)" d="M358 29c-49 0 -74 41 -74 73c0 38 27 76 71 76c4 0 7 0 11 -1c-27 36 -69 59 -116 59c-106 0 -113 -74 -113 -188c0 -15 1 -31 1 -48s-1 -33 -1 -48c0 -114 7 -188 113 -188c79 0 136 70 155 150c2 7 7 10 13 10c7 0 14 -5 14 -13c0 -95 -105 -175 -182 -175
c-68 0 -137 20 -184 70c-49 51 -66 123 -66 194s17 143 66 194c47 50 116 70 184 70c86 0 158 -66 173 -152c1 -4 1 -9 1 -13c0 -39 -30 -70 -66 -70z" fill="currentColor"/>
<a style="color:inherit;" xlink:href="textedit:///home/ryan/projects/lilypond-in-markdown/_lilypond/6a9092e2a02d7c55dd7c8c7a5fa19562.ly:45:41:42">
<path transform="translate(26.0580, 120.1049) scale(0.0040, -0.0040)" d="M217 -311c0 -11 -8 -19 -19 -19s-20 8 -20 19v142l-81 -30v-156c0 -11 -9 -20 -20 -20s-19 9 -19 20v142l-28 -11c-3 -1 -5 -1 -8 -1c-12 0 -22 10 -22 23v57c0 9 6 18 15 21l43 16v157l-28 -10c-3 -1 -5 -1 -8 -1c-12 0 -22 9 -22 22v57c0 9 6 18 15 21l43 16v157
c0 11 8 19 19 19s20 -8 20 -19v-142l81 30v156c0 11 9 20 20 20s19 -9 19 -20v-142l28 11c3 1 5 1 8 1c12 0 22 -10 22 -23v-57c0 -9 -6 -18 -15 -21l-43 -16v-157l28 10c3 1 5 1 8 1c12 0 22 -9 22 -22v-57c0 -9 -6 -18 -15 -21l-43 -16v-157zM97 64v-158l81 30v158z" fill="currentColor"/>
</a>
<text transform="translate(23.0553, 124.3628)" font-family="serif" font-style="italic" font-size="1.3860" text-anchor="start" fill="currentColor">
<tspan>
8</tspan>
</text>
<path transform="translate(22.5580, 120.1049) scale(0.0040, -0.0040)" d="M558 -125c0 28 22 51 50 51s51 -23 51 -51s-23 -51 -51 -51s-50 23 -50 51zM558 125c0 28 22 51 50 51s51 -23 51 -51s-23 -51 -51 -51s-50 23 -50 51zM231 264c172 0 294 -88 294 -251c0 -263 -262 -416 -515 -523c-3 -3 -7 -4 -10 -4c-7 0 -14 7 -14 14c0 3 1 7 4 10
c201 118 410 265 410 492c0 119 -61 234 -169 234c-72 0 -124 -53 -148 -123c10 4 19 6 29 6c55 0 100 -45 100 -100c0 -58 -44 -106 -100 -106c-60 0 -112 47 -112 106c0 133 101 245 231 245z" fill="currentColor"/>
<a style="color:inherit;" xlink:href="textedit:///home/ryan/projects/lilypond-in-markdown/_lilypond/6a9092e2a02d7c55dd7c8c7a5fa19562.ly:45:55:56">
<path transform="translate(34.2000, 123.1049) scale(0.0040, -0.0040)" d="M211 111c-49 0 -68 -43 -68 -88c0 -75 57 -134 132 -134c49 0 68 43 68 88c0 75 -57 134 -132 134zM486 0c0 -43 -33 -76 -71 -97c-52 -29 -112 -40 -172 -40s-120 11 -172 40c-38 21 -71 54 -71 97s33 76 71 97c52 29 112 40 172 40s120 -11 172 -40
c38 -21 71 -54 71 -97z" fill="currentColor"/>
</a>
<path transform="translate(30.5080, 114.6505) scale(0.0040, -0.0040)" d="M358 29c-49 0 -74 41 -74 73c0 38 27 76 71 76c4 0 7 0 11 -1c-27 36 -69 59 -116 59c-106 0 -113 -74 -113 -188c0 -15 1 -31 1 -48s-1 -33 -1 -48c0 -114 7 -188 113 -188c79 0 136 70 155 150c2 7 7 10 13 10c7 0 14 -5 14 -13c0 -95 -105 -175 -182 -175
c-68 0 -137 20 -184 70c-49 51 -66 123 -66 194s17 143 66 194c47 50 116 70 184 70c86 0 158 -66 173 -152c1 -4 1 -9 1 -13c0 -39 -30 -70 -66 -70z" fill="currentColor"/>
<a style="color:inherit;" xlink:href="textedit:///home/ryan/projects/lilypond-in-markdown/_lilypond/6a9092e2a02d7c55dd7c8c7a5fa19562.ly:44:38:39">
<path transform="translate(26.0580, 113.6505) scale(0.0040, -0.0040)" d="M217 -311c0 -11 -8 -19 -19 -19s-20 8 -20 19v142l-81 -30v-156c0 -11 -9 -20 -20 -20s-19 9 -19 20v142l-28 -11c-3 -1 -5 -1 -8 -1c-12 0 -22 10 -22 23v57c0 9 6 18 15 21l43 16v157l-28 -10c-3 -1 -5 -1 -8 -1c-12 0 -22 9 -22 22v57c0 9 6 18 15 21l43 16v157
c0 11 8 19 19 19s20 -8 20 -19v-142l81 30v156c0 11 9 20 20 20s19 -9 19 -20v-142l28 11c3 1 5 1 8 1c12 0 22 -10 22 -23v-57c0 -9 -6 -18 -15 -21l-43 -16v-157l28 10c3 1 5 1 8 1c12 0 22 -9 22 -22v-57c0 -9 -6 -18 -15 -21l-43 -16v-157zM97 64v-158l81 30v158z" fill="currentColor"/>
</a>
</svg>
