<svg xmlns:xlink="http://www.w3.org/1999/xlink" version="1.2" viewBox="0 -0.024 45.011 9.633"><path stroke="currentColor" stroke-linecap="round" stroke-linejoin="round" stroke-width=".1" d="M.05 5.776h44.961M.05 4.776h44.961M.05 3.776h44.961M.05 2.776h44.961M.05 1.776h44.961"/><rect width="1.956" height=".2" x="5.474" y="-.1" fill="currentColor" ry=".1" transform="translate(0 6.776)"/><rect width=".13" height="3.314" x="-.065" y="-1" fill="currentColor" ry=".04" transform="translate(14.841 3.776)"/><a color="inherit"><path fill="currentColor" d="M22.276 5.232c.22 0 .432.112.432.356 0 .284-.22.484-.408.596a.908.908 0 0 1-.464.136c-.22 0-.432-.112-.432-.356 0-.284.22-.484.408-.596.14-.084.3-.136.464-.136z"/></a><a color="inherit"><path stroke="currentColor" stroke-linecap="round" stroke-linejoin="round" stroke-width=".112" d="M21.856 7.607l.28-.28M22.137 7.327l.28.28"/><text fill="currentColor" font-family="serif" font-size="2.47" transform="translate(21.351 9.541)"><tspan> 3</tspan></text></a><rect width=".13" height="3.314" x="-.065" y="-1.5" fill="currentColor" ry=".04" transform="translate(22.644 3.776)"/><a color="inherit"><path fill="currentColor" d="M30.329 4.232c.22 0 .432.112.432.356 0 .284-.22.484-.408.596a.908.908 0 0 1-.464.136c-.22 0-.432-.112-.432-.356 0-.284.22-.484.408-.596.14-.084.3-.136.464-.136z"/></a><a color="inherit"><path stroke="currentColor" stroke-linecap="round" stroke-linejoin="round" stroke-width=".112" d="M29.908 7.633l.281-.281M30.189 7.352l.28.281"/><text fill="currentColor" font-family="serif" font-size="2.47" transform="translate(29.404 9.541)"><tspan> 5</tspan></text></a><rect width=".13" height="3.314" x="-.065" y="-2.5" fill="currentColor" ry=".04" transform="translate(30.696 3.776)"/><a color="inherit"><path fill="currentColor" d="M38.131 3.732c.22 0 .432.112.432.356 0 .284-.22.484-.408.596a.908.908 0 0 1-.464.136c-.22 0-.432-.112-.432-.356 0-.284.22-.484.408-.596.14-.084.3-.136.464-.136z"/></a><a color="inherit"><path stroke="currentColor" stroke-linecap="round" stroke-linejoin="round" stroke-width=".112" d="M37.71 7.607l.281-.28M37.991 7.327l.281.28"/><text fill="currentColor" font-family="serif" font-size="2.47" transform="translate(37.206 9.541)"><tspan> 6</tspan></text></a><rect width=".13" height="3.314" x="-.065" y="-3" fill="currentColor" ry=".04" transform="translate(38.498 3.776)"/><rect width=".13" height="3.314" x="-.065" y="-.5" fill="currentColor" ry=".04" transform="translate(7.04 3.776)"/><a color="inherit"><path fill="currentColor" d="M6.672 6.232c.22 0 .432.112.432.356 0 .284-.22.484-.408.596a.908.908 0 0 1-.464.136c-.22 0-.432-.112-.432-.356 0-.284.22-.484.408-.596.14-.084.3-.136.464-.136z"/></a><path fill="currentColor" d="M2.304 3.728c.016 0 .036-.004.052-.004.62 0 1.024.512 1.024 1.044 0 .304-.132.616-.428.84a.905.905 0 0 1-.292.144c.012.14.02.28.02.42 0 .076-.004.156-.008.232-.028.48-.36.912-.832.912a.783.783 0 0 1-.78-.788c0-.232.212-.412.448-.412.216 0 .38.188.38.412 0 .208-.172.38-.38.38a.326.326 0 0 1-.124-.024c.104.156.272.26.468.26.384 0 .628-.368.652-.764a3.775 3.775 0 0 0-.008-.588c-.116.02-.232.032-.356.032-.752 0-1.332-.688-1.332-1.496 0-.708.524-1.224.992-1.764a4.47 4.47 0 0 1-.18-.76 5.429 5.429 0 0 1-.028-.624c0-.46.22-.896.596-1.168A.077.077 0 0 1 2.228 0c.016 0 .028 0 .04.012.284.336.532.98.532 1.432 0 .572-.344 1.02-.72 1.456.084.272.156.552.224.828zm.34 1.86a.71.71 0 0 0 .452-.656.764.764 0 0 0-.692-.76c.096.464.184.924.24 1.416zm-1.548-.924c0 .54.516.988 1.056.988.112 0 .22-.008.328-.024-.056-.508-.148-.98-.252-1.456-.316.032-.496.244-.496.476 0 .176.1.364.324.492.02.02.028.04.028.06 0 .044-.04.088-.088.088-.012 0-.024-.004-.036-.008-.32-.172-.468-.46-.468-.74 0-.352.232-.696.64-.788a15.048 15.048 0 0 0-.184-.7c-.428.484-.852.972-.852 1.612zM2.432.596a1.153 1.153 0 0 0-.648 1.036c0 .296.072.532.144.776.32-.388.584-.792.584-1.296 0-.22-.016-.316-.08-.516z"/><a color="inherit"><path stroke="currentColor" stroke-linecap="round" stroke-linejoin="round" stroke-width=".112" d="M6.251 7.641l.281-.28M6.532 7.36l.281.282"/><text fill="currentColor" font-family="serif" font-size="2.47" transform="translate(5.747 9.575)"><tspan> 1</tspan></text></a><text fill="currentColor" font-family="serif" font-size="2.2" font-weight="bold" transform="translate(2.186 9.575)"><tspan> C:</tspan></text><a color="inherit"><path stroke="currentColor" stroke-linecap="round" stroke-linejoin="round" stroke-width=".112" d="M14.054 7.641l.28-.28M14.334 7.36l.281.282"/><text fill="currentColor" font-family="serif" font-size="2.47" transform="translate(13.549 9.575)"><tspan> 2</tspan></text></a><a color="inherit"><path fill="currentColor" d="M14.474 5.732c.22 0 .432.112.432.356 0 .284-.22.484-.408.596a.908.908 0 0 1-.464.136c-.22 0-.432-.112-.432-.356 0-.284.22-.484.408-.596.14-.084.3-.136.464-.136z"/></a></svg>