<svg xmlns:xlink="http://www.w3.org/1999/xlink" version="1.2" viewBox="0 0 49.776 7.785"><path stroke="currentColor" stroke-linecap="round" stroke-linejoin="round" stroke-width=".1" d="M.05 6.045h49.676M.05 5.045h49.676M.05 4.045h49.676M.05 3.045h49.676M.05 2.045h49.676"/><rect width="1.956" height=".2" x="47.006" y="-.1" fill="currentColor" ry=".1" transform="translate(0 1.045)"/><rect width="1.956" height=".2" x="44.502" y="-.1" fill="currentColor" ry=".1" transform="translate(0 1.045)"/><rect width="1.956" height=".2" x="41.997" y="-.1" fill="currentColor" ry=".1" transform="translate(0 1.045)"/><rect width="1.956" height=".2" x="39.493" y="-.1" fill="currentColor" ry=".1" transform="translate(0 1.045)"/><rect width="1.956" height=".2" x="36.989" y="-.1" fill="currentColor" ry=".1" transform="translate(0 1.045)"/><rect width="1.956" height=".2" x="34.485" y="-.1" fill="currentColor" ry=".1" transform="translate(0 1.045)"/><rect width="1.956" height=".2" x="31.98" y="-.1" fill="currentColor" ry=".1" transform="translate(0 1.045)"/><rect width="1.956" height=".2" x="29.476" y="-.1" fill="currentColor" ry=".1" transform="translate(0 1.045)"/><rect width=".19" height="4" y="-2" fill="currentColor" ry="0" transform="translate(28.484 4.045)"/><rect width=".19" height="4" y="-2" fill="currentColor" ry="0" transform="translate(49.586 4.045)"/><a color="inherit"><path fill="currentColor" d="M40.691.501c.22 0 .432.112.432.356 0 .284-.22.484-.408.596a.908.908 0 0 1-.464.136c-.22 0-.432-.112-.432-.356 0-.284.22-.484.408-.596.14-.084.3-.136.464-.136z"/></a><a color="inherit"><path fill="currentColor" d="M35.683 2.501c.22 0 .432.112.432.356 0 .284-.22.484-.408.596a.908.908 0 0 1-.464.136c-.22 0-.432-.112-.432-.356 0-.284.22-.484.408-.596.14-.084.3-.136.464-.136z"/></a><a color="inherit"><path fill="currentColor" d="M35.683.001c.22 0 .432.112.432.356 0 .284-.22.484-.408.596a.908.908 0 0 1-.464.136c-.22 0-.432-.112-.432-.356 0-.284.22-.484.408-.596.14-.084.3-.136.464-.136z"/></a><rect width=".13" height="5.314" x="-.065" y="-3.314" fill="currentColor" ry=".04" transform="translate(34.876 4.045)"/><a color="inherit"><path fill="currentColor" d="M38.187 2.501c.22 0 .432.112.432.356 0 .284-.22.484-.408.596a.908.908 0 0 1-.464.136c-.22 0-.432-.112-.432-.356 0-.284.22-.484.408-.596.14-.084.3-.136.464-.136z"/></a><a color="inherit"><path fill="currentColor" d="M38.187.001c.22 0 .432.112.432.356 0 .284-.22.484-.408.596a.908.908 0 0 1-.464.136c-.22 0-.432-.112-.432-.356 0-.284.22-.484.408-.596.14-.084.3-.136.464-.136z"/></a><rect width=".13" height="5.314" x="-.065" y="-3.314" fill="currentColor" ry=".04" transform="translate(37.38 4.045)"/><a color="inherit"><path fill="currentColor" d="M40.691 2.501c.22 0 .432.112.432.356 0 .284-.22.484-.408.596a.908.908 0 0 1-.464.136c-.22 0-.432-.112-.432-.356 0-.284.22-.484.408-.596.14-.084.3-.136.464-.136z"/></a><path fill="currentColor" stroke="currentColor" stroke-linecap="round" stroke-linejoin="round" stroke-width=".08" d="M16.303 7.345v.4H8.74v-.4z"/><rect width=".13" height="4.814" x="-.065" y="-2.814" fill="currentColor" ry=".04" transform="translate(29.867 4.045)"/><a color="inherit"><path fill="currentColor" d="M33.178 2.501c.22 0 .433.112.433.356 0 .284-.22.484-.408.596a.908.908 0 0 1-.465.136c-.22 0-.431-.112-.431-.356 0-.284.22-.484.407-.596.14-.084.3-.136.465-.136z"/></a><a color="inherit"><path fill="currentColor" d="M33.178.501c.22 0 .433.112.433.356 0 .284-.22.484-.408.596a.908.908 0 0 1-.465.136c-.22 0-.431-.112-.431-.356 0-.284.22-.484.407-.596.14-.084.3-.136.465-.136z"/></a><rect width=".13" height="4.814" x="-.065" y="-2.814" fill="currentColor" ry=".04" transform="translate(32.371 4.045)"/><rect width=".13" height="5.314" x="-.065" y="-3.314" fill="currentColor" ry=".04" transform="translate(47.397 4.045)"/><a color="inherit"><path fill="currentColor" d="M48.204.001c.22 0 .432.112.432.356 0 .284-.22.484-.408.596a.908.908 0 0 1-.464.136c-.22 0-.432-.112-.432-.356 0-.284.22-.484.408-.596.14-.084.3-.136.464-.136z"/></a><path fill="currentColor" stroke="currentColor" stroke-linecap="round" stroke-linejoin="round" stroke-width=".08" d="M47.422 5.845v.4h-7.563v-.4zM37.405 5.845v.4h-7.563v-.4zM26.32 7.345v.4h-7.563v-.4z"/><a color="inherit"><path fill="currentColor" d="M43.195 2.501c.22 0 .432.112.432.356 0 .284-.22.484-.408.596a.908.908 0 0 1-.464.136c-.22 0-.432-.112-.432-.356 0-.284.22-.484.408-.596.14-.084.3-.136.464-.136z"/></a><a color="inherit"><path fill="currentColor" d="M43.195.501c.22 0 .432.112.432.356 0 .284-.22.484-.408.596a.908.908 0 0 1-.464.136c-.22 0-.432-.112-.432-.356 0-.284.22-.484.408-.596.14-.084.3-.136.464-.136z"/></a><rect width=".13" height="4.814" x="-.065" y="-2.814" fill="currentColor" ry=".04" transform="translate(42.388 4.045)"/><rect width=".13" height="4.814" x="-.065" y="-2.814" fill="currentColor" ry=".04" transform="translate(39.884 4.045)"/><a color="inherit"><path fill="currentColor" d="M45.7 2.501c.22 0 .431.112.431.356 0 .284-.22.484-.407.596a.908.908 0 0 1-.464.136c-.22 0-.432-.112-.432-.356 0-.284.22-.484.407-.596.14-.084.3-.136.465-.136z"/></a><a color="inherit"><path fill="currentColor" d="M45.7.001c.22 0 .431.112.431.356 0 .284-.22.484-.407.596a.908.908 0 0 1-.464.136c-.22 0-.432-.112-.432-.356 0-.284.22-.484.407-.596.14-.084.3-.136.465-.136z"/></a><rect width=".13" height="5.314" x="-.065" y="-3.314" fill="currentColor" ry=".04" transform="translate(44.892 4.045)"/><a color="inherit"><path fill="currentColor" d="M48.204 2.501c.22 0 .432.112.432.356 0 .284-.22.484-.408.596a.908.908 0 0 1-.464.136c-.22 0-.432-.112-.432-.356 0-.284.22-.484.408-.596.14-.084.3-.136.464-.136z"/></a><rect width=".13" height="5.314" x="-.065" y="-1.814" fill="currentColor" ry=".04" transform="translate(13.773 4.045)"/><a color="inherit"><path fill="currentColor" d="M12.076 4.001c.22 0 .432.112.432.356 0 .284-.22.484-.408.596a.908.908 0 0 1-.464.136c-.22 0-.432-.112-.432-.356 0-.284.22-.484.408-.596.14-.084.3-.136.464-.136z"/></a><a color="inherit"><path fill="currentColor" d="M12.076 2.001c.22 0 .432.112.432.356 0 .284-.22.484-.408.596a.908.908 0 0 1-.464.136c-.22 0-.432-.112-.432-.356 0-.284.22-.484.408-.596.14-.084.3-.136.464-.136z"/></a><rect width=".13" height="4.814" x="-.065" y="-1.314" fill="currentColor" ry=".04" transform="translate(11.27 4.045)"/><a color="inherit"><path fill="currentColor" d="M14.58 4.001c.22 0 .432.112.432.356 0 .284-.22.484-.408.596a.908.908 0 0 1-.464.136c-.22 0-.432-.112-.432-.356 0-.284.22-.484.408-.596.14-.084.3-.136.464-.136z"/></a><a color="inherit"><path fill="currentColor" d="M14.58 1.501c.22 0 .432.112.432.356 0 .284-.22.484-.408.596a.908.908 0 0 1-.464.136c-.22 0-.432-.112-.432-.356 0-.284.22-.484.408-.596.14-.084.3-.136.464-.136z"/></a><a color="inherit"><path fill="currentColor" d="M17.085 4.001c.22 0 .432.112.432.356 0 .284-.22.484-.408.596a.908.908 0 0 1-.464.136c-.22 0-.432-.112-.432-.356 0-.284.22-.484.408-.596.14-.084.3-.136.464-.136z"/></a><a color="inherit"><path fill="currentColor" d="M30.674.501c.22 0 .432.112.432.356 0 .284-.22.484-.408.596a.908.908 0 0 1-.464.136c-.22 0-.432-.112-.432-.356 0-.284.22-.484.408-.596.14-.084.3-.136.464-.136z"/></a><rect width=".13" height="5.314" x="-.065" y="-1.814" fill="currentColor" ry=".04" transform="translate(16.278 4.045)"/><rect width=".13" height="4.814" x="-.065" y="-1.314" fill="currentColor" ry=".04" transform="translate(8.765 4.045)"/><a color="inherit"><path fill="currentColor" d="M9.572 4.001c.22 0 .432.112.432.356 0 .284-.22.484-.408.596a.908.908 0 0 1-.464.136c-.22 0-.432-.112-.432-.356 0-.284.22-.484.408-.596.14-.084.3-.136.464-.136z"/></a><a color="inherit"><path fill="currentColor" d="M9.572 2.001c.22 0 .432.112.432.356 0 .284-.22.484-.408.596a.908.908 0 0 1-.464.136c-.22 0-.432-.112-.432-.356 0-.284.22-.484.408-.596.14-.084.3-.136.464-.136z"/></a><path fill="currentColor" d="M3.028 3.545c0-.112.092-.204.204-.204s.204.092.204.204-.092.204-.204.204-.204-.092-.204-.204zm0-1c0-.112.092-.204.204-.204s.204.092.204.204-.092.204-.204.204-.204-.092-.204-.204zm-1.3-.552c.688 0 1.172.352 1.172 1.004 0 1.052-1.052 1.656-2.064 2.084a.049.049 0 0 1-.036.016.053.053 0 0 1-.052-.052c0-.012.004-.024.016-.036.808-.472 1.648-1.06 1.648-1.972 0-.48-.252-.94-.684-.94-.296 0-.516.216-.616.504a.323.323 0 0 1 .136-.032c.22 0 .4.18.4.4 0 .232-.176.424-.4.424-.24 0-.448-.188-.448-.424 0-.532.408-.976.928-.976z"/><text fill="currentColor" font-family="serif" font-size="1.386" font-style="italic" transform="translate(1.295 7.307)"><tspan> 8</tspan></text><path fill="currentColor" d="M6.436 3.937a.301.301 0 0 1-.3-.3c0-.152.108-.308.288-.308.016 0 .036 0 .056.004A.599.599 0 0 0 6 3.097c-.424 0-.452.292-.452.744v.408c0 .452.028.748.452.748.32 0 .556-.28.632-.604.008-.028.028-.04.048-.04.024 0 .052.016.052.048 0 .376-.42.696-.732.696-.272 0-.548-.084-.736-.28C5.068 4.613 5 4.329 5 4.045s.068-.568.264-.772c.188-.196.464-.276.736-.276.348 0 .64.256.7.6.004.02.004.036.004.052 0 .16-.12.288-.268.288z"/><a color="inherit"><path fill="currentColor" d="M17.085 1.501c.22 0 .432.112.432.356 0 .284-.22.484-.408.596a.908.908 0 0 1-.464.136c-.22 0-.432-.112-.432-.356 0-.284.22-.484.408-.596.14-.084.3-.136.464-.136z"/></a><a color="inherit"><path fill="currentColor" d="M27.102 1.501c.22 0 .432.112.432.356 0 .284-.22.484-.408.596a.908.908 0 0 1-.465.136c-.22 0-.432-.112-.432-.356 0-.284.22-.484.409-.596.14-.084.3-.136.464-.136z"/></a><rect width=".13" height="4.814" x="-.065" y="-1.314" fill="currentColor" ry=".04" transform="translate(21.286 4.045)"/><rect width=".13" height="5.314" x="-.065" y="-1.814" fill="currentColor" ry=".04" transform="translate(26.294 4.045)"/><a color="inherit"><path fill="currentColor" d="M22.093 2.001c.22 0 .432.112.432.356 0 .284-.22.484-.408.596a.908.908 0 0 1-.464.136c-.22 0-.432-.112-.432-.356 0-.284.22-.484.408-.596.14-.084.3-.136.464-.136z"/></a><a color="inherit"><path fill="currentColor" d="M24.597 4.001c.22 0 .432.112.432.356 0 .284-.22.484-.408.596a.908.908 0 0 1-.464.136c-.22 0-.432-.112-.432-.356 0-.284.22-.484.408-.596.14-.084.3-.136.464-.136z"/></a><a color="inherit"><path fill="currentColor" d="M24.597 1.501c.22 0 .432.112.432.356 0 .284-.22.484-.408.596a.908.908 0 0 1-.464.136c-.22 0-.432-.112-.432-.356 0-.284.22-.484.408-.596.14-.084.3-.136.464-.136z"/></a><a color="inherit"><path fill="currentColor" d="M27.102 4.001c.22 0 .432.112.432.356 0 .284-.22.484-.408.596a.908.908 0 0 1-.465.136c-.22 0-.432-.112-.432-.356 0-.284.22-.484.409-.596.14-.084.3-.136.464-.136z"/></a><rect width=".13" height="5.314" x="-.065" y="-1.814" fill="currentColor" ry=".04" transform="translate(23.79 4.045)"/><a color="inherit"><path fill="currentColor" d="M30.674 2.501c.22 0 .432.112.432.356 0 .284-.22.484-.408.596a.908.908 0 0 1-.464.136c-.22 0-.432-.112-.432-.356 0-.284.22-.484.408-.596.14-.084.3-.136.464-.136z"/></a><a color="inherit"><path fill="currentColor" d="M19.589 4.001c.22 0 .432.112.432.356 0 .284-.22.484-.408.596a.908.908 0 0 1-.464.136c-.22 0-.432-.112-.432-.356 0-.284.22-.484.408-.596.14-.084.3-.136.464-.136z"/></a><a color="inherit"><path fill="currentColor" d="M19.589 2.001c.22 0 .432.112.432.356 0 .284-.22.484-.408.596a.908.908 0 0 1-.464.136c-.22 0-.432-.112-.432-.356 0-.284.22-.484.408-.596.14-.084.3-.136.464-.136z"/></a><rect width=".13" height="4.814" x="-.065" y="-1.314" fill="currentColor" ry=".04" transform="translate(18.782 4.045)"/><a color="inherit"><path fill="currentColor" d="M22.093 4.001c.22 0 .432.112.432.356 0 .284-.22.484-.408.596a.908.908 0 0 1-.464.136c-.22 0-.432-.112-.432-.356 0-.284.22-.484.408-.596.14-.084.3-.136.464-.136z"/></a></svg>