<svg xmlns="http://www.w3.org/2000/svg" xmlns:xlink="http://www.w3.org/1999/xlink" version="1.2" width="130.00mm" height="58.42mm" viewBox="0 0 73.9772 33.2442">
<!-- Page: 1/1 -->
<text transform="translate(1.4226, 0.5691)" font-family="serif" font-size="2.2001" text-anchor="start" fill="currentColor">
<tspan/>
</text>
<line transform="translate(1.4226, 7.6141)" stroke-linejoin="round" stroke-linecap="round" stroke-width="0.1000" stroke="currentColor" x1="0.0500" y1="-0.0000" x2="49.7260" y2="-0.0000"/>
<line transform="translate(1.4226, 6.6141)" stroke-linejoin="round" stroke-linecap="round" stroke-width="0.1000" stroke="currentColor" x1="0.0500" y1="-0.0000" x2="49.7260" y2="-0.0000"/>
<line transform="translate(1.4226, 5.6141)" stroke-linejoin="round" stroke-linecap="round" stroke-width="0.1000" stroke="currentColor" x1="0.0500" y1="-0.0000" x2="49.7260" y2="-0.0000"/>
<line transform="translate(1.4226, 4.6141)" stroke-linejoin="round" stroke-linecap="round" stroke-width="0.1000" stroke="currentColor" x1="0.0500" y1="-0.0000" x2="49.7260" y2="-0.0000"/>
<line transform="translate(1.4226, 3.6141)" stroke-linejoin="round" stroke-linecap="round" stroke-width="0.1000" stroke="currentColor" x1="0.0500" y1="-0.0000" x2="49.7260" y2="-0.0000"/>
<rect transform="translate(1.4226, 2.6141)" x="47.0057" y="-0.1000" width="1.9563" height="0.2000" ry="0.1000" fill="currentColor"/>
<rect transform="translate(1.4226, 2.6141)" x="44.5015" y="-0.1000" width="1.9563" height="0.2000" ry="0.1000" fill="currentColor"/>
<rect transform="translate(1.4226, 2.6141)" x="41.9973" y="-0.1000" width="1.9563" height="0.2000" ry="0.1000" fill="currentColor"/>
<rect transform="translate(1.4226, 2.6141)" x="39.4931" y="-0.1000" width="1.9563" height="0.2000" ry="0.1000" fill="currentColor"/>
<rect transform="translate(1.4226, 2.6141)" x="36.9888" y="-0.1000" width="1.9563" height="0.2000" ry="0.1000" fill="currentColor"/>
<rect transform="translate(1.4226, 2.6141)" x="34.4846" y="-0.1000" width="1.9563" height="0.2000" ry="0.1000" fill="currentColor"/>
<rect transform="translate(1.4226, 2.6141)" x="31.9804" y="-0.1000" width="1.9563" height="0.2000" ry="0.1000" fill="currentColor"/>
<rect transform="translate(1.4226, 2.6141)" x="29.4762" y="-0.1000" width="1.9563" height="0.2000" ry="0.1000" fill="currentColor"/>
<rect transform="translate(29.9063, 5.6141)" x="0.0000" y="-2.0000" width="0.1900" height="4.0000" ry="0.0000" fill="currentColor"/>
<rect transform="translate(51.0086, 5.6141)" x="0.0000" y="-2.0000" width="0.1900" height="4.0000" ry="0.0000" fill="currentColor"/>
<a style="color:inherit;" xlink:href="textedit:///home/ryan/projects/lilypond-in-markdown/_lilypond/95690fed6224476c9aaf4fc8de344336.ly:21:7:8">
<path transform="translate(41.2417, 2.6141) scale(0.0040, -0.0040)" d="M218 136c55 0 108 -28 108 -89c0 -71 -55 -121 -102 -149c-35 -21 -75 -34 -116 -34c-55 0 -108 28 -108 89c0 71 55 121 102 149c35 21 75 34 116 34z" fill="currentColor"/>
</a>
<a style="color:inherit;" xlink:href="textedit:///home/ryan/projects/lilypond-in-markdown/_lilypond/95690fed6224476c9aaf4fc8de344336.ly:20:20:21">
<path transform="translate(36.2333, 4.6141) scale(0.0040, -0.0040)" d="M218 136c55 0 108 -28 108 -89c0 -71 -55 -121 -102 -149c-35 -21 -75 -34 -116 -34c-55 0 -108 28 -108 89c0 71 55 121 102 149c35 21 75 34 116 34z" fill="currentColor"/>
</a>
<a style="color:inherit;" xlink:href="textedit:///home/ryan/projects/lilypond-in-markdown/_lilypond/95690fed6224476c9aaf4fc8de344336.ly:20:22:23">
<path transform="translate(36.2333, 2.1141) scale(0.0040, -0.0040)" d="M218 136c55 0 108 -28 108 -89c0 -71 -55 -121 -102 -149c-35 -21 -75 -34 -116 -34c-55 0 -108 28 -108 89c0 71 55 121 102 149c35 21 75 34 116 34z" fill="currentColor"/>
</a>
<rect transform="translate(36.2983, 5.6141)" x="-0.0650" y="-3.3139" width="0.1300" height="5.3139" ry="0.0400" fill="currentColor"/>
<a style="color:inherit;" xlink:href="textedit:///home/ryan/projects/lilypond-in-markdown/_lilypond/95690fed6224476c9aaf4fc8de344336.ly:20:27:28">
<path transform="translate(38.7375, 4.6141) scale(0.0040, -0.0040)" d="M218 136c55 0 108 -28 108 -89c0 -71 -55 -121 -102 -149c-35 -21 -75 -34 -116 -34c-55 0 -108 28 -108 89c0 71 55 121 102 149c35 21 75 34 116 34z" fill="currentColor"/>
</a>
<a style="color:inherit;" xlink:href="textedit:///home/ryan/projects/lilypond-in-markdown/_lilypond/95690fed6224476c9aaf4fc8de344336.ly:20:29:30">
<path transform="translate(38.7375, 2.1141) scale(0.0040, -0.0040)" d="M218 136c55 0 108 -28 108 -89c0 -71 -55 -121 -102 -149c-35 -21 -75 -34 -116 -34c-55 0 -108 28 -108 89c0 71 55 121 102 149c35 21 75 34 116 34z" fill="currentColor"/>
</a>
<rect transform="translate(38.8025, 5.6141)" x="-0.0650" y="-3.3139" width="0.1300" height="5.3139" ry="0.0400" fill="currentColor"/>
<a style="color:inherit;" xlink:href="textedit:///home/ryan/projects/lilypond-in-markdown/_lilypond/95690fed6224476c9aaf4fc8de344336.ly:21:5:6">
<path transform="translate(41.2417, 4.6141) scale(0.0040, -0.0040)" d="M218 136c55 0 108 -28 108 -89c0 -71 -55 -121 -102 -149c-35 -21 -75 -34 -116 -34c-55 0 -108 28 -108 89c0 71 55 121 102 149c35 21 75 34 116 34z" fill="currentColor"/>
</a>
<polygon transform="translate(10.1226, 9.1141)" stroke-linejoin="round" stroke-linecap="round" stroke-width="0.0800" fill="currentColor" stroke="currentColor" points="7.6026 -0.2000 7.6026 0.2000 0.0400 0.2000 0.0400 -0.2000"/>
<rect transform="translate(31.2899, 5.6141)" x="-0.0650" y="-2.8139" width="0.1300" height="4.8139" ry="0.0400" fill="currentColor"/>
<a style="color:inherit;" xlink:href="textedit:///home/ryan/projects/lilypond-in-markdown/_lilypond/95690fed6224476c9aaf4fc8de344336.ly:20:13:14">
<path transform="translate(33.7291, 4.6141) scale(0.0040, -0.0040)" d="M218 136c55 0 108 -28 108 -89c0 -71 -55 -121 -102 -149c-35 -21 -75 -34 -116 -34c-55 0 -108 28 -108 89c0 71 55 121 102 149c35 21 75 34 116 34z" fill="currentColor"/>
</a>
<a style="color:inherit;" xlink:href="textedit:///home/ryan/projects/lilypond-in-markdown/_lilypond/95690fed6224476c9aaf4fc8de344336.ly:20:15:16">
<path transform="translate(33.7291, 2.6141) scale(0.0040, -0.0040)" d="M218 136c55 0 108 -28 108 -89c0 -71 -55 -121 -102 -149c-35 -21 -75 -34 -116 -34c-55 0 -108 28 -108 89c0 71 55 121 102 149c35 21 75 34 116 34z" fill="currentColor"/>
</a>
<rect transform="translate(33.7941, 5.6141)" x="-0.0650" y="-2.8139" width="0.1300" height="4.8139" ry="0.0400" fill="currentColor"/>
<rect transform="translate(48.8194, 5.6141)" x="-0.0650" y="-3.3139" width="0.1300" height="5.3139" ry="0.0400" fill="currentColor"/>
<a style="color:inherit;" xlink:href="textedit:///home/ryan/projects/lilypond-in-markdown/_lilypond/95690fed6224476c9aaf4fc8de344336.ly:21:29:30">
<path transform="translate(48.7544, 2.1141) scale(0.0040, -0.0040)" d="M218 136c55 0 108 -28 108 -89c0 -71 -55 -121 -102 -149c-35 -21 -75 -34 -116 -34c-55 0 -108 28 -108 89c0 71 55 121 102 149c35 21 75 34 116 34z" fill="currentColor"/>
</a>
<polygon transform="translate(41.2417, 7.6141)" stroke-linejoin="round" stroke-linecap="round" stroke-width="0.0800" fill="currentColor" stroke="currentColor" points="7.6026 -0.2000 7.6026 0.2000 0.0400 0.2000 0.0400 -0.2000"/>
<polygon transform="translate(31.2249, 7.6141)" stroke-linejoin="round" stroke-linecap="round" stroke-width="0.0800" fill="currentColor" stroke="currentColor" points="7.6026 -0.2000 7.6026 0.2000 0.0400 0.2000 0.0400 -0.2000"/>
<polygon transform="translate(20.1395, 9.1141)" stroke-linejoin="round" stroke-linecap="round" stroke-width="0.0800" fill="currentColor" stroke="currentColor" points="7.6026 -0.2000 7.6026 0.2000 0.0400 0.2000 0.0400 -0.2000"/>
<a style="color:inherit;" xlink:href="textedit:///home/ryan/projects/lilypond-in-markdown/_lilypond/95690fed6224476c9aaf4fc8de344336.ly:21:13:14">
<path transform="translate(43.7460, 4.6141) scale(0.0040, -0.0040)" d="M218 136c55 0 108 -28 108 -89c0 -71 -55 -121 -102 -149c-35 -21 -75 -34 -116 -34c-55 0 -108 28 -108 89c0 71 55 121 102 149c35 21 75 34 116 34z" fill="currentColor"/>
</a>
<a style="color:inherit;" xlink:href="textedit:///home/ryan/projects/lilypond-in-markdown/_lilypond/95690fed6224476c9aaf4fc8de344336.ly:21:15:16">
<path transform="translate(43.7460, 2.6141) scale(0.0040, -0.0040)" d="M218 136c55 0 108 -28 108 -89c0 -71 -55 -121 -102 -149c-35 -21 -75 -34 -116 -34c-55 0 -108 28 -108 89c0 71 55 121 102 149c35 21 75 34 116 34z" fill="currentColor"/>
</a>
<rect transform="translate(43.8110, 5.6141)" x="-0.0650" y="-2.8139" width="0.1300" height="4.8139" ry="0.0400" fill="currentColor"/>
<rect transform="translate(41.3067, 5.6141)" x="-0.0650" y="-2.8139" width="0.1300" height="4.8139" ry="0.0400" fill="currentColor"/>
<a style="color:inherit;" xlink:href="textedit:///home/ryan/projects/lilypond-in-markdown/_lilypond/95690fed6224476c9aaf4fc8de344336.ly:21:20:21">
<path transform="translate(46.2502, 4.6141) scale(0.0040, -0.0040)" d="M218 136c55 0 108 -28 108 -89c0 -71 -55 -121 -102 -149c-35 -21 -75 -34 -116 -34c-55 0 -108 28 -108 89c0 71 55 121 102 149c35 21 75 34 116 34z" fill="currentColor"/>
</a>
<a style="color:inherit;" xlink:href="textedit:///home/ryan/projects/lilypond-in-markdown/_lilypond/95690fed6224476c9aaf4fc8de344336.ly:21:22:23">
<path transform="translate(46.2502, 2.1141) scale(0.0040, -0.0040)" d="M218 136c55 0 108 -28 108 -89c0 -71 -55 -121 -102 -149c-35 -21 -75 -34 -116 -34c-55 0 -108 28 -108 89c0 71 55 121 102 149c35 21 75 34 116 34z" fill="currentColor"/>
</a>
<rect transform="translate(46.3152, 5.6141)" x="-0.0650" y="-3.3139" width="0.1300" height="5.3139" ry="0.0400" fill="currentColor"/>
<a style="color:inherit;" xlink:href="textedit:///home/ryan/projects/lilypond-in-markdown/_lilypond/95690fed6224476c9aaf4fc8de344336.ly:21:27:28">
<path transform="translate(48.7544, 4.6141) scale(0.0040, -0.0040)" d="M218 136c55 0 108 -28 108 -89c0 -71 -55 -121 -102 -149c-35 -21 -75 -34 -116 -34c-55 0 -108 28 -108 89c0 71 55 121 102 149c35 21 75 34 116 34z" fill="currentColor"/>
</a>
<rect transform="translate(15.1961, 5.6141)" x="-0.0650" y="-1.8139" width="0.1300" height="5.3139" ry="0.0400" fill="currentColor"/>
<a style="color:inherit;" xlink:href="textedit:///home/ryan/projects/lilypond-in-markdown/_lilypond/95690fed6224476c9aaf4fc8de344336.ly:18:13:14">
<path transform="translate(12.6268, 6.1141) scale(0.0040, -0.0040)" d="M218 136c55 0 108 -28 108 -89c0 -71 -55 -121 -102 -149c-35 -21 -75 -34 -116 -34c-55 0 -108 28 -108 89c0 71 55 121 102 149c35 21 75 34 116 34z" fill="currentColor"/>
</a>
<a style="color:inherit;" xlink:href="textedit:///home/ryan/projects/lilypond-in-markdown/_lilypond/95690fed6224476c9aaf4fc8de344336.ly:18:15:16">
<path transform="translate(12.6268, 4.1141) scale(0.0040, -0.0040)" d="M218 136c55 0 108 -28 108 -89c0 -71 -55 -121 -102 -149c-35 -21 -75 -34 -116 -34c-55 0 -108 28 -108 89c0 71 55 121 102 149c35 21 75 34 116 34z" fill="currentColor"/>
</a>
<rect transform="translate(12.6918, 5.6141)" x="-0.0650" y="-1.3139" width="0.1300" height="4.8139" ry="0.0400" fill="currentColor"/>
<a style="color:inherit;" xlink:href="textedit:///home/ryan/projects/lilypond-in-markdown/_lilypond/95690fed6224476c9aaf4fc8de344336.ly:18:20:21">
<path transform="translate(15.1311, 6.1141) scale(0.0040, -0.0040)" d="M218 136c55 0 108 -28 108 -89c0 -71 -55 -121 -102 -149c-35 -21 -75 -34 -116 -34c-55 0 -108 28 -108 89c0 71 55 121 102 149c35 21 75 34 116 34z" fill="currentColor"/>
</a>
<a style="color:inherit;" xlink:href="textedit:///home/ryan/projects/lilypond-in-markdown/_lilypond/95690fed6224476c9aaf4fc8de344336.ly:18:22:23">
<path transform="translate(15.1311, 3.6141) scale(0.0040, -0.0040)" d="M218 136c55 0 108 -28 108 -89c0 -71 -55 -121 -102 -149c-35 -21 -75 -34 -116 -34c-55 0 -108 28 -108 89c0 71 55 121 102 149c35 21 75 34 116 34z" fill="currentColor"/>
</a>
<a style="color:inherit;" xlink:href="textedit:///home/ryan/projects/lilypond-in-markdown/_lilypond/95690fed6224476c9aaf4fc8de344336.ly:18:27:28">
<path transform="translate(17.6353, 6.1141) scale(0.0040, -0.0040)" d="M218 136c55 0 108 -28 108 -89c0 -71 -55 -121 -102 -149c-35 -21 -75 -34 -116 -34c-55 0 -108 28 -108 89c0 71 55 121 102 149c35 21 75 34 116 34z" fill="currentColor"/>
</a>
<a style="color:inherit;" xlink:href="textedit:///home/ryan/projects/lilypond-in-markdown/_lilypond/95690fed6224476c9aaf4fc8de344336.ly:20:7:8">
<path transform="translate(31.2249, 2.6141) scale(0.0040, -0.0040)" d="M218 136c55 0 108 -28 108 -89c0 -71 -55 -121 -102 -149c-35 -21 -75 -34 -116 -34c-55 0 -108 28 -108 89c0 71 55 121 102 149c35 21 75 34 116 34z" fill="currentColor"/>
</a>
<rect transform="translate(17.7003, 5.6141)" x="-0.0650" y="-1.8139" width="0.1300" height="5.3139" ry="0.0400" fill="currentColor"/>
<rect transform="translate(10.1876, 5.6141)" x="-0.0650" y="-1.3139" width="0.1300" height="4.8139" ry="0.0400" fill="currentColor"/>
<a style="color:inherit;" xlink:href="textedit:///home/ryan/projects/lilypond-in-markdown/_lilypond/95690fed6224476c9aaf4fc8de344336.ly:18:5:6">
<path transform="translate(10.1226, 6.1141) scale(0.0040, -0.0040)" d="M218 136c55 0 108 -28 108 -89c0 -71 -55 -121 -102 -149c-35 -21 -75 -34 -116 -34c-55 0 -108 28 -108 89c0 71 55 121 102 149c35 21 75 34 116 34z" fill="currentColor"/>
</a>
<a style="color:inherit;" xlink:href="textedit:///home/ryan/projects/lilypond-in-markdown/_lilypond/95690fed6224476c9aaf4fc8de344336.ly:18:7:8">
<path transform="translate(10.1226, 4.1141) scale(0.0040, -0.0040)" d="M218 136c55 0 108 -28 108 -89c0 -71 -55 -121 -102 -149c-35 -21 -75 -34 -116 -34c-55 0 -108 28 -108 89c0 71 55 121 102 149c35 21 75 34 116 34z" fill="currentColor"/>
</a>
<path transform="translate(2.2226, 4.6141) scale(0.0040, -0.0040)" d="M557 -125c0 28 23 51 51 51s51 -23 51 -51s-23 -51 -51 -51s-51 23 -51 51zM557 125c0 28 23 51 51 51s51 -23 51 -51s-23 -51 -51 -51s-51 23 -51 51zM232 263c172 0 293 -88 293 -251c0 -263 -263 -414 -516 -521c-3 -3 -6 -4 -9 -4c-7 0 -13 6 -13 13c0 3 1 6 4 9
c202 118 412 265 412 493c0 120 -63 235 -171 235c-74 0 -129 -54 -154 -126c11 5 22 8 34 8c55 0 100 -45 100 -100c0 -58 -44 -106 -100 -106c-60 0 -112 47 -112 106c0 133 102 244 232 244z" fill="currentColor"/>
<text transform="translate(2.7179, 8.8762)" font-family="serif" font-style="italic" font-size="1.3860" text-anchor="start" fill="currentColor">
<tspan>
8</tspan>
</text>
<path transform="translate(6.4226, 5.6141) scale(0.0040, -0.0040)" d="M359 27c-49 0 -75 42 -75 75c0 38 27 77 72 77c4 0 9 0 14 -1c-28 37 -72 59 -120 59c-106 0 -113 -73 -113 -186v-51v-51c0 -113 7 -187 113 -187c80 0 139 70 158 151c2 7 7 10 12 10c6 0 13 -4 13 -12c0 -94 -105 -174 -183 -174c-68 0 -137 21 -184 70
c-49 51 -66 122 -66 193s17 142 66 193c47 49 116 69 184 69c87 0 160 -64 175 -150c1 -5 1 -9 1 -13c0 -40 -30 -72 -67 -72z" fill="currentColor"/>
<a style="color:inherit;" xlink:href="textedit:///home/ryan/projects/lilypond-in-markdown/_lilypond/95690fed6224476c9aaf4fc8de344336.ly:18:29:30">
<path transform="translate(17.6353, 3.6141) scale(0.0040, -0.0040)" d="M218 136c55 0 108 -28 108 -89c0 -71 -55 -121 -102 -149c-35 -21 -75 -34 -116 -34c-55 0 -108 28 -108 89c0 71 55 121 102 149c35 21 75 34 116 34z" fill="currentColor"/>
</a>
<a style="color:inherit;" xlink:href="textedit:///home/ryan/projects/lilypond-in-markdown/_lilypond/95690fed6224476c9aaf4fc8de344336.ly:19:29:30">
<path transform="translate(27.6521, 3.6141) scale(0.0040, -0.0040)" d="M218 136c55 0 108 -28 108 -89c0 -71 -55 -121 -102 -149c-35 -21 -75 -34 -116 -34c-55 0 -108 28 -108 89c0 71 55 121 102 149c35 21 75 34 116 34z" fill="currentColor"/>
</a>
<rect transform="translate(22.7087, 5.6141)" x="-0.0650" y="-1.3139" width="0.1300" height="4.8139" ry="0.0400" fill="currentColor"/>
<rect transform="translate(27.7171, 5.6141)" x="-0.0650" y="-1.8139" width="0.1300" height="5.3139" ry="0.0400" fill="currentColor"/>
<a style="color:inherit;" xlink:href="textedit:///home/ryan/projects/lilypond-in-markdown/_lilypond/95690fed6224476c9aaf4fc8de344336.ly:19:15:16">
<path transform="translate(22.6437, 4.1141) scale(0.0040, -0.0040)" d="M218 136c55 0 108 -28 108 -89c0 -71 -55 -121 -102 -149c-35 -21 -75 -34 -116 -34c-55 0 -108 28 -108 89c0 71 55 121 102 149c35 21 75 34 116 34z" fill="currentColor"/>
</a>
<a style="color:inherit;" xlink:href="textedit:///home/ryan/projects/lilypond-in-markdown/_lilypond/95690fed6224476c9aaf4fc8de344336.ly:19:20:21">
<path transform="translate(25.1479, 6.1141) scale(0.0040, -0.0040)" d="M218 136c55 0 108 -28 108 -89c0 -71 -55 -121 -102 -149c-35 -21 -75 -34 -116 -34c-55 0 -108 28 -108 89c0 71 55 121 102 149c35 21 75 34 116 34z" fill="currentColor"/>
</a>
<a style="color:inherit;" xlink:href="textedit:///home/ryan/projects/lilypond-in-markdown/_lilypond/95690fed6224476c9aaf4fc8de344336.ly:19:22:23">
<path transform="translate(25.1479, 3.6141) scale(0.0040, -0.0040)" d="M218 136c55 0 108 -28 108 -89c0 -71 -55 -121 -102 -149c-35 -21 -75 -34 -116 -34c-55 0 -108 28 -108 89c0 71 55 121 102 149c35 21 75 34 116 34z" fill="currentColor"/>
</a>
<a style="color:inherit;" xlink:href="textedit:///home/ryan/projects/lilypond-in-markdown/_lilypond/95690fed6224476c9aaf4fc8de344336.ly:19:27:28">
<path transform="translate(27.6521, 6.1141) scale(0.0040, -0.0040)" d="M218 136c55 0 108 -28 108 -89c0 -71 -55 -121 -102 -149c-35 -21 -75 -34 -116 -34c-55 0 -108 28 -108 89c0 71 55 121 102 149c35 21 75 34 116 34z" fill="currentColor"/>
</a>
<rect transform="translate(25.2129, 5.6141)" x="-0.0650" y="-1.8139" width="0.1300" height="5.3139" ry="0.0400" fill="currentColor"/>
<a style="color:inherit;" xlink:href="textedit:///home/ryan/projects/lilypond-in-markdown/_lilypond/95690fed6224476c9aaf4fc8de344336.ly:20:5:6">
<path transform="translate(31.2249, 4.6141) scale(0.0040, -0.0040)" d="M218 136c55 0 108 -28 108 -89c0 -71 -55 -121 -102 -149c-35 -21 -75 -34 -116 -34c-55 0 -108 28 -108 89c0 71 55 121 102 149c35 21 75 34 116 34z" fill="currentColor"/>
</a>
<a style="color:inherit;" xlink:href="textedit:///home/ryan/projects/lilypond-in-markdown/_lilypond/95690fed6224476c9aaf4fc8de344336.ly:19:5:6">
<path transform="translate(20.1395, 6.1141) scale(0.0040, -0.0040)" d="M218 136c55 0 108 -28 108 -89c0 -71 -55 -121 -102 -149c-35 -21 -75 -34 -116 -34c-55 0 -108 28 -108 89c0 71 55 121 102 149c35 21 75 34 116 34z" fill="currentColor"/>
</a>
<a style="color:inherit;" xlink:href="textedit:///home/ryan/projects/lilypond-in-markdown/_lilypond/95690fed6224476c9aaf4fc8de344336.ly:19:7:8">
<path transform="translate(20.1395, 4.1141) scale(0.0040, -0.0040)" d="M218 136c55 0 108 -28 108 -89c0 -71 -55 -121 -102 -149c-35 -21 -75 -34 -116 -34c-55 0 -108 28 -108 89c0 71 55 121 102 149c35 21 75 34 116 34z" fill="currentColor"/>
</a>
<rect transform="translate(20.2045, 5.6141)" x="-0.0650" y="-1.3139" width="0.1300" height="4.8139" ry="0.0400" fill="currentColor"/>
<a style="color:inherit;" xlink:href="textedit:///home/ryan/projects/lilypond-in-markdown/_lilypond/95690fed6224476c9aaf4fc8de344336.ly:19:13:14">
<path transform="translate(22.6437, 6.1141) scale(0.0040, -0.0040)" d="M218 136c55 0 108 -28 108 -89c0 -71 -55 -121 -102 -149c-35 -21 -75 -34 -116 -34c-55 0 -108 28 -108 89c0 71 55 121 102 149c35 21 75 34 116 34z" fill="currentColor"/>
</a>
</svg>
