<svg xmlns:xlink="http://www.w3.org/1999/xlink" version="1.2" viewBox="0 0 43.866 10.512"><path stroke="currentColor" stroke-linecap="round" stroke-linejoin="round" stroke-width=".143" d="M.071 6.5h43.724M.071 5.5h43.724M.071 4.5h43.724M.071 3.5h43.724M.071 2.5h43.724"/><a color="inherit"><path fill="currentColor" d="M28.148 5.74a.168.168 0 0 0-.168-.164c-.016 0-.032 0-.048.004-.124.036-.312.16-.46.256s-.336.212-.416.312a.168.168 0 0 0 .128.276c.016 0 .032 0 .048-.004.124-.036.308-.16.456-.256s.336-.212.416-.312a.172.172 0 0 0 .044-.112zm-.208-.284c.184 0 .328.084.328.284a.739.739 0 0 1-.04.228.71.71 0 0 1-.256.376c-.212.144-.452.2-.748.2-.184 0-.332-.084-.332-.284 0-.076.02-.156.044-.228a.703.703 0 0 1 .252-.376c.212-.144.456-.2.752-.2z"/></a><a color="inherit"><text fill="currentColor" font-family="serif" font-size="2.47" transform="translate(36.774 10)"><tspan> a</tspan></text></a><a color="inherit"><path fill="currentColor" d="M37.646 5.456c.22 0 .432.112.432.356 0 .284-.22.484-.408.596a.908.908 0 0 1-.464.136c-.22 0-.432-.112-.432-.356 0-.284.22-.484.408-.596.14-.084.3-.136.464-.136z"/></a><a color="inherit"><path fill="currentColor" d="M35.842 5.456c.22 0 .432.112.432.356 0 .284-.22.484-.408.596a.908.908 0 0 1-.464.136c-.22 0-.432-.112-.432-.356 0-.284.22-.484.408-.596.14-.084.3-.136.464-.136z"/></a><a color="inherit"><text fill="currentColor" font-family="serif" font-size="2.47" transform="translate(31.43 10)"><tspan> sit</tspan></text></a><a color="inherit"><path fill="currentColor" d="M32.303 4.956c.22 0 .432.112.432.356 0 .284-.22.484-.408.596a.908.908 0 0 1-.464.136c-.22 0-.432-.112-.432-.356 0-.284.22-.484.408-.596.14-.084.3-.136.464-.136z"/></a><a color="inherit"><rect width=".143" height="3" y="-1.5" fill="currentColor" ry=".04" transform="translate(30.288 4.5)"/></a><a color="inherit"><text fill="currentColor" font-family="serif" font-size="2.47" transform="translate(25.874 10)"><tspan> lor</tspan></text></a><a color="inherit"><path fill="currentColor" stroke="currentColor" stroke-linecap="round" stroke-linejoin="round" stroke-width=".114" d="M32.04 6.695c.802.945 2.567 1.12 3.539.35h0c-.955.6-2.72.425-3.539-.35z"/></a><a color="inherit"><path fill="currentColor" stroke="currentColor" stroke-linecap="round" stroke-linejoin="round" stroke-width=".114" d="M37.502 7.045c.645.456 1.52.3 1.968-.35h0c-.478.482-1.353.637-1.968.35z"/></a><a color="inherit"><rect width=".463" height=".186" y="-.606" fill="currentColor" ry=".057" transform="translate(38.312 10)"/></a><a color="inherit"><rect width=".143" height="4" y="-2" fill="currentColor" ry=".04" transform="translate(43.724 4.5)"/><rect width=".143" height="4" y="-2" fill="currentColor" ry=".04" transform="translate(43.224 4.5)"/></a><a color="inherit"><text fill="currentColor" font-family="serif" font-size="2.47" transform="translate(38.845 10)"><tspan> met</tspan></text></a><a color="inherit"><path fill="currentColor" d="M41.802 4.74a.168.168 0 0 0-.168-.164c-.016 0-.032 0-.048.004-.124.036-.312.16-.46.256s-.336.212-.416.312a.168.168 0 0 0 .128.276c.016 0 .032 0 .048-.004.124-.036.308-.16.456-.256s.336-.212.416-.312a.172.172 0 0 0 .044-.112zm-.208-.284c.184 0 .328.084.328.284a.739.739 0 0 1-.04.228.71.71 0 0 1-.256.376c-.212.144-.452.2-.748.2-.184 0-.332-.084-.332-.284 0-.076.02-.156.044-.228a.703.703 0 0 1 .252-.376c.212-.144.456-.2.752-.2z"/></a><a color="inherit"><path fill="currentColor" d="M39.614 4.956c.22 0 .432.112.432.356 0 .284-.22.484-.408.596a.908.908 0 0 1-.464.136c-.22 0-.432-.112-.432-.356 0-.284.22-.484.408-.596.14-.084.3-.136.464-.136z"/></a><a color="inherit"><text fill="currentColor" font-family="serif" font-size="2.47" transform="translate(14.673 10)"><tspan> ip</tspan></text></a><a color="inherit"><path fill="currentColor" d="M16.071 4.956c.22 0 .432.112.432.356 0 .284-.22.484-.408.596a.908.908 0 0 1-.464.136c-.22 0-.432-.112-.432-.356 0-.284.22-.484.408-.596.14-.084.3-.136.464-.136z"/></a><a color="inherit"><text fill="currentColor" font-family="serif" font-size="2.47" transform="translate(8.106 10)"><tspan> rem</tspan></text></a><a color="inherit"><path fill="currentColor" d="M11.148 4.74a.168.168 0 0 0-.168-.164c-.016 0-.032 0-.048.004-.124.036-.312.16-.46.256s-.336.212-.416.312a.168.168 0 0 0 .128.276c.016 0 .032 0 .048-.004.124-.036.308-.16.456-.256s.336-.212.416-.312a.172.172 0 0 0 .044-.112zm-.208-.284c.184 0 .328.084.328.284a.739.739 0 0 1-.04.228.71.71 0 0 1-.256.376c-.212.144-.452.2-.748.2-.184 0-.332-.084-.332-.284 0-.076.02-.156.044-.228a.703.703 0 0 1 .252-.376c.212-.144.456-.2.752-.2z"/></a><a color="inherit"><rect width=".143" height="1" y="-.5" fill="currentColor" ry=".04" transform="translate(14.056 2.5)"/></a><a color="inherit"><text fill="currentColor" font-family="serif" font-size="2.47" transform="translate(4.899 10)"><tspan> Lo</tspan></text></a><path fill="currentColor" d="M2.304 4.452c.016 0 .036-.004.052-.004.62 0 1.024.512 1.024 1.044 0 .304-.132.616-.428.84a.905.905 0 0 1-.292.144c.012.14.02.28.02.42 0 .076-.004.156-.008.232-.028.48-.36.912-.832.912a.783.783 0 0 1-.78-.788c0-.232.212-.412.448-.412.216 0 .38.188.38.412 0 .208-.172.38-.38.38a.326.326 0 0 1-.124-.024c.104.156.272.26.468.26.384 0 .628-.368.652-.764a3.775 3.775 0 0 0-.008-.588c-.116.02-.232.032-.356.032-.752 0-1.332-.688-1.332-1.496 0-.708.524-1.224.992-1.764a4.47 4.47 0 0 1-.18-.76 5.429 5.429 0 0 1-.028-.624c0-.46.22-.896.596-1.168a.077.077 0 0 1 .04-.012c.016 0 .028 0 .04.012.284.336.532.98.532 1.432 0 .572-.344 1.02-.72 1.456.084.272.156.552.224.828zm.34 1.86a.71.71 0 0 0 .452-.656.764.764 0 0 0-.692-.76c.096.464.184.924.24 1.416zm-1.548-.924c0 .54.516.988 1.056.988.112 0 .22-.008.328-.024-.056-.508-.148-.98-.252-1.456-.316.032-.496.244-.496.476 0 .176.1.364.324.492.02.02.028.04.028.06 0 .044-.04.088-.088.088-.012 0-.024-.004-.036-.008-.32-.172-.468-.46-.468-.74 0-.352.232-.696.64-.788a15.048 15.048 0 0 0-.184-.7c-.428.484-.852.972-.852 1.612zM2.432 1.32a1.153 1.153 0 0 0-.648 1.036c0 .296.072.532.144.776.32-.388.584-.792.584-1.296 0-.22-.016-.316-.08-.516z"/><a color="inherit"><path fill="currentColor" d="M6.672 5.456c.22 0 .432.112.432.356 0 .284-.22.484-.408.596a.908.908 0 0 1-.464.136c-.22 0-.432-.112-.432-.356 0-.284.22-.484.408-.596.14-.084.3-.136.464-.136z"/></a><a color="inherit"><text fill="currentColor" font-family="serif" font-size="2.47" transform="translate(17.13 10)"><tspan> sum</tspan></text></a><a color="inherit"><path fill="currentColor" d="M19.927 3.956c.22 0 .432.112.432.356 0 .284-.22.484-.408.596a.908.908 0 0 1-.464.136c-.22 0-.432-.112-.432-.356 0-.284.22-.484.408-.596.14-.084.3-.136.464-.136z"/></a><a color="inherit"><path fill="currentColor" d="M24.822 4.74a.168.168 0 0 0-.168-.164c-.016 0-.032 0-.048.004-.124.036-.312.16-.46.256s-.336.212-.416.312a.168.168 0 0 0 .128.276c.016 0 .032 0 .048-.004.124-.036.308-.16.456-.256s.336-.212.416-.312a.172.172 0 0 0 .044-.112zm-.208-.284c.184 0 .328.084.328.284a.739.739 0 0 1-.04.228.71.71 0 0 1-.256.376c-.212.144-.452.2-.748.2-.184 0-.332-.084-.332-.284 0-.076.02-.156.044-.228a.703.703 0 0 1 .252-.376c.212-.144.456-.2.752-.2z"/></a><a color="inherit"><text fill="currentColor" font-family="serif" font-size="2.47" transform="translate(22.735 10)"><tspan> do</tspan></text></a></svg>