<svg xmlns="http://www.w3.org/2000/svg" xmlns:xlink="http://www.w3.org/1999/xlink" version="1.2" width="77.09mm" height="18.47mm" viewBox="0.0000 -0.0000 43.8664 10.5121">
<line transform="translate(0.0000, 6.5000)" stroke-linejoin="round" stroke-linecap="round" stroke-width="0.1429" stroke="currentColor" x1="0.0714" y1="-0.0000" x2="43.7950" y2="-0.0000"/>
<line transform="translate(0.0000, 5.5000)" stroke-linejoin="round" stroke-linecap="round" stroke-width="0.1429" stroke="currentColor" x1="0.0714" y1="-0.0000" x2="43.7950" y2="-0.0000"/>
<line transform="translate(0.0000, 4.5000)" stroke-linejoin="round" stroke-linecap="round" stroke-width="0.1429" stroke="currentColor" x1="0.0714" y1="-0.0000" x2="43.7950" y2="-0.0000"/>
<line transform="translate(0.0000, 3.5000)" stroke-linejoin="round" stroke-linecap="round" stroke-width="0.1429" stroke="currentColor" x1="0.0714" y1="-0.0000" x2="43.7950" y2="-0.0000"/>
<line transform="translate(0.0000, 2.5000)" stroke-linejoin="round" stroke-linecap="round" stroke-width="0.1429" stroke="currentColor" x1="0.0714" y1="-0.0000" x2="43.7950" y2="-0.0000"/>
<a style="color:inherit;" xlink:href="textedit:///home/ryan/projects/lilypond-in-markdown/_lilypond/cb626c524249f8fad6b40c2f39335713.ly:20:10:11">
<path transform="translate(26.8922, 6.0000) scale(0.0040, -0.0040)" d="M314 65c0 24 -21 41 -42 41c-4 0 -8 0 -12 -1c-31 -9 -78 -40 -115 -64s-84 -53 -104 -78c-7 -8 -10 -18 -10 -28c0 -24 21 -41 42 -41c4 0 8 0 12 1c31 9 77 40 114 64s84 53 104 78c7 8 11 18 11 28zM262 136c46 0 82 -21 82 -71c0 -19 -4 -39 -10 -57
c-12 -37 -32 -72 -64 -94c-53 -36 -113 -50 -187 -50c-46 0 -83 21 -83 71c0 19 5 39 11 57c12 37 31 72 63 94c53 36 114 50 188 50z" fill="currentColor"/>
</a>
<a style="color:inherit;" xlink:href="textedit:///home/ryan/projects/lilypond-in-markdown/_lilypond/cb626c524249f8fad6b40c2f39335713.ly:25:36:37">
<text transform="translate(36.7739, 10.0000)" font-family="serif" font-size="2.4696" text-anchor="start" fill="currentColor">
<tspan>
a</tspan>
</text>
</a>
<a style="color:inherit;" xlink:href="textedit:///home/ryan/projects/lilypond-in-markdown/_lilypond/cb626c524249f8fad6b40c2f39335713.ly:21:9:10">
<path transform="translate(36.7739, 6.0000) scale(0.0040, -0.0040)" d="M218 136c55 0 108 -28 108 -89c0 -71 -55 -121 -102 -149c-35 -21 -75 -34 -116 -34c-55 0 -108 28 -108 89c0 71 55 121 102 149c35 21 75 34 116 34z" fill="currentColor"/>
</a>
<a style="color:inherit;" xlink:href="textedit:///home/ryan/projects/lilypond-in-markdown/_lilypond/cb626c524249f8fad6b40c2f39335713.ly:21:6:7">
<path transform="translate(34.9696, 6.0000) scale(0.0040, -0.0040)" d="M218 136c55 0 108 -28 108 -89c0 -71 -55 -121 -102 -149c-35 -21 -75 -34 -116 -34c-55 0 -108 28 -108 89c0 71 55 121 102 149c35 21 75 34 116 34z" fill="currentColor"/>
</a>
<a style="color:inherit;" xlink:href="textedit:///home/ryan/projects/lilypond-in-markdown/_lilypond/cb626c524249f8fad6b40c2f39335713.ly:25:32:33">
<text transform="translate(31.4309, 10.0000)" font-family="serif" font-size="2.4696" text-anchor="start" fill="currentColor">
<tspan>
sit</tspan>
</text>
</a>
<a style="color:inherit;" xlink:href="textedit:///home/ryan/projects/lilypond-in-markdown/_lilypond/cb626c524249f8fad6b40c2f39335713.ly:21:2:3">
<path transform="translate(31.4309, 5.5000) scale(0.0040, -0.0040)" d="M218 136c55 0 108 -28 108 -89c0 -71 -55 -121 -102 -149c-35 -21 -75 -34 -116 -34c-55 0 -108 28 -108 89c0 71 55 121 102 149c35 21 75 34 116 34z" fill="currentColor"/>
</a>
<a style="color:inherit;" xlink:href="textedit:///home/ryan/lilypond/usr/share/lilypond/current/ly/gregorian.ly:118:2:3">
<rect transform="translate(30.2880, 4.5000)" x="0.0000" y="-1.5000" width="0.1429" height="3.0000" ry="0.0400" fill="currentColor"/>
</a>
<a style="color:inherit;" xlink:href="textedit:///home/ryan/projects/lilypond-in-markdown/_lilypond/cb626c524249f8fad6b40c2f39335713.ly:25:28:29">
<text transform="translate(25.8737, 10.0000)" font-family="serif" font-size="2.4696" text-anchor="start" fill="currentColor">
<tspan>
lor</tspan>
</text>
</a>
<a style="color:inherit;" xlink:href="textedit:///home/ryan/projects/lilypond-in-markdown/_lilypond/cb626c524249f8fad6b40c2f39335713.ly:21:4:5">
<path transform="translate(31.4309, 4.5000)" stroke-width="0.1143" stroke-linejoin="round" stroke-linecap="round" stroke="currentColor" fill="currentColor" d="M0.6093 2.1950C1.4116 3.1404 3.1761 3.3149 4.1481 2.5450L4.1481 2.5450C3.1930 3.1443 1.4285 2.9698 0.6093 2.1950z"/>
</a>
<a style="color:inherit;" xlink:href="textedit:///home/ryan/projects/lilypond-in-markdown/_lilypond/cb626c524249f8fad6b40c2f39335713.ly:21:10:11">
<path transform="translate(36.7739, 4.5000)" stroke-width="0.1143" stroke-linejoin="round" stroke-linecap="round" stroke="currentColor" fill="currentColor" d="M0.7282 2.5450C1.3734 3.0010 2.2480 2.8455 2.6964 2.1950L2.6964 2.1950C2.2180 2.6767 1.3433 2.8323 0.7282 2.5450z"/>
</a>
<a style="color:inherit;" xlink:href="textedit:///home/ryan/projects/lilypond-in-markdown/_lilypond/cb626c524249f8fad6b40c2f39335713.ly:25:38:39">
<rect transform="translate(38.3120, 10.0000)" x="0.0000" y="-0.6057" width="0.4629" height="0.1857" ry="0.0571" fill="currentColor"/>
</a>
<a style="color:inherit;" xlink:href="textedit:///home/ryan/lilypond/usr/share/lilypond/current/ly/gregorian.ly:138:2:3">
<rect transform="translate(43.7236, 4.5000)" x="0.0000" y="-2.0000" width="0.1429" height="4.0000" ry="0.0400" fill="currentColor"/>
<rect transform="translate(43.2236, 4.5000)" x="0.0000" y="-2.0000" width="0.1429" height="4.0000" ry="0.0400" fill="currentColor"/>
</a>
<a style="color:inherit;" xlink:href="textedit:///home/ryan/projects/lilypond-in-markdown/_lilypond/cb626c524249f8fad6b40c2f39335713.ly:25:41:42">
<text transform="translate(38.8449, 10.0000)" font-family="serif" font-size="2.4696" text-anchor="start" fill="currentColor">
<tspan>
met</tspan>
</text>
</a>
<a style="color:inherit;" xlink:href="textedit:///home/ryan/projects/lilypond-in-markdown/_lilypond/cb626c524249f8fad6b40c2f39335713.ly:21:15:16">
<path transform="translate(40.5462, 5.0000) scale(0.0040, -0.0040)" d="M314 65c0 24 -21 41 -42 41c-4 0 -8 0 -12 -1c-31 -9 -78 -40 -115 -64s-84 -53 -104 -78c-7 -8 -10 -18 -10 -28c0 -24 21 -41 42 -41c4 0 8 0 12 1c31 9 77 40 114 64s84 53 104 78c7 8 11 18 11 28zM262 136c46 0 82 -21 82 -71c0 -19 -4 -39 -10 -57
c-12 -37 -32 -72 -64 -94c-53 -36 -113 -50 -187 -50c-46 0 -83 21 -83 71c0 19 5 39 11 57c12 37 31 72 63 94c53 36 114 50 188 50z" fill="currentColor"/>
</a>
<a style="color:inherit;" xlink:href="textedit:///home/ryan/projects/lilypond-in-markdown/_lilypond/cb626c524249f8fad6b40c2f39335713.ly:21:12:13">
<path transform="translate(38.7420, 5.5000) scale(0.0040, -0.0040)" d="M218 136c55 0 108 -28 108 -89c0 -71 -55 -121 -102 -149c-35 -21 -75 -34 -116 -34c-55 0 -108 28 -108 89c0 71 55 121 102 149c35 21 75 34 116 34z" fill="currentColor"/>
</a>
<a style="color:inherit;" xlink:href="textedit:///home/ryan/projects/lilypond-in-markdown/_lilypond/cb626c524249f8fad6b40c2f39335713.ly:25:12:13">
<text transform="translate(14.6734, 10.0000)" font-family="serif" font-size="2.4696" text-anchor="start" fill="currentColor">
<tspan>
ip</tspan>
</text>
</a>
<a style="color:inherit;" xlink:href="textedit:///home/ryan/projects/lilypond-in-markdown/_lilypond/cb626c524249f8fad6b40c2f39335713.ly:20:2:3">
<path transform="translate(15.1993, 5.5000) scale(0.0040, -0.0040)" d="M218 136c55 0 108 -28 108 -89c0 -71 -55 -121 -102 -149c-35 -21 -75 -34 -116 -34c-55 0 -108 28 -108 89c0 71 55 121 102 149c35 21 75 34 116 34z" fill="currentColor"/>
</a>
<a style="color:inherit;" xlink:href="textedit:///home/ryan/projects/lilypond-in-markdown/_lilypond/cb626c524249f8fad6b40c2f39335713.ly:25:8:9">
<text transform="translate(8.1056, 10.0000)" font-family="serif" font-size="2.4696" text-anchor="start" fill="currentColor">
<tspan>
rem</tspan>
</text>
</a>
<a style="color:inherit;" xlink:href="textedit:///home/ryan/projects/lilypond-in-markdown/_lilypond/cb626c524249f8fad6b40c2f39335713.ly:19:5:6">
<path transform="translate(9.8923, 5.0000) scale(0.0040, -0.0040)" d="M314 65c0 24 -21 41 -42 41c-4 0 -8 0 -12 -1c-31 -9 -78 -40 -115 -64s-84 -53 -104 -78c-7 -8 -10 -18 -10 -28c0 -24 21 -41 42 -41c4 0 8 0 12 1c31 9 77 40 114 64s84 53 104 78c7 8 11 18 11 28zM262 136c46 0 82 -21 82 -71c0 -19 -4 -39 -10 -57
c-12 -37 -32 -72 -64 -94c-53 -36 -113 -50 -187 -50c-46 0 -83 21 -83 71c0 19 5 39 11 57c12 37 31 72 63 94c53 36 114 50 188 50z" fill="currentColor"/>
</a>
<a style="color:inherit;" xlink:href="textedit:///home/ryan/lilypond/usr/share/lilypond/current/ly/gregorian.ly:108:2:3">
<rect transform="translate(14.0564, 2.5000)" x="0.0000" y="-0.5000" width="0.1429" height="1.0000" ry="0.0400" fill="currentColor"/>
</a>
<a style="color:inherit;" xlink:href="textedit:///home/ryan/projects/lilypond-in-markdown/_lilypond/cb626c524249f8fad6b40c2f39335713.ly:25:2:3">
<text transform="translate(4.8986, 10.0000)" font-family="serif" font-size="2.4696" text-anchor="start" fill="currentColor">
<tspan>
Lo</tspan>
</text>
</a>
<path transform="translate(0.8000, 5.5000) scale(0.0040, -0.0040)" d="M376 262c4 0 9 1 13 1c155 0 256 -128 256 -261c0 -76 -33 -154 -107 -210c-22 -17 -47 -28 -73 -36c3 -35 5 -70 5 -105c0 -19 -1 -39 -2 -58c-7 -120 -90 -228 -208 -228c-108 0 -195 88 -195 197c0 58 53 103 112 103c54 0 95 -47 95 -103c0 -52 -43 -95 -95 -95
c-11 0 -21 2 -31 6c26 -39 68 -65 117 -65c96 0 157 92 163 191c1 18 2 37 2 55c0 31 -1 61 -4 92c-29 -5 -58 -8 -89 -8c-188 0 -333 172 -333 374c0 177 131 306 248 441c-19 62 -37 125 -45 190c-6 52 -7 104 -7 156c0 115 55 224 149 292c3 2 7 3 10 3c4 0 7 0 10 -3
c71 -84 133 -245 133 -358c0 -143 -86 -255 -180 -364c21 -68 39 -138 56 -207zM461 -203c68 24 113 95 113 164c0 90 -66 179 -173 190c24 -116 46 -231 60 -354zM74 28c0 -135 129 -247 264 -247c28 0 55 2 82 6c-14 127 -37 245 -63 364c-79 -8 -124 -61 -124 -119
c0 -44 25 -91 81 -123c5 -5 7 -10 7 -15c0 -11 -10 -22 -22 -22c-3 0 -6 1 -9 2c-80 43 -117 115 -117 185c0 88 58 174 160 197c-14 58 -29 117 -46 175c-107 -121 -213 -243 -213 -403zM408 1045c-99 -48 -162 -149 -162 -259c0 -74 18 -133 36 -194
c80 97 146 198 146 324c0 55 -4 79 -20 129z" fill="currentColor"/>
<a style="color:inherit;" xlink:href="textedit:///home/ryan/projects/lilypond-in-markdown/_lilypond/cb626c524249f8fad6b40c2f39335713.ly:19:2:3">
<path transform="translate(5.8000, 6.0000) scale(0.0040, -0.0040)" d="M218 136c55 0 108 -28 108 -89c0 -71 -55 -121 -102 -149c-35 -21 -75 -34 -116 -34c-55 0 -108 28 -108 89c0 71 55 121 102 149c35 21 75 34 116 34z" fill="currentColor"/>
</a>
<a style="color:inherit;" xlink:href="textedit:///home/ryan/projects/lilypond-in-markdown/_lilypond/cb626c524249f8fad6b40c2f39335713.ly:25:18:19">
<text transform="translate(17.1293, 10.0000)" font-family="serif" font-size="2.4696" text-anchor="start" fill="currentColor">
<tspan>
sum</tspan>
</text>
</a>
<a style="color:inherit;" xlink:href="textedit:///home/ryan/projects/lilypond-in-markdown/_lilypond/cb626c524249f8fad6b40c2f39335713.ly:20:5:6">
<path transform="translate(19.0550, 4.5000) scale(0.0040, -0.0040)" d="M218 136c55 0 108 -28 108 -89c0 -71 -55 -121 -102 -149c-35 -21 -75 -34 -116 -34c-55 0 -108 28 -108 89c0 71 55 121 102 149c35 21 75 34 116 34z" fill="currentColor"/>
</a>
<a style="color:inherit;" xlink:href="textedit:///home/ryan/projects/lilypond-in-markdown/_lilypond/cb626c524249f8fad6b40c2f39335713.ly:20:7:8">
<path transform="translate(23.5657, 5.0000) scale(0.0040, -0.0040)" d="M314 65c0 24 -21 41 -42 41c-4 0 -8 0 -12 -1c-31 -9 -78 -40 -115 -64s-84 -53 -104 -78c-7 -8 -10 -18 -10 -28c0 -24 21 -41 42 -41c4 0 8 0 12 1c31 9 77 40 114 64s84 53 104 78c7 8 11 18 11 28zM262 136c46 0 82 -21 82 -71c0 -19 -4 -39 -10 -57
c-12 -37 -32 -72 -64 -94c-53 -36 -113 -50 -187 -50c-46 0 -83 21 -83 71c0 19 5 39 11 57c12 37 31 72 63 94c53 36 114 50 188 50z" fill="currentColor"/>
</a>
<a style="color:inherit;" xlink:href="textedit:///home/ryan/projects/lilypond-in-markdown/_lilypond/cb626c524249f8fad6b40c2f39335713.ly:25:22:23">
<text transform="translate(22.7350, 10.0000)" font-family="serif" font-size="2.4696" text-anchor="start" fill="currentColor">
<tspan>
do</tspan>
</text>
</a>
</svg>
