<svg xmlns:xlink="http://www.w3.org/1999/xlink" version="1.2" viewBox="0 0 108.121 56.906"><text fill="currentColor" font-family="serif" font-size="2.2" transform="translate(5.122 1.138)"></text><text fill="currentColor" font-family="serif" font-size="3.493" font-weight="bold" transform="translate(21.624 4.938)"><tspan> Wenn wir in höchsten Nöten sein</tspan></text><text fill="currentColor" font-family="serif" font-size="2.47" font-weight="bold" transform="translate(16.64 8.438)"><tspan> Analysis from Gene Biringer&apos;s Schenker Text, Ex. 5-27</tspan></text><text fill="currentColor" font-family="serif" font-size="2.2" transform="translate(93.268 11.938)"><tspan> J.S. Bach</tspan></text><path stroke="currentColor" stroke-linecap="round" stroke-linejoin="round" stroke-width=".1" d="M5.171 28.552h97.779M5.171 27.552h97.779M5.171 26.552h97.779M5.171 25.552h97.779M5.171 24.552h97.779"/><rect width="1.956" height=".2" x="80.049" y="-.1" fill="currentColor" ry=".1" transform="translate(5.122 41.589)"/><path stroke="currentColor" stroke-linecap="round" stroke-linejoin="round" stroke-width=".1" d="M5.171 40.589h97.779M5.171 39.589h97.779M5.171 38.589h97.779M5.171 37.589h97.779M5.171 36.589h97.779"/><rect width=".6" height="4.05" y="-2" fill="currentColor" ry="0" transform="translate(102.399 26.552)"/><rect width=".19" height="4.05" y="-2" fill="currentColor" ry="0" transform="translate(101.909 26.552)"/><rect width=".6" height="4.05" y="-2.05" fill="currentColor" ry="0" transform="translate(102.399 38.589)"/><rect width=".19" height="4.05" y="-2.05" fill="currentColor" ry="0" transform="translate(101.909 38.589)"/><rect width=".6" height="7.987" y="13.72" fill="currentColor" ry="0" transform="translate(102.399 14.882)"/><rect width=".19" height="7.987" y="13.72" fill="currentColor" ry="0" transform="translate(101.909 14.882)"/><rect width=".13" height="5" x="-.065" y=".686" fill="currentColor" ry=".04" transform="translate(69.136 38.589)"/><path fill="currentColor" d="M69.2 44.235h-.063v-1h.064v1zm0 0v-1c.389-.236.897-.592.897-1.036 0-.228-.06-.448-.16-.652-.012-.064.04-.108.092-.108.028 0 .06.012.08.044.1.224.16.468.16.716 0 .812-1.068 1.224-1.068 2.036z"/><a color="inherit"><path fill="currentColor" d="M69.943 38.545c.22 0 .432.112.432.356 0 .284-.22.484-.408.596a.908.908 0 0 1-.464.136c-.22 0-.432-.112-.432-.356 0-.284.22-.484.408-.596.14-.084.3-.136.464-.136z"/></a><rect width=".13" height="8.241" x="-.065" y="-8" fill="currentColor" ry=".04" transform="translate(71.76 26.552)"/><a color="inherit"><text fill="currentColor" color="#00F" font-family="serif" font-size="1.746" transform="translate(79.747 31.445)"><tspan> P</tspan></text></a><rect width=".13" height="7.814" x="-.065" y=".186" fill="currentColor" ry=".04" transform="translate(79.812 38.589)"/><a color="inherit"><path fill="currentColor" d="M81.003 38.329a.168.168 0 0 0-.168-.164c-.016 0-.032 0-.048.004-.124.036-.312.16-.46.256s-.336.212-.416.312a.168.168 0 0 0 .128.276c.016 0 .032 0 .048-.004.124-.036.308-.16.456-.256s.336-.212.416-.312a.172.172 0 0 0 .044-.112zm-.208-.284c.184 0 .328.084.328.284a.739.739 0 0 1-.04.228.71.71 0 0 1-.256.376c-.212.144-.452.2-.748.2-.184 0-.332-.084-.332-.284 0-.076.02-.156.044-.228a.703.703 0 0 1 .252-.376c.212-.144.456-.2.752-.2z"/></a><a color="inherit"><text fill="currentColor" color="#7CFC00" font-family="serif" font-size="2.2" font-weight="bold" transform="translate(79.747 48.893)"><tspan> V</tspan></text></a><a color="inherit"><path fill="currentColor" d="M80.619 26.008c.22 0 .432.112.432.356 0 .284-.22.484-.408.596a.908.908 0 0 1-.464.136c-.22 0-.432-.112-.432-.356 0-.284.22-.484.408-.596.14-.084.3-.136.464-.136z"/></a><a color="inherit"><path fill="currentColor" d="M75.818 39.545c.22 0 .432.112.432.356 0 .284-.22.484-.408.596a.908.908 0 0 1-.464.136c-.22 0-.432-.112-.432-.356 0-.284.22-.484.408-.596.14-.084.3-.136.464-.136z"/></a><a color="inherit"><path fill="currentColor" d="M75.818 25.508c.22 0 .432.112.432.356 0 .284-.22.484-.408.596a.908.908 0 0 1-.464.136c-.22 0-.432-.112-.432-.356 0-.284.22-.484.408-.596.14-.084.3-.136.464-.136z"/></a><rect width=".13" height="7" x="-.065" y="-7.186" fill="currentColor" ry=".04" transform="translate(56.08 26.552)"/><a color="inherit"><path fill="currentColor" d="M57.017 40.045c.22 0 .432.112.432.356 0 .284-.22.484-.408.596a.908.908 0 0 1-.464.136c-.22 0-.432-.112-.432-.356 0-.284.22-.484.408-.596.14-.084.3-.136.464-.136z"/></a><a color="inherit"><path fill="currentColor" d="M57.017 40.045c.22 0 .432.112.432.356 0 .284-.22.484-.408.596a.908.908 0 0 1-.464.136c-.22 0-.432-.112-.432-.356 0-.284.22-.484.408-.596.14-.084.3-.136.464-.136z"/></a><a color="inherit"><path fill="currentColor" d="M55.713 26.008c.22 0 .432.112.432.356 0 .284-.22.484-.408.596a.908.908 0 0 1-.464.136c-.22 0-.432-.112-.432-.356 0-.284.22-.484.408-.596.14-.084.3-.136.464-.136z"/></a><rect width=".13" height="3.286" x="-.065" y="-.972" fill="currentColor" ry=".04" transform="translate(50.205 38.589)"/><a color="inherit"><path fill="currentColor" stroke="currentColor" stroke-linecap="round" stroke-linejoin="round" stroke-width=".08" d="M32.888 29.602v.4l-18.652-7.25v-.4z"/></a><a color="inherit"><path fill="currentColor" d="M71.704 26.792a.168.168 0 0 0-.168-.164c-.016 0-.032 0-.048.004-.124.036-.312.16-.46.256s-.336.212-.416.312a.168.168 0 0 0 .128.276c.016 0 .032 0 .048-.004.124-.036.308-.16.456-.256s.336-.212.416-.312a.172.172 0 0 0 .044-.112zm-.208-.284c.184 0 .328.084.328.284a.739.739 0 0 1-.04.228.71.71 0 0 1-.256.376c-.212.144-.452.2-.748.2-.184 0-.332-.084-.332-.284 0-.076.02-.156.044-.228a.703.703 0 0 1 .252-.376c.212-.144.456-.2.752-.2z"/></a><a color="inherit"><text fill="currentColor" color="red" font-family="serif" font-size="1.96" transform="translate(70.448 16.384)"><tspan> ^</tspan></text><text fill="currentColor" color="red" font-family="serif" font-size="1.96" transform="translate(70.448 17.852)"><tspan> 2</tspan></text></a><rect width=".13" height="2.76" x="-.065" y="1.186" fill="currentColor" ry=".04" transform="translate(63.26 38.589)"/><a color="inherit"><path fill="currentColor" d="M64.067 39.045c.22 0 .432.112.432.356 0 .284-.22.484-.408.596a.908.908 0 0 1-.464.136c-.22 0-.432-.112-.432-.356 0-.284.22-.484.408-.596.14-.084.3-.136.464-.136z"/></a><rect width=".13" height="2.76" x="-.065" y="-.946" fill="currentColor" ry=".04" transform="translate(57.385 38.589)"/><rect width=".13" height="5" x="-.065" y="2.186" fill="currentColor" ry=".04" transform="translate(56.21 38.589)"/><path stroke="currentColor" stroke-linecap="round" stroke-linejoin="round" stroke-width=".1" d="M70.867 29.022l8.386 7.098"/><a color="violet"><path fill="currentColor" stroke="currentColor" stroke-linecap="round" stroke-linejoin="round" stroke-width=".08" d="M80.632 37.312c1.863-.384 5.219 1.746 5.75 3.65h0c-.596-1.803-3.952-3.933-5.75-3.65z"/></a><rect width=".13" height="5.814" x="-.065" y="2.186" fill="currentColor" ry=".04" transform="translate(90.238 38.589)"/><a color="violet"><path fill="currentColor" stroke="currentColor" stroke-linecap="round" stroke-linejoin="round" stroke-width=".08" d="M39.731 38.044c1.048-1.135 4.606-1.528 5.876-.65h0c-1.257-.759-4.815-.365-5.876.65z"/></a><a color="violet"><path fill="currentColor" stroke="currentColor" stroke-linecap="round" stroke-linejoin="round" stroke-width=".1" d="M13.086 28.747c1.84 1.612 8.713 1.612 10.551 0h0c-1.838 1.502-8.712 1.502-10.55 0z"/></a><a color="inherit"><path fill="currentColor" stroke="currentColor" stroke-linecap="round" stroke-linejoin="round" stroke-width=".08" d="M90.263 46.389v.4H13.062v-.4z"/></a><a color="violet"><path fill="currentColor" stroke="currentColor" stroke-linecap="round" stroke-linejoin="round" stroke-width=".08" d="M13.633 36.044c1.694-1.657 8.575-2.31 10.55-1h0c-1.964-1.19-8.845-.538-10.55 1z"/></a><a color="violet"><path fill="currentColor" stroke="currentColor" stroke-linecap="round" stroke-linejoin="round" stroke-width=".08" d="M13.064 37.865c2.971 2.444 16.569 3.132 19.777 1h0c-3.203 2.012-16.8 1.324-19.777-1z"/></a><a color="#A020F0"><path fill="currentColor" stroke="currentColor" stroke-linecap="round" stroke-linejoin="round" stroke-width=".08" d="M55.22 41.973c.052-.03.101-.06.15-.09h0c-.049.03-.098.059-.15.087zM54.817 42.188a6.97 6.97 0 0 0 .167-.084v-.007c-.054.028-.11.055-.166.082zM54.372 42.39a8.73 8.73 0 0 0 .183-.08l.001-.012c-.06.026-.12.052-.182.077zM53.888 42.58l.198-.075.002-.018c-.065.024-.131.048-.199.071zM53.365 42.756l.213-.07.002-.023-.213.067zM52.805 42.92c.077-.02.153-.042.228-.064l.002-.03c-.075.022-.15.043-.228.063zM52.21 43.073l.242-.06.003-.034c-.08.02-.16.038-.242.057zM51.581 43.213l.255-.055.004-.04c-.084.019-.17.036-.255.054zM50.92 43.341c.09-.016.18-.032.269-.05l.003-.044c-.088.017-.177.033-.268.048zM50.23 43.458l.28-.045.004-.049c-.093.015-.186.03-.28.043zM49.51 43.563l.292-.04.004-.054-.29.04zM48.764 43.656c.101-.011.202-.023.302-.036l.005-.057-.302.035zM47.992 43.738l.312-.031.005-.061-.311.03zM47.197 43.809l.32-.027.006-.065c-.106.01-.213.018-.321.026zM46.379 43.868l.33-.022.005-.068-.33.021zM45.54 43.917l.338-.018.006-.071a58.25 58.25 0 0 1-.338.017zM44.682 43.954l.345-.013.007-.074-.346.013zM43.807 43.981l.352-.01.006-.076a78.82 78.82 0 0 1-.351.009zM42.916 43.998l.358-.006.007-.078a70.11 70.11 0 0 1-.358.004zM42.011 44.003h.364l.007-.082h-.364zM41.093 43.999l.369.003.007-.083a91.597 91.597 0 0 1-.368-.004zM40.165 43.984l.373.007.007-.084a78.806 78.806 0 0 1-.373-.008zM39.227 43.96l.376.01.007-.085a80.39 80.39 0 0 1-.376-.012zM38.281 43.925l.38.015.007-.087-.38-.016zM37.33 43.88l.38.02.008-.089c-.127-.006-.254-.012-.381-.02zM36.373 43.826l.383.023.007-.089-.383-.023zM35.413 43.763l.384.026.008-.09-.384-.026zM34.453 43.69l.384.03.008-.09-.385-.03zM33.492 43.608l.384.033.008-.09a99.462 99.462 0 0 1-.384-.033zM32.534 43.516l.383.038.007-.09a99.246 99.246 0 0 1-.383-.037zM31.579 43.416l.381.041.008-.09a92.734 92.734 0 0 1-.382-.04zM30.629 43.307l.38.044.006-.088-.379-.044zM29.686 43.189l.376.048.007-.088a85.844 85.844 0 0 1-.376-.047zM28.75 43.062l.374.052.007-.086-.373-.052zM27.826 42.927l.369.055.007-.085a79.522 79.522 0 0 1-.369-.054zM26.913 42.784c.12.02.242.04.363.058l.007-.083a89.736 89.736 0 0 1-.364-.058zM26.012 42.633l.359.061.007-.081-.359-.061zM25.127 42.473l.352.065.007-.08a77.155 77.155 0 0 1-.352-.063zM24.258 42.306l.346.068.006-.077-.346-.067zM23.407 42.131l.338.071.006-.075a80.206 80.206 0 0 1-.338-.07zM22.575 41.948l.33.074.007-.072-.33-.073zM21.765 41.758l.322.077.005-.069a56.69 56.69 0 0 1-.321-.076zM20.978 41.56l.312.08.005-.065a56.82 56.82 0 0 1-.312-.079zM20.215 41.356l.302.083.005-.063a45.124 45.124 0 0 1-.302-.081zM19.478 41.144l.292.086.004-.06a43.614 43.614 0 0 1-.291-.083zM18.769 40.925c.092.03.186.06.28.088l.005-.054a33.619 33.619 0 0 1-.28-.087zM18.089 40.7l.268.09.004-.05-.268-.09zM17.44 40.467l.255.094.004-.046-.256-.092zM16.823 40.228l.242.096.004-.041a22.062 22.062 0 0 1-.243-.094zM16.24 39.983l.229.099.003-.037a23.271 23.271 0 0 1-.229-.097zM15.693 39.731l.215.102.002-.032a16.745 16.745 0 0 1-.214-.1zM15.184 39.474c.065.034.131.069.199.103l.002-.026a13.674 13.674 0 0 1-.2-.102zM14.713 39.21l.183.106.002-.02-.184-.105zM14.283 38.94l.167.109.001-.015a8.335 8.335 0 0 1-.167-.106zM13.895 38.665c.048.037.099.074.15.11v-.008a7.308 7.308 0 0 1-.15-.109zM13.55 38.384l.133.113v-.003a5.62 5.62 0 0 1-.133-.11z"/></a><a color="violet"><path fill="currentColor" stroke="currentColor" stroke-linecap="round" stroke-linejoin="round" stroke-width=".08" d="M19.49 27.007c.952-1.154 3.443-1.5 4.675-.65h0c-1.215-.731-3.706-.385-4.676.65z"/></a><a color="violet"><path fill="currentColor" stroke="currentColor" stroke-linecap="round" stroke-linejoin="round" stroke-width=".08" d="M19.609 37.784c1.232.85 3.722.504 4.675-.65h0c-.97 1.035-3.46 1.38-4.675.65z"/></a><a color="violet"><path fill="currentColor" stroke="currentColor" stroke-linecap="round" stroke-linejoin="round" stroke-width=".08" d="M28.716 26.007c.959-1.158 3.471-1.505 4.708-.65h0c-1.22-.736-3.733-.39-4.708.65z"/></a><a color="violet"><path fill="currentColor" stroke="currentColor" stroke-linecap="round" stroke-linejoin="round" stroke-width=".08" d="M29.422 36.394c1.232-.85 3.722-.504 4.675.65h0c-.97-1.035-3.46-1.382-4.675-.65z"/></a><a color="inherit"><path fill="currentColor" stroke="currentColor" stroke-linecap="round" stroke-linejoin="round" stroke-width=".08" d="M91.51 18.352v.4H34.086v-.4z"/></a><a color="#A020F0"><path fill="currentColor" stroke="currentColor" stroke-linecap="round" stroke-linejoin="round" stroke-width=".08" d="M55.602 27.9c.065-.05.128-.1.19-.153h0c-.062.05-.125.1-.19.149zM55.087 28.265c.072-.047.143-.094.213-.142v-.012a7.63 7.63 0 0 1-.213.137zM54.517 28.602c.08-.043.158-.087.235-.131v-.024a9.74 9.74 0 0 1-.235.128zM53.897 28.912l.254-.12v-.035c-.084.04-.168.079-.254.117zM53.23 29.194c.092-.036.183-.072.272-.11v-.043l-.272.106zM52.521 29.45l.289-.1v-.052c-.096.033-.192.065-.289.096zM51.775 29.677l.303-.088v-.06a18 18 0 0 1-.303.085zM50.994 29.877c.106-.025.212-.05.316-.077v-.067c-.104.026-.21.05-.316.074zM50.185 30.05l.327-.066v-.073c-.108.022-.217.043-.327.063zM49.35 30.195l.337-.055v-.078l-.336.053zM48.496 30.313l.344-.044v-.082l-.344.042zM47.625 30.403c.117-.01.233-.021.35-.033v-.085c-.117.011-.233.022-.35.031zM46.741 30.466l.355-.022v-.088c-.118.008-.236.015-.355.021zM45.85 30.502l.357-.011v-.09c-.119.004-.238.008-.357.01zM44.956 30.51h.358v-.09h-.358zM44.062 30.49l.357.012v-.09l-.357-.01zM43.174 30.444l.354.022v-.089a27.528 27.528 0 0 1-.354-.02zM42.295 30.37c.116.012.233.023.35.033v-.086l-.35-.032zM41.43 30.269l.344.044v-.084l-.344-.042zM40.582 30.14l.337.055v-.08a23.184 23.184 0 0 1-.337-.053zM39.758 29.984l.327.065v-.075c-.11-.02-.22-.041-.327-.063zM38.96 29.8l.315.077v-.07a20.302 20.302 0 0 1-.316-.074zM38.192 29.589c.1.03.201.06.303.088v-.063a18 18 0 0 1-.303-.085zM37.46 29.35l.288.1v-.056a16.504 16.504 0 0 1-.288-.096zM36.767 29.085l.272.11v-.048l-.272-.106zM36.119 28.791c.083.041.168.081.254.121v-.038c-.086-.038-.17-.077-.254-.117zM35.518 28.47c.077.045.155.09.234.132v-.028a9.74 9.74 0 0 1-.234-.127zM34.97 28.123c.07.048.14.095.213.142v-.017a7.63 7.63 0 0 1-.213-.138zM34.478 27.747c.062.052.125.103.19.154v-.005a6.41 6.41 0 0 1-.19-.149z"/></a><a color="inherit"><path fill="currentColor" stroke="currentColor" stroke-linecap="round" stroke-linejoin="round" stroke-width=".08" d="M49.056 28.602v.4l-9.302-5.25v-.4z"/></a><a color="inherit"><path fill="currentColor" stroke="currentColor" stroke-linecap="round" stroke-linejoin="round" stroke-width=".08" d="M50.23 37.389v.4l-11.65 5v-.4z"/></a><a color="violet"><path fill="currentColor" stroke="currentColor" stroke-linecap="round" stroke-linejoin="round" stroke-width=".08" d="M45.036 25.294c1.041-1.342 3.613-1.53 4.804-.35h0c-1.182-1.06-3.754-.872-4.804.35z"/></a><a color="violet"><path fill="currentColor" stroke="currentColor" stroke-linecap="round" stroke-linejoin="round" stroke-width=".08" d="M51.398 24.93c1.11-1.159 3.363-.976 4.317.35h0c-.964-1.206-3.217-1.389-4.317-.35z"/></a><a color="violet"><path fill="currentColor" stroke="currentColor" stroke-linecap="round" stroke-linejoin="round" stroke-width=".08" d="M49.653 41.634c1.426 1.074 4.957.789 6.193-.5h0c-1.246 1.17-4.777 1.454-6.193.5z"/></a><path stroke="currentColor" stroke-linecap="round" stroke-linejoin="round" stroke-width=".1" d="M41.006 29.5l8.753 7.14"/><a color="inherit"><path fill="currentColor" stroke="currentColor" stroke-linecap="round" stroke-linejoin="round" stroke-width=".08" d="M63.285 42.389v.4l-5.925-5v-.4z"/></a><a color="#A020F0"><path fill="currentColor" stroke="currentColor" stroke-linecap="round" stroke-linejoin="round" stroke-width=".08" d="M85.772 28.232c.061-.044.12-.089.175-.135h0a3.565 3.565 0 0 1-.175.128zM85.27 28.544c.073-.039.144-.08.212-.12v-.018a5.055 5.055 0 0 1-.212.114zM84.683 28.821c.083-.035.165-.07.244-.106v-.034c-.079.035-.16.068-.244.101zM84.021 29.062c.093-.03.184-.06.273-.092v-.047c-.089.03-.18.06-.273.087zM83.295 29.268c.1-.025.2-.051.298-.078v-.059c-.098.026-.197.05-.298.074zM82.515 29.438c.107-.02.213-.041.318-.063v-.07c-.105.022-.21.042-.318.061zM81.69 29.573c.113-.015.225-.032.335-.05v-.076l-.334.047zM80.833 29.673c.116-.011.232-.023.347-.036v-.083l-.347.034zM79.952 29.736l.354-.02v-.088c-.117.008-.236.014-.354.02zM79.057 29.765l.359-.007v-.09c-.12.003-.24.006-.359.007zM78.16 29.758c.119.003.238.006.358.007v-.09c-.12-.001-.24-.004-.359-.007zM77.269 29.715c.117.008.236.015.354.021v-.088a22.836 22.836 0 0 1-.354-.02zM76.395 29.637c.115.013.23.025.347.036v-.085c-.116-.01-.232-.022-.346-.034zM75.55 29.524l.334.05v-.08c-.112-.015-.224-.03-.334-.047zM74.742 29.375c.105.022.21.043.318.063v-.072l-.318-.06zM73.982 29.19c.098.027.197.053.298.078v-.063c-.1-.024-.2-.048-.298-.074zM73.28 28.97c.09.032.181.063.274.092v-.052a9.742 9.742 0 0 1-.273-.087zM72.648 28.715c.08.036.16.071.244.106v-.039a7.129 7.129 0 0 1-.244-.1zM72.093 28.424c.069.04.14.081.212.12v-.024a5.055 5.055 0 0 1-.212-.114zM71.628 28.097c.056.046.114.091.175.135v-.007a3.565 3.565 0 0 1-.175-.128z"/></a><a color="violet"><path fill="currentColor" stroke="currentColor" stroke-linecap="round" stroke-linejoin="round" stroke-width=".08" d="M70.502 39.884c.773 1.16 2.927 1.68 4.144 1h0c-1.189.564-3.343.044-4.143-1z"/></a><a color="violet"><path fill="currentColor" stroke="currentColor" stroke-linecap="round" stroke-linejoin="round" stroke-width=".08" d="M69.698 37.95c1.82-1.971 9.333-2.402 11.328-.65h0c-1.989-1.632-9.5-1.201-11.328.65z"/></a><a color="violet"><path fill="currentColor" stroke="currentColor" stroke-linecap="round" stroke-linejoin="round" stroke-width=".1" d="M76.226 24.992c1.988-1.482 8.868-.83 10.551 1h0c-1.693-1.72-8.574-2.372-10.55-1z"/></a><a color="violet"><path fill="currentColor" stroke="currentColor" stroke-linecap="round" stroke-linejoin="round" stroke-width=".08" d="M80.372 27.788c1.198 1.367 4.415 1.563 5.75.35h0c-1.328 1.093-4.545.897-5.75-.35z"/></a><a color="inherit"><path fill="currentColor" d="M86.37 41.545c.22 0 .431.112.431.356 0 .284-.22.484-.408.596a.908.908 0 0 1-.464.136c-.22 0-.432-.112-.432-.356 0-.284.22-.484.408-.596.14-.084.3-.136.464-.136z"/></a><a color="inherit"><path fill="currentColor" d="M86.37 26.508c.22 0 .431.112.431.356 0 .284-.22.484-.408.596a.908.908 0 0 1-.464.136c-.22 0-.432-.112-.432-.356 0-.284.22-.484.408-.596.14-.084.3-.136.464-.136z"/></a><a color="inherit"><text fill="currentColor" color="red" font-family="serif" font-size="1.96" transform="translate(90.173 16.35)"><tspan> ^</tspan></text><text fill="currentColor" color="red" font-family="serif" font-size="1.96" transform="translate(90.173 17.818)"><tspan> 1</tspan></text></a><rect width=".13" height="8.741" x="-.065" y="-8" fill="currentColor" ry=".04" transform="translate(91.485 26.552)"/><a color="inherit"><path fill="currentColor" d="M91.429 40.329a.168.168 0 0 0-.168-.164c-.016 0-.032 0-.048.004-.124.036-.312.16-.46.256s-.336.212-.416.312a.168.168 0 0 0 .128.276c.016 0 .032 0 .048-.004.124-.036.308-.16.456-.256s.336-.212.416-.312a.172.172 0 0 0 .044-.112zm-.208-.284c.184 0 .328.084.328.284a.739.739 0 0 1-.04.228.71.71 0 0 1-.256.376c-.212.144-.452.2-.748.2-.184 0-.332-.084-.332-.284 0-.076.02-.156.044-.228a.703.703 0 0 1 .252-.376c.212-.144.456-.2.752-.2z"/></a><a color="inherit"><text fill="currentColor" color="#7CFC00" font-family="serif" font-size="2.2" font-weight="bold" transform="translate(90.173 48.893)"><tspan> I</tspan></text></a><a color="inherit"><path fill="currentColor" d="M91.429 27.292a.168.168 0 0 0-.168-.164c-.016 0-.032 0-.048.004-.124.036-.312.16-.46.256s-.336.212-.416.312a.168.168 0 0 0 .128.276c.016 0 .032 0 .048-.004.124-.036.308-.16.456-.256s.336-.212.416-.312a.172.172 0 0 0 .044-.112zm-.208-.284c.184 0 .328.084.328.284a.739.739 0 0 1-.04.228.71.71 0 0 1-.256.376c-.212.144-.452.2-.748.2-.184 0-.332-.084-.332-.284 0-.076.02-.156.044-.228a.703.703 0 0 1 .252-.376c.212-.144.456-.2.752-.2z"/></a><a color="inherit"><text fill="currentColor" color="#00F" font-family="serif" font-size="1.746" transform="translate(18.897 33.936)"><tspan> P</tspan></text></a><a color="inherit"><path fill="currentColor" d="M19.769 36.045c.22 0 .432.112.432.356 0 .284-.22.484-.408.596a.908.908 0 0 1-.464.136c-.22 0-.432-.112-.432-.356 0-.284.22-.484.408-.596.14-.084.3-.136.464-.136z"/></a><a color="inherit"><text fill="currentColor" color="#00F" font-family="serif" font-size="1.746" transform="translate(18.897 31.639)"><tspan> N</tspan></text></a><a color="inherit"><path fill="currentColor" d="M19.769 27.508c.22 0 .432.112.432.356 0 .284-.22.484-.408.596a.908.908 0 0 1-.464.136c-.22 0-.432-.112-.432-.356 0-.284.22-.484.408-.596.14-.084.3-.136.464-.136z"/></a><a color="inherit"><text fill="currentColor" color="#00F" font-family="serif" font-size="1.746" transform="translate(28.123 35.73)"><tspan> P</tspan></text></a><a color="inherit"><path fill="currentColor" d="M28.995 37.045c.22 0 .432.112.432.356 0 .284-.22.484-.408.596a.908.908 0 0 1-.464.136c-.22 0-.432-.112-.432-.356 0-.284.22-.484.408-.596.14-.084.3-.136.464-.136z"/></a><a color="inherit"><text fill="currentColor" color="#00F" font-family="serif" font-size="1.746" transform="translate(28.123 24.002)"><tspan> P</tspan></text></a><a color="inherit"><path fill="currentColor" d="M28.995 26.508c.22 0 .432.112.432.356 0 .284-.22.484-.408.596a.908.908 0 0 1-.464.136c-.22 0-.432-.112-.432-.356 0-.284.22-.484.408-.596.14-.084.3-.136.464-.136z"/></a><a color="inherit"><path fill="currentColor" d="M24.445 35.545c.22 0 .432.112.432.356 0 .284-.22.484-.408.596a.908.908 0 0 1-.465.136c-.22 0-.432-.112-.432-.356 0-.284.22-.484.409-.596.14-.084.3-.136.464-.136z"/></a><a color="inherit"><path fill="currentColor" d="M24.445 27.008c.22 0 .432.112.432.356 0 .284-.22.484-.408.596a.908.908 0 0 1-.465.136c-.22 0-.432-.112-.432-.356 0-.284.22-.484.409-.596.14-.084.3-.136.464-.136z"/></a><a color="inherit"><path fill="currentColor" d="M10.286 25.8c0 .04-.032.076-.072.076s-.076-.036-.076-.076v-.58l-.332.124v.632c0 .04-.036.076-.076.076s-.073-.036-.073-.076v-.58l-.127.048c-.008.004-.02.004-.028.004a.08.08 0 0 1-.08-.08v-.24c0-.032.02-.064.051-.076l.184-.064v-.64l-.128.044c-.008.004-.02.004-.028.004a.08.08 0 0 1-.08-.08v-.24c0-.032.02-.06.052-.072l.184-.068v-.632c0-.04.032-.076.072-.076s.076.036.076.076v.58l.332-.124v-.632c0-.04.036-.076.076-.076s.072.036.072.076v.58l.128-.048c.008-.004.02-.004.028-.004a.08.08 0 0 1 .08.08v.24c0 .032-.02.064-.052.076l-.184.064v.64l.128-.044c.008-.004.02-.004.028-.004a.08.08 0 0 1 .08.08v.24c0 .032-.02.06-.052.072l-.183.068v.632zm-.48-1.508v.64l.332-.12v-.64z"/></a><rect width=".13" height="4.789" x="-.065" y="-3.975" fill="currentColor" ry=".04" transform="translate(14.26 26.552)"/><a color="inherit"><path fill="currentColor" d="M10.286 38.837c0 .04-.032.076-.072.076s-.076-.036-.076-.076v-.58l-.332.124v.632c0 .04-.036.076-.076.076s-.073-.036-.073-.076v-.58l-.127.048c-.008.004-.02.004-.028.004a.08.08 0 0 1-.08-.08v-.24c0-.032.02-.064.051-.076l.184-.064v-.64l-.128.044c-.008.004-.02.004-.028.004a.08.08 0 0 1-.08-.08v-.24c0-.032.02-.06.052-.072l.184-.068v-.632c0-.04.032-.076.072-.076s.076.036.076.076v.58l.332-.124v-.632c0-.04.036-.076.076-.076s.072.036.072.076v.58l.128-.048c.008-.004.02-.004.028-.004a.08.08 0 0 1 .08.08v.24c0 .032-.02.064-.052.076l-.184.064v.64l.128-.044c.008-.004.02-.004.028-.004a.08.08 0 0 1 .08.08v.24c0 .032-.02.06-.052.072l-.183.068v.632zm-.48-1.508v.64l.332-.12v-.64z"/></a><path fill="currentColor" d="M8.15 38.089c0-.112.091-.204.203-.204s.205.092.205.204-.092.204-.204.204-.204-.092-.204-.204zm0-1c0-.112.091-.204.203-.204s.205.092.205.204-.092.204-.204.204-.204-.092-.204-.204zm-1.3-.552c.688 0 1.172.352 1.172 1.004 0 1.052-1.053 1.656-2.065 2.084a.049.049 0 0 1-.036.016.053.053 0 0 1-.052-.052c0-.012.005-.024.017-.036.808-.472 1.648-1.06 1.648-1.972 0-.48-.252-.94-.684-.94-.296 0-.516.216-.616.504a.323.323 0 0 1 .136-.032c.22 0 .4.18.4.4 0 .232-.176.424-.4.424-.24 0-.448-.188-.448-.424 0-.532.408-.976.928-.976z"/><a color="inherit"><path fill="currentColor" d="M14.277 36.829a.168.168 0 0 0-.167-.164c-.016 0-.032 0-.048.004-.124.036-.312.16-.46.256s-.337.212-.417.312a.168.168 0 0 0 .128.276c.017 0 .033 0 .049-.004.123-.036.307-.16.455-.256s.336-.212.416-.312a.172.172 0 0 0 .044-.112zm-.207-.284c.183 0 .327.084.327.284a.739.739 0 0 1-.04.228.71.71 0 0 1-.255.376c-.213.144-.453.2-.749.2-.183 0-.331-.084-.331-.284 0-.076.02-.156.043-.228a.703.703 0 0 1 .253-.376c.212-.144.456-.2.752-.2z"/></a><a color="inherit"><text fill="currentColor" color="#7CFC00" font-family="serif" font-size="2.2" font-weight="bold" transform="translate(13.021 48.893)"><tspan> I</tspan></text></a><path fill="currentColor" d="M6.986 30.092h-.024a.783.783 0 0 1-.78-.788c0-.232.211-.412.447-.412.217 0 .38.188.38.412 0 .208-.172.38-.38.38a.326.326 0 0 1-.123-.024c.104.156.272.26.468.26h.016zm.78-1.728a.71.71 0 0 0 .452-.656.764.764 0 0 0-.692-.76c.096.464.184.924.24 1.416zm-1.548-.924c0 .54.516.988 1.056.988.112 0 .22-.008.328-.024-.056-.508-.148-.98-.252-1.456-.316.032-.496.244-.496.476 0 .176.1.364.324.492.02.02.028.04.028.06 0 .044-.04.088-.089.088-.012 0-.024-.004-.036-.008-.32-.172-.468-.46-.468-.74 0-.352.232-.696.64-.788a15.048 15.048 0 0 0-.184-.7c-.428.484-.852.972-.852 1.612zm1.044 1.16c-.752 0-1.332-.688-1.332-1.496 0-.708.524-1.224.992-1.764a4.47 4.47 0 0 1-.18-.76 5.429 5.429 0 0 1-.028-.624c0-.46.22-.896.596-1.168a.06.06 0 0 1 .08 0c.284.336.532.98.532 1.432 0 .572-.344 1.02-.72 1.456.084.272.156.552.224.828.016 0 .036-.004.052-.004.62 0 1.024.512 1.024 1.044 0 .304-.133.616-.429.84a.905.905 0 0 1-.292.144c.012.14.02.28.02.42 0 .076-.004.156-.008.232-.028.476-.352.9-.808.912l.004-.172c.372-.008.612-.368.636-.764a3.775 3.775 0 0 0-.008-.588c-.116.02-.232.032-.356.032zm.372-4.712c0-.22-.017-.316-.08-.516a1.153 1.153 0 0 0-.649 1.036c0 .296.072.532.144.776.32-.388.584-.792.584-1.296z"/><a color="inherit"><path fill="currentColor" d="M13.893 27.008c.22 0 .432.112.432.356 0 .284-.22.484-.407.596a.908.908 0 0 1-.464.136c-.22 0-.433-.112-.433-.356 0-.284.22-.484.408-.596.14-.084.3-.136.464-.136z"/></a><a color="inherit"><path fill="currentColor" d="M13.893 27.008c.22 0 .432.112.432.356 0 .284-.22.484-.407.596a.908.908 0 0 1-.464.136c-.22 0-.433-.112-.433-.356 0-.284.22-.484.408-.596.14-.084.3-.136.464-.136z"/></a><rect width=".16" height="16.137" y="-8.068" fill="currentColor" ry=".05" transform="translate(5.061 32.57)"/><path fill="currentColor" d="M4.697 34.986c0 1.296-.48 2.56-.48 3.792 0 .656.144 1.28.592 1.792.064.064-.032.144-.096.08-.608-.672-.816-1.52-.816-2.416 0-1.328.512-2.624.512-3.872 0-.656-.144-1.264-.592-1.76 0-.016-.016-.016-.016-.032s.016-.016.016-.032c.448-.496.592-1.104.592-1.76 0-1.248-.512-2.544-.512-3.872 0-.896.208-1.744.816-2.416.064-.064.16.016.096.08-.448.512-.592 1.136-.592 1.792 0 1.232.48 2.496.48 3.792 0 .896-.192 1.744-.784 2.416.593.672.785 1.52.785 2.416z"/><rect width=".13" height="9.314" x="-.065" y="-1.314" fill="currentColor" ry=".04" transform="translate(13.086 38.589)"/><a color="inherit"><text fill="currentColor" color="#00F" font-family="serif" font-size="1.746" transform="translate(44.415 36.039)"><tspan> N</tspan></text></a><a color="inherit"><path fill="currentColor" d="M45.287 38.045c.22 0 .432.112.432.356 0 .284-.22.484-.408.596a.908.908 0 0 1-.464.136c-.22 0-.432-.112-.432-.356 0-.284.22-.484.408-.596.14-.084.3-.136.464-.136z"/></a><a color="inherit"><text fill="currentColor" color="#00F" font-family="serif" font-size="1.746" transform="translate(44.415 17.852)"><tspan> P</tspan></text></a><a color="inherit"><path fill="currentColor" d="M45.287 26.008c.22 0 .432.112.432.356 0 .284-.22.484-.408.596a.908.908 0 0 1-.464.136c-.22 0-.432-.112-.432-.356 0-.284.22-.484.408-.596.14-.084.3-.136.464-.136z"/></a><rect width=".13" height="3.286" x="-.065" y=".686" fill="currentColor" ry=".04" transform="translate(38.605 38.589)"/><rect width=".13" height="3.277" x="-.065" y="-2.964" fill="currentColor" ry=".04" transform="translate(39.779 26.552)"/><a color="inherit"><path fill="currentColor" d="M39.412 38.545c.22 0 .432.112.432.356 0 .284-.22.484-.408.596a.908.908 0 0 1-.464.136c-.22 0-.432-.112-.432-.356 0-.284.22-.484.408-.596.14-.084.3-.136.464-.136z"/></a><path fill="currentColor" d="M50.27 20.906v1h-.064v-1h.064zm0 0c0 .788.828 1.344.828 2.132 0 .284-.06.564-.164.828a.097.097 0 0 1-.08.048c-.052 0-.104-.044-.092-.108.104-.244.168-.504.168-.768 0-.412-.376-.832-.66-1.132v-1z"/><rect width=".13" height="5" x="-.065" y="-5.686" fill="currentColor" ry=".04" transform="translate(50.205 26.552)"/><rect width=".13" height="2.527" x="-.065" y="-.314" fill="currentColor" ry=".04" transform="translate(49.03 26.552)"/><a color="inherit"><path fill="currentColor" d="M49.838 40.545c.22 0 .432.112.432.356 0 .284-.22.484-.408.596a.908.908 0 0 1-.464.136c-.22 0-.432-.112-.432-.356 0-.284.22-.484.408-.596.14-.084.3-.136.464-.136z"/></a><a color="inherit"><path fill="currentColor" d="M49.838 25.508c.22 0 .432.112.432.356 0 .284-.22.484-.408.596a.908.908 0 0 1-.464.136c-.22 0-.432-.112-.432-.356 0-.284.22-.484.408-.596.14-.084.3-.136.464-.136z"/></a><a color="inherit"><path fill="currentColor" d="M49.838 25.508c.22 0 .432.112.432.356 0 .284-.22.484-.408.596a.908.908 0 0 1-.464.136c-.22 0-.432-.112-.432-.356 0-.284.22-.484.408-.596.14-.084.3-.136.464-.136z"/></a><rect width=".13" height="3.039" x="-.065" y=".186" fill="currentColor" ry=".04" transform="translate(32.863 26.552)"/><rect width=".13" height="7.741" x="-.065" y="-8" fill="currentColor" ry=".04" transform="translate(34.11 26.552)"/><a color="inherit"><path fill="currentColor" d="M33.67 37.545c.22 0 .432.112.432.356 0 .284-.22.484-.408.596a.908.908 0 0 1-.464.136c-.22 0-.432-.112-.432-.356 0-.284.22-.484.408-.596.14-.084.3-.136.464-.136z"/></a><a color="inherit"><path fill="currentColor" d="M34.054 26.292a.168.168 0 0 0-.168-.164c-.016 0-.032 0-.048.004-.124.036-.312.16-.46.256s-.336.212-.416.312a.168.168 0 0 0 .128.276c.016 0 .032 0 .048-.004.124-.036.308-.16.456-.256s.336-.212.416-.312a.172.172 0 0 0 .044-.112zm-.208-.284c.184 0 .328.084.328.284a.739.739 0 0 1-.04.228.71.71 0 0 1-.256.376c-.212.144-.452.2-.748.2-.184 0-.332-.084-.332-.284 0-.076.02-.156.044-.228a.703.703 0 0 1 .252-.376c.212-.144.456-.2.752-.2z"/></a><a color="inherit"><path fill="currentColor" d="M34.054 26.292a.168.168 0 0 0-.168-.164c-.016 0-.032 0-.048.004-.124.036-.312.16-.46.256s-.336.212-.416.312a.168.168 0 0 0 .128.276c.016 0 .032 0 .048-.004.124-.036.308-.16.456-.256s.336-.212.416-.312a.172.172 0 0 0 .044-.112zm-.208-.284c.184 0 .328.084.328.284a.739.739 0 0 1-.04.228.71.71 0 0 1-.256.376c-.212.144-.452.2-.748.2-.184 0-.332-.084-.332-.284 0-.076.02-.156.044-.228a.703.703 0 0 1 .252-.376c.212-.144.456-.2.752-.2z"/></a><a color="inherit"><text fill="currentColor" color="red" font-family="serif" font-size="1.96" transform="translate(32.798 16.35)"><tspan> ^</tspan></text><text fill="currentColor" color="red" font-family="serif" font-size="1.96" transform="translate(32.798 17.818)"><tspan> 3</tspan></text></a><a color="inherit"><path fill="currentColor" d="M39.412 26.508c.22 0 .432.112.432.356 0 .284-.22.484-.408.596a.908.908 0 0 1-.464.136c-.22 0-.432-.112-.432-.356 0-.284.22-.484.408-.596.14-.084.3-.136.464-.136z"/></a></svg>