<svg xmlns="http://www.w3.org/2000/svg" xmlns:xlink="http://www.w3.org/1999/xlink" version="1.2" width="190.00mm" height="100.00mm" viewBox="0 0 108.1205 56.9055">
<!-- Page: 1/1 -->
<text transform="translate(5.1215, 1.1381)" font-family="serif" font-size="2.2001" text-anchor="start" fill="currentColor">
<tspan/>
</text>
<text transform="translate(21.6241, 4.9379)" font-family="serif" font-weight="bold" font-size="3.4927" text-anchor="start" fill="currentColor">
<tspan>
Wenn wir in höchsten Nöten sein</tspan>
</text>
<text transform="translate(16.6392, 8.4379)" font-family="serif" font-weight="bold" font-size="2.4696" text-anchor="start" fill="currentColor">
<tspan>
Analysis from Gene Biringer's Schenker Text, Ex. 5-27</tspan>
</text>
<text transform="translate(93.2681, 11.9379)" font-family="serif" font-size="2.2001" text-anchor="start" fill="currentColor">
<tspan>
J.S. Bach</tspan>
</text>
<line transform="translate(5.1215, 28.5522)" stroke-linejoin="round" stroke-linecap="round" stroke-width="0.1000" stroke="currentColor" x1="0.0500" y1="-0.0000" x2="97.8275" y2="-0.0000"/>
<line transform="translate(5.1215, 27.5522)" stroke-linejoin="round" stroke-linecap="round" stroke-width="0.1000" stroke="currentColor" x1="0.0500" y1="-0.0000" x2="97.8275" y2="-0.0000"/>
<line transform="translate(5.1215, 26.5522)" stroke-linejoin="round" stroke-linecap="round" stroke-width="0.1000" stroke="currentColor" x1="0.0500" y1="-0.0000" x2="97.8275" y2="-0.0000"/>
<line transform="translate(5.1215, 25.5522)" stroke-linejoin="round" stroke-linecap="round" stroke-width="0.1000" stroke="currentColor" x1="0.0500" y1="-0.0000" x2="97.8275" y2="-0.0000"/>
<line transform="translate(5.1215, 24.5522)" stroke-linejoin="round" stroke-linecap="round" stroke-width="0.1000" stroke="currentColor" x1="0.0500" y1="-0.0000" x2="97.8275" y2="-0.0000"/>
<rect transform="translate(5.1215, 41.5886)" x="80.0495" y="-0.1000" width="1.9563" height="0.2000" ry="0.1000" fill="currentColor"/>
<line transform="translate(5.1215, 40.5886)" stroke-linejoin="round" stroke-linecap="round" stroke-width="0.1000" stroke="currentColor" x1="0.0500" y1="-0.0000" x2="97.8275" y2="-0.0000"/>
<line transform="translate(5.1215, 39.5886)" stroke-linejoin="round" stroke-linecap="round" stroke-width="0.1000" stroke="currentColor" x1="0.0500" y1="-0.0000" x2="97.8275" y2="-0.0000"/>
<line transform="translate(5.1215, 38.5886)" stroke-linejoin="round" stroke-linecap="round" stroke-width="0.1000" stroke="currentColor" x1="0.0500" y1="-0.0000" x2="97.8275" y2="-0.0000"/>
<line transform="translate(5.1215, 37.5886)" stroke-linejoin="round" stroke-linecap="round" stroke-width="0.1000" stroke="currentColor" x1="0.0500" y1="-0.0000" x2="97.8275" y2="-0.0000"/>
<line transform="translate(5.1215, 36.5886)" stroke-linejoin="round" stroke-linecap="round" stroke-width="0.1000" stroke="currentColor" x1="0.0500" y1="-0.0000" x2="97.8275" y2="-0.0000"/>
<rect transform="translate(102.3990, 26.5522)" x="0.0000" y="-2.0000" width="0.6000" height="4.0500" ry="0.0000" fill="currentColor"/>
<rect transform="translate(101.9090, 26.5522)" x="0.0000" y="-2.0000" width="0.1900" height="4.0500" ry="0.0000" fill="currentColor"/>
<rect transform="translate(102.3990, 38.5886)" x="0.0000" y="-2.0500" width="0.6000" height="4.0500" ry="0.0000" fill="currentColor"/>
<rect transform="translate(101.9090, 38.5886)" x="0.0000" y="-2.0500" width="0.1900" height="4.0500" ry="0.0000" fill="currentColor"/>
<rect transform="translate(102.3990, 14.8817)" x="0.0000" y="13.7205" width="0.6000" height="7.9865" ry="0.0000" fill="currentColor"/>
<rect transform="translate(101.9090, 14.8817)" x="0.0000" y="13.7205" width="0.1900" height="7.9865" ry="0.0000" fill="currentColor"/>
<rect transform="translate(69.1356, 38.5886)" x="-0.0650" y="0.6861" width="0.1300" height="5.0000" ry="0.0400" fill="currentColor"/>
<path transform="translate(69.2006, 44.2348) scale(0.0040, -0.0040)" d="M0 0h-16v250h16v-250zM0 0v250c97 59 224 148 224 259c0 57 -15 112 -40 163c-3 16 10 27 23 27c7 0 15 -3 20 -11c25 -56 40 -117 40 -179c0 -203 -267 -306 -267 -509z" fill="currentColor"/>
<a style="color:inherit;" xlink:href="textedit:///home/ryan/projects/lilypond-in-markdown/_lilypond/ce5b65ebc04902925f1d92acdbd76ce3.ly:226:13:14">
<path transform="translate(69.0706, 39.0886) scale(0.0040, -0.0040)" d="M218 136c55 0 108 -28 108 -89c0 -71 -55 -121 -102 -149c-35 -21 -75 -34 -116 -34c-55 0 -108 28 -108 89c0 71 55 121 102 149c35 21 75 34 116 34z" fill="currentColor"/>
</a>
<rect transform="translate(71.7603, 26.5522)" x="-0.0650" y="-8.0000" width="0.1300" height="8.2410" ry="0.0400" fill="currentColor"/>
<a style="color:inherit;" xlink:href="textedit:///home/ryan/projects/lilypond-in-markdown/_lilypond/ce5b65ebc04902925f1d92acdbd76ce3.ly:141:23:24">
<g color="rgb(0.0000%, 0.0000%, 100.0000%)">
<text transform="translate(79.7466, 31.4448)" font-family="serif" font-size="1.7461" text-anchor="start" fill="currentColor">
<tspan>
P</tspan>
</text>
</g>
</a>
<rect transform="translate(79.8116, 38.5886)" x="-0.0650" y="0.1861" width="0.1300" height="7.8139" ry="0.0400" fill="currentColor"/>
<a style="color:inherit;" xlink:href="textedit:///home/ryan/projects/lilypond-in-markdown/_lilypond/ce5b65ebc04902925f1d92acdbd76ce3.ly:199:28:29">
<path transform="translate(79.7466, 38.5886) scale(0.0040, -0.0040)" d="M314 65c0 24 -21 41 -42 41c-4 0 -8 0 -12 -1c-31 -9 -78 -40 -115 -64s-84 -53 -104 -78c-7 -8 -10 -18 -10 -28c0 -24 21 -41 42 -41c4 0 8 0 12 1c31 9 77 40 114 64s84 53 104 78c7 8 11 18 11 28zM262 136c46 0 82 -21 82 -71c0 -19 -4 -39 -10 -57
c-12 -37 -32 -72 -64 -94c-53 -36 -113 -50 -187 -50c-46 0 -83 21 -83 71c0 19 5 39 11 57c12 37 31 72 63 94c53 36 114 50 188 50z" fill="currentColor"/>
</a>
<a style="color:inherit;" xlink:href="textedit:///home/ryan/projects/lilypond-in-markdown/_lilypond/ce5b65ebc04902925f1d92acdbd76ce3.ly:187:15:16">
<g color="rgb(48.6275%, 98.8235%, 0%)">
<text transform="translate(79.7466, 48.8934)" font-family="serif" font-weight="bold" font-size="2.2001" text-anchor="start" fill="currentColor">
<tspan>
V</tspan>
</text>
</g>
</a>
<a style="color:inherit;" xlink:href="textedit:///home/ryan/projects/lilypond-in-markdown/_lilypond/ce5b65ebc04902925f1d92acdbd76ce3.ly:141:20:21">
<path transform="translate(79.7466, 26.5522) scale(0.0040, -0.0040)" d="M218 136c55 0 108 -28 108 -89c0 -71 -55 -121 -102 -149c-35 -21 -75 -34 -116 -34c-55 0 -108 28 -108 89c0 71 55 121 102 149c35 21 75 34 116 34z" fill="currentColor"/>
</a>
<a style="color:inherit;" xlink:href="textedit:///home/ryan/projects/lilypond-in-markdown/_lilypond/ce5b65ebc04902925f1d92acdbd76ce3.ly:229:10:11">
<path transform="translate(74.9461, 40.0886) scale(0.0040, -0.0040)" d="M218 136c55 0 108 -28 108 -89c0 -71 -55 -121 -102 -149c-35 -21 -75 -34 -116 -34c-55 0 -108 28 -108 89c0 71 55 121 102 149c35 21 75 34 116 34z" fill="currentColor"/>
</a>
<a style="color:inherit;" xlink:href="textedit:///home/ryan/projects/lilypond-in-markdown/_lilypond/ce5b65ebc04902925f1d92acdbd76ce3.ly:141:14:15">
<path transform="translate(74.9461, 26.0522) scale(0.0040, -0.0040)" d="M218 136c55 0 108 -28 108 -89c0 -71 -55 -121 -102 -149c-35 -21 -75 -34 -116 -34c-55 0 -108 28 -108 89c0 71 55 121 102 149c35 21 75 34 116 34z" fill="currentColor"/>
</a>
<rect transform="translate(56.0804, 26.5522)" x="-0.0650" y="-7.1861" width="0.1300" height="7.0000" ry="0.0400" fill="currentColor"/>
<a style="color:inherit;" xlink:href="textedit:///home/ryan/projects/lilypond-in-markdown/_lilypond/ce5b65ebc04902925f1d92acdbd76ce3.ly:248:10:11">
<path transform="translate(56.1454, 40.5886) scale(0.0040, -0.0040)" d="M218 136c55 0 108 -28 108 -89c0 -71 -55 -121 -102 -149c-35 -21 -75 -34 -116 -34c-55 0 -108 28 -108 89c0 71 55 121 102 149c35 21 75 34 116 34z" fill="currentColor"/>
</a>
<a style="color:inherit;" xlink:href="textedit:///home/ryan/projects/lilypond-in-markdown/_lilypond/ce5b65ebc04902925f1d92acdbd76ce3.ly:224:10:11">
<path transform="translate(56.1454, 40.5886) scale(0.0040, -0.0040)" d="M218 136c55 0 108 -28 108 -89c0 -71 -55 -121 -102 -149c-35 -21 -75 -34 -116 -34c-55 0 -108 28 -108 89c0 71 55 121 102 149c35 21 75 34 116 34z" fill="currentColor"/>
</a>
<a style="color:inherit;" xlink:href="textedit:///home/ryan/projects/lilypond-in-markdown/_lilypond/ce5b65ebc04902925f1d92acdbd76ce3.ly:136:14:15">
<path transform="translate(54.8412, 26.5522) scale(0.0040, -0.0040)" d="M218 136c55 0 108 -28 108 -89c0 -71 -55 -121 -102 -149c-35 -21 -75 -34 -116 -34c-55 0 -108 28 -108 89c0 71 55 121 102 149c35 21 75 34 116 34z" fill="currentColor"/>
</a>
<rect transform="translate(50.2050, 38.5886)" x="-0.0650" y="-0.9723" width="0.1300" height="3.2862" ry="0.0400" fill="currentColor"/>
<a style="color:inherit;" xlink:href="textedit:///home/ryan/projects/lilypond-in-markdown/_lilypond/ce5b65ebc04902925f1d92acdbd76ce3.ly:110:16:17">
<polygon transform="translate(14.1957, 22.5522)" stroke-linejoin="round" stroke-linecap="round" stroke-width="0.0800" fill="currentColor" stroke="currentColor" points="18.6927 7.0500 18.6927 7.4500 0.0400 0.2000 0.0400 -0.2000"/>
</a>
<a style="color:inherit;" xlink:href="textedit:///home/ryan/projects/lilypond-in-markdown/_lilypond/ce5b65ebc04902925f1d92acdbd76ce3.ly:100:14:15">
<path transform="translate(70.4480, 27.0522) scale(0.0040, -0.0040)" d="M314 65c0 24 -21 41 -42 41c-4 0 -8 0 -12 -1c-31 -9 -78 -40 -115 -64s-84 -53 -104 -78c-7 -8 -10 -18 -10 -28c0 -24 21 -41 42 -41c4 0 8 0 12 1c31 9 77 40 114 64s84 53 104 78c7 8 11 18 11 28zM262 136c46 0 82 -21 82 -71c0 -19 -4 -39 -10 -57
c-12 -37 -32 -72 -64 -94c-53 -36 -113 -50 -187 -50c-46 0 -83 21 -83 71c0 19 5 39 11 57c12 37 31 72 63 94c53 36 114 50 188 50z" fill="currentColor"/>
</a>
<a style="color:inherit;" xlink:href="textedit:///home/ryan/projects/lilypond-in-markdown/_lilypond/ce5b65ebc04902925f1d92acdbd76ce3.ly:69:23:24">
<g color="rgb(100.0000%, 0.0000%, 0.0000%)">
<text transform="translate(70.4480, 16.3840)" font-family="serif" font-size="1.9600" text-anchor="start" fill="currentColor">
<tspan>
^</tspan>
</text>
</g>
<g color="rgb(100.0000%, 0.0000%, 0.0000%)">
<text transform="translate(70.4480, 17.8522)" font-family="serif" font-size="1.9600" text-anchor="start" fill="currentColor">
<tspan>
2</tspan>
</text>
</g>
</a>
<rect transform="translate(63.2601, 38.5886)" x="-0.0650" y="1.1861" width="0.1300" height="2.7598" ry="0.0400" fill="currentColor"/>
<a style="color:inherit;" xlink:href="textedit:///home/ryan/projects/lilypond-in-markdown/_lilypond/ce5b65ebc04902925f1d92acdbd76ce3.ly:250:10:11">
<path transform="translate(63.1951, 39.5886) scale(0.0040, -0.0040)" d="M218 136c55 0 108 -28 108 -89c0 -71 -55 -121 -102 -149c-35 -21 -75 -34 -116 -34c-55 0 -108 28 -108 89c0 71 55 121 102 149c35 21 75 34 116 34z" fill="currentColor"/>
</a>
<rect transform="translate(57.3847, 38.5886)" x="-0.0650" y="-0.9459" width="0.1300" height="2.7598" ry="0.0400" fill="currentColor"/>
<rect transform="translate(56.2104, 38.5886)" x="-0.0650" y="2.1861" width="0.1300" height="5.0000" ry="0.0400" fill="currentColor"/>
<line transform="translate(5.1215, 14.8817)" stroke-linejoin="round" stroke-linecap="round" stroke-width="0.1000" stroke="currentColor" x1="65.7462" y1="14.1396" x2="74.1323" y2="21.2378"/>
<g color="rgb(93.3333%, 50.9804%, 93.3333%)">
<a style="color:inherit;" xlink:href="textedit:///home/ryan/projects/lilypond-in-markdown/_lilypond/ce5b65ebc04902925f1d92acdbd76ce3.ly:231:15:16">
<path transform="translate(79.7466, 38.5886)" stroke-width="0.0800" stroke-linejoin="round" stroke-linecap="round" stroke="currentColor" fill="currentColor" d="M0.8851 -1.2764C2.7483 -1.6609 6.1041 0.4691 6.6356 2.3736L6.6356 2.3736C6.0398 0.5704 2.6839 -1.5596 0.8851 -1.2764z"/>
</a>
</g>
<rect transform="translate(90.2376, 38.5886)" x="-0.0650" y="2.1861" width="0.1300" height="5.8139" ry="0.0400" fill="currentColor"/>
<g color="rgb(93.3333%, 50.9804%, 93.3333%)">
<a style="color:inherit;" xlink:href="textedit:///home/ryan/projects/lilypond-in-markdown/_lilypond/ce5b65ebc04902925f1d92acdbd76ce3.ly:217:12:13">
<path transform="translate(38.5398, 38.5886)" stroke-width="0.0800" stroke-linejoin="round" stroke-linecap="round" stroke="currentColor" fill="currentColor" d="M1.1914 -0.5450C2.2389 -1.6792 5.7968 -2.0729 7.0669 -1.1950L7.0669 -1.1950C5.8100 -1.9536 2.2521 -1.5600 1.1914 -0.5450z"/>
</a>
</g>
<g color="rgb(93.3333%, 50.9804%, 93.3333%)">
<a style="color:inherit;" xlink:href="textedit:///home/ryan/projects/lilypond-in-markdown/_lilypond/ce5b65ebc04902925f1d92acdbd76ce3.ly:128:16:17">
<path transform="translate(13.0215, 26.5522)" stroke-width="0.1000" stroke-linejoin="round" stroke-linecap="round" stroke="currentColor" fill="currentColor" d="M0.0650 2.1950C1.9039 3.8073 8.7771 3.8073 10.6160 2.1950L10.6160 2.1950C8.7771 3.6973 1.9039 3.6973 0.0650 2.1950z"/>
</a>
</g>
<a style="color:inherit;" xlink:href="textedit:///home/ryan/projects/lilypond-in-markdown/_lilypond/ce5b65ebc04902925f1d92acdbd76ce3.ly:185:15:16">
<polygon transform="translate(13.0215, 46.5886)" stroke-linejoin="round" stroke-linecap="round" stroke-width="0.0800" fill="currentColor" stroke="currentColor" points="77.2410 -0.2000 77.2410 0.2000 0.0400 0.2000 0.0400 -0.2000"/>
</a>
<g color="rgb(93.3333%, 50.9804%, 93.3333%)">
<a style="color:inherit;" xlink:href="textedit:///home/ryan/projects/lilypond-in-markdown/_lilypond/ce5b65ebc04902925f1d92acdbd76ce3.ly:239:16:17">
<path transform="translate(13.0215, 38.5886)" stroke-width="0.0800" stroke-linejoin="round" stroke-linecap="round" stroke="currentColor" fill="currentColor" d="M0.6111 -2.5450C2.3056 -4.2019 9.1864 -4.8541 11.1621 -3.5450L11.1621 -3.5450C9.1977 -4.7346 2.3169 -4.0825 0.6111 -2.5450z"/>
</a>
</g>
<g color="rgb(93.3333%, 50.9804%, 93.3333%)">
<a style="color:inherit;" xlink:href="textedit:///home/ryan/projects/lilypond-in-markdown/_lilypond/ce5b65ebc04902925f1d92acdbd76ce3.ly:266:15:16">
<path transform="translate(13.0215, 38.3386)" stroke-width="0.0800" stroke-linejoin="round" stroke-linecap="round" stroke="currentColor" fill="currentColor" d="M0.0430 -0.4732C3.0140 1.9705 16.6110 2.6580 19.8200 0.5268L19.8200 0.5268C16.6170 2.5382 3.0201 1.8507 0.0430 -0.4732z"/>
</a>
</g>
<g color="rgb(62.7451%, 12.5490%, 94.1176%)">
<a style="color:inherit;" xlink:href="textedit:///home/ryan/projects/lilypond-in-markdown/_lilypond/ce5b65ebc04902925f1d92acdbd76ce3.ly:280:12:13">
<path transform="translate(13.5215, 38.8386)" stroke-width="0.0800" stroke-linejoin="round" stroke-linecap="round" stroke="currentColor" fill="currentColor" d="M41.6991 3.1345C41.7501 3.1050 41.7999 3.0752 41.8485 3.0450L41.8485 3.0450C41.7999 3.0743 41.7502 3.1033 41.6994 3.1319z"/>
<path transform="translate(13.5215, 38.8386)" stroke-width="0.0800" stroke-linejoin="round" stroke-linecap="round" stroke="currentColor" fill="currentColor" d="M41.2958 3.3492C41.3524 3.3215 41.4079 3.2933 41.4622 3.2649L41.4628 3.2585C41.4085 3.2861 41.3531 3.3134 41.2966 3.3404z"/>
<path transform="translate(13.5215, 38.8386)" stroke-width="0.0800" stroke-linejoin="round" stroke-linecap="round" stroke="currentColor" fill="currentColor" d="M40.8509 3.5512C40.9130 3.5251 40.9739 3.4987 41.0338 3.4719L41.0348 3.4595C40.9750 3.4854 40.9141 3.5110 40.8522 3.5363z"/>
<path transform="translate(13.5215, 38.8386)" stroke-width="0.0800" stroke-linejoin="round" stroke-linecap="round" stroke="currentColor" fill="currentColor" d="M40.3661 3.7406C40.4334 3.7162 40.4996 3.6914 40.5647 3.6663L40.5663 3.6480C40.5012 3.6723 40.4350 3.6963 40.3678 3.7199z"/>
<path transform="translate(13.5215, 38.8386)" stroke-width="0.0800" stroke-linejoin="round" stroke-linecap="round" stroke="currentColor" fill="currentColor" d="M39.8430 3.9175C39.9152 3.8947 39.9865 3.8716 40.0567 3.8482L40.0587 3.8242C39.9885 3.8468 39.9173 3.8692 39.8452 3.8912z"/>
<path transform="translate(13.5215, 38.8386)" stroke-width="0.0800" stroke-linejoin="round" stroke-linecap="round" stroke="currentColor" fill="currentColor" d="M39.2831 4.0820C39.3601 4.0609 39.4362 4.0394 39.5113 4.0177L39.5138 3.9882C39.4387 4.0093 39.3627 4.0300 39.2857 4.0504z"/>
<path transform="translate(13.5215, 38.8386)" stroke-width="0.0800" stroke-linejoin="round" stroke-linecap="round" stroke="currentColor" fill="currentColor" d="M38.6881 4.2343C38.7697 4.2148 38.8504 4.1950 38.9302 4.1749L38.9331 4.1402C38.8534 4.1597 38.7727 4.1788 38.6911 4.1977z"/>
<path transform="translate(13.5215, 38.8386)" stroke-width="0.0800" stroke-linejoin="round" stroke-linecap="round" stroke="currentColor" fill="currentColor" d="M38.0596 4.3746C38.1455 4.3567 38.2307 4.3385 38.3149 4.3199L38.3182 4.2803C38.2340 4.2982 38.1490 4.3158 38.0631 4.3331z"/>
<path transform="translate(13.5215, 38.8386)" stroke-width="0.0800" stroke-linejoin="round" stroke-linecap="round" stroke="currentColor" fill="currentColor" d="M37.3992 4.5029C37.4893 4.4866 37.5786 4.4700 37.6671 4.4530L37.6708 4.4087C37.5823 4.4250 37.4931 4.4410 37.4030 4.4568z"/>
<path transform="translate(13.5215, 38.8386)" stroke-width="0.0800" stroke-linejoin="round" stroke-linecap="round" stroke="currentColor" fill="currentColor" d="M36.7085 4.6194C36.8025 4.6047 36.8958 4.5896 36.9883 4.5742L36.9924 4.5254C36.8999 4.5402 36.8067 4.5547 36.7127 4.5689z"/>
<path transform="translate(13.5215, 38.8386)" stroke-width="0.0800" stroke-linejoin="round" stroke-linecap="round" stroke="currentColor" fill="currentColor" d="M35.9891 4.7242C36.0869 4.7110 36.1839 4.6975 36.2802 4.6837L36.2846 4.6306C36.1884 4.6439 36.0914 4.6569 35.9937 4.6695z"/>
<path transform="translate(13.5215, 38.8386)" stroke-width="0.0800" stroke-linejoin="round" stroke-linecap="round" stroke="currentColor" fill="currentColor" d="M35.2427 4.8175C35.3439 4.8059 35.4445 4.7939 35.5444 4.7816L35.5492 4.7245C35.4493 4.7363 35.3488 4.7477 35.2476 4.7589z"/>
<path transform="translate(13.5215, 38.8386)" stroke-width="0.0800" stroke-linejoin="round" stroke-linecap="round" stroke="currentColor" fill="currentColor" d="M34.4708 4.8994C34.5753 4.8893 34.6792 4.8788 34.7825 4.8680L34.7876 4.8072C34.6843 4.8174 34.5805 4.8274 34.4760 4.8371z"/>
<path transform="translate(13.5215, 38.8386)" stroke-width="0.0800" stroke-linejoin="round" stroke-linecap="round" stroke="currentColor" fill="currentColor" d="M33.6750 4.9701C33.7826 4.9614 33.8896 4.9524 33.9961 4.9432L34.0015 4.8787C33.8951 4.8875 33.7881 4.8960 33.6805 4.9043z"/>
<path transform="translate(13.5215, 38.8386)" stroke-width="0.0800" stroke-linejoin="round" stroke-linecap="round" stroke="currentColor" fill="currentColor" d="M32.8570 5.0296C32.9675 5.0224 33.0774 5.0149 33.1868 5.0071L33.1924 4.9393C33.0831 4.9467 32.9732 4.9538 32.8628 4.9605z"/>
<path transform="translate(13.5215, 38.8386)" stroke-width="0.0800" stroke-linejoin="round" stroke-linecap="round" stroke="currentColor" fill="currentColor" d="M32.0184 5.0780C32.1315 5.0723 32.2441 5.0663 32.3562 5.0600L32.3621 4.9891C32.2501 4.9950 32.1375 5.0007 32.0244 5.0060z"/>
<path transform="translate(13.5215, 38.8386)" stroke-width="0.0800" stroke-linejoin="round" stroke-linecap="round" stroke="currentColor" fill="currentColor" d="M31.1607 5.1157C31.2763 5.1114 31.3914 5.1068 31.5060 5.1019L31.5121 5.0282C31.3976 5.0327 31.2825 5.0370 31.1670 5.0409z"/>
<path transform="translate(13.5215, 38.8386)" stroke-width="0.0800" stroke-linejoin="round" stroke-linecap="round" stroke="currentColor" fill="currentColor" d="M30.2856 5.1426C30.4034 5.1397 30.5208 5.1365 30.6377 5.1331L30.6440 5.0568C30.5272 5.0599 30.4099 5.0627 30.2921 5.0653z"/>
<path transform="translate(13.5215, 38.8386)" stroke-width="0.0800" stroke-linejoin="round" stroke-linecap="round" stroke="currentColor" fill="currentColor" d="M29.3948 5.1589C29.5145 5.1574 29.6339 5.1557 29.7529 5.1536L29.7595 5.0749C29.6405 5.0767 29.5212 5.0781 29.4014 5.0793z"/>
<path transform="translate(13.5215, 38.8386)" stroke-width="0.0800" stroke-linejoin="round" stroke-linecap="round" stroke="currentColor" fill="currentColor" d="M28.4897 5.1647C28.6113 5.1646 28.7325 5.1643 28.8533 5.1636L28.8601 5.0828C28.7393 5.0832 28.6181 5.0833 28.4965 5.0831z"/>
<path transform="translate(13.5215, 38.8386)" stroke-width="0.0800" stroke-linejoin="round" stroke-linecap="round" stroke="currentColor" fill="currentColor" d="M27.5720 5.1602C27.6952 5.1615 27.8180 5.1625 27.9405 5.1633L27.9474 5.0805C27.8249 5.0795 27.7021 5.0783 27.5790 5.0768z"/>
<path transform="translate(13.5215, 38.8386)" stroke-width="0.0800" stroke-linejoin="round" stroke-linecap="round" stroke="currentColor" fill="currentColor" d="M26.6434 5.1456C26.7679 5.1482 26.8921 5.1506 27.0161 5.1527L27.0231 5.0682C26.8992 5.0659 26.7750 5.0634 26.6505 5.0605z"/>
<path transform="translate(13.5215, 38.8386)" stroke-width="0.0800" stroke-linejoin="round" stroke-linecap="round" stroke="currentColor" fill="currentColor" d="M25.7054 5.1208C25.8310 5.1248 25.9564 5.1285 26.0816 5.1319L26.0888 5.0460C25.9636 5.0424 25.8382 5.0386 25.7126 5.0344z"/>
<path transform="translate(13.5215, 38.8386)" stroke-width="0.0800" stroke-linejoin="round" stroke-linecap="round" stroke="currentColor" fill="currentColor" d="M24.7596 5.0862C24.8862 5.0915 25.0126 5.0965 25.1388 5.1012L25.1461 5.0141C25.0199 5.0092 24.8935 5.0041 24.7670 4.9987z"/>
<path transform="translate(13.5215, 38.8386)" stroke-width="0.0800" stroke-linejoin="round" stroke-linecap="round" stroke="currentColor" fill="currentColor" d="M23.8077 5.0418C23.9350 5.0483 24.0621 5.0546 24.1891 5.0607L24.1965 4.9726C24.0695 4.9664 23.9424 4.9600 23.8151 4.9533z"/>
<path transform="translate(13.5215, 38.8386)" stroke-width="0.0800" stroke-linejoin="round" stroke-linecap="round" stroke="currentColor" fill="currentColor" d="M22.8513 4.9877C22.9790 4.9955 23.1067 5.0031 23.2343 5.0105L23.2417 4.9216C23.1142 4.9142 22.9865 4.9065 22.8587 4.8986z"/>
<path transform="translate(13.5215, 38.8386)" stroke-width="0.0800" stroke-linejoin="round" stroke-linecap="round" stroke="currentColor" fill="currentColor" d="M21.8919 4.9241C22.0199 4.9332 22.1480 4.9420 22.2759 4.9506L22.2834 4.8613C22.1554 4.8526 22.0274 4.8437 21.8994 4.8346z"/>
<path transform="translate(13.5215, 38.8386)" stroke-width="0.0800" stroke-linejoin="round" stroke-linecap="round" stroke="currentColor" fill="currentColor" d="M20.9312 4.8511C21.0593 4.8614 21.1874 4.8715 21.3155 4.8814L21.3230 4.7918C21.1949 4.7819 21.0668 4.7718 20.9387 4.7614z"/>
<path transform="translate(13.5215, 38.8386)" stroke-width="0.0800" stroke-linejoin="round" stroke-linecap="round" stroke="currentColor" fill="currentColor" d="M19.9708 4.7689C20.0988 4.7804 20.2268 4.7918 20.3548 4.8028L20.3623 4.7132C20.2343 4.7021 20.1063 4.6908 19.9783 4.6792z"/>
<path transform="translate(13.5215, 38.8386)" stroke-width="0.0800" stroke-linejoin="round" stroke-linecap="round" stroke="currentColor" fill="currentColor" d="M19.0123 4.6775C19.1399 4.6903 19.2676 4.7028 19.3953 4.7151L19.4028 4.6256C19.2751 4.6134 19.1474 4.6009 19.0197 4.5882z"/>
<path transform="translate(13.5215, 38.8386)" stroke-width="0.0800" stroke-linejoin="round" stroke-linecap="round" stroke="currentColor" fill="currentColor" d="M18.0573 4.5772C18.1843 4.5911 18.3115 4.6049 18.4387 4.6184L18.4462 4.5293C18.3189 4.5159 18.1917 4.5022 18.0647 4.4883z"/>
<path transform="translate(13.5215, 38.8386)" stroke-width="0.0800" stroke-linejoin="round" stroke-linecap="round" stroke="currentColor" fill="currentColor" d="M17.1074 4.4680C17.2336 4.4832 17.3600 4.4981 17.4866 4.5127L17.4940 4.4243C17.3674 4.4097 17.2410 4.3949 17.1147 4.3799z"/>
<path transform="translate(13.5215, 38.8386)" stroke-width="0.0800" stroke-linejoin="round" stroke-linecap="round" stroke="currentColor" fill="currentColor" d="M16.1642 4.3501C16.2894 4.3664 16.4149 4.3825 16.5405 4.3983L16.5479 4.3108C16.4222 4.2951 16.2967 4.2792 16.1715 4.2630z"/>
<path transform="translate(13.5215, 38.8386)" stroke-width="0.0800" stroke-linejoin="round" stroke-linecap="round" stroke="currentColor" fill="currentColor" d="M15.2294 4.2237C15.3534 4.2411 15.4777 4.2583 15.6022 4.2753L15.6094 4.1889C15.4849 4.1721 15.3606 4.1550 15.2365 4.1378z"/>
<path transform="translate(13.5215, 38.8386)" stroke-width="0.0800" stroke-linejoin="round" stroke-linecap="round" stroke="currentColor" fill="currentColor" d="M14.3045 4.0888C14.4270 4.1073 14.5499 4.1257 14.6731 4.1437L14.6802 4.0587C14.5570 4.0408 14.4341 4.0227 14.3115 4.0043z"/>
<path transform="translate(13.5215, 38.8386)" stroke-width="0.0800" stroke-linejoin="round" stroke-linecap="round" stroke="currentColor" fill="currentColor" d="M13.3911 3.9456C13.5121 3.9652 13.6333 3.9847 13.7550 4.0039L13.7620 3.9204C13.6403 3.9014 13.5190 3.8822 13.3980 3.8628z"/>
<path transform="translate(13.5215, 38.8386)" stroke-width="0.0800" stroke-linejoin="round" stroke-linecap="round" stroke="currentColor" fill="currentColor" d="M12.4909 3.7942C12.6100 3.8149 12.7295 3.8355 12.8493 3.8557L12.8562 3.7741C12.7363 3.7541 12.6168 3.7338 12.4977 3.7134z"/>
<path transform="translate(13.5215, 38.8386)" stroke-width="0.0800" stroke-linejoin="round" stroke-linecap="round" stroke="currentColor" fill="currentColor" d="M11.6055 3.6348C11.7225 3.6566 11.8400 3.6782 11.9578 3.6995L11.9645 3.6200C11.8466 3.5989 11.7291 3.5776 11.6121 3.5561z"/>
<path transform="translate(13.5215, 38.8386)" stroke-width="0.0800" stroke-linejoin="round" stroke-linecap="round" stroke="currentColor" fill="currentColor" d="M10.7365 3.4675C10.8512 3.4903 10.9664 3.5130 11.0821 3.5354L11.0885 3.4581C10.9728 3.4360 10.8576 3.4137 10.7429 3.3912z"/>
<path transform="translate(13.5215, 38.8386)" stroke-width="0.0800" stroke-linejoin="round" stroke-linecap="round" stroke="currentColor" fill="currentColor" d="M9.8855 3.2924C9.9977 3.3163 10.1104 3.3399 10.2236 3.3634L10.2299 3.2886C10.1166 3.2655 10.0039 3.2422 9.8916 3.2188z"/>
<path transform="translate(13.5215, 38.8386)" stroke-width="0.0800" stroke-linejoin="round" stroke-linecap="round" stroke="currentColor" fill="currentColor" d="M9.0540 3.1097C9.1635 3.1346 9.2736 3.1593 9.3842 3.1837L9.3902 3.1117C9.2796 3.0876 9.1695 3.0634 9.0600 3.0389z"/>
<path transform="translate(13.5215, 38.8386)" stroke-width="0.0800" stroke-linejoin="round" stroke-linecap="round" stroke="currentColor" fill="currentColor" d="M8.2438 2.9195C8.3504 2.9454 8.4575 2.9711 8.5653 2.9965L8.5710 2.9275C8.4633 2.9025 8.3561 2.8772 8.2495 2.8518z"/>
<path transform="translate(13.5215, 38.8386)" stroke-width="0.0800" stroke-linejoin="round" stroke-linecap="round" stroke="currentColor" fill="currentColor" d="M7.4564 2.7220C7.5598 2.7488 7.6638 2.7754 7.7685 2.8019L7.7740 2.7361C7.6693 2.7101 7.5652 2.6839 7.4618 2.6576z"/>
<path transform="translate(13.5215, 38.8386)" stroke-width="0.0800" stroke-linejoin="round" stroke-linecap="round" stroke="currentColor" fill="currentColor" d="M6.6934 2.5172C6.7935 2.5450 6.8942 2.5726 6.9956 2.6000L7.0008 2.5376C6.8994 2.5107 6.7986 2.4836 6.6985 2.4563z"/>
<path transform="translate(13.5215, 38.8386)" stroke-width="0.0800" stroke-linejoin="round" stroke-linecap="round" stroke="currentColor" fill="currentColor" d="M5.9565 2.3053C6.0529 2.3340 6.1501 2.3626 6.2480 2.3909L6.2529 2.3323C6.1550 2.3044 6.0577 2.2764 5.9613 2.2482z"/>
<path transform="translate(13.5215, 38.8386)" stroke-width="0.0800" stroke-linejoin="round" stroke-linecap="round" stroke="currentColor" fill="currentColor" d="M5.2472 2.0865C5.3398 2.1161 5.4333 2.1456 5.5275 2.1748L5.5321 2.1201C5.4378 2.0914 5.3443 2.0625 5.2516 2.0334z"/>
<path transform="translate(13.5215, 38.8386)" stroke-width="0.0800" stroke-linejoin="round" stroke-linecap="round" stroke="currentColor" fill="currentColor" d="M4.5671 1.8608C4.6558 1.8913 4.7453 1.9217 4.8355 1.9519L4.8398 1.9013C4.7494 1.8717 4.6599 1.8419 4.5712 1.8120z"/>
<path transform="translate(13.5215, 38.8386)" stroke-width="0.0800" stroke-linejoin="round" stroke-linecap="round" stroke="currentColor" fill="currentColor" d="M3.9180 1.6285C4.0024 1.6599 4.0877 1.6911 4.1738 1.7222L4.1777 1.6760C4.0915 1.6456 4.0061 1.6149 3.9217 1.5841z"/>
<path transform="translate(13.5215, 38.8386)" stroke-width="0.0800" stroke-linejoin="round" stroke-linecap="round" stroke="currentColor" fill="currentColor" d="M3.3012 1.3895C3.3812 1.4218 3.4621 1.4539 3.5439 1.4859L3.5474 1.4444C3.4656 1.4131 3.3846 1.3816 3.3046 1.3499z"/>
<path transform="translate(13.5215, 38.8386)" stroke-width="0.0800" stroke-linejoin="round" stroke-linecap="round" stroke="currentColor" fill="currentColor" d="M2.7186 1.1442C2.7940 1.1774 2.8703 1.2103 2.9475 1.2431L2.9505 1.2065C2.8733 1.1743 2.7969 1.1420 2.7215 1.1096z"/>
<path transform="translate(13.5215, 38.8386)" stroke-width="0.0800" stroke-linejoin="round" stroke-linecap="round" stroke="currentColor" fill="currentColor" d="M2.1717 0.8926C2.2422 0.9266 2.3136 0.9604 2.3861 0.9940L2.3887 0.9624C2.3162 0.9295 2.2447 0.8964 2.1742 0.8632z"/>
<path transform="translate(13.5215, 38.8386)" stroke-width="0.0800" stroke-linejoin="round" stroke-linecap="round" stroke="currentColor" fill="currentColor" d="M1.6621 0.6349C1.7275 0.6696 1.7939 0.7042 1.8613 0.7387L1.8635 0.7125C1.7960 0.6787 1.7295 0.6449 1.6641 0.6108z"/>
<path transform="translate(13.5215, 38.8386)" stroke-width="0.0800" stroke-linejoin="round" stroke-linecap="round" stroke="currentColor" fill="currentColor" d="M1.1913 0.3711C1.2514 0.4066 1.3126 0.4421 1.3749 0.4773L1.3766 0.4566C1.3143 0.4221 1.2530 0.3875 1.1929 0.3527z"/>
<path transform="translate(13.5215, 38.8386)" stroke-width="0.0800" stroke-linejoin="round" stroke-linecap="round" stroke="currentColor" fill="currentColor" d="M0.7611 0.1014C0.8157 0.1378 0.8714 0.1739 0.9283 0.2100L0.9295 0.1951C0.8726 0.1599 0.8168 0.1245 0.7622 0.0889z"/>
<path transform="translate(13.5215, 38.8386)" stroke-width="0.0800" stroke-linejoin="round" stroke-linecap="round" stroke="currentColor" fill="currentColor" d="M0.3731 -0.1740C0.4219 -0.1369 0.4720 -0.0999 0.5231 -0.0631L0.5239 -0.0720C0.4726 -0.1080 0.4225 -0.1441 0.3736 -0.1803z"/>
<path transform="translate(13.5215, 38.8386)" stroke-width="0.0800" stroke-linejoin="round" stroke-linecap="round" stroke="currentColor" fill="currentColor" d="M0.0287 -0.4550C0.0717 -0.4172 0.1158 -0.3795 0.1611 -0.3419L0.1613 -0.3445C0.1159 -0.3812 0.0717 -0.4180 0.0287 -0.4550z"/>
</a>
</g>
<g color="rgb(93.3333%, 50.9804%, 93.3333%)">
<a style="color:inherit;" xlink:href="textedit:///home/ryan/projects/lilypond-in-markdown/_lilypond/ce5b65ebc04902925f1d92acdbd76ce3.ly:128:23:24">
<path transform="translate(18.8970, 26.5522)" stroke-width="0.0800" stroke-linejoin="round" stroke-linecap="round" stroke="currentColor" fill="currentColor" d="M0.5922 0.4550C1.5453 -0.6989 4.0360 -1.0452 5.2677 -0.1950L5.2677 -0.1950C4.0526 -0.9263 1.5618 -0.5801 0.5922 0.4550z"/>
</a>
</g>
<g color="rgb(93.3333%, 50.9804%, 93.3333%)">
<a style="color:inherit;" xlink:href="textedit:///home/ryan/projects/lilypond-in-markdown/_lilypond/ce5b65ebc04902925f1d92acdbd76ce3.ly:212:12:13">
<path transform="translate(18.8970, 38.5886)" stroke-width="0.0800" stroke-linejoin="round" stroke-linecap="round" stroke="currentColor" fill="currentColor" d="M0.7120 -0.8050C1.9437 0.0452 4.4344 -0.3011 5.3875 -1.4550L5.3875 -1.4550C4.4179 -0.4199 1.9271 -0.0737 0.7120 -0.8050z"/>
</a>
</g>
<g color="rgb(93.3333%, 50.9804%, 93.3333%)">
<a style="color:inherit;" xlink:href="textedit:///home/ryan/projects/lilypond-in-markdown/_lilypond/ce5b65ebc04902925f1d92acdbd76ce3.ly:129:15:16">
<path transform="translate(28.1229, 26.5522)" stroke-width="0.0800" stroke-linejoin="round" stroke-linecap="round" stroke="currentColor" fill="currentColor" d="M0.5927 -0.5450C1.5518 -1.7031 4.0644 -2.0500 5.3014 -1.1950L5.3014 -1.1950C4.0809 -1.9311 1.5682 -1.5843 0.5927 -0.5450z"/>
</a>
</g>
<g color="rgb(93.3333%, 50.9804%, 93.3333%)">
<a style="color:inherit;" xlink:href="textedit:///home/ryan/projects/lilypond-in-markdown/_lilypond/ce5b65ebc04902925f1d92acdbd76ce3.ly:213:14:15">
<path transform="translate(28.1229, 38.5886)" stroke-width="0.0800" stroke-linejoin="round" stroke-linecap="round" stroke="currentColor" fill="currentColor" d="M1.2991 -2.1950C2.5308 -3.0452 5.0215 -2.6989 5.9746 -1.5450L5.9746 -1.5450C5.0050 -2.5801 2.5142 -2.9263 1.2991 -2.1950z"/>
</a>
</g>
<a style="color:inherit;" xlink:href="textedit:///home/ryan/projects/lilypond-in-markdown/_lilypond/ce5b65ebc04902925f1d92acdbd76ce3.ly:63:19:20">
<polygon transform="translate(34.0458, 18.5522)" stroke-linejoin="round" stroke-linecap="round" stroke-width="0.0800" fill="currentColor" stroke="currentColor" points="57.4641 -0.2000 57.4641 0.2000 0.0400 0.2000 0.0400 -0.2000"/>
</a>
<g color="rgb(62.7451%, 12.5490%, 94.1176%)">
<a style="color:inherit;" xlink:href="textedit:///home/ryan/projects/lilypond-in-markdown/_lilypond/ce5b65ebc04902925f1d92acdbd76ce3.ly:95:19:20">
<path transform="translate(34.0484, 26.5522)" stroke-width="0.0800" stroke-linejoin="round" stroke-linecap="round" stroke="currentColor" fill="currentColor" d="M21.5533 1.3485C21.6181 1.2981 21.6812 1.2469 21.7428 1.1950L21.7428 1.1950C21.6812 1.2452 21.6181 1.2947 21.5533 1.3435z"/>
<path transform="translate(34.0484, 26.5522)" stroke-width="0.0800" stroke-linejoin="round" stroke-linecap="round" stroke="currentColor" fill="currentColor" d="M21.0386 1.7130C21.1110 1.6662 21.1819 1.6187 21.2513 1.5705L21.2513 1.5583C21.1819 1.6049 21.1110 1.6509 21.0386 1.6961z"/>
<path transform="translate(34.0484, 26.5522)" stroke-width="0.0800" stroke-linejoin="round" stroke-linecap="round" stroke="currentColor" fill="currentColor" d="M20.4689 2.0501C20.5483 2.0070 20.6264 1.9631 20.7031 1.9186L20.7031 1.8950C20.6264 1.9381 20.5483 1.9805 20.4689 2.0223z"/>
<path transform="translate(34.0484, 26.5522)" stroke-width="0.0800" stroke-linejoin="round" stroke-linecap="round" stroke="currentColor" fill="currentColor" d="M19.8485 2.3598C19.9344 2.3203 20.0191 2.2801 20.1025 2.2392L20.1025 2.2052C20.0191 2.2448 19.9344 2.2837 19.8485 2.3219z"/>
<path transform="translate(34.0484, 26.5522)" stroke-width="0.0800" stroke-linejoin="round" stroke-linecap="round" stroke="currentColor" fill="currentColor" d="M19.1818 2.6421C19.2736 2.6063 19.3642 2.5697 19.4538 2.5325L19.4538 2.4889C19.3642 2.5250 19.2736 2.5603 19.1818 2.5950z"/>
<path transform="translate(34.0484, 26.5522)" stroke-width="0.0800" stroke-linejoin="round" stroke-linecap="round" stroke="currentColor" fill="currentColor" d="M18.4729 2.8970C18.5700 2.8648 18.6661 2.8319 18.7612 2.7983L18.7612 2.7461C18.6661 2.7786 18.5700 2.8104 18.4729 2.8416z"/>
<path transform="translate(34.0484, 26.5522)" stroke-width="0.0800" stroke-linejoin="round" stroke-linecap="round" stroke="currentColor" fill="currentColor" d="M17.7262 3.1245C17.8281 3.0960 17.9291 3.0667 18.0292 3.0368L18.0292 2.9768C17.9291 3.0058 17.8281 3.0340 17.7262 3.0616z"/>
<path transform="translate(34.0484, 26.5522)" stroke-width="0.0800" stroke-linejoin="round" stroke-linecap="round" stroke="currentColor" fill="currentColor" d="M16.9460 3.3245C17.0521 3.2997 17.1574 3.2741 17.2619 3.2478L17.2619 3.1809C17.1574 3.2064 17.0521 3.2311 16.9460 3.2552z"/>
<path transform="translate(34.0484, 26.5522)" stroke-width="0.0800" stroke-linejoin="round" stroke-linecap="round" stroke="currentColor" fill="currentColor" d="M16.1367 3.4972C16.2463 3.4760 16.3553 3.4541 16.4636 3.4314L16.4636 3.3586C16.3553 3.3805 16.2463 3.4017 16.1367 3.4222z"/>
<path transform="translate(34.0484, 26.5522)" stroke-width="0.0800" stroke-linejoin="round" stroke-linecap="round" stroke="currentColor" fill="currentColor" d="M15.3024 3.6425C15.4151 3.6249 15.5272 3.6066 15.6388 3.5876L15.6388 3.5097C15.5272 3.5281 15.4151 3.5458 15.3024 3.5627z"/>
<path transform="translate(34.0484, 26.5522)" stroke-width="0.0800" stroke-linejoin="round" stroke-linecap="round" stroke="currentColor" fill="currentColor" d="M14.4474 3.7603C14.5626 3.7464 14.6773 3.7318 14.7916 3.7165L14.7916 3.6343C14.6773 3.6492 14.5626 3.6633 14.4474 3.6768z"/>
<path transform="translate(34.0484, 26.5522)" stroke-width="0.0800" stroke-linejoin="round" stroke-linecap="round" stroke="currentColor" fill="currentColor" d="M13.5762 3.8508C13.6932 3.8405 13.8100 3.8296 13.9264 3.8179L13.9264 3.7324C13.8100 3.7438 13.6932 3.7544 13.5762 3.7643z"/>
<path transform="translate(34.0484, 26.5522)" stroke-width="0.0800" stroke-linejoin="round" stroke-linecap="round" stroke="currentColor" fill="currentColor" d="M12.6929 3.9138C12.8113 3.9072 12.9295 3.8999 13.0474 3.8919L13.0474 3.8040C12.9295 3.8118 12.8113 3.8189 12.6929 3.8252z"/>
<path transform="translate(34.0484, 26.5522)" stroke-width="0.0800" stroke-linejoin="round" stroke-linecap="round" stroke="currentColor" fill="currentColor" d="M11.8019 3.9494C11.9210 3.9465 12.0400 3.9428 12.1589 3.9385L12.1589 3.8491C12.0400 3.8533 11.9210 3.8569 11.8019 3.8597z"/>
<path transform="translate(34.0484, 26.5522)" stroke-width="0.0800" stroke-linejoin="round" stroke-linecap="round" stroke="currentColor" fill="currentColor" d="M10.9074 3.9576C11.0267 3.9584 11.1461 3.9584 11.2654 3.9576L11.2654 3.8677C11.1461 3.8684 11.0267 3.8684 10.9074 3.8677z"/>
<path transform="translate(34.0484, 26.5522)" stroke-width="0.0800" stroke-linejoin="round" stroke-linecap="round" stroke="currentColor" fill="currentColor" d="M10.0139 3.9385C10.1328 3.9428 10.2518 3.9465 10.3709 3.9494L10.3709 3.8597C10.2518 3.8569 10.1328 3.8533 10.0139 3.8491z"/>
<path transform="translate(34.0484, 26.5522)" stroke-width="0.0800" stroke-linejoin="round" stroke-linecap="round" stroke="currentColor" fill="currentColor" d="M9.1254 3.8919C9.2433 3.8999 9.3615 3.9072 9.4799 3.9138L9.4799 3.8252C9.3615 3.8189 9.2433 3.8118 9.1254 3.8040z"/>
<path transform="translate(34.0484, 26.5522)" stroke-width="0.0800" stroke-linejoin="round" stroke-linecap="round" stroke="currentColor" fill="currentColor" d="M8.2464 3.8179C8.3628 3.8296 8.4796 3.8405 8.5966 3.8508L8.5966 3.7643C8.4796 3.7544 8.3628 3.7438 8.2464 3.7324z"/>
<path transform="translate(34.0484, 26.5522)" stroke-width="0.0800" stroke-linejoin="round" stroke-linecap="round" stroke="currentColor" fill="currentColor" d="M7.3812 3.7165C7.4955 3.7318 7.6102 3.7464 7.7254 3.7603L7.7254 3.6768C7.6102 3.6633 7.4955 3.6492 7.3812 3.6343z"/>
<path transform="translate(34.0484, 26.5522)" stroke-width="0.0800" stroke-linejoin="round" stroke-linecap="round" stroke="currentColor" fill="currentColor" d="M6.5340 3.5876C6.6456 3.6066 6.7577 3.6249 6.8705 3.6425L6.8705 3.5627C6.7577 3.5458 6.6456 3.5281 6.5340 3.5097z"/>
<path transform="translate(34.0484, 26.5522)" stroke-width="0.0800" stroke-linejoin="round" stroke-linecap="round" stroke="currentColor" fill="currentColor" d="M5.7092 3.4314C5.8175 3.4541 5.9265 3.4760 6.0361 3.4972L6.0361 3.4222C5.9265 3.4017 5.8175 3.3805 5.7092 3.3586z"/>
<path transform="translate(34.0484, 26.5522)" stroke-width="0.0800" stroke-linejoin="round" stroke-linecap="round" stroke="currentColor" fill="currentColor" d="M4.9109 3.2478C5.0154 3.2741 5.1207 3.2997 5.2268 3.3245L5.2268 3.2552C5.1207 3.2311 5.0154 3.2064 4.9109 3.1809z"/>
<path transform="translate(34.0484, 26.5522)" stroke-width="0.0800" stroke-linejoin="round" stroke-linecap="round" stroke="currentColor" fill="currentColor" d="M4.1436 3.0368C4.2437 3.0667 4.3447 3.0960 4.4466 3.1245L4.4466 3.0616C4.3447 3.0340 4.2437 3.0058 4.1436 2.9768z"/>
<path transform="translate(34.0484, 26.5522)" stroke-width="0.0800" stroke-linejoin="round" stroke-linecap="round" stroke="currentColor" fill="currentColor" d="M3.4116 2.7983C3.5067 2.8319 3.6028 2.8648 3.6999 2.8970L3.6999 2.8416C3.6028 2.8104 3.5067 2.7786 3.4116 2.7461z"/>
<path transform="translate(34.0484, 26.5522)" stroke-width="0.0800" stroke-linejoin="round" stroke-linecap="round" stroke="currentColor" fill="currentColor" d="M2.7190 2.5325C2.8086 2.5697 2.8992 2.6063 2.9910 2.6421L2.9910 2.5950C2.8992 2.5603 2.8086 2.5250 2.7190 2.4889z"/>
<path transform="translate(34.0484, 26.5522)" stroke-width="0.0800" stroke-linejoin="round" stroke-linecap="round" stroke="currentColor" fill="currentColor" d="M2.0703 2.2392C2.1537 2.2801 2.2384 2.3203 2.3243 2.3598L2.3243 2.3219C2.2384 2.2837 2.1537 2.2448 2.0703 2.2052z"/>
<path transform="translate(34.0484, 26.5522)" stroke-width="0.0800" stroke-linejoin="round" stroke-linecap="round" stroke="currentColor" fill="currentColor" d="M1.4697 1.9186C1.5464 1.9631 1.6245 2.0070 1.7039 2.0501L1.7039 2.0223C1.6245 1.9805 1.5464 1.9381 1.4697 1.8950z"/>
<path transform="translate(34.0484, 26.5522)" stroke-width="0.0800" stroke-linejoin="round" stroke-linecap="round" stroke="currentColor" fill="currentColor" d="M0.9215 1.5705C0.9909 1.6187 1.0618 1.6662 1.1342 1.7130L1.1342 1.6961C1.0618 1.6509 0.9909 1.6049 0.9215 1.5583z"/>
<path transform="translate(34.0484, 26.5522)" stroke-width="0.0800" stroke-linejoin="round" stroke-linecap="round" stroke="currentColor" fill="currentColor" d="M0.4300 1.1950C0.4916 1.2469 0.5548 1.2981 0.6195 1.3485L0.6195 1.3435C0.5548 1.2947 0.4916 1.2452 0.4300 1.1950z"/>
</a>
</g>
<a style="color:inherit;" xlink:href="textedit:///home/ryan/projects/lilypond-in-markdown/_lilypond/ce5b65ebc04902925f1d92acdbd76ce3.ly:116:16:17">
<polygon transform="translate(39.7140, 23.5522)" stroke-linejoin="round" stroke-linecap="round" stroke-width="0.0800" fill="currentColor" stroke="currentColor" points="9.3418 5.0500 9.3418 5.4500 0.0400 0.2000 0.0400 -0.2000"/>
</a>
<a style="color:inherit;" xlink:href="textedit:///home/ryan/projects/lilypond-in-markdown/_lilypond/ce5b65ebc04902925f1d92acdbd76ce3.ly:244:13:14">
<polygon transform="translate(38.5398, 42.5886)" stroke-linejoin="round" stroke-linecap="round" stroke-width="0.0800" fill="currentColor" stroke="currentColor" points="11.6902 -5.2000 11.6902 -4.8000 0.0400 0.2000 0.0400 -0.2000"/>
</a>
<g color="rgb(93.3333%, 50.9804%, 93.3333%)">
<a style="color:inherit;" xlink:href="textedit:///home/ryan/projects/lilypond-in-markdown/_lilypond/ce5b65ebc04902925f1d92acdbd76ce3.ly:130:16:17">
<path transform="translate(44.4153, 26.5522)" stroke-width="0.0800" stroke-linejoin="round" stroke-linecap="round" stroke="currentColor" fill="currentColor" d="M0.6203 -1.2581C1.6621 -2.5999 4.2341 -2.7873 5.4247 -1.6081L5.4247 -1.6081C4.2428 -2.6676 1.6708 -2.4802 0.6203 -1.2581z"/>
</a>
</g>
<g color="rgb(93.3333%, 50.9804%, 93.3333%)">
<a style="color:inherit;" xlink:href="textedit:///home/ryan/projects/lilypond-in-markdown/_lilypond/ce5b65ebc04902925f1d92acdbd76ce3.ly:134:17:18">
<path transform="translate(48.9658, 26.5522)" stroke-width="0.0800" stroke-linejoin="round" stroke-linecap="round" stroke="currentColor" fill="currentColor" d="M2.4324 -1.6218C3.5419 -2.7808 5.7949 -2.5981 6.7497 -1.2718L6.7497 -1.2718C5.7852 -2.4785 3.5322 -2.6612 2.4324 -1.6218z"/>
</a>
</g>
<g color="rgb(93.3333%, 50.9804%, 93.3333%)">
<a style="color:inherit;" xlink:href="textedit:///home/ryan/projects/lilypond-in-markdown/_lilypond/ce5b65ebc04902925f1d92acdbd76ce3.ly:220:18:19">
<path transform="translate(48.9658, 38.0886)" stroke-width="0.0800" stroke-linejoin="round" stroke-linecap="round" stroke="currentColor" fill="currentColor" d="M0.6869 3.5450C2.1132 4.6194 5.6443 4.3343 6.8797 3.0450L6.8797 3.0450C5.6346 4.2147 2.1035 4.4998 0.6869 3.5450z"/>
</a>
</g>
<line transform="translate(5.1215, 14.8817)" stroke-linejoin="round" stroke-linecap="round" stroke-width="0.1000" stroke="currentColor" x1="35.8848" y1="14.6186" x2="44.6382" y2="21.7588"/>
<a style="color:inherit;" xlink:href="textedit:///home/ryan/projects/lilypond-in-markdown/_lilypond/ce5b65ebc04902925f1d92acdbd76ce3.ly:248:12:13">
<polygon transform="translate(57.3197, 37.5886)" stroke-linejoin="round" stroke-linecap="round" stroke-width="0.0800" fill="currentColor" stroke="currentColor" points="5.9655 4.8000 5.9655 5.2000 0.0400 0.2000 0.0400 -0.2000"/>
</a>
<g color="rgb(62.7451%, 12.5490%, 94.1176%)">
<a style="color:inherit;" xlink:href="textedit:///home/ryan/projects/lilypond-in-markdown/_lilypond/ce5b65ebc04902925f1d92acdbd76ce3.ly:100:16:17">
<path transform="translate(71.1980, 26.5522)" stroke-width="0.0800" stroke-linejoin="round" stroke-linecap="round" stroke="currentColor" fill="currentColor" d="M14.5743 1.6798C14.6351 1.6358 14.6934 1.5909 14.7491 1.5450L14.7491 1.5450C14.6934 1.5884 14.6351 1.6309 14.5743 1.6726z"/>
<path transform="translate(71.1980, 26.5522)" stroke-width="0.0800" stroke-linejoin="round" stroke-linecap="round" stroke="currentColor" fill="currentColor" d="M14.0720 1.9921C14.1449 1.9528 14.2155 1.9126 14.2837 1.8714L14.2837 1.8538C14.2155 1.8928 14.1449 1.9308 14.0720 1.9680z"/>
<path transform="translate(71.1980, 26.5522)" stroke-width="0.0800" stroke-linejoin="round" stroke-linecap="round" stroke="currentColor" fill="currentColor" d="M13.4850 2.2688C13.5685 2.2343 13.6500 2.1988 13.7293 2.1624L13.7293 2.1291C13.6500 2.1636 13.5685 2.1971 13.4850 2.2298z"/>
<path transform="translate(71.1980, 26.5522)" stroke-width="0.0800" stroke-linejoin="round" stroke-linecap="round" stroke="currentColor" fill="currentColor" d="M12.8233 2.5101C12.9161 2.4803 13.0071 2.4496 13.0963 2.4179L13.0963 2.3708C13.0071 2.4008 12.9161 2.4299 12.8233 2.4581z"/>
<path transform="translate(71.1980, 26.5522)" stroke-width="0.0800" stroke-linejoin="round" stroke-linecap="round" stroke="currentColor" fill="currentColor" d="M12.0973 2.7159C12.1979 2.6909 12.2971 2.6648 12.3948 2.6379L12.3948 2.5789C12.2971 2.6045 12.1979 2.6291 12.0973 2.6528z"/>
<path transform="translate(71.1980, 26.5522)" stroke-width="0.0800" stroke-linejoin="round" stroke-linecap="round" stroke="currentColor" fill="currentColor" d="M11.3171 2.8862C11.4243 2.8659 11.5303 2.8446 11.6350 2.8224L11.6350 2.7535C11.5303 2.7745 11.4243 2.7947 11.3171 2.8139z"/>
<path transform="translate(71.1980, 26.5522)" stroke-width="0.0800" stroke-linejoin="round" stroke-linecap="round" stroke="currentColor" fill="currentColor" d="M10.4929 3.0211C10.6053 3.0055 10.7168 2.9889 10.8272 2.9714L10.8272 2.8945C10.7168 2.9111 10.6053 2.9267 10.4929 2.9415z"/>
<path transform="translate(71.1980, 26.5522)" stroke-width="0.0800" stroke-linejoin="round" stroke-linecap="round" stroke="currentColor" fill="currentColor" d="M9.6351 3.1204C9.7512 3.1095 9.8668 3.0977 9.9816 3.0849L9.9816 3.0019C9.8668 3.0140 9.7512 3.0252 9.6351 3.0355z"/>
<path transform="translate(71.1980, 26.5522)" stroke-width="0.0800" stroke-linejoin="round" stroke-linecap="round" stroke="currentColor" fill="currentColor" d="M8.7537 3.1843C8.8723 3.1781 8.9906 3.1710 9.1084 3.1630L9.1084 3.0758C8.9906 3.0834 8.8723 3.0901 8.7537 3.0959z"/>
<path transform="translate(71.1980, 26.5522)" stroke-width="0.0800" stroke-linejoin="round" stroke-linecap="round" stroke="currentColor" fill="currentColor" d="M7.8590 3.2127C7.9787 3.2113 8.0984 3.2089 8.2178 3.2056L8.2178 3.1161C8.0984 3.1192 7.9787 3.1214 7.8590 3.1228z"/>
<path transform="translate(71.1980, 26.5522)" stroke-width="0.0800" stroke-linejoin="round" stroke-linecap="round" stroke="currentColor" fill="currentColor" d="M6.9613 3.2056C7.0807 3.2089 7.2004 3.2113 7.3201 3.2127L7.3201 3.1228C7.2004 3.1214 7.0807 3.1192 6.9613 3.1161z"/>
<path transform="translate(71.1980, 26.5522)" stroke-width="0.0800" stroke-linejoin="round" stroke-linecap="round" stroke="currentColor" fill="currentColor" d="M6.0707 3.1630C6.1885 3.1710 6.3068 3.1781 6.4254 3.1843L6.4254 3.0959C6.3068 3.0901 6.1885 3.0834 6.0707 3.0758z"/>
<path transform="translate(71.1980, 26.5522)" stroke-width="0.0800" stroke-linejoin="round" stroke-linecap="round" stroke="currentColor" fill="currentColor" d="M5.1975 3.0849C5.3123 3.0977 5.4279 3.1095 5.5440 3.1204L5.5440 3.0355C5.4279 3.0252 5.3123 3.0140 5.1975 3.0019z"/>
<path transform="translate(71.1980, 26.5522)" stroke-width="0.0800" stroke-linejoin="round" stroke-linecap="round" stroke="currentColor" fill="currentColor" d="M4.3519 2.9714C4.4623 2.9889 4.5738 3.0055 4.6862 3.0211L4.6862 2.9415C4.5738 2.9267 4.4623 2.9111 4.3519 2.8945z"/>
<path transform="translate(71.1980, 26.5522)" stroke-width="0.0800" stroke-linejoin="round" stroke-linecap="round" stroke="currentColor" fill="currentColor" d="M3.5441 2.8224C3.6488 2.8446 3.7548 2.8659 3.8620 2.8862L3.8620 2.8139C3.7548 2.7947 3.6488 2.7745 3.5441 2.7535z"/>
<path transform="translate(71.1980, 26.5522)" stroke-width="0.0800" stroke-linejoin="round" stroke-linecap="round" stroke="currentColor" fill="currentColor" d="M2.7843 2.6379C2.8820 2.6648 2.9812 2.6909 3.0818 2.7159L3.0818 2.6528C2.9812 2.6291 2.8820 2.6045 2.7843 2.5789z"/>
<path transform="translate(71.1980, 26.5522)" stroke-width="0.0800" stroke-linejoin="round" stroke-linecap="round" stroke="currentColor" fill="currentColor" d="M2.0828 2.4179C2.1720 2.4496 2.2630 2.4803 2.3558 2.5101L2.3558 2.4581C2.2630 2.4299 2.1720 2.4008 2.0828 2.3708z"/>
<path transform="translate(71.1980, 26.5522)" stroke-width="0.0800" stroke-linejoin="round" stroke-linecap="round" stroke="currentColor" fill="currentColor" d="M1.4498 2.1624C1.5291 2.1988 1.6106 2.2343 1.6941 2.2688L1.6941 2.2298C1.6106 2.1971 1.5291 2.1636 1.4498 2.1291z"/>
<path transform="translate(71.1980, 26.5522)" stroke-width="0.0800" stroke-linejoin="round" stroke-linecap="round" stroke="currentColor" fill="currentColor" d="M0.8954 1.8714C0.9636 1.9126 1.0342 1.9528 1.1071 1.9921L1.1071 1.9680C1.0342 1.9308 0.9636 1.8928 0.8954 1.8538z"/>
<path transform="translate(71.1980, 26.5522)" stroke-width="0.0800" stroke-linejoin="round" stroke-linecap="round" stroke="currentColor" fill="currentColor" d="M0.4300 1.5450C0.4857 1.5909 0.5440 1.6358 0.6048 1.6798L0.6048 1.6726C0.5440 1.6309 0.4857 1.5884 0.4300 1.5450z"/>
</a>
</g>
<g color="rgb(93.3333%, 50.9804%, 93.3333%)">
<a style="color:inherit;" xlink:href="textedit:///home/ryan/projects/lilypond-in-markdown/_lilypond/ce5b65ebc04902925f1d92acdbd76ce3.ly:226:15:16">
<path transform="translate(69.0706, 38.3386)" stroke-width="0.0800" stroke-linejoin="round" stroke-linecap="round" stroke="currentColor" fill="currentColor" d="M1.4319 1.5450C2.2044 2.7059 4.3585 3.2258 5.5755 2.5450L5.5755 2.5450C4.3867 3.1091 2.2325 2.5893 1.4319 1.5450z"/>
</a>
</g>
<g color="rgb(93.3333%, 50.9804%, 93.3333%)">
<a style="color:inherit;" xlink:href="textedit:///home/ryan/projects/lilypond-in-markdown/_lilypond/ce5b65ebc04902925f1d92acdbd76ce3.ly:254:12:13">
<path transform="translate(69.0706, 38.5886)" stroke-width="0.0800" stroke-linejoin="round" stroke-linecap="round" stroke="currentColor" fill="currentColor" d="M0.6272 -0.6387C2.4481 -2.6097 9.9599 -3.0407 11.9553 -1.2887L11.9553 -1.2887C9.9668 -2.9209 2.4550 -2.4899 0.6272 -0.6387z"/>
</a>
</g>
<g color="rgb(93.3333%, 50.9804%, 93.3333%)">
<a style="color:inherit;" xlink:href="textedit:///home/ryan/projects/lilypond-in-markdown/_lilypond/ce5b65ebc04902925f1d92acdbd76ce3.ly:141:16:17">
<path transform="translate(74.9461, 26.5522)" stroke-width="0.1000" stroke-linejoin="round" stroke-linecap="round" stroke="currentColor" fill="currentColor" d="M1.2802 -1.5597C3.2676 -3.0418 10.1484 -2.3897 11.8312 -0.5597L11.8312 -0.5597C10.1380 -2.2801 3.2572 -2.9323 1.2802 -1.5597z"/>
</a>
</g>
<g color="rgb(93.3333%, 50.9804%, 93.3333%)">
<a style="color:inherit;" xlink:href="textedit:///home/ryan/projects/lilypond-in-markdown/_lilypond/ce5b65ebc04902925f1d92acdbd76ce3.ly:141:21:22">
<path transform="translate(79.7466, 26.5522)" stroke-width="0.0800" stroke-linejoin="round" stroke-linecap="round" stroke="currentColor" fill="currentColor" d="M0.6257 1.2354C1.8231 2.6028 5.0405 2.7986 6.3762 1.5854L6.3762 1.5854C5.0478 2.6788 1.8304 2.4830 0.6257 1.2354z"/>
</a>
</g>
<a style="color:inherit;" xlink:href="textedit:///home/ryan/projects/lilypond-in-markdown/_lilypond/ce5b65ebc04902925f1d92acdbd76ce3.ly:231:18:19">
<path transform="translate(85.4971, 42.0886) scale(0.0040, -0.0040)" d="M218 136c55 0 108 -28 108 -89c0 -71 -55 -121 -102 -149c-35 -21 -75 -34 -116 -34c-55 0 -108 28 -108 89c0 71 55 121 102 149c35 21 75 34 116 34z" fill="currentColor"/>
</a>
<a style="color:inherit;" xlink:href="textedit:///home/ryan/projects/lilypond-in-markdown/_lilypond/ce5b65ebc04902925f1d92acdbd76ce3.ly:141:62:63">
<path transform="translate(85.4971, 27.0522) scale(0.0040, -0.0040)" d="M218 136c55 0 108 -28 108 -89c0 -71 -55 -121 -102 -149c-35 -21 -75 -34 -116 -34c-55 0 -108 28 -108 89c0 71 55 121 102 149c35 21 75 34 116 34z" fill="currentColor"/>
</a>
<a style="color:inherit;" xlink:href="textedit:///home/ryan/projects/lilypond-in-markdown/_lilypond/ce5b65ebc04902925f1d92acdbd76ce3.ly:75:24:25">
<g color="rgb(100.0000%, 0.0000%, 0.0000%)">
<text transform="translate(90.1726, 16.3499)" font-family="serif" font-size="1.9600" text-anchor="start" fill="currentColor">
<tspan>
^</tspan>
</text>
</g>
<g color="rgb(100.0000%, 0.0000%, 0.0000%)">
<text transform="translate(90.1726, 17.8180)" font-family="serif" font-size="1.9600" text-anchor="start" fill="currentColor">
<tspan>
1</tspan>
</text>
</g>
</a>
<rect transform="translate(91.4849, 26.5522)" x="-0.0650" y="-8.0000" width="0.1300" height="8.7410" ry="0.0400" fill="currentColor"/>
<a style="color:inherit;" xlink:href="textedit:///home/ryan/projects/lilypond-in-markdown/_lilypond/ce5b65ebc04902925f1d92acdbd76ce3.ly:199:31:32">
<path transform="translate(90.1726, 40.5886) scale(0.0040, -0.0040)" d="M314 65c0 24 -21 41 -42 41c-4 0 -8 0 -12 -1c-31 -9 -78 -40 -115 -64s-84 -53 -104 -78c-7 -8 -10 -18 -10 -28c0 -24 21 -41 42 -41c4 0 8 0 12 1c31 9 77 40 114 64s84 53 104 78c7 8 11 18 11 28zM262 136c46 0 82 -21 82 -71c0 -19 -4 -39 -10 -57
c-12 -37 -32 -72 -64 -94c-53 -36 -113 -50 -187 -50c-46 0 -83 21 -83 71c0 19 5 39 11 57c12 37 31 72 63 94c53 36 114 50 188 50z" fill="currentColor"/>
</a>
<a style="color:inherit;" xlink:href="textedit:///home/ryan/projects/lilypond-in-markdown/_lilypond/ce5b65ebc04902925f1d92acdbd76ce3.ly:189:17:18">
<g color="rgb(48.6275%, 98.8235%, 0%)">
<text transform="translate(90.1726, 48.8934)" font-family="serif" font-weight="bold" font-size="2.2001" text-anchor="start" fill="currentColor">
<tspan>
I</tspan>
</text>
</g>
</a>
<a style="color:inherit;" xlink:href="textedit:///home/ryan/projects/lilypond-in-markdown/_lilypond/ce5b65ebc04902925f1d92acdbd76ce3.ly:102:18:19">
<path transform="translate(90.1726, 27.5522) scale(0.0040, -0.0040)" d="M314 65c0 24 -21 41 -42 41c-4 0 -8 0 -12 -1c-31 -9 -78 -40 -115 -64s-84 -53 -104 -78c-7 -8 -10 -18 -10 -28c0 -24 21 -41 42 -41c4 0 8 0 12 1c31 9 77 40 114 64s84 53 104 78c7 8 11 18 11 28zM262 136c46 0 82 -21 82 -71c0 -19 -4 -39 -10 -57
c-12 -37 -32 -72 -64 -94c-53 -36 -113 -50 -187 -50c-46 0 -83 21 -83 71c0 19 5 39 11 57c12 37 31 72 63 94c53 36 114 50 188 50z" fill="currentColor"/>
</a>
<a style="color:inherit;" xlink:href="textedit:///home/ryan/projects/lilypond-in-markdown/_lilypond/ce5b65ebc04902925f1d92acdbd76ce3.ly:212:14:15">
<g color="rgb(0.0000%, 0.0000%, 100.0000%)">
<text transform="translate(18.8970, 33.9359)" font-family="serif" font-size="1.7461" text-anchor="start" fill="currentColor">
<tspan>
P</tspan>
</text>
</g>
</a>
<a style="color:inherit;" xlink:href="textedit:///home/ryan/projects/lilypond-in-markdown/_lilypond/ce5b65ebc04902925f1d92acdbd76ce3.ly:212:10:11">
<path transform="translate(18.8970, 36.5886) scale(0.0040, -0.0040)" d="M218 136c55 0 108 -28 108 -89c0 -71 -55 -121 -102 -149c-35 -21 -75 -34 -116 -34c-55 0 -108 28 -108 89c0 71 55 121 102 149c35 21 75 34 116 34z" fill="currentColor"/>
</a>
<a style="color:inherit;" xlink:href="textedit:///home/ryan/projects/lilypond-in-markdown/_lilypond/ce5b65ebc04902925f1d92acdbd76ce3.ly:128:25:26">
<g color="rgb(0.0000%, 0.0000%, 100.0000%)">
<text transform="translate(18.8970, 31.6385)" font-family="serif" font-size="1.7461" text-anchor="start" fill="currentColor">
<tspan>
N</tspan>
</text>
</g>
</a>
<a style="color:inherit;" xlink:href="textedit:///home/ryan/projects/lilypond-in-markdown/_lilypond/ce5b65ebc04902925f1d92acdbd76ce3.ly:128:20:21">
<path transform="translate(18.8970, 28.0522) scale(0.0040, -0.0040)" d="M218 136c55 0 108 -28 108 -89c0 -71 -55 -121 -102 -149c-35 -21 -75 -34 -116 -34c-55 0 -108 28 -108 89c0 71 55 121 102 149c35 21 75 34 116 34z" fill="currentColor"/>
</a>
<a style="color:inherit;" xlink:href="textedit:///home/ryan/projects/lilypond-in-markdown/_lilypond/ce5b65ebc04902925f1d92acdbd76ce3.ly:213:16:17">
<g color="rgb(0.0000%, 0.0000%, 100.0000%)">
<text transform="translate(28.1229, 35.7301)" font-family="serif" font-size="1.7461" text-anchor="start" fill="currentColor">
<tspan>
P</tspan>
</text>
</g>
</a>
<a style="color:inherit;" xlink:href="textedit:///home/ryan/projects/lilypond-in-markdown/_lilypond/ce5b65ebc04902925f1d92acdbd76ce3.ly:213:10:11">
<path transform="translate(28.1229, 37.5886) scale(0.0040, -0.0040)" d="M218 136c55 0 108 -28 108 -89c0 -71 -55 -121 -102 -149c-35 -21 -75 -34 -116 -34c-55 0 -108 28 -108 89c0 71 55 121 102 149c35 21 75 34 116 34z" fill="currentColor"/>
</a>
<a style="color:inherit;" xlink:href="textedit:///home/ryan/projects/lilypond-in-markdown/_lilypond/ce5b65ebc04902925f1d92acdbd76ce3.ly:129:17:18">
<g color="rgb(0.0000%, 0.0000%, 100.0000%)">
<text transform="translate(28.1229, 24.0022)" font-family="serif" font-size="1.7461" text-anchor="start" fill="currentColor">
<tspan>
P</tspan>
</text>
</g>
</a>
<a style="color:inherit;" xlink:href="textedit:///home/ryan/projects/lilypond-in-markdown/_lilypond/ce5b65ebc04902925f1d92acdbd76ce3.ly:129:14:15">
<path transform="translate(28.1229, 27.0522) scale(0.0040, -0.0040)" d="M218 136c55 0 108 -28 108 -89c0 -71 -55 -121 -102 -149c-35 -21 -75 -34 -116 -34c-55 0 -108 28 -108 89c0 71 55 121 102 149c35 21 75 34 116 34z" fill="currentColor"/>
</a>
<a style="color:inherit;" xlink:href="textedit:///home/ryan/projects/lilypond-in-markdown/_lilypond/ce5b65ebc04902925f1d92acdbd76ce3.ly:212:53:54">
<path transform="translate(23.5725, 36.0886) scale(0.0040, -0.0040)" d="M218 136c55 0 108 -28 108 -89c0 -71 -55 -121 -102 -149c-35 -21 -75 -34 -116 -34c-55 0 -108 28 -108 89c0 71 55 121 102 149c35 21 75 34 116 34z" fill="currentColor"/>
</a>
<a style="color:inherit;" xlink:href="textedit:///home/ryan/projects/lilypond-in-markdown/_lilypond/ce5b65ebc04902925f1d92acdbd76ce3.ly:128:64:65">
<path transform="translate(23.5725, 27.5522) scale(0.0040, -0.0040)" d="M218 136c55 0 108 -28 108 -89c0 -71 -55 -121 -102 -149c-35 -21 -75 -34 -116 -34c-55 0 -108 28 -108 89c0 71 55 121 102 149c35 21 75 34 116 34z" fill="currentColor"/>
</a>
<a style="color:inherit;" xlink:href="textedit:///home/ryan/projects/lilypond-in-markdown/_lilypond/ce5b65ebc04902925f1d92acdbd76ce3.ly:55:6:7">
<path transform="translate(9.4215, 24.5522) scale(0.0040, -0.0040)" d="M216 -312c0 -10 -8 -19 -18 -19s-19 9 -19 19v145l-83 -31v-158c0 -10 -9 -19 -19 -19s-18 9 -18 19v145l-32 -12c-2 -1 -5 -1 -7 -1c-11 0 -20 9 -20 20v60c0 8 5 16 13 19l46 16v160l-32 -11c-2 -1 -5 -1 -7 -1c-11 0 -20 9 -20 20v60c0 8 5 15 13 18l46 17v158
c0 10 8 19 18 19s19 -9 19 -19v-145l83 31v158c0 10 9 19 19 19s18 -9 18 -19v-145l32 12c2 1 5 1 7 1c11 0 20 -9 20 -20v-60c0 -8 -5 -16 -13 -19l-46 -16v-160l32 11c2 1 5 1 7 1c11 0 20 -9 20 -20v-60c0 -8 -5 -15 -13 -18l-46 -17v-158zM96 65v-160l83 30v160z" fill="currentColor"/>
</a>
<rect transform="translate(14.2607, 26.5522)" x="-0.0650" y="-3.9748" width="0.1300" height="4.7887" ry="0.0400" fill="currentColor"/>
<a style="color:inherit;" xlink:href="textedit:///home/ryan/projects/lilypond-in-markdown/_lilypond/ce5b65ebc04902925f1d92acdbd76ce3.ly:176:8:9">
<path transform="translate(9.4215, 37.5886) scale(0.0040, -0.0040)" d="M216 -312c0 -10 -8 -19 -18 -19s-19 9 -19 19v145l-83 -31v-158c0 -10 -9 -19 -19 -19s-18 9 -18 19v145l-32 -12c-2 -1 -5 -1 -7 -1c-11 0 -20 9 -20 20v60c0 8 5 16 13 19l46 16v160l-32 -11c-2 -1 -5 -1 -7 -1c-11 0 -20 9 -20 20v60c0 8 5 15 13 18l46 17v158
c0 10 8 19 18 19s19 -9 19 -19v-145l83 31v158c0 10 9 19 19 19s18 -9 18 -19v-145l32 12c2 1 5 1 7 1c11 0 20 -9 20 -20v-60c0 -8 -5 -16 -13 -19l-46 -16v-160l32 11c2 1 5 1 7 1c11 0 20 -9 20 -20v-60c0 -8 -5 -15 -13 -18l-46 -17v-158zM96 65v-160l83 30v160z" fill="currentColor"/>
</a>
<path transform="translate(5.9215, 37.5886) scale(0.0040, -0.0040)" d="M557 -125c0 28 23 51 51 51s51 -23 51 -51s-23 -51 -51 -51s-51 23 -51 51zM557 125c0 28 23 51 51 51s51 -23 51 -51s-23 -51 -51 -51s-51 23 -51 51zM232 263c172 0 293 -88 293 -251c0 -263 -263 -414 -516 -521c-3 -3 -6 -4 -9 -4c-7 0 -13 6 -13 13c0 3 1 6 4 9
c202 118 412 265 412 493c0 120 -63 235 -171 235c-74 0 -129 -54 -154 -126c11 5 22 8 34 8c55 0 100 -45 100 -100c0 -58 -44 -106 -100 -106c-60 0 -112 47 -112 106c0 133 102 244 232 244z" fill="currentColor"/>
<a style="color:inherit;" xlink:href="textedit:///home/ryan/projects/lilypond-in-markdown/_lilypond/ce5b65ebc04902925f1d92acdbd76ce3.ly:199:13:14">
<path transform="translate(13.0215, 37.0886) scale(0.0040, -0.0040)" d="M314 65c0 24 -21 41 -42 41c-4 0 -8 0 -12 -1c-31 -9 -78 -40 -115 -64s-84 -53 -104 -78c-7 -8 -10 -18 -10 -28c0 -24 21 -41 42 -41c4 0 8 0 12 1c31 9 77 40 114 64s84 53 104 78c7 8 11 18 11 28zM262 136c46 0 82 -21 82 -71c0 -19 -4 -39 -10 -57
c-12 -37 -32 -72 -64 -94c-53 -36 -113 -50 -187 -50c-46 0 -83 21 -83 71c0 19 5 39 11 57c12 37 31 72 63 94c53 36 114 50 188 50z" fill="currentColor"/>
</a>
<a style="color:inherit;" xlink:href="textedit:///home/ryan/projects/lilypond-in-markdown/_lilypond/ce5b65ebc04902925f1d92acdbd76ce3.ly:185:16:17">
<g color="rgb(48.6275%, 98.8235%, 0%)">
<text transform="translate(13.0215, 48.8934)" font-family="serif" font-weight="bold" font-size="2.2001" text-anchor="start" fill="currentColor">
<tspan>
I</tspan>
</text>
</g>
</a>
<path transform="translate(5.9215, 27.5522) scale(0.0040, -0.0040)" d="M266 -635h-6c-108 0 -195 88 -195 197c0 58 53 103 112 103c54 0 95 -47 95 -103c0 -52 -43 -95 -95 -95c-11 0 -21 2 -31 6c26 -39 68 -65 117 -65h4zM461 -203c68 24 113 95 113 164c0 90 -66 179 -173 190c24 -116 46 -231 60 -354zM74 28c0 -135 129 -247 264 -247
c28 0 55 2 82 6c-14 127 -37 245 -63 364c-79 -8 -124 -61 -124 -119c0 -44 25 -91 81 -123c5 -5 7 -10 7 -15c0 -11 -10 -22 -22 -22c-3 0 -6 1 -9 2c-80 43 -117 115 -117 185c0 88 58 174 160 197c-14 58 -29 117 -46 175c-107 -121 -213 -243 -213 -403zM335 -262
c-188 0 -333 172 -333 374c0 177 131 306 248 441c-19 62 -37 125 -45 190c-6 52 -7 104 -7 156c0 115 55 224 149 292c6 5 14 5 20 0c71 -84 133 -245 133 -358c0 -143 -86 -255 -180 -364c21 -68 39 -138 56 -207c4 0 9 1 13 1c155 0 256 -128 256 -261
c0 -76 -33 -154 -107 -210c-22 -17 -47 -28 -73 -36c3 -35 5 -70 5 -105c0 -19 -1 -39 -2 -58c-7 -119 -88 -225 -202 -228l1 43c93 2 153 92 159 191c1 18 2 37 2 55c0 31 -1 61 -4 92c-29 -5 -58 -8 -89 -8zM428 916c0 55 -4 79 -20 129c-99 -48 -162 -149 -162 -259
c0 -74 18 -133 36 -194c80 97 146 198 146 324z" fill="currentColor"/>
<a style="color:inherit;" xlink:href="textedit:///home/ryan/projects/lilypond-in-markdown/_lilypond/ce5b65ebc04902925f1d92acdbd76ce3.ly:128:14:15">
<path transform="translate(13.0215, 27.5522) scale(0.0040, -0.0040)" d="M218 136c55 0 108 -28 108 -89c0 -71 -55 -121 -102 -149c-35 -21 -75 -34 -116 -34c-55 0 -108 28 -108 89c0 71 55 121 102 149c35 21 75 34 116 34z" fill="currentColor"/>
</a>
<a style="color:inherit;" xlink:href="textedit:///home/ryan/projects/lilypond-in-markdown/_lilypond/ce5b65ebc04902925f1d92acdbd76ce3.ly:110:14:15">
<path transform="translate(13.0215, 27.5522) scale(0.0040, -0.0040)" d="M218 136c55 0 108 -28 108 -89c0 -71 -55 -121 -102 -149c-35 -21 -75 -34 -116 -34c-55 0 -108 28 -108 89c0 71 55 121 102 149c35 21 75 34 116 34z" fill="currentColor"/>
</a>
<rect transform="translate(5.0615, 32.5704)" x="0.0000" y="-8.0682" width="0.1600" height="16.1365" ry="0.0500" fill="currentColor"/>
<path transform="translate(4.7615, 32.5704) scale(0.0040, -0.0040)" d="M-16 -604c0 -324 -120 -640 -120 -948c0 -164 36 -320 148 -448c16 -16 -8 -36 -24 -20c-152 168 -204 380 -204 604c0 332 128 656 128 968c0 164 -36 316 -148 440c0 4 -4 4 -4 8s4 4 4 8c112 124 148 276 148 440c0 312 -128 636 -128 968c0 224 52 436 204 604
c16 16 40 -4 24 -20c-112 -128 -148 -284 -148 -448c0 -308 120 -624 120 -948c0 -224 -48 -436 -196 -604c148 -168 196 -380 196 -604z" fill="currentColor"/>
<rect transform="translate(13.0865, 38.5886)" x="-0.0650" y="-1.3139" width="0.1300" height="9.3139" ry="0.0400" fill="currentColor"/>
<a style="color:inherit;" xlink:href="textedit:///home/ryan/projects/lilypond-in-markdown/_lilypond/ce5b65ebc04902925f1d92acdbd76ce3.ly:217:17:18">
<g color="rgb(0.0000%, 0.0000%, 100.0000%)">
<text transform="translate(44.4153, 36.0386)" font-family="serif" font-size="1.7461" text-anchor="start" fill="currentColor">
<tspan>
N</tspan>
</text>
</g>
</a>
<a style="color:inherit;" xlink:href="textedit:///home/ryan/projects/lilypond-in-markdown/_lilypond/ce5b65ebc04902925f1d92acdbd76ce3.ly:217:15:16">
<path transform="translate(44.4153, 38.5886) scale(0.0040, -0.0040)" d="M218 136c55 0 108 -28 108 -89c0 -71 -55 -121 -102 -149c-35 -21 -75 -34 -116 -34c-55 0 -108 28 -108 89c0 71 55 121 102 149c35 21 75 34 116 34z" fill="currentColor"/>
</a>
<a style="color:inherit;" xlink:href="textedit:///home/ryan/projects/lilypond-in-markdown/_lilypond/ce5b65ebc04902925f1d92acdbd76ce3.ly:130:18:19">
<g color="rgb(0.0000%, 0.0000%, 100.0000%)">
<text transform="translate(44.4153, 17.8522)" font-family="serif" font-size="1.7461" text-anchor="start" fill="currentColor">
<tspan>
P</tspan>
</text>
</g>
</a>
<a style="color:inherit;" xlink:href="textedit:///home/ryan/projects/lilypond-in-markdown/_lilypond/ce5b65ebc04902925f1d92acdbd76ce3.ly:130:14:15">
<path transform="translate(44.4153, 26.5522) scale(0.0040, -0.0040)" d="M218 136c55 0 108 -28 108 -89c0 -71 -55 -121 -102 -149c-35 -21 -75 -34 -116 -34c-55 0 -108 28 -108 89c0 71 55 121 102 149c35 21 75 34 116 34z" fill="currentColor"/>
</a>
<rect transform="translate(38.6048, 38.5886)" x="-0.0650" y="0.6861" width="0.1300" height="3.2862" ry="0.0400" fill="currentColor"/>
<rect transform="translate(39.7790, 26.5522)" x="-0.0650" y="-2.9636" width="0.1300" height="3.2775" ry="0.0400" fill="currentColor"/>
<a style="color:inherit;" xlink:href="textedit:///home/ryan/projects/lilypond-in-markdown/_lilypond/ce5b65ebc04902925f1d92acdbd76ce3.ly:244:10:11">
<path transform="translate(38.5398, 39.0886) scale(0.0040, -0.0040)" d="M218 136c55 0 108 -28 108 -89c0 -71 -55 -121 -102 -149c-35 -21 -75 -34 -116 -34c-55 0 -108 28 -108 89c0 71 55 121 102 149c35 21 75 34 116 34z" fill="currentColor"/>
</a>
<path transform="translate(50.2700, 20.9061) scale(0.0040, -0.0040)" d="M0 0v-250h-16v250h16zM0 0c0 -197 207 -336 207 -533c0 -71 -15 -141 -41 -207c-5 -8 -13 -12 -20 -12c-13 0 -26 11 -23 27c26 61 42 126 42 192c0 103 -94 208 -165 283v250z" fill="currentColor"/>
<rect transform="translate(50.2050, 26.5522)" x="-0.0650" y="-5.6861" width="0.1300" height="5.0000" ry="0.0400" fill="currentColor"/>
<rect transform="translate(49.0308, 26.5522)" x="-0.0650" y="-0.3139" width="0.1300" height="2.5275" ry="0.0400" fill="currentColor"/>
<a style="color:inherit;" xlink:href="textedit:///home/ryan/projects/lilypond-in-markdown/_lilypond/ce5b65ebc04902925f1d92acdbd76ce3.ly:246:10:11">
<path transform="translate(48.9658, 41.0886) scale(0.0040, -0.0040)" d="M218 136c55 0 108 -28 108 -89c0 -71 -55 -121 -102 -149c-35 -21 -75 -34 -116 -34c-55 0 -108 28 -108 89c0 71 55 121 102 149c35 21 75 34 116 34z" fill="currentColor"/>
</a>
<a style="color:inherit;" xlink:href="textedit:///home/ryan/projects/lilypond-in-markdown/_lilypond/ce5b65ebc04902925f1d92acdbd76ce3.ly:134:14:15">
<path transform="translate(48.9658, 26.0522) scale(0.0040, -0.0040)" d="M218 136c55 0 108 -28 108 -89c0 -71 -55 -121 -102 -149c-35 -21 -75 -34 -116 -34c-55 0 -108 28 -108 89c0 71 55 121 102 149c35 21 75 34 116 34z" fill="currentColor"/>
</a>
<a style="color:inherit;" xlink:href="textedit:///home/ryan/projects/lilypond-in-markdown/_lilypond/ce5b65ebc04902925f1d92acdbd76ce3.ly:118:14:15">
<path transform="translate(48.9658, 26.0522) scale(0.0040, -0.0040)" d="M218 136c55 0 108 -28 108 -89c0 -71 -55 -121 -102 -149c-35 -21 -75 -34 -116 -34c-55 0 -108 28 -108 89c0 71 55 121 102 149c35 21 75 34 116 34z" fill="currentColor"/>
</a>
<rect transform="translate(32.8634, 26.5522)" x="-0.0650" y="0.1861" width="0.1300" height="3.0387" ry="0.0400" fill="currentColor"/>
<rect transform="translate(34.1108, 26.5522)" x="-0.0650" y="-8.0000" width="0.1300" height="7.7410" ry="0.0400" fill="currentColor"/>
<a style="color:inherit;" xlink:href="textedit:///home/ryan/projects/lilypond-in-markdown/_lilypond/ce5b65ebc04902925f1d92acdbd76ce3.ly:213:55:56">
<path transform="translate(32.7984, 38.0886) scale(0.0040, -0.0040)" d="M218 136c55 0 108 -28 108 -89c0 -71 -55 -121 -102 -149c-35 -21 -75 -34 -116 -34c-55 0 -108 28 -108 89c0 71 55 121 102 149c35 21 75 34 116 34z" fill="currentColor"/>
</a>
<a style="color:inherit;" xlink:href="textedit:///home/ryan/projects/lilypond-in-markdown/_lilypond/ce5b65ebc04902925f1d92acdbd76ce3.ly:129:56:57">
<path transform="translate(32.7984, 26.5522) scale(0.0040, -0.0040)" d="M314 65c0 24 -21 41 -42 41c-4 0 -8 0 -12 -1c-31 -9 -78 -40 -115 -64s-84 -53 -104 -78c-7 -8 -10 -18 -10 -28c0 -24 21 -41 42 -41c4 0 8 0 12 1c31 9 77 40 114 64s84 53 104 78c7 8 11 18 11 28zM262 136c46 0 82 -21 82 -71c0 -19 -4 -39 -10 -57
c-12 -37 -32 -72 -64 -94c-53 -36 -113 -50 -187 -50c-46 0 -83 21 -83 71c0 19 5 39 11 57c12 37 31 72 63 94c53 36 114 50 188 50z" fill="currentColor"/>
</a>
<a style="color:inherit;" xlink:href="textedit:///home/ryan/projects/lilypond-in-markdown/_lilypond/ce5b65ebc04902925f1d92acdbd76ce3.ly:95:17:18">
<path transform="translate(32.7984, 26.5522) scale(0.0040, -0.0040)" d="M314 65c0 24 -21 41 -42 41c-4 0 -8 0 -12 -1c-31 -9 -78 -40 -115 -64s-84 -53 -104 -78c-7 -8 -10 -18 -10 -28c0 -24 21 -41 42 -41c4 0 8 0 12 1c31 9 77 40 114 64s84 53 104 78c7 8 11 18 11 28zM262 136c46 0 82 -21 82 -71c0 -19 -4 -39 -10 -57
c-12 -37 -32 -72 -64 -94c-53 -36 -113 -50 -187 -50c-46 0 -83 21 -83 71c0 19 5 39 11 57c12 37 31 72 63 94c53 36 114 50 188 50z" fill="currentColor"/>
</a>
<a style="color:inherit;" xlink:href="textedit:///home/ryan/projects/lilypond-in-markdown/_lilypond/ce5b65ebc04902925f1d92acdbd76ce3.ly:63:20:21">
<g color="rgb(100.0000%, 0.0000%, 0.0000%)">
<text transform="translate(32.7984, 16.3499)" font-family="serif" font-size="1.9600" text-anchor="start" fill="currentColor">
<tspan>
^</tspan>
</text>
</g>
<g color="rgb(100.0000%, 0.0000%, 0.0000%)">
<text transform="translate(32.7984, 17.8180)" font-family="serif" font-size="1.9600" text-anchor="start" fill="currentColor">
<tspan>
3</tspan>
</text>
</g>
</a>
<a style="color:inherit;" xlink:href="textedit:///home/ryan/projects/lilypond-in-markdown/_lilypond/ce5b65ebc04902925f1d92acdbd76ce3.ly:116:14:15">
<path transform="translate(38.5398, 27.0522) scale(0.0040, -0.0040)" d="M218 136c55 0 108 -28 108 -89c0 -71 -55 -121 -102 -149c-35 -21 -75 -34 -116 -34c-55 0 -108 28 -108 89c0 71 55 121 102 149c35 21 75 34 116 34z" fill="currentColor"/>
</a>
</svg>
