<svg xmlns:xlink="http://www.w3.org/1999/xlink" version="1.2" viewBox="-1.172 0 70.231 20.068"><path stroke="currentColor" stroke-linecap="round" stroke-linejoin="round" stroke-width=".1" d="M.05 8.973h69.008M.05 7.973h69.008M.05 6.973h69.008M.05 5.973h69.008M.05 4.973h69.008"/><rect width="2.066" height=".2" x="48.369" y="-.1" fill="currentColor" ry=".1" transform="translate(0 9.973)"/><rect width="1.956" height=".2" x="44.469" y="-.1" fill="currentColor" ry=".1" transform="translate(0 9.973)"/><rect width="1.956" height=".2" x="42.269" y="-.1" fill="currentColor" ry=".1" transform="translate(0 19.023)"/><rect width="2.943" height=".2" x="24.567" y="-.1" fill="currentColor" ry=".1" transform="translate(0 13.023)"/><rect width="2.066" height=".2" x="15.746" y="-.1" fill="currentColor" ry=".1" transform="translate(0 13.023)"/><path stroke="currentColor" stroke-linecap="round" stroke-linejoin="round" stroke-width=".1" d="M.05 18.023h64.208M.05 17.023h64.208M.05 16.023h64.208M.05 15.023h64.208M.05 14.023h64.208"/><rect width=".19" height="4.05" y="-2.05" fill="currentColor" ry="0" transform="translate(22.968 16.023)"/><rect width=".19" height="4.05" y="-2.05" fill="currentColor" ry="0" transform="translate(59.868 16.023)"/><rect width=".19" height="5" y="9.023" fill="currentColor" ry="0" transform="translate(22.968)"/><rect width=".19" height="4.05" y="-2" fill="currentColor" ry="0" transform="translate(32.31 6.973)"/><rect width=".19" height="4.05" y="-2" fill="currentColor" ry="0" transform="translate(31.82 6.973)"/><rect width=".19" height="5" y="9.023" fill="currentColor" ry="0" transform="translate(32.31)"/><rect width=".19" height="5" y="9.023" fill="currentColor" ry="0" transform="translate(31.82)"/><rect width=".19" height="4.05" y="-2" fill="currentColor" ry="0" transform="translate(22.968 6.973)"/><rect width=".19" height="5" y="9.023" fill="currentColor" ry="0" transform="translate(59.868)"/><rect width=".19" height="4.05" y="-2" fill="currentColor" ry="0" transform="translate(59.868 6.973)"/><rect width=".19" height="4.05" y="-2.05" fill="currentColor" ry="0" transform="translate(32.31 16.023)"/><rect width=".19" height="4.05" y="-2.05" fill="currentColor" ry="0" transform="translate(31.82 16.023)"/><rect width=".13" height="3.845" x="-.065" y="-1.532" fill="currentColor" ry=".04" transform="translate(48.611 6.973)"/><rect width=".13" height="2.241" x="-.065" y="3.259" fill="currentColor" ry=".04" transform="translate(48.778 6.973)"/><a color="inherit"><path fill="currentColor" d="M52.812 7.93c.22 0 .432.111.432.355 0 .284-.22.484-.408.596a.908.908 0 0 1-.464.136c-.22 0-.432-.112-.432-.356 0-.284.22-.484.408-.596.14-.084.3-.136.464-.136z"/></a><rect width=".13" height="3.436" x="-.065" y="-2.122" fill="currentColor" ry=".04" transform="translate(53.18 6.973)"/><rect width=".13" height="4.012" x="-.065" y="-1.198" fill="currentColor" ry=".04" transform="translate(46.034 6.973)"/><a color="inherit"><path fill="currentColor" stroke="currentColor" stroke-linecap="round" stroke-linejoin="round" stroke-width=".1" d="M16.745 3.428c3.16-1.924 42.4-1.622 45.53.35h0c-3.13-1.862-42.372-2.164-45.53-.35z"/></a><a color="inherit"><path fill="currentColor" d="M42.883 7.973l.468-1.304a1.272 1.272 0 0 1-.42.088c-.184 0-.348-.132-.348-.316a.29.29 0 0 1 .292-.288c.1 0 .192.06.224.156.04.112.024.236.14.236.064 0 .216-.192.244-.252.024-.048.092-.048.112 0l-.492 1.68c-.032.028-.068.04-.108.04s-.08-.012-.112-.04z"/></a><a color="inherit"><path fill="currentColor" d="M43.467 18.98c.22 0 .432.111.432.355 0 .284-.22.484-.408.596a.908.908 0 0 1-.464.136c-.22 0-.432-.112-.432-.356 0-.284.22-.484.408-.596.14-.084.3-.136.464-.136z"/></a><rect width=".13" height="3.314" x="-.065" fill="currentColor" ry=".04" transform="translate(43.834 16.023)"/><a color="inherit"><path fill="currentColor" d="M45.667 9.43c.22 0 .432.111.432.355 0 .284-.22.484-.408.596a.908.908 0 0 1-.464.136c-.22 0-.432-.112-.432-.356 0-.284.22-.484.408-.596.14-.084.3-.136.464-.136z"/></a><a color="inherit"><path fill="currentColor" d="M45.667 9.43c.22 0 .432.111.432.355 0 .284-.22.484-.408.596a.908.908 0 0 1-.464.136c-.22 0-.432-.112-.432-.356 0-.284.22-.484.408-.596.14-.084.3-.136.464-.136z"/></a><a color="inherit"><path fill="currentColor" d="M47.207 16.487c0-.112.044-.168.16-.168.132 0 .312.052.476.124l-.528-.632a.16.16 0 0 1-.04-.1c0-.136.2-.264.348-.396a.435.435 0 0 0 .148-.332.427.427 0 0 0-.1-.276l-.14-.168a.057.057 0 0 1-.016-.04c0-.036.036-.06.068-.06.016 0 .032.004.044.02l.604.72a.16.16 0 0 1 .04.1c0 .136-.2.264-.348.396a.435.435 0 0 0-.148.332c0 .096.028.196.096.276l.336.396a.057.057 0 0 1 .016.04.066.066 0 0 1-.064.064.063.063 0 0 1-.048-.024c-.072-.084-.252-.152-.388-.152-.164 0-.212.104-.212.268 0 .14.044.296.112.376.02.024 0 .052-.024.052-.008 0-.016 0-.024-.008-.18-.216-.368-.592-.368-.808z"/></a><rect width=".13" height="2.814" x="-.065" y="3.186" fill="currentColor" ry=".04" transform="translate(44.86 6.973)"/><path fill="currentColor" d="M44.925 12.933h-.064v-1h.064c.388-.236.896-.592.896-1.036 0-.228-.06-.448-.16-.652-.012-.064.04-.108.092-.108.028 0 .06.012.08.044.1.224.16.468.16.716 0 .812-1.068 1.224-1.068 2.036z"/><a color="inherit"><path fill="currentColor" d="M49.969 9.713a.168.168 0 0 0-.168-.164c-.016 0-.032 0-.048.004-.124.036-.312.16-.46.256s-.336.212-.416.312a.168.168 0 0 0 .128.276c.016 0 .032 0 .048-.004.124-.036.308-.16.456-.256s.336-.212.416-.312a.172.172 0 0 0 .044-.112zm-.208-.284c.184 0 .328.084.328.284a.739.739 0 0 1-.04.228.71.71 0 0 1-.256.376c-.212.144-.452.2-.748.2-.184 0-.332-.084-.332-.284 0-.076.02-.156.044-.228a.703.703 0 0 1 .252-.376c.212-.144.456-.2.752-.2z"/></a><a color="inherit"><path fill="currentColor" d="M48.555 9.213a.168.168 0 0 0-.168-.164c-.016 0-.032 0-.048.004-.124.036-.312.16-.46.256s-.336.212-.416.312a.168.168 0 0 0 .128.276c.016 0 .032 0 .048-.004.124-.036.308-.16.456-.256s.336-.212.416-.312a.172.172 0 0 0 .044-.112zm-.208-.284c.184 0 .328.084.328.284a.739.739 0 0 1-.04.228.71.71 0 0 1-.256.376c-.212.144-.452.2-.748.2-.184 0-.332-.084-.332-.284 0-.076.02-.156.044-.228a.703.703 0 0 1 .252-.376c.212-.144.456-.2.752-.2z"/></a><path fill="currentColor" d="M62.786 7.473a.224.224 0 1 1 .447 0 .224.224 0 0 1-.447 0z"/><rect width=".13" height="3.241" x="-.065" y="-2.5" fill="currentColor" ry=".04" transform="translate(62.27 6.973)"/><a color="inherit"><path fill="currentColor" d="M60.866 16.487c0-.112.044-.168.16-.168.132 0 .312.052.476.124l-.528-.632a.16.16 0 0 1-.04-.1c0-.136.2-.264.348-.396a.435.435 0 0 0 .148-.332.427.427 0 0 0-.1-.276l-.14-.168a.057.057 0 0 1-.016-.04c0-.036.036-.06.068-.06.016 0 .032.004.044.02l.604.72a.16.16 0 0 1 .04.1c0 .136-.2.264-.348.396a.435.435 0 0 0-.148.332c0 .096.028.196.096.276l.336.396a.057.057 0 0 1 .016.04.066.066 0 0 1-.064.064.063.063 0 0 1-.048-.024c-.072-.084-.252-.152-.388-.152-.164 0-.212.104-.212.268 0 .14.044.296.112.376.02.024 0 .052-.024.052-.008 0-.016 0-.024-.008-.18-.216-.368-.592-.368-.808z"/></a><path fill="currentColor" stroke="currentColor" stroke-linecap="round" stroke-linejoin="round" stroke-width=".08" d="M58.463 3.963v.4l-12.454 1.62v-.4z"/><a color="inherit"><path fill="currentColor" stroke="currentColor" stroke-linecap="round" stroke-linejoin="round" stroke-width=".08" d="M46.127 10.723c.533.612 1.718.612 2.251 0h0c-.533.492-1.718.492-2.251 0z"/></a><a color="inherit"><path fill="currentColor" stroke="currentColor" stroke-linecap="round" stroke-linejoin="round" stroke-width=".08" d="M26.239 5.223c1.283-.951 9.82-.951 11.104 0h0c-1.284-.831-9.821-.831-11.105 0z"/></a><a color="inherit"><path fill="currentColor" stroke="currentColor" stroke-linecap="round" stroke-linejoin="round" stroke-width=".08" d="M16.754 11.978c1.631-1.51 7.465-1.825 9.25-.5h0c-1.779-1.205-7.612-.89-9.25.5z"/></a><path fill="currentColor" d="M53.695 8.473a.224.224 0 1 1 .447 0 .224.224 0 0 1-.447 0z"/><rect width=".13" height="2.647" x="-.065" y="1.686" fill="currentColor" ry=".04" transform="translate(52.005 6.973)"/><path fill="currentColor" d="M51.354 9.721c0 .04-.032.076-.072.076s-.076-.036-.076-.076v-.58l-.332.124v.632c0 .04-.036.076-.076.076s-.072-.036-.072-.076v-.58l-.128.048c-.008.004-.02.004-.028.004a.08.08 0 0 1-.08-.08v-.24c0-.032.02-.064.052-.076l.184-.064v-.64l-.128.044c-.008.004-.02.004-.028.004a.08.08 0 0 1-.08-.08v-.24c0-.032.02-.06.052-.072l.184-.068v-.632c0-.04.032-.076.072-.076s.076.036.076.076v.58l.332-.124V7.05c0-.04.036-.076.076-.076s.072.036.072.076v.58l.128-.048c.008-.004.02-.004.028-.004a.08.08 0 0 1 .08.08v.24c0 .032-.02.064-.052.076l-.184.064v.64l.128-.044c.008-.004.02-.004.028-.004a.08.08 0 0 1 .08.08v.24c0 .032-.02.06-.052.072l-.184.068v.632zm-.48-1.508v.64l.332-.12v-.64z"/><path fill="currentColor" d="M51.354 9.721c0 .04-.032.076-.072.076s-.076-.036-.076-.076v-.58l-.332.124v.632c0 .04-.036.076-.076.076s-.072-.036-.072-.076v-.58l-.128.048c-.008.004-.02.004-.028.004a.08.08 0 0 1-.08-.08v-.24c0-.032.02-.064.052-.076l.184-.064v-.64l-.128.044c-.008.004-.02.004-.028.004a.08.08 0 0 1-.08-.08v-.24c0-.032.02-.06.052-.072l.184-.068v-.632c0-.04.032-.076.072-.076s.076.036.076.076v.58l.332-.124V7.05c0-.04.036-.076.076-.076s.072.036.072.076v.58l.128-.048c.008-.004.02-.004.028-.004a.08.08 0 0 1 .08.08v.24c0 .032-.02.064-.052.076l-.184.064v.64l.128-.044c.008-.004.02-.004.028-.004a.08.08 0 0 1 .08.08v.24c0 .032-.02.06-.052.072l-.184.068v.632zm-.48-1.508v.64l.332-.12v-.64z"/><a color="inherit"><path fill="currentColor" d="M55.567 6.43c.22 0 .432.111.432.355 0 .284-.22.484-.408.596a.908.908 0 0 1-.464.136c-.22 0-.432-.112-.432-.356 0-.284.22-.484.408-.596.14-.084.3-.136.464-.136z"/></a><a color="inherit"><path fill="currentColor" d="M54.603 16.487c0-.112.044-.168.16-.168.132 0 .312.052.476.124l-.528-.632a.16.16 0 0 1-.04-.1c0-.136.2-.264.348-.396a.435.435 0 0 0 .148-.332.427.427 0 0 0-.1-.276l-.14-.168a.057.057 0 0 1-.016-.04c0-.036.036-.06.068-.06.016 0 .032.004.044.02l.604.72a.16.16 0 0 1 .04.1c0 .136-.2.264-.348.396a.435.435 0 0 0-.148.332c0 .096.028.196.096.276l.336.396a.057.057 0 0 1 .016.04.066.066 0 0 1-.064.064.063.063 0 0 1-.048-.024c-.072-.084-.252-.152-.388-.152-.164 0-.212.104-.212.268 0 .14.044.296.112.376.02.024 0 .052-.024.052-.008 0-.016 0-.024-.008-.18-.216-.368-.592-.368-.808z"/></a><rect width=".13" height="2.292" x="-.065" y="-2.478" fill="currentColor" ry=".04" transform="translate(55.934 6.973)"/><a color="inherit"><path fill="currentColor" d="M58.07 6.93c.22 0 .433.111.433.355 0 .284-.22.484-.408.596a.908.908 0 0 1-.464.136c-.22 0-.432-.112-.432-.356 0-.284.22-.484.408-.596.14-.084.3-.136.464-.136z"/></a><rect width=".13" height="3.115" x="-.065" y="-2.802" fill="currentColor" ry=".04" transform="translate(58.438 6.973)"/><a color="inherit"><path fill="currentColor" d="M62.214 7.713a.168.168 0 0 0-.168-.164c-.016 0-.032 0-.048.004-.124.036-.312.16-.46.256s-.336.212-.416.312a.168.168 0 0 0 .128.276c.016 0 .032 0 .048-.004.124-.036.308-.16.456-.256s.336-.212.416-.312a.172.172 0 0 0 .044-.112zm-.208-.284c.184 0 .328.084.328.284a.739.739 0 0 1-.04.228.71.71 0 0 1-.256.376c-.212.144-.452.2-.748.2-.184 0-.332-.084-.332-.284 0-.076.02-.156.044-.228a.703.703 0 0 1 .252-.376c.212-.144.456-.2.752-.2z"/></a><rect width=".13" height="5.741" x="-.065" y="-2.741" fill="currentColor" ry=".04" transform="translate(16.155 16.023)"/><a color="inherit"><path fill="currentColor" d="M16.962 5.93c.22 0 .432.111.432.355 0 .284-.22.484-.408.596a.908.908 0 0 1-.464.136c-.22 0-.432-.112-.432-.356 0-.284.22-.484.408-.596.14-.084.3-.136.464-.136z"/></a><a color="inherit"><path fill="currentColor" d="M17.346 12.763a.168.168 0 0 0-.168-.164c-.016 0-.032 0-.048.004-.124.036-.312.16-.46.256s-.336.212-.416.312a.168.168 0 0 0 .128.276c.016 0 .032 0 .048-.004.124-.036.308-.16.456-.256s.336-.212.416-.312a.172.172 0 0 0 .044-.112zm-.208-.284c.184 0 .328.084.328.284a.739.739 0 0 1-.04.228.71.71 0 0 1-.256.376c-.212.144-.452.2-.748.2-.184 0-.332-.084-.332-.284 0-.076.02-.156.044-.228a.703.703 0 0 1 .252-.376c.212-.144.456-.2.752-.2z"/></a><a color="inherit"><path fill="currentColor" d="M17.346 14.263a.168.168 0 0 0-.168-.164c-.016 0-.032 0-.048.004-.124.036-.312.16-.46.256s-.336.212-.416.312a.168.168 0 0 0 .128.276c.016 0 .032 0 .048-.004.124-.036.308-.16.456-.256s.336-.212.416-.312a.172.172 0 0 0 .044-.112zm-.208-.284c.184 0 .328.084.328.284a.739.739 0 0 1-.04.228.71.71 0 0 1-.256.376c-.212.144-.452.2-.748.2-.184 0-.332-.084-.332-.284 0-.076.02-.156.044-.228a.703.703 0 0 1 .252-.376c.212-.144.456-.2.752-.2z"/></a><a color="inherit"><path fill="currentColor" d="M17.346 15.263a.168.168 0 0 0-.168-.164c-.016 0-.032 0-.048.004-.124.036-.312.16-.46.256s-.336.212-.416.312a.168.168 0 0 0 .128.276c.016 0 .032 0 .048-.004.124-.036.308-.16.456-.256s.336-.212.416-.312a.172.172 0 0 0 .044-.112zm-.208-.284c.184 0 .328.084.328.284a.739.739 0 0 1-.04.228.71.71 0 0 1-.256.376c-.212.144-.452.2-.748.2-.184 0-.332-.084-.332-.284 0-.076.02-.156.044-.228a.703.703 0 0 1 .252-.376c.212-.144.456-.2.752-.2z"/></a><path fill="currentColor" d="M17.844 6.473a.224.224 0 1 1 .447 0 .224.224 0 0 1-.447 0z"/><rect width=".13" height="3.314" x="-.065" y="-.314" fill="currentColor" ry=".04" transform="translate(16.155 6.973)"/><a color="inherit"><path fill="currentColor" d="M21.207 7.43c.22 0 .432.111.432.355 0 .284-.22.484-.408.596a.908.908 0 0 1-.464.136c-.22 0-.432-.112-.432-.356 0-.284.22-.484.408-.596.14-.084.3-.136.464-.136z"/></a><rect width=".13" height="3.314" x="-.065" y="-2.5" fill="currentColor" ry=".04" transform="translate(21.574 6.973)"/><path fill="currentColor" d="M21.64 4.513c0 .788.827 1.344.827 2.132 0 .284-.06.564-.164.828a.097.097 0 0 1-.08.048c-.052 0-.104-.044-.092-.108.104-.244.168-.504.168-.768 0-.412-.376-.832-.66-1.132h-.064v-1h.064z"/><a color="inherit"><path fill="currentColor" d="M25.91 6.525c-.2 0-.276.172-.276.352 0 .308.228.544.536.544.2 0 .276-.172.276-.352a.528.528 0 0 0-.536-.544zm1.112.448c0 .172-.136.3-.288.384-.212.116-.456.16-.696.16s-.48-.044-.692-.16c-.152-.084-.288-.212-.288-.384s.136-.3.288-.384c.212-.116.452-.16.692-.16s.484.044.696.16c.152.084.288.212.288.384z"/></a><a color="inherit"><path fill="currentColor" d="M23.925 11.911a.063.063 0 0 1-.024-.048c0-.032.028-.064.064-.064.012 0 .028.004.04.016l.512.428c.032.024.044.052.044.08 0 .096-.156.204-.272.312a.294.294 0 0 0-.023.4l.124.1a.063.063 0 0 1 .024.048.066.066 0 0 1-.064.064.057.057 0 0 1-.04-.016l-.512-.428c-.032-.024-.044-.052-.044-.08 0-.096.156-.204.272-.312a.294.294 0 0 0 .023-.4z"/><path fill="currentColor" d="M23.925 12.911a.063.063 0 0 1-.024-.048c0-.032.028-.064.064-.064.012 0 .028.004.04.016l.512.428c.032.024.044.052.044.08 0 .096-.156.204-.272.312a.294.294 0 0 0-.023.4l.124.1a.063.063 0 0 1 .024.048.066.066 0 0 1-.064.064.057.057 0 0 1-.04-.016l-.512-.428c-.032-.024-.044-.052-.044-.08 0-.096.156-.204.272-.312a.294.294 0 0 0 .023-.4z"/><path fill="currentColor" d="M23.925 13.911a.063.063 0 0 1-.024-.048c0-.032.028-.064.064-.064.012 0 .028.004.04.016l.512.428c.032.024.044.052.044.08 0 .096-.156.204-.272.312a.294.294 0 0 0-.023.4l.124.1a.063.063 0 0 1 .024.048.066.066 0 0 1-.064.064.057.057 0 0 1-.04-.016l-.512-.428c-.032-.024-.044-.052-.044-.08 0-.096.156-.204.272-.312a.294.294 0 0 0 .023-.4z"/><path fill="currentColor" d="M23.925 14.911a.063.063 0 0 1-.024-.048c0-.032.028-.064.064-.064.012 0 .028.004.04.016l.512.428c.032.024.044.052.044.08 0 .096-.156.204-.272.312a.294.294 0 0 0-.023.4l.124.1a.063.063 0 0 1 .024.048.066.066 0 0 1-.064.064.057.057 0 0 1-.04-.016l-.512-.428c-.032-.024-.044-.052-.044-.08 0-.096.156-.204.272-.312a.294.294 0 0 0 .023-.4z"/></a><a color="inherit"><path fill="currentColor" d="M25.91 12.075c-.2 0-.276.172-.276.352 0 .308.228.544.536.544.2 0 .276-.172.276-.352a.528.528 0 0 0-.536-.544zm1.112.448c0 .172-.136.3-.288.384-.212.116-.456.16-.696.16s-.48-.044-.692-.16c-.152-.084-.288-.212-.288-.384s.136-.3.288-.384c.212-.116.452-.16.692-.16s.484.044.696.16c.152.084.288.212.288.384z"/></a><a color="inherit"><path fill="currentColor" d="M25.91 14.075c-.2 0-.276.172-.276.352 0 .308.228.544.536.544.2 0 .276-.172.276-.352a.528.528 0 0 0-.536-.544zm1.112.448c0 .172-.136.3-.288.384-.212.116-.456.16-.696.16s-.48-.044-.692-.16c-.152-.084-.288-.212-.288-.384s.136-.3.288-.384c.212-.116.452-.16.692-.16s.484.044.696.16c.152.084.288.212.288.384z"/></a><path fill="currentColor" d="M3.028 15.523c0-.112.092-.204.204-.204s.204.092.204.204-.092.204-.204.204-.204-.092-.204-.204zm0-1c0-.112.092-.204.204-.204s.204.092.204.204-.092.204-.204.204-.204-.092-.204-.204zm-1.3-.552c.688 0 1.172.352 1.172 1.004 0 1.052-1.052 1.656-2.064 2.084a.049.049 0 0 1-.036.016.053.053 0 0 1-.052-.052c0-.012.004-.024.016-.036.808-.472 1.648-1.06 1.648-1.972 0-.48-.252-.94-.684-.94-.296 0-.516.216-.616.504a.323.323 0 0 1 .136-.032c.22 0 .4.18.4.4 0 .232-.176.424-.4.424-.24 0-.448-.188-.448-.424 0-.532.408-.976.928-.976zM-.42 13.49c0 1.044-.408 2.064-.408 3.06 0 .54.12 1.044.516 1.44.012.012.012.036.012.048 0 .036-.024.072-.06.072a.091.091 0 0 1-.048-.024c-.528-.54-.708-1.248-.708-2.004 0-1.068.432-2.112.432-3.12 0-.54-.132-1.044-.516-1.44-.012-.012-.012-.012-.012-.024s0-.012.012-.024c.384-.396.516-.9.516-1.44 0-1.008-.432-2.052-.432-3.12 0-.756.18-1.464.708-2.004a.091.091 0 0 1 .048-.024c.036 0 .06.036.06.072 0 .012 0 .036-.012.048-.396.396-.516.9-.516 1.44 0 .996.408 2.016.408 3.06 0 .744-.18 1.452-.696 1.992.516.54.696 1.248.696 1.992z"/><rect width=".16" height="13.15" y="-6.575" fill="currentColor" ry=".05" transform="translate(-.06 11.498)"/><a color="inherit"><path fill="currentColor" d="M12.45 6.973h-1.42c-.024 0-.04-.016-.04-.04V6.39c0-.024.016-.04.04-.04h1.42c.024 0 .04.016.04.04v.544c0 .024-.016.04-.04.04z"/></a><path fill="currentColor" d="M2.304 6.925c.016 0 .036-.004.052-.004.62 0 1.024.512 1.024 1.044 0 .304-.132.616-.428.84a.905.905 0 0 1-.292.144c.012.14.02.28.02.42 0 .076-.004.156-.008.232-.028.48-.36.912-.832.912a.783.783 0 0 1-.78-.788c0-.232.212-.412.448-.412.216 0 .38.188.38.412 0 .208-.172.38-.38.38a.326.326 0 0 1-.124-.024c.104.156.272.26.468.26.384 0 .628-.368.652-.764a3.775 3.775 0 0 0-.008-.588c-.116.02-.232.032-.356.032-.752 0-1.332-.688-1.332-1.496 0-.708.524-1.224.992-1.764a4.47 4.47 0 0 1-.18-.76 5.429 5.429 0 0 1-.028-.624c0-.46.22-.896.596-1.168a.077.077 0 0 1 .04-.012c.016 0 .028 0 .04.012.284.336.532.98.532 1.432 0 .572-.344 1.02-.72 1.456.084.272.156.552.224.828zm.34 1.86a.71.71 0 0 0 .452-.656.764.764 0 0 0-.692-.76c.096.464.184.924.24 1.416zm-1.548-.924c0 .54.516.988 1.056.988.112 0 .22-.008.328-.024-.056-.508-.148-.98-.252-1.456-.316.032-.496.244-.496.476 0 .176.1.364.324.492.02.02.028.04.028.06 0 .044-.04.088-.088.088-.012 0-.024-.004-.036-.008-.32-.172-.468-.46-.468-.74 0-.352.232-.696.64-.788a15.048 15.048 0 0 0-.184-.7c-.428.484-.852.972-.852 1.612zm1.336-4.068a1.153 1.153 0 0 0-.648 1.036c0 .296.072.532.144.776.32-.388.584-.792.584-1.296 0-.22-.016-.316-.08-.516z"/><a color="inherit"><path fill="currentColor" d="M4.528 6.81l-.004.263v.044c0 .088.004.176.016.264.18-.152.372-.32.372-.556 0-.132-.056-.268-.172-.268-.124 0-.208.12-.212.252zm-.168.715l-.048-2.38c.032-.02.072-.032.108-.032s.076.012.108.032L4.5 6.525a.577.577 0 0 1 .364-.136c.208 0 .356.192.356.408 0 .32-.344.468-.588.676-.06.052-.096.152-.18.152-.052 0-.092-.044-.092-.1zM5.448 5.31l-.004.263v.044c0 .088.004.176.016.264.18-.152.372-.32.372-.556 0-.132-.056-.268-.172-.268-.124 0-.208.12-.212.252zm-.168.715l-.048-2.38c.032-.02.072-.032.108-.032s.076.012.108.032l-.028 1.38a.577.577 0 0 1 .364-.136c.208 0 .356.192.356.408 0 .32-.344.468-.588.676-.06.052-.096.152-.18.152-.052 0-.092-.044-.092-.1z"/></a><path fill="currentColor" d="M8.726 6.865a.301.301 0 0 1-.3-.3c0-.152.108-.308.288-.308.016 0 .036 0 .056.004a.599.599 0 0 0-.48-.236c-.424 0-.452.292-.452.744v.408c0 .452.028.748.452.748.32 0 .556-.28.632-.604.008-.028.028-.04.048-.04.024 0 .052.016.052.048 0 .376-.42.696-.732.696-.272 0-.548-.084-.736-.28-.196-.204-.264-.488-.264-.772s.068-.568.264-.772c.188-.196.464-.276.736-.276.348 0 .64.256.7.6.004.02.004.036.004.052 0 .16-.12.288-.268.288z"/><a color="inherit"><path fill="currentColor" d="M12.45 16.023h-1.42c-.024 0-.04-.016-.04-.04v-.544c0-.024.016-.04.04-.04h1.42c.024 0 .04.016.04.04v.544c0 .024-.016.04-.04.04z"/></a><a color="inherit"><path fill="currentColor" d="M4.528 16.86l-.004.263v.044c0 .088.004.176.016.264.18-.152.372-.32.372-.556 0-.132-.056-.268-.172-.268-.124 0-.208.12-.212.252zm-.168.715l-.048-2.38c.032-.02.072-.032.108-.032s.076.012.108.032l-.028 1.38a.577.577 0 0 1 .364-.136c.208 0 .356.192.356.408 0 .32-.344.468-.588.676-.06.052-.096.152-.18.152-.052 0-.092-.044-.092-.1zM5.448 15.36l-.004.263v.044c0 .088.004.176.016.264.18-.152.372-.32.372-.556 0-.132-.056-.268-.172-.268-.124 0-.208.12-.212.252zm-.168.715l-.048-2.38c.032-.02.072-.032.108-.032s.076.012.108.032l-.028 1.38a.577.577 0 0 1 .364-.136c.208 0 .356.192.356.408 0 .32-.344.468-.588.676-.06.052-.096.152-.18.152-.052 0-.092-.044-.092-.1z"/></a><path fill="currentColor" d="M8.726 15.915a.301.301 0 0 1-.3-.3c0-.152.108-.308.288-.308.016 0 .036 0 .056.004a.599.599 0 0 0-.48-.236c-.424 0-.452.292-.452.744v.408c0 .452.028.748.452.748.32 0 .556-.28.632-.604.008-.028.028-.04.048-.04.024 0 .052.016.052.048 0 .376-.42.696-.732.696-.272 0-.548-.084-.736-.28-.196-.204-.264-.488-.264-.772s.068-.568.264-.772c.188-.196.464-.276.736-.276.348 0 .64.256.7.6.004.02.004.036.004.052 0 .16-.12.288-.268.288z"/><a color="inherit"><path fill="currentColor" d="M38.11 6.713a.168.168 0 0 0-.168-.164c-.016 0-.032 0-.048.004-.124.036-.312.16-.46.256s-.336.212-.416.312a.168.168 0 0 0 .128.276c.016 0 .032 0 .048-.004.124-.036.308-.16.456-.256s.336-.212.416-.312a.172.172 0 0 0 .044-.112zm-.208-.284c.184 0 .328.084.328.284a.739.739 0 0 1-.04.228.71.71 0 0 1-.256.376c-.212.144-.452.2-.748.2-.184 0-.332-.084-.332-.284 0-.076.02-.156.044-.228a.703.703 0 0 1 .252-.376c.212-.144.456-.2.752-.2z"/></a><a color="inherit"><path fill="currentColor" d="M25.91 15.575c-.2 0-.276.172-.276.352 0 .308.228.544.536.544.2 0 .276-.172.276-.352a.528.528 0 0 0-.536-.544zm1.112.448c0 .172-.136.3-.288.384-.212.116-.456.16-.696.16s-.48-.044-.692-.16c-.152-.084-.288-.212-.288-.384s.136-.3.288-.384c.212-.116.452-.16.692-.16s.484.044.696.16c.152.084.288.212.288.384z"/></a><a color="inherit"><path fill="currentColor" d="M34.049 5.95c-.204 0-.212.175-.212.407V6.473c0 .232.008.408.212.408.228 0 .244-.204.244-.468s-.016-.464-.244-.464zm-.212-.04a.551.551 0 0 1 .212-.053c.404 0 .68.176.68.556s-.276.56-.68.56c-.448 0-.68-.496-.68-1 0-.512.288-1 .76-1 .284 0 .552.156.552.412 0 .144-.116.264-.26.264s-.264-.12-.264-.264c0-.096.156-.1.156-.196 0-.08-.092-.124-.184-.124-.264 0-.3.26-.3.556 0 .096.008.192.008.288zM34.066 7.794a.89.89 0 0 0 .24-.2c.044-.06.076-.132.108-.2.007-.016.02-.024.035-.024.025 0 .053.02.053.056v.98h.287c.04 0 .06.028.06.056s-.02.06-.06.06h-.288v.032c0 .192.109.376.289.376.031 0 .047.02.047.044s-.016.048-.048.048c-.176 0-.348-.052-.524-.052s-.348.052-.524.052c-.032 0-.048-.024-.048-.048s.016-.044.048-.044c.18 0 .292-.184.292-.376v-.032h-.668c-.092 0-.124-.056-.124-.092 0-.012.004-.02.008-.024.32-.372.552-.828.552-1.32 0-.036.024-.064.052-.064h.012c.092.028.188.052.284.052s.192-.024.284-.052c.008-.004.012-.004.02-.004.044 0 .072.04.048.068l-1.135 1.32h.667v-.524c0-.032.004-.068.032-.088z"/></a><a color="inherit"><path fill="currentColor" d="M38.314 16.023h-1.42c-.024 0-.04-.016-.04-.04v-.544c0-.024.016-.04.04-.04h1.42c.024 0 .04.016.04.04v.544c0 .024-.016.04-.04.04z"/></a><path fill="currentColor" d="M34.049 15c-.204 0-.212.175-.212.407V15.523c0 .232.008.408.212.408.228 0 .244-.204.244-.468S34.277 15 34.049 15zm-.212-.04a.551.551 0 0 1 .212-.053c.404 0 .68.176.68.556s-.276.56-.68.56c-.448 0-.68-.496-.68-1 0-.512.288-1 .76-1 .284 0 .552.156.552.412 0 .144-.116.264-.26.264s-.264-.12-.264-.264c0-.096.156-.1.156-.196 0-.08-.092-.124-.184-.124-.264 0-.3.26-.3.556 0 .096.008.192.008.288zM34.066 16.844a.89.89 0 0 0 .24-.2c.044-.06.076-.132.108-.2.007-.016.02-.024.035-.024.025 0 .053.02.053.056v.98h.287c.04 0 .06.028.06.056s-.02.06-.06.06h-.288v.032c0 .192.109.376.289.376.031 0 .047.02.047.044s-.016.048-.048.048c-.176 0-.348-.052-.524-.052s-.348.052-.524.052c-.032 0-.048-.024-.048-.048s.016-.044.048-.044c.18 0 .292-.184.292-.376v-.032h-.668c-.092 0-.124-.056-.124-.092 0-.012.004-.02.008-.024.32-.372.552-.828.552-1.32 0-.036.024-.064.052-.064h.012c.092.028.188.052.284.052s.192-.024.284-.052c.008-.004.012-.004.02-.004.044 0 .072.04.048.068l-1.135 1.32h.667v-.524c0-.032.004-.068.032-.088zM38.682 6.473a.224.224 0 1 1 .447 0 .224.224 0 0 1-.447 0z"/><rect width=".13" height="3.074" x="-.065" y=".259" fill="currentColor" ry=".04" transform="translate(36.92 6.973)"/><a color="inherit"><text fill="currentColor" font-family="serif" font-size="2.2" font-weight="bold" transform="translate(36.854 1.639)"><tspan> Moderato</tspan></text></a><path fill="currentColor" d="M38.804 15.523a.224.224 0 1 1 .448 0 .224.224 0 0 1-.448 0z"/></svg>