<svg xmlns:xlink="http://www.w3.org/1999/xlink" version="1.2" viewBox="0 0 51.867 7.48"><path stroke="currentColor" stroke-linecap="round" stroke-linejoin="round" stroke-width=".1" d="M.05 6.05h51.767M.05 5.05h51.767M.05 4.05h51.767M.05 3.05h51.767M.05 2.05h51.767"/><rect width="1.956" height=".2" x="33.199" y="-.1" fill="currentColor" ry=".1" transform="translate(0 1.05)"/><rect width="1.956" height=".2" x="11.128" y="-.1" fill="currentColor" ry=".1" transform="translate(0 1.05)"/><rect width=".19" height="4" y="-2" fill="currentColor" ry="0" transform="translate(29.606 4.05)"/><rect width=".19" height="4" y="-2" fill="currentColor" ry="0" transform="translate(51.677 4.05)"/><a color="inherit"><path fill="currentColor" d="M36.652 3.006c.22 0 .432.112.432.356 0 .284-.22.484-.408.596a.908.908 0 0 1-.464.136c-.22 0-.432-.112-.432-.356 0-.284.22-.484.408-.596.14-.084.3-.136.464-.136z"/></a><rect width=".13" height="3.252" x="-.065" y="-.314" fill="currentColor" ry=".04" transform="translate(35.845 4.05)"/><a color="inherit"><path fill="currentColor" d="M39.156 2.506c.22 0 .432.112.432.356 0 .284-.22.484-.408.596a.908.908 0 0 1-.464.136c-.22 0-.432-.112-.432-.356 0-.284.22-.484.408-.596.14-.084.3-.136.464-.136z"/></a><rect width=".13" height="3.627" x="-.065" y="-.814" fill="currentColor" ry=".04" transform="translate(38.349 4.05)"/><a color="inherit"><path fill="currentColor" d="M42.51 2.506c.22 0 .432.112.432.356 0 .284-.22.484-.408.596a.908.908 0 0 1-.464.136c-.22 0-.432-.112-.432-.356 0-.284.22-.484.408-.596.14-.084.3-.136.464-.136z"/></a><rect width=".13" height="2.624" x="-.065" y="-3.81" fill="currentColor" ry=".04" transform="translate(42.877 4.05)"/><rect width=".13" height="2.501" x="-.065" y=".686" fill="currentColor" ry=".04" transform="translate(30.836 4.05)"/><path fill="currentColor" stroke="currentColor" stroke-linecap="round" stroke-linejoin="round" stroke-width=".08" d="M16.303 6.66v.4l-7.563.38v-.4z"/><a color="inherit"><path fill="currentColor" d="M34.397.506c.22 0 .432.112.432.356 0 .284-.22.484-.408.596a.908.908 0 0 1-.464.136c-.22 0-.432-.112-.432-.356 0-.284.22-.484.408-.596.14-.084.3-.136.464-.136z"/></a><rect width=".13" height="5.864" x="-.065" y="-2.814" fill="currentColor" ry=".04" transform="translate(33.59 4.05)"/><rect width=".13" height="2.124" x="-.065" y="-3.81" fill="currentColor" ry=".04" transform="translate(50.39 4.05)"/><path fill="currentColor" stroke="currentColor" stroke-linecap="round" stroke-linejoin="round" stroke-width=".08" d="M50.415.04v.4h-7.563v-.4zM38.374 6.66v.4l-7.563.38v-.4zM28.344.04v.4H20.78v-.4z"/><path fill="currentColor" d="M41.052 4.298c0 .04-.032.076-.072.076s-.076-.036-.076-.076v-.58l-.332.124v.632c0 .04-.036.076-.076.076s-.072-.036-.072-.076v-.58l-.128.048c-.008.004-.02.004-.028.004a.08.08 0 0 1-.08-.08v-.24c0-.032.02-.064.052-.076l.184-.064v-.64l-.128.044c-.008.004-.02.004-.028.004a.08.08 0 0 1-.08-.08v-.24c0-.032.02-.06.052-.072l.184-.068v-.632c0-.04.032-.076.072-.076s.076.036.076.076v.58l.332-.124v-.632c0-.04.036-.076.076-.076s.072.036.072.076v.58l.128-.048c.008-.004.02-.004.028-.004a.08.08 0 0 1 .08.08v.24c0 .032-.02.064-.052.076l-.184.064v.64l.128-.044c.008-.004.02-.004.028-.004a.08.08 0 0 1 .08.08v.24c0 .032-.02.06-.052.072l-.184.068v.632zm-.48-1.508v.64l.332-.12v-.64z"/><a color="inherit"><path fill="currentColor" d="M45.014 2.006c.22 0 .432.112.432.356 0 .284-.22.484-.408.596a.908.908 0 0 1-.464.136c-.22 0-.432-.112-.432-.356 0-.284.22-.484.408-.596.14-.084.3-.136.464-.136z"/></a><rect width=".13" height="2.124" x="-.065" y="-3.81" fill="currentColor" ry=".04" transform="translate(45.382 4.05)"/><a color="inherit"><path fill="currentColor" d="M47.269 5.506c.22 0 .432.112.432.356 0 .284-.22.484-.408.596a.908.908 0 0 1-.464.136c-.22 0-.432-.112-.432-.356 0-.284.22-.484.408-.596.14-.084.3-.136.464-.136z"/></a><rect width=".13" height="5.624" x="-.065" y="-3.81" fill="currentColor" ry=".04" transform="translate(47.636 4.05)"/><a color="inherit"><path fill="currentColor" d="M50.023 2.006c.22 0 .432.112.432.356 0 .284-.22.484-.408.596a.908.908 0 0 1-.464.136c-.22 0-.432-.112-.432-.356 0-.284.22-.484.408-.596.14-.084.3-.136.464-.136z"/></a><a color="inherit"><path fill="currentColor" d="M12.326.506c.22 0 .432.112.432.356 0 .284-.22.484-.408.596a.908.908 0 0 1-.464.136c-.22 0-.432-.112-.432-.356 0-.284.22-.484.408-.596.14-.084.3-.136.464-.136z"/></a><rect width=".13" height="5.864" x="-.065" y="-2.814" fill="currentColor" ry=".04" transform="translate(11.52 4.05)"/><a color="inherit"><path fill="currentColor" d="M14.58 3.006c.22 0 .432.112.432.356 0 .284-.22.484-.408.596a.908.908 0 0 1-.464.136c-.22 0-.432-.112-.432-.356 0-.284.22-.484.408-.596.14-.084.3-.136.464-.136z"/></a><rect width=".13" height="3.252" x="-.065" y="-.314" fill="currentColor" ry=".04" transform="translate(13.773 4.05)"/><a color="inherit"><path fill="currentColor" d="M17.085 2.506c.22 0 .432.112.432.356 0 .284-.22.484-.408.596a.908.908 0 0 1-.464.136c-.22 0-.432-.112-.432-.356 0-.284.22-.484.408-.596.14-.084.3-.136.464-.136z"/></a><a color="inherit"><path fill="currentColor" d="M9.572 4.006c.22 0 .432.112.432.356 0 .284-.22.484-.408.596a.908.908 0 0 1-.464.136c-.22 0-.432-.112-.432-.356 0-.284.22-.484.408-.596.14-.084.3-.136.464-.136z"/></a><path fill="currentColor" d="M3.028 3.55c0-.112.092-.204.204-.204s.204.092.204.204-.092.204-.204.204-.204-.092-.204-.204zm0-1c0-.112.092-.204.204-.204s.204.092.204.204-.092.204-.204.204-.204-.092-.204-.204zm-1.3-.552c.688 0 1.172.352 1.172 1.004 0 1.052-1.052 1.656-2.064 2.084a.049.049 0 0 1-.036.016.053.053 0 0 1-.052-.052c0-.012.004-.024.016-.036.808-.472 1.648-1.06 1.648-1.972 0-.48-.252-.94-.684-.94-.296 0-.516.216-.616.504a.323.323 0 0 1 .136-.032c.22 0 .4.18.4.4 0 .232-.176.424-.4.424-.24 0-.448-.188-.448-.424 0-.532.408-.976.928-.976z"/><text fill="currentColor" font-family="serif" font-size="1.386" font-style="italic" transform="translate(1.295 7.312)"><tspan> 8</tspan></text><path fill="currentColor" d="M6.436 3.942a.301.301 0 0 1-.3-.3c0-.152.108-.308.288-.308.016 0 .036 0 .056.004A.599.599 0 0 0 6 3.102c-.424 0-.452.292-.452.744v.408c0 .452.028.748.452.748.32 0 .556-.28.632-.604.008-.028.028-.04.048-.04.024 0 .052.016.052.048 0 .376-.42.696-.732.696-.272 0-.548-.084-.736-.28C5.068 4.618 5 4.334 5 4.05s.068-.568.264-.772c.188-.196.464-.276.736-.276.348 0 .64.256.7.6.004.02.004.036.004.052 0 .16-.12.288-.268.288z"/><rect width=".13" height="2.501" x="-.065" y=".686" fill="currentColor" ry=".04" transform="translate(8.765 4.05)"/><rect width=".13" height="3.627" x="-.065" y="-.814" fill="currentColor" ry=".04" transform="translate(16.278 4.05)"/><a color="inherit"><path fill="currentColor" d="M22.943 2.006c.22 0 .432.112.432.356 0 .284-.22.484-.408.596a.908.908 0 0 1-.464.136c-.22 0-.432-.112-.432-.356 0-.284.22-.484.408-.596.14-.084.3-.136.464-.136z"/></a><rect width=".13" height="5.624" x="-.065" y="-3.81" fill="currentColor" ry=".04" transform="translate(25.564 4.05)"/><a color="inherit"><path fill="currentColor" d="M25.197 5.506c.22 0 .432.112.432.356 0 .284-.22.484-.408.596a.908.908 0 0 1-.464.136c-.22 0-.432-.112-.432-.356 0-.284.22-.484.408-.596.14-.084.3-.136.464-.136z"/></a><a color="inherit"><path fill="currentColor" d="M27.951 2.006c.22 0 .432.112.432.356 0 .284-.22.484-.408.596a.908.908 0 0 1-.464.136c-.22 0-.432-.112-.432-.356 0-.284.22-.484.408-.596.14-.084.3-.136.465-.136z"/></a><rect width=".13" height="2.124" x="-.065" y="-3.81" fill="currentColor" ry=".04" transform="translate(28.319 4.05)"/><rect width=".13" height="2.124" x="-.065" y="-3.81" fill="currentColor" ry=".04" transform="translate(23.31 4.05)"/><a color="inherit"><path fill="currentColor" d="M31.643 4.006c.22 0 .432.112.432.356 0 .284-.22.484-.408.596a.908.908 0 0 1-.464.136c-.22 0-.432-.112-.432-.356 0-.284.22-.484.408-.596.14-.084.3-.136.464-.136z"/></a><a color="inherit"><path fill="currentColor" d="M20.439 2.506c.22 0 .432.112.432.356 0 .284-.22.484-.408.596a.908.908 0 0 1-.464.136c-.22 0-.432-.112-.432-.356 0-.284.22-.484.408-.596.14-.084.3-.136.464-.136z"/></a><rect width=".13" height="2.624" x="-.065" y="-3.81" fill="currentColor" ry=".04" transform="translate(20.806 4.05)"/><path fill="currentColor" d="M18.98 4.298c0 .04-.031.076-.071.076s-.076-.036-.076-.076v-.58l-.332.124v.632c0 .04-.036.076-.076.076s-.072-.036-.072-.076v-.58l-.128.048c-.008.004-.02.004-.028.004a.08.08 0 0 1-.08-.08v-.24c0-.032.02-.064.052-.076l.184-.064v-.64l-.128.044c-.008.004-.02.004-.028.004a.08.08 0 0 1-.08-.08v-.24c0-.032.02-.06.052-.072l.184-.068v-.632c0-.04.032-.076.072-.076s.076.036.076.076v.58l.332-.124v-.632c0-.04.036-.076.076-.076s.072.036.072.076v.58l.128-.048c.008-.004.02-.004.028-.004a.08.08 0 0 1 .08.08v.24c0 .032-.02.064-.052.076l-.184.064v.64l.128-.044c.008-.004.02-.004.028-.004a.08.08 0 0 1 .08.08v.24c0 .032-.02.06-.052.072l-.184.068v.632zM18.5 2.79v.64l.333-.12v-.64z"/></svg>