<svg xmlns="http://www.w3.org/2000/svg" xmlns:xlink="http://www.w3.org/1999/xlink" version="1.2" width="130.00mm" height="76.20mm" viewBox="0 0 73.9772 43.3620">
<!-- Page: 1/1 -->
<text transform="translate(1.4226, 0.5691)" font-family="serif" font-size="2.2001" text-anchor="start" fill="currentColor">
<tspan/>
</text>
<line transform="translate(1.4226, 7.3451)" stroke-linejoin="round" stroke-linecap="round" stroke-width="0.1000" stroke="currentColor" x1="0.0500" y1="-0.0000" x2="41.5403" y2="-0.0000"/>
<line transform="translate(1.4226, 6.3451)" stroke-linejoin="round" stroke-linecap="round" stroke-width="0.1000" stroke="currentColor" x1="0.0500" y1="-0.0000" x2="41.5403" y2="-0.0000"/>
<line transform="translate(1.4226, 5.3451)" stroke-linejoin="round" stroke-linecap="round" stroke-width="0.1000" stroke="currentColor" x1="0.0500" y1="-0.0000" x2="41.5403" y2="-0.0000"/>
<line transform="translate(1.4226, 4.3451)" stroke-linejoin="round" stroke-linecap="round" stroke-width="0.1000" stroke="currentColor" x1="0.0500" y1="-0.0000" x2="41.5403" y2="-0.0000"/>
<line transform="translate(1.4226, 3.3451)" stroke-linejoin="round" stroke-linecap="round" stroke-width="0.1000" stroke="currentColor" x1="0.0500" y1="-0.0000" x2="41.5403" y2="-0.0000"/>
<rect transform="translate(12.7551, 5.3451)" x="0.0000" y="-2.0000" width="0.1900" height="4.0500" ry="0.0000" fill="currentColor"/>
<rect transform="translate(12.7551, 14.3451)" x="0.0000" y="-2.0500" width="0.1900" height="4.0500" ry="0.0000" fill="currentColor"/>
<rect transform="translate(28.4756, 1.5691)" x="0.0000" y="5.8260" width="0.1900" height="4.9500" ry="0.0000" fill="currentColor"/>
<rect transform="translate(12.7551, 1.5691)" x="0.0000" y="5.8260" width="0.1900" height="4.9500" ry="0.0000" fill="currentColor"/>
<rect transform="translate(28.4756, 14.3451)" x="0.0000" y="-2.0500" width="0.1900" height="4.0500" ry="0.0000" fill="currentColor"/>
<rect transform="translate(42.8229, 5.3451)" x="0.0000" y="-2.0000" width="0.1900" height="4.0500" ry="0.0000" fill="currentColor"/>
<rect transform="translate(42.8229, 14.3451)" x="0.0000" y="-2.0500" width="0.1900" height="4.0500" ry="0.0000" fill="currentColor"/>
<rect transform="translate(42.8229, 1.5691)" x="0.0000" y="5.8260" width="0.1900" height="4.9500" ry="0.0000" fill="currentColor"/>
<rect transform="translate(28.4756, 5.3451)" x="0.0000" y="-2.0000" width="0.1900" height="4.0500" ry="0.0000" fill="currentColor"/>
<line transform="translate(1.4226, 16.3451)" stroke-linejoin="round" stroke-linecap="round" stroke-width="0.1000" stroke="currentColor" x1="0.0500" y1="-0.0000" x2="41.5403" y2="-0.0000"/>
<line transform="translate(1.4226, 15.3451)" stroke-linejoin="round" stroke-linecap="round" stroke-width="0.1000" stroke="currentColor" x1="0.0500" y1="-0.0000" x2="41.5403" y2="-0.0000"/>
<line transform="translate(1.4226, 14.3451)" stroke-linejoin="round" stroke-linecap="round" stroke-width="0.1000" stroke="currentColor" x1="0.0500" y1="-0.0000" x2="41.5403" y2="-0.0000"/>
<line transform="translate(1.4226, 13.3451)" stroke-linejoin="round" stroke-linecap="round" stroke-width="0.1000" stroke="currentColor" x1="0.0500" y1="-0.0000" x2="41.5403" y2="-0.0000"/>
<line transform="translate(1.4226, 12.3451)" stroke-linejoin="round" stroke-linecap="round" stroke-width="0.1000" stroke="currentColor" x1="0.0500" y1="-0.0000" x2="41.5403" y2="-0.0000"/>
<rect transform="translate(1.4226, 2.3451)" x="38.7843" y="-0.1000" width="1.9563" height="0.2000" ry="0.1000" fill="currentColor"/>
<a style="color:inherit;" xlink:href="textedit:///home/ryan/projects/lilypond-in-markdown/_lilypond/fc4c62aac839d16c15e58247452597c1.ly:23:5:6">
<path transform="translate(35.5246, 3.3451) scale(0.0040, -0.0040)" d="M218 136c55 0 108 -28 108 -89c0 -71 -55 -121 -102 -149c-35 -21 -75 -34 -116 -34c-55 0 -108 28 -108 89c0 71 55 121 102 149c35 21 75 34 116 34z" fill="currentColor"/>
</a>
<rect transform="translate(35.5896, 5.3451)" x="-0.0650" y="-1.8139" width="0.1300" height="2.8186" ry="0.0400" fill="currentColor"/>
<rect transform="translate(25.0410, 5.3451)" x="-0.0650" y="-0.8139" width="0.1300" height="3.3139" ry="0.0400" fill="currentColor"/>
<a style="color:inherit;" xlink:href="textedit:///home/ryan/projects/lilypond-in-markdown/_lilypond/fc4c62aac839d16c15e58247452597c1.ly:34:2:3">
<path transform="translate(33.0204, 13.8451) scale(0.0040, -0.0040)" d="M314 65c0 24 -21 41 -42 41c-4 0 -8 0 -12 -1c-31 -9 -78 -40 -115 -64s-84 -53 -104 -78c-7 -8 -10 -18 -10 -28c0 -24 21 -41 42 -41c4 0 8 0 12 1c31 9 77 40 114 64s84 53 104 78c7 8 11 18 11 28zM262 136c46 0 82 -21 82 -71c0 -19 -4 -39 -10 -57
c-12 -37 -32 -72 -64 -94c-53 -36 -113 -50 -187 -50c-46 0 -83 21 -83 71c0 19 5 39 11 57c12 37 31 72 63 94c53 36 114 50 188 50z" fill="currentColor"/>
</a>
<a style="color:inherit;" xlink:href="textedit:///home/ryan/projects/lilypond-in-markdown/_lilypond/fc4c62aac839d16c15e58247452597c1.ly:33:2:3">
<path transform="translate(29.4839, 14.3451) scale(0.0040, -0.0040)" d="M23 11c-1 -7 -6 -11 -11 -11c-6 0 -12 4 -12 11c0 175 235 165 235 344c0 60 -18 122 -70 122c-26 0 -51 -14 -51 -37c0 -27 35 -41 35 -68c0 -38 -30 -69 -68 -69s-69 31 -69 69c0 76 72 128 153 128c96 0 187 -56 187 -145c0 -153 -151 -159 -249 -220c9 2 17 3 26 3
c33 0 70 -11 105 -36c21 -15 46 -23 66 -23c21 0 39 9 44 29c2 6 6 9 11 9c6 0 12 -5 12 -12c0 -67 -90 -105 -138 -105c-36 0 -71 14 -96 44c-13 16 -31 22 -48 22c-30 0 -59 -20 -62 -55z" fill="currentColor"/>
<path transform="translate(29.4156, 16.3937) scale(0.0040, -0.0040)" d="M204 307c22 14 44 29 60 50c11 15 19 33 27 50c2 4 5 6 9 6c6 0 13 -5 13 -14v-245h72c10 0 15 -7 15 -14s-5 -15 -15 -15h-72v-8c0 -48 27 -94 72 -94c8 0 12 -5 12 -11s-4 -12 -12 -12c-44 0 -87 13 -131 13s-87 -13 -131 -13c-8 0 -12 6 -12 12s4 11 12 11
c45 0 73 46 73 94v8h-167c-23 0 -31 14 -31 23c0 3 1 5 2 6c80 93 138 207 138 330c0 9 6 16 13 16h3c23 -7 47 -13 71 -13s48 6 71 13c2 1 3 1 5 1c11 0 18 -10 12 -17l-284 -330h167v131c0 8 1 17 8 22z" fill="currentColor"/>
</a>
<a style="color:inherit;" xlink:href="textedit:///home/ryan/projects/lilypond-in-markdown/_lilypond/fc4c62aac839d16c15e58247452597c1.ly:38:28:29">
<path transform="translate(33.0204, 19.4156) scale(0.0032, -0.0032)" d="M71 404c-31 0 -39 -46 -39 -73v-65c0 -11 -8 -16 -16 -16s-16 5 -16 16v218c0 11 8 16 16 16s16 -5 16 -16v-15c0 -10 13 -20 16 -16c22 31 51 47 81 47c28 0 58 -13 83 -39c12 -12 26 -18 41 -18c29 0 62 20 83 50c4 5 7 7 12 7c9 0 17 -7 17 -16c0 -3 -1 -6 -3 -9
c-81 -115 -151 -246 -151 -381c0 -26 2 -52 8 -78c2 -10 -5 -19 -14 -19h-4c-25 7 -51 16 -77 16s-51 -9 -76 -16h-5c-8 0 -14 7 -14 14c0 2 0 3 1 5c53 125 131 236 211 346c-19 -9 -37 -14 -55 -14c-22 0 -44 8 -62 27c-16 16 -36 29 -53 29z" fill="currentColor"/>
</a>
<a style="color:inherit;" xlink:href="textedit:///home/ryan/projects/lilypond-in-markdown/_lilypond/fc4c62aac839d16c15e58247452597c1.ly:38:30:31">
<path transform="translate(33.3204, 20.7916) scale(0.0022, -0.0022)" d="M-9 375c9 5 20 8 30 8s20 -3 29 -8l-3 -207l93 27c2 1 4 0 6 0c11 0 21 -9 21 -20l9 -550c-9 -5 -20 -8 -30 -8s-21 3 -30 8l4 207l-94 -27c-2 -1 -3 0 -5 0c-11 0 -21 9 -21 20zM124 106l-78 -23l-3 -189l78 23z" fill="currentColor"/>
</a>
<rect transform="translate(33.0854, 5.3451)" x="-0.0650" y="-1.3139" width="0.1300" height="2.4992" ry="0.0400" fill="currentColor"/>
<a style="color:inherit;" xlink:href="textedit:///home/ryan/projects/lilypond-in-markdown/_lilypond/fc4c62aac839d16c15e58247452597c1.ly:22:2:3">
<path transform="translate(29.4839, 5.3451) scale(0.0040, -0.0040)" d="M23 11c-1 -7 -6 -11 -11 -11c-6 0 -12 4 -12 11c0 175 235 165 235 344c0 60 -18 122 -70 122c-26 0 -51 -14 -51 -37c0 -27 35 -41 35 -68c0 -38 -30 -69 -68 -69s-69 31 -69 69c0 76 72 128 153 128c96 0 187 -56 187 -145c0 -153 -151 -159 -249 -220c9 2 17 3 26 3
c33 0 70 -11 105 -36c21 -15 46 -23 66 -23c21 0 39 9 44 29c2 6 6 9 11 9c6 0 12 -5 12 -12c0 -67 -90 -105 -138 -105c-36 0 -71 14 -96 44c-13 16 -31 22 -48 22c-30 0 -59 -20 -62 -55z" fill="currentColor"/>
<path transform="translate(29.4156, 7.3937) scale(0.0040, -0.0040)" d="M204 307c22 14 44 29 60 50c11 15 19 33 27 50c2 4 5 6 9 6c6 0 13 -5 13 -14v-245h72c10 0 15 -7 15 -14s-5 -15 -15 -15h-72v-8c0 -48 27 -94 72 -94c8 0 12 -5 12 -11s-4 -12 -12 -12c-44 0 -87 13 -131 13s-87 -13 -131 -13c-8 0 -12 6 -12 12s4 11 12 11
c45 0 73 46 73 94v8h-167c-23 0 -31 14 -31 23c0 3 1 5 2 6c80 93 138 207 138 330c0 9 6 16 13 16h3c23 -7 47 -13 71 -13s48 6 71 13c2 1 3 1 5 1c11 0 18 -10 12 -17l-284 -330h167v131c0 8 1 17 8 22z" fill="currentColor"/>
</a>
<a style="color:inherit;" xlink:href="textedit:///home/ryan/projects/lilypond-in-markdown/_lilypond/fc4c62aac839d16c15e58247452597c1.ly:23:2:3">
<path transform="translate(33.0204, 3.8451) scale(0.0040, -0.0040)" d="M218 136c55 0 108 -28 108 -89c0 -71 -55 -121 -102 -149c-35 -21 -75 -34 -116 -34c-55 0 -108 28 -108 89c0 71 55 121 102 149c35 21 75 34 116 34z" fill="currentColor"/>
</a>
<rect transform="translate(33.0854, 14.3451)" x="-0.0650" y="-0.2410" width="0.1300" height="3.2410" ry="0.0400" fill="currentColor"/>
<polygon transform="translate(38.0288, 5.5351)" stroke-linejoin="round" stroke-linecap="round" stroke-width="0.0800" fill="currentColor" stroke="currentColor" points="2.5942 -0.3900 2.5942 0.0100 0.0400 0.2000 0.0400 -0.2000"/>
<polygon transform="translate(33.0204, 6.5351)" stroke-linejoin="round" stroke-linecap="round" stroke-width="0.0800" fill="currentColor" stroke="currentColor" points="2.5942 -0.3900 2.5942 0.0100 0.0400 0.2000 0.0400 -0.2000"/>
<a style="color:inherit;" xlink:href="textedit:///home/ryan/projects/lilypond-in-markdown/_lilypond/fc4c62aac839d16c15e58247452597c1.ly:23:9:10">
<path transform="translate(40.5330, 2.3451) scale(0.0040, -0.0040)" d="M218 136c55 0 108 -28 108 -89c0 -71 -55 -121 -102 -149c-35 -21 -75 -34 -116 -34c-55 0 -108 28 -108 89c0 71 55 121 102 149c35 21 75 34 116 34z" fill="currentColor"/>
</a>
<a style="color:inherit;" xlink:href="textedit:///home/ryan/projects/lilypond-in-markdown/_lilypond/fc4c62aac839d16c15e58247452597c1.ly:23:7:8">
<path transform="translate(38.0288, 2.8451) scale(0.0040, -0.0040)" d="M218 136c55 0 108 -28 108 -89c0 -71 -55 -121 -102 -149c-35 -21 -75 -34 -116 -34c-55 0 -108 28 -108 89c0 71 55 121 102 149c35 21 75 34 116 34z" fill="currentColor"/>
</a>
<rect transform="translate(38.0938, 5.3451)" x="-0.0650" y="-2.3139" width="0.1300" height="2.4992" ry="0.0400" fill="currentColor"/>
<rect transform="translate(40.5980, 5.3451)" x="-0.0650" y="-2.8139" width="0.1300" height="2.8186" ry="0.0400" fill="currentColor"/>
<a style="color:inherit;" xlink:href="textedit:///home/ryan/projects/lilypond-in-markdown/_lilypond/fc4c62aac839d16c15e58247452597c1.ly:21:2:3">
<path transform="translate(13.8451, 5.8451) scale(0.0040, -0.0040)" d="M218 136c55 0 108 -28 108 -89c0 -71 -55 -121 -102 -149c-35 -21 -75 -34 -116 -34c-55 0 -108 28 -108 89c0 71 55 121 102 149c35 21 75 34 116 34z" fill="currentColor"/>
</a>
<a style="color:inherit;" xlink:href="textedit:///home/ryan/projects/lilypond-in-markdown/_lilypond/fc4c62aac839d16c15e58247452597c1.ly:32:2:3">
<path transform="translate(13.8451, 15.8451) scale(0.0040, -0.0040)" d="M314 65c0 24 -21 41 -42 41c-4 0 -8 0 -12 -1c-31 -9 -78 -40 -115 -64s-84 -53 -104 -78c-7 -8 -10 -18 -10 -28c0 -24 21 -41 42 -41c4 0 8 0 12 1c31 9 77 40 114 64s84 53 104 78c7 8 11 18 11 28zM262 136c46 0 82 -21 82 -71c0 -19 -4 -39 -10 -57
c-12 -37 -32 -72 -64 -94c-53 -36 -113 -50 -187 -50c-46 0 -83 21 -83 71c0 19 5 39 11 57c12 37 31 72 63 94c53 36 114 50 188 50z" fill="currentColor"/>
</a>
<a style="color:inherit;" xlink:href="textedit:///home/ryan/projects/lilypond-in-markdown/_lilypond/fc4c62aac839d16c15e58247452597c1.ly:38:6:7">
<path transform="translate(13.8451, 19.4156) scale(0.0032, -0.0032)" d="M173 256c-47 0 -50 -37 -50 -88v-27v-27c0 -51 3 -88 50 -88c56 0 58 50 58 115s-2 115 -58 115zM123 269c16 7 32 13 50 13c103 0 173 -45 173 -141s-70 -141 -173 -141c-113 0 -173 124 -173 250c0 129 75 250 194 250c72 0 139 -40 139 -106c0 -35 -29 -64 -64 -64
s-64 29 -64 64c0 23 38 25 38 48c0 22 -24 32 -49 32c-63 0 -73 -59 -73 -130c0 -24 2 -50 2 -75z" fill="currentColor"/>
</a>
<a style="color:inherit;" xlink:href="textedit:///home/ryan/projects/lilypond-in-markdown/_lilypond/fc4c62aac839d16c15e58247452597c1.ly:21:9:10">
<path transform="translate(24.9760, 4.3451) scale(0.0040, -0.0040)" d="M218 136c55 0 108 -28 108 -89c0 -71 -55 -121 -102 -149c-35 -21 -75 -34 -116 -34c-55 0 -108 28 -108 89c0 71 55 121 102 149c35 21 75 34 116 34z" fill="currentColor"/>
</a>
<path transform="translate(2.2226, 6.3451) scale(0.0040, -0.0040)" d="M376 262c4 0 9 1 13 1c155 0 256 -128 256 -261c0 -76 -33 -154 -107 -210c-22 -17 -47 -28 -73 -36c3 -35 5 -70 5 -105c0 -19 -1 -39 -2 -58c-7 -120 -90 -228 -208 -228c-108 0 -195 88 -195 197c0 58 53 103 112 103c54 0 95 -47 95 -103c0 -52 -43 -95 -95 -95
c-11 0 -21 2 -31 6c26 -39 68 -65 117 -65c96 0 157 92 163 191c1 18 2 37 2 55c0 31 -1 61 -4 92c-29 -5 -58 -8 -89 -8c-188 0 -333 172 -333 374c0 177 131 306 248 441c-19 62 -37 125 -45 190c-6 52 -7 104 -7 156c0 115 55 224 149 292c3 2 7 3 10 3c4 0 7 0 10 -3
c71 -84 133 -245 133 -358c0 -143 -86 -255 -180 -364c21 -68 39 -138 56 -207zM461 -203c68 24 113 95 113 164c0 90 -66 179 -173 190c24 -116 46 -231 60 -354zM74 28c0 -135 129 -247 264 -247c28 0 55 2 82 6c-14 127 -37 245 -63 364c-79 -8 -124 -61 -124 -119
c0 -44 25 -91 81 -123c5 -5 7 -10 7 -15c0 -11 -10 -22 -22 -22c-3 0 -6 1 -9 2c-80 43 -117 115 -117 185c0 88 58 174 160 197c-14 58 -29 117 -46 175c-107 -121 -213 -243 -213 -403zM408 1045c-99 -48 -162 -149 -162 -259c0 -74 18 -133 36 -194
c80 97 146 198 146 324c0 55 -4 79 -20 129z" fill="currentColor"/>
<path transform="translate(1.0626, 9.8451) scale(0.0040, -0.0040)" d="M-15 -498c0 -261 -102 -516 -102 -765c0 -135 30 -261 129 -360c3 -3 3 -9 3 -12c0 -9 -6 -18 -15 -18c-3 0 -9 3 -12 6c-132 135 -177 312 -177 501c0 267 108 528 108 780c0 135 -33 261 -129 360c-3 3 -3 3 -3 6s0 3 3 6c96 99 129 225 129 360
c0 252 -108 513 -108 780c0 189 45 366 177 501c3 3 9 6 12 6c9 0 15 -9 15 -18c0 -3 0 -9 -3 -12c-99 -99 -129 -225 -129 -360c0 -249 102 -504 102 -765c0 -186 -45 -363 -174 -498c129 -135 174 -312 174 -498z" fill="currentColor"/>
<rect transform="translate(1.3626, 9.8451)" x="0.0000" y="-6.5500" width="0.1600" height="13.1000" ry="0.0500" fill="currentColor"/>
<a style="color:inherit;" xlink:href="textedit:///home/ryan/projects/lilypond-in-markdown/_lilypond/fc4c62aac839d16c15e58247452597c1.ly:19:13:14">
<path transform="translate(10.1226, 6.8451) scale(0.0040, -0.0040)" d="M218 136c55 0 108 -28 108 -89c0 -71 -55 -121 -102 -149c-35 -21 -75 -34 -116 -34c-55 0 -108 28 -108 89c0 71 55 121 102 149c35 21 75 34 116 34z" fill="currentColor"/>
</a>
<rect transform="translate(15.0843, 5.3451)" x="-0.0650" y="-3.0000" width="0.1300" height="3.3139" ry="0.0400" fill="currentColor"/>
<a style="color:inherit;" xlink:href="textedit:///home/ryan/projects/lilypond-in-markdown/_lilypond/fc4c62aac839d16c15e58247452597c1.ly:17:2:3">
</a>
<a style="color:inherit;" xlink:href="textedit:///home/ryan/projects/lilypond-in-markdown/_lilypond/fc4c62aac839d16c15e58247452597c1.ly:18:2:3">
<path transform="translate(6.4226, 5.3451) scale(0.0040, -0.0040)" d="M359 27c-49 0 -75 42 -75 75c0 38 27 77 72 77c4 0 9 0 14 -1c-28 37 -72 59 -120 59c-106 0 -113 -73 -113 -186v-51v-51c0 -113 7 -187 113 -187c80 0 139 70 158 151c2 7 7 10 12 10c6 0 13 -4 13 -12c0 -94 -105 -174 -183 -174c-68 0 -137 21 -184 70
c-49 51 -66 122 -66 193s17 142 66 193c47 49 116 69 184 69c87 0 160 -64 175 -150c1 -5 1 -9 1 -13c0 -40 -30 -72 -67 -72z" fill="currentColor"/>
</a>
<a style="color:inherit;" xlink:href="textedit:///home/ryan/projects/lilypond-in-markdown/_lilypond/fc4c62aac839d16c15e58247452597c1.ly:31:13:14">
<path transform="translate(10.1226, 14.3451) scale(0.0040, -0.0040)" d="M72 -250l117 326c-34 -12 -69 -22 -105 -22c-46 0 -87 33 -87 79c0 40 33 72 73 72c25 0 48 -15 56 -39c10 -28 6 -59 35 -59c16 0 54 48 61 63c6 12 23 12 28 0l-123 -420c-8 -7 -17 -10 -27 -10s-20 3 -28 10z" fill="currentColor"/>
</a>
<path transform="translate(2.2226, 13.3451) scale(0.0040, -0.0040)" d="M557 -125c0 28 23 51 51 51s51 -23 51 -51s-23 -51 -51 -51s-51 23 -51 51zM557 125c0 28 23 51 51 51s51 -23 51 -51s-23 -51 -51 -51s-51 23 -51 51zM232 263c172 0 293 -88 293 -251c0 -263 -263 -414 -516 -521c-3 -3 -6 -4 -9 -4c-7 0 -13 6 -13 13c0 3 1 6 4 9
c202 118 412 265 412 493c0 120 -63 235 -171 235c-74 0 -129 -54 -154 -126c11 5 22 8 34 8c55 0 100 -45 100 -100c0 -58 -44 -106 -100 -106c-60 0 -112 47 -112 106c0 133 102 244 232 244z" fill="currentColor"/>
<a style="color:inherit;" xlink:href="textedit:///home/ryan/projects/lilypond-in-markdown/_lilypond/fc4c62aac839d16c15e58247452597c1.ly:28:2:3">
</a>
<a style="color:inherit;" xlink:href="textedit:///home/ryan/projects/lilypond-in-markdown/_lilypond/fc4c62aac839d16c15e58247452597c1.ly:29:2:3">
<path transform="translate(6.4226, 14.3451) scale(0.0040, -0.0040)" d="M359 27c-49 0 -75 42 -75 75c0 38 27 77 72 77c4 0 9 0 14 -1c-28 37 -72 59 -120 59c-106 0 -113 -73 -113 -186v-51v-51c0 -113 7 -187 113 -187c80 0 139 70 158 151c2 7 7 10 12 10c6 0 13 -4 13 -12c0 -94 -105 -174 -183 -174c-68 0 -137 21 -184 70
c-49 51 -66 122 -66 193s17 142 66 193c47 49 116 69 184 69c87 0 160 -64 175 -150c1 -5 1 -9 1 -13c0 -40 -30 -72 -67 -72z" fill="currentColor"/>
</a>
<rect transform="translate(11.3618, 5.3451)" x="-0.0650" y="-2.0000" width="0.1300" height="3.3139" ry="0.0400" fill="currentColor"/>
<path transform="translate(11.4268, 3.3851) scale(0.0040, -0.0040)" d="M0 0c0 -197 207 -336 207 -533c0 -71 -15 -141 -41 -207c-5 -8 -13 -12 -20 -12c-13 0 -26 11 -23 27c26 61 42 126 42 192c0 103 -94 208 -165 283h-16v250h16z" fill="currentColor"/>
<a style="color:inherit;" xlink:href="textedit:///home/ryan/projects/lilypond-in-markdown/_lilypond/fc4c62aac839d16c15e58247452597c1.ly:38:19:20">
<path transform="translate(21.2718, 19.4156) scale(0.0032, -0.0032)" d="M173 256c-47 0 -50 -37 -50 -88v-27v-27c0 -51 3 -88 50 -88c56 0 58 50 58 115s-2 115 -58 115zM123 269c16 7 32 13 50 13c103 0 173 -45 173 -141s-70 -141 -173 -141c-113 0 -173 124 -173 250c0 129 75 250 194 250c72 0 139 -40 139 -106c0 -35 -29 -64 -64 -64
s-64 29 -64 64c0 23 38 25 38 48c0 22 -24 32 -49 32c-63 0 -73 -59 -73 -130c0 -24 2 -50 2 -75z" fill="currentColor"/>
</a>
<a style="color:inherit;" xlink:href="textedit:///home/ryan/projects/lilypond-in-markdown/_lilypond/fc4c62aac839d16c15e58247452597c1.ly:21:5:6">
<path transform="translate(17.5675, 5.3451) scale(0.0040, -0.0040)" d="M218 136c55 0 108 -28 108 -89c0 -71 -55 -121 -102 -149c-35 -21 -75 -34 -116 -34c-55 0 -108 28 -108 89c0 71 55 121 102 149c35 21 75 34 116 34z" fill="currentColor"/>
</a>
<a style="color:inherit;" xlink:href="textedit:///home/ryan/projects/lilypond-in-markdown/_lilypond/fc4c62aac839d16c15e58247452597c1.ly:38:11:12">
<path transform="translate(16.7502, 18.6869) scale(0.0022, -0.0022)" d="M223 -37c5 2 10 4 16 4c19 0 36 -16 36 -36v-41c0 -14 -9 -28 -22 -33l-30 -13v-144c0 -14 -11 -26 -25 -26s-26 12 -26 26v124l-69 -29v-145c0 -14 -12 -25 -26 -25s-25 11 -25 25v124c-5 -2 -10 -4 -16 -4c-19 0 -36 16 -36 36v42c0 14 9 28 22 33l30 12v144
c-5 -2 -10 -4 -16 -4c-19 0 -36 16 -36 36v41c0 14 9 28 22 33l30 13v144c0 14 11 26 25 26s26 -12 26 -26v-124l69 29v145c0 14 12 25 26 25s25 -11 25 -25v-124c5 2 10 4 16 4c19 0 36 -16 36 -36v-42c0 -14 -9 -28 -22 -33l-30 -12v-144zM103 58v-144l69 28v144z" fill="currentColor"/>
<path transform="translate(17.5675, 19.5288) scale(0.0032, -0.0032)" d="M201 296c23 15 46 29 62 51c12 16 20 35 28 52c2 4 6 6 10 6c7 0 14 -5 14 -15v-233h76c11 0 16 -8 16 -16s-5 -16 -16 -16h-76v-2c0 -50 30 -97 77 -97c9 0 12 -7 12 -13s-3 -13 -12 -13c-46 0 -92 13 -138 13s-93 -13 -139 -13c-9 0 -12 7 -12 13s3 13 12 13
c47 0 77 47 77 97v2h-160c-26 0 -34 15 -34 25c0 3 1 6 2 7c79 91 131 205 131 325c0 10 7 18 15 18h3c24 -7 49 -13 74 -13s50 6 74 13c2 1 3 1 5 1c9 0 15 -7 15 -13c0 -2 0 -4 -2 -6l-283 -325h160v115c0 9 1 19 9 24z" fill="currentColor"/>
</a>
<a style="color:inherit;" xlink:href="textedit:///home/ryan/projects/lilypond-in-markdown/_lilypond/fc4c62aac839d16c15e58247452597c1.ly:38:14:15">
<path transform="translate(17.5675, 21.2993) scale(0.0032, -0.0032)" d="M26 12c-1 -8 -7 -12 -13 -12c-7 0 -13 5 -13 13c0 174 234 164 234 342c0 58 -16 119 -66 119c-28 0 -55 -13 -55 -38c0 -27 35 -40 35 -67c0 -37 -31 -67 -68 -67s-67 30 -67 67c0 77 73 131 155 131c97 0 189 -56 189 -145c0 -148 -144 -158 -242 -213c6 1 11 1 17 1
c34 0 72 -12 108 -38c20 -14 43 -22 63 -22c22 0 40 10 45 30c2 7 7 10 12 10c7 0 13 -5 13 -13v-4c-18 -67 -81 -106 -142 -106c-37 0 -73 14 -98 45c-12 15 -29 23 -46 23c-29 0 -58 -21 -61 -56z" fill="currentColor"/>
<line transform="translate(17.5675, 21.1406)" stroke-linejoin="round" stroke-linecap="round" stroke-width="0.1270" stroke="currentColor" x1="-0.1984" y1="-0.4678" x2="1.3934" y2="-1.1028"/>
</a>
<rect transform="translate(17.6325, 5.3451)" x="-0.0650" y="0.1861" width="0.1300" height="3.1472" ry="0.0400" fill="currentColor"/>
<a style="color:inherit;" xlink:href="textedit:///home/ryan/projects/lilypond-in-markdown/_lilypond/fc4c62aac839d16c15e58247452597c1.ly:21:7:8">
<path transform="translate(21.2718, 4.8451) scale(0.0040, -0.0040)" d="M218 136c55 0 108 -28 108 -89c0 -71 -55 -121 -102 -149c-35 -21 -75 -34 -116 -34c-55 0 -108 28 -108 89c0 71 55 121 102 149c35 21 75 34 116 34z" fill="currentColor"/>
</a>
<a style="color:inherit;" xlink:href="textedit:///home/ryan/projects/lilypond-in-markdown/_lilypond/fc4c62aac839d16c15e58247452597c1.ly:32:5:6">
<path transform="translate(21.2718, 14.8451) scale(0.0040, -0.0040)" d="M314 65c0 24 -21 41 -42 41c-4 0 -8 0 -12 -1c-31 -9 -78 -40 -115 -64s-84 -53 -104 -78c-7 -8 -10 -18 -10 -28c0 -24 21 -41 42 -41c4 0 8 0 12 1c31 9 77 40 114 64s84 53 104 78c7 8 11 18 11 28zM262 136c46 0 82 -21 82 -71c0 -19 -4 -39 -10 -57
c-12 -37 -32 -72 -64 -94c-53 -36 -113 -50 -187 -50c-46 0 -83 21 -83 71c0 19 5 39 11 57c12 37 31 72 63 94c53 36 114 50 188 50z" fill="currentColor"/>
</a>
<a style="color:inherit;" xlink:href="textedit:///home/ryan/projects/lilypond-in-markdown/_lilypond/fc4c62aac839d16c15e58247452597c1.ly:38:21:22">
<path transform="translate(20.6228, 20.8495) scale(0.0022, -0.0022)" d="M37 30l-2 -55v-10c0 -21 2 -42 5 -62c40 38 83 79 83 134c0 30 -13 61 -39 61c-31 0 -46 -34 -47 -68zM-19 -144l-16 580c11 6 23 9 35 9s24 -3 35 -9l-9 -330c25 29 61 46 99 46c49 0 75 -54 75 -108c0 -75 -75 -117 -129 -169c-20 -20 -28 -57 -58 -57
c-19 0 -32 18 -32 38z" fill="currentColor"/>
<path transform="translate(21.2718, 21.1862) scale(0.0032, -0.0032)" d="M50 500c45 -8 91 -13 137 -13s92 5 137 13h4c10 0 17 -7 17 -13c0 -2 0 -3 -2 -5c-68 -68 -165 -97 -261 -97c-10 0 -18 -8 -18 -18v-86c28 28 66 40 105 40c116 0 187 -51 187 -161c0 -95 -92 -160 -193 -160c-83 0 -163 42 -163 116c0 35 29 64 64 64s64 -29 64 -64
c0 -24 -39 -29 -39 -53c0 -31 38 -37 74 -37c56 0 71 69 71 134c0 61 -12 129 -65 129c-42 0 -84 -9 -108 -42c-3 -5 -8 -7 -13 -7c-8 0 -17 6 -17 16v226c0 10 7 18 16 18h3z" fill="currentColor"/>
</a>
<rect transform="translate(21.3368, 5.3451)" x="-0.0650" y="-0.3139" width="0.1300" height="3.3139" ry="0.0400" fill="currentColor"/>
<rect transform="translate(22.5841, 14.3451)" x="-0.0650" y="-3.0000" width="0.1300" height="3.2410" ry="0.0400" fill="currentColor"/>
<rect transform="translate(15.1574, 14.3451)" x="-0.0650" y="-2.0000" width="0.1300" height="3.2410" ry="0.0400" fill="currentColor"/>
</svg>
