<svg xmlns:xlink="http://www.w3.org/1999/xlink" version="1.2" viewBox="-1.172 -0.024 42.763 20.388"><path stroke="currentColor" stroke-linecap="round" stroke-linejoin="round" stroke-width=".1" d="M.05 5.776h41.49M.05 4.776h41.49M.05 3.776h41.49M.05 2.776h41.49M.05 1.776h41.49"/><rect width=".19" height="4.05" y="-2" fill="currentColor" ry="0" transform="translate(11.332 3.776)"/><rect width=".19" height="4.05" y="-2.05" fill="currentColor" ry="0" transform="translate(11.332 12.776)"/><rect width=".19" height="4.95" y="5.826" fill="currentColor" ry="0" transform="translate(27.053)"/><rect width=".19" height="4.95" y="5.826" fill="currentColor" ry="0" transform="translate(11.332)"/><rect width=".19" height="4.05" y="-2.05" fill="currentColor" ry="0" transform="translate(27.053 12.776)"/><rect width=".19" height="4.05" y="-2" fill="currentColor" ry="0" transform="translate(41.4 3.776)"/><rect width=".19" height="4.05" y="-2.05" fill="currentColor" ry="0" transform="translate(41.4 12.776)"/><rect width=".19" height="4.95" y="5.826" fill="currentColor" ry="0" transform="translate(41.4)"/><rect width=".19" height="4.05" y="-2" fill="currentColor" ry="0" transform="translate(27.053 3.776)"/><path stroke="currentColor" stroke-linecap="round" stroke-linejoin="round" stroke-width=".1" d="M.05 14.776h41.49M.05 13.776h41.49M.05 12.776h41.49M.05 11.776h41.49M.05 10.776h41.49"/><rect width="1.956" height=".2" x="38.784" y="-.1" fill="currentColor" ry=".1" transform="translate(0 .776)"/><a color="inherit"><path fill="currentColor" d="M34.974 1.232c.22 0 .432.112.432.356 0 .284-.22.484-.408.596a.908.908 0 0 1-.464.136c-.22 0-.432-.112-.432-.356 0-.284.22-.484.408-.596.14-.084.3-.136.464-.136z"/></a><rect width=".13" height="2.819" x="-.065" y="-1.814" fill="currentColor" ry=".04" transform="translate(34.167 3.776)"/><rect width=".13" height="3.314" x="-.065" y="-.814" fill="currentColor" ry=".04" transform="translate(23.618 3.776)"/><a color="inherit"><path fill="currentColor" d="M32.854 12.016a.168.168 0 0 0-.168-.164c-.016 0-.032 0-.048.004-.124.036-.312.16-.46.256s-.336.212-.416.312a.168.168 0 0 0 .128.276c.016 0 .032 0 .048-.004.124-.036.308-.16.456-.256s.336-.212.416-.312a.172.172 0 0 0 .044-.112zm-.208-.284c.184 0 .328.084.328.284a.739.739 0 0 1-.04.228.71.71 0 0 1-.256.376c-.212.144-.452.2-.748.2-.184 0-.332-.084-.332-.284 0-.076.02-.156.044-.228a.703.703 0 0 1 .252-.376c.212-.144.456-.2.752-.2z"/></a><a color="inherit"><path fill="currentColor" d="M28.153 12.732c-.004.028-.024.044-.044.044-.024 0-.048-.016-.048-.044 0-.7.94-.66.94-1.376 0-.24-.072-.488-.28-.488-.104 0-.204.056-.204.148 0 .108.14.164.14.272 0 .152-.12.276-.272.276s-.276-.124-.276-.276c0-.304.288-.512.612-.512.384 0 .748.224.748.58 0 .612-.604.636-.996.88a.461.461 0 0 1 .104-.012c.132 0 .28.044.42.144a.48.48 0 0 0 .264.092c.084 0 .156-.036.176-.116.008-.024.024-.036.044-.036.024 0 .048.02.048.048 0 .268-.36.42-.552.42a.49.49 0 0 1-.384-.176.241.241 0 0 0-.192-.088c-.12 0-.236.08-.248.22zM28.809 13.597a.89.89 0 0 0 .24-.2c.044-.06.076-.132.108-.2.008-.016.02-.024.036-.024.024 0 .052.02.052.056v.98h.288c.04 0 .06.028.06.056s-.02.06-.06.06h-.288v.032c0 .192.108.376.288.376.032 0 .048.02.048.044s-.016.048-.048.048c-.176 0-.348-.052-.524-.052s-.348.052-.524.052c-.032 0-.048-.024-.048-.048s.016-.044.048-.044c.18 0 .292-.184.292-.376v-.032h-.668c-.092 0-.124-.056-.124-.092 0-.012.004-.02.008-.024.32-.372.552-.828.552-1.32 0-.036.024-.064.052-.064h.012c.092.028.188.052.284.052s.192-.024.284-.052c.008-.004.012-.004.02-.004.044 0 .072.04.048.068l-1.136 1.32h.668v-.524c0-.032.004-.068.032-.088z"/></a><a color="inherit"><path fill="currentColor" d="M31.825 16.554c-.1 0-.125.147-.125.233v.208c0 .036-.026.052-.051.052s-.051-.016-.051-.052v-.697c0-.035.025-.051.05-.051s.052.016.052.05v.049c0 .032.042.064.051.051.07-.1.163-.15.26-.15.09 0 .185.041.265.124a.183.183 0 0 0 .131.058c.093 0 .199-.064.266-.16.013-.016.022-.022.038-.022.03 0 .055.022.055.05 0 .01-.003.02-.01.03-.26.368-.483.787-.483 1.219 0 .083.006.166.026.25.006.031-.016.06-.045.06h-.013c-.08-.022-.163-.051-.246-.051s-.164.029-.244.051h-.016a.046.046 0 0 1-.044-.045c0-.006 0-.01.003-.016.17-.4.419-.755.675-1.107a.41.41 0 0 1-.176.045.267.267 0 0 1-.198-.086c-.052-.052-.116-.093-.17-.093z"/></a><a color="inherit"><path fill="currentColor" d="M31.878 18.398c.02-.011.044-.018.066-.018s.044.007.064.018l-.007.455.205-.06c.004-.002.008 0 .013 0 .024 0 .046.02.046.045l.02 1.21c-.02.01-.044.017-.066.017s-.046-.006-.066-.017l.009-.456-.207.06c-.005.002-.007 0-.011 0-.024 0-.046-.02-.046-.044zm.293.591l-.172.051-.007.416.172-.05z"/></a><rect width=".13" height="2.499" x="-.065" y="-1.314" fill="currentColor" ry=".04" transform="translate(31.663 3.776)"/><a color="inherit"><path fill="currentColor" d="M28.153 3.732c-.004.028-.024.044-.044.044-.024 0-.048-.016-.048-.044 0-.7.94-.66.94-1.376 0-.24-.072-.488-.28-.488-.104 0-.204.056-.204.148 0 .108.14.164.14.272 0 .152-.12.276-.272.276s-.276-.124-.276-.276c0-.304.288-.512.612-.512.384 0 .748.224.748.58 0 .612-.604.636-.996.88a.461.461 0 0 1 .104-.012c.132 0 .28.044.42.144a.48.48 0 0 0 .264.092c.084 0 .156-.036.176-.116.008-.024.024-.036.044-.036.024 0 .048.02.048.048 0 .268-.36.42-.552.42a.49.49 0 0 1-.384-.176.241.241 0 0 0-.192-.088c-.12 0-.236.08-.248.22zM28.809 4.597a.89.89 0 0 0 .24-.2c.044-.06.076-.132.108-.2.008-.016.02-.024.036-.024.024 0 .052.02.052.056v.98h.288c.04 0 .06.028.06.056s-.02.06-.06.06h-.288v.032c0 .192.108.376.288.376.032 0 .048.02.048.044s-.016.048-.048.048c-.176 0-.348-.052-.524-.052s-.348.052-.524.052c-.032 0-.048-.024-.048-.048s.016-.044.048-.044c.18 0 .292-.184.292-.376v-.032h-.668c-.092 0-.124-.056-.124-.092 0-.012.004-.02.008-.024.32-.372.552-.828.552-1.32 0-.036.024-.064.052-.064h.012c.092.028.188.052.284.052s.192-.024.284-.052c.008-.004.012-.004.02-.004.044 0 .072.04.048.068l-1.136 1.32h.668v-.524c0-.032.004-.068.032-.088z"/></a><a color="inherit"><path fill="currentColor" d="M32.47 1.732c.22 0 .432.112.432.356 0 .284-.22.484-.408.596a.908.908 0 0 1-.464.136c-.22 0-.432-.112-.432-.356 0-.284.22-.484.408-.596.14-.084.3-.136.464-.136z"/></a><rect width=".13" height="3.241" x="-.065" y="-.241" fill="currentColor" ry=".04" transform="translate(31.663 12.776)"/><path fill="currentColor" stroke="currentColor" stroke-linecap="round" stroke-linejoin="round" stroke-width=".08" d="M39.2 3.576v.4l-2.554.19v-.4zM34.192 4.576v.4l-2.554.19v-.4z"/><a color="inherit"><path fill="currentColor" d="M39.982.232c.22 0 .432.112.432.356 0 .284-.22.484-.408.596a.908.908 0 0 1-.464.136c-.22 0-.432-.112-.432-.356 0-.284.22-.484.408-.596.14-.084.3-.136.464-.136z"/></a><a color="inherit"><path fill="currentColor" d="M37.478.732c.22 0 .432.112.432.356 0 .284-.22.484-.408.596a.908.908 0 0 1-.464.136c-.22 0-.432-.112-.432-.356 0-.284.22-.484.408-.596.14-.084.3-.136.464-.136z"/></a><rect width=".13" height="2.499" x="-.065" y="-2.314" fill="currentColor" ry=".04" transform="translate(36.671 3.776)"/><rect width=".13" height="2.819" x="-.065" y="-2.814" fill="currentColor" ry=".04" transform="translate(39.175 3.776)"/><a color="inherit"><path fill="currentColor" d="M13.294 3.732c.22 0 .432.112.432.356 0 .284-.22.484-.408.596a.908.908 0 0 1-.464.136c-.22 0-.432-.112-.432-.356 0-.284.22-.484.408-.596.14-.084.3-.136.464-.136z"/></a><a color="inherit"><path fill="currentColor" d="M13.678 14.016a.168.168 0 0 0-.168-.164c-.016 0-.032 0-.048.004-.124.036-.312.16-.46.256s-.336.212-.416.312a.168.168 0 0 0 .128.276c.016 0 .032 0 .048-.004.124-.036.308-.16.456-.256s.336-.212.416-.312a.172.172 0 0 0 .044-.112zm-.208-.284c.184 0 .328.084.328.284a.739.739 0 0 1-.04.228.71.71 0 0 1-.256.376c-.212.144-.452.2-.748.2-.184 0-.332-.084-.332-.284 0-.076.02-.156.044-.228a.703.703 0 0 1 .252-.376c.212-.144.456-.2.752-.2z"/></a><a color="inherit"><path fill="currentColor" d="M12.976 17.027c-.15 0-.16.119-.16.282v.173c0 .163.01.281.16.281.18 0 .186-.16.186-.368s-.007-.368-.186-.368zm-.16-.041a.396.396 0 0 1 .16-.042c.33 0 .554.144.554.451s-.224.452-.554.452c-.362 0-.554-.397-.554-.8 0-.413.24-.8.621-.8.23 0 .445.128.445.339 0 .112-.093.205-.205.205s-.205-.093-.205-.205c0-.074.122-.08.122-.154 0-.07-.077-.102-.157-.102-.201 0-.233.189-.233.416 0 .077.006.16.006.24z"/></a><a color="inherit"><path fill="currentColor" d="M24.425 2.232c.22 0 .432.112.432.356 0 .284-.22.484-.408.596a.908.908 0 0 1-.464.136c-.22 0-.432-.112-.432-.356 0-.284.22-.484.408-.596.14-.084.3-.136.464-.136z"/></a><path fill="currentColor" d="M2.304 3.728c.016 0 .036-.004.052-.004.62 0 1.024.512 1.024 1.044 0 .304-.132.616-.428.84a.905.905 0 0 1-.292.144c.012.14.02.28.02.42 0 .076-.004.156-.008.232-.028.48-.36.912-.832.912a.783.783 0 0 1-.78-.788c0-.232.212-.412.448-.412.216 0 .38.188.38.412 0 .208-.172.38-.38.38a.326.326 0 0 1-.124-.024c.104.156.272.26.468.26.384 0 .628-.368.652-.764a3.775 3.775 0 0 0-.008-.588c-.116.02-.232.032-.356.032-.752 0-1.332-.688-1.332-1.496 0-.708.524-1.224.992-1.764a4.47 4.47 0 0 1-.18-.76 5.429 5.429 0 0 1-.028-.624c0-.46.22-.896.596-1.168A.077.077 0 0 1 2.228 0c.016 0 .028 0 .04.012.284.336.532.98.532 1.432 0 .572-.344 1.02-.72 1.456.084.272.156.552.224.828zm.34 1.86a.71.71 0 0 0 .452-.656.764.764 0 0 0-.692-.76c.096.464.184.924.24 1.416zm-1.548-.924c0 .54.516.988 1.056.988.112 0 .22-.008.328-.024-.056-.508-.148-.98-.252-1.456-.316.032-.496.244-.496.476 0 .176.1.364.324.492.02.02.028.04.028.06 0 .044-.04.088-.088.088-.012 0-.024-.004-.036-.008-.32-.172-.468-.46-.468-.74 0-.352.232-.696.64-.788a15.048 15.048 0 0 0-.184-.7c-.428.484-.852.972-.852 1.612zM2.432.596a1.153 1.153 0 0 0-.648 1.036c0 .296.072.532.144.776.32-.388.584-.792.584-1.296 0-.22-.016-.316-.08-.516zM-.42 10.268c0 1.044-.408 2.064-.408 3.06 0 .54.12 1.044.516 1.44.012.012.012.036.012.048 0 .036-.024.072-.06.072a.091.091 0 0 1-.048-.024c-.528-.54-.708-1.248-.708-2.004 0-1.068.432-2.112.432-3.12 0-.54-.132-1.044-.516-1.44-.012-.012-.012-.012-.012-.024s0-.012.012-.024c.384-.396.516-.9.516-1.44 0-1.008-.432-2.052-.432-3.12 0-.756.18-1.464.708-2.004a.091.091 0 0 1 .048-.024c.036 0 .06.036.06.072 0 .012 0 .036-.012.048-.396.396-.516.9-.516 1.44 0 .996.408 2.016.408 3.06 0 .744-.18 1.452-.696 1.992.516.54.696 1.248.696 1.992z"/><rect width=".16" height="13.1" y="-6.55" fill="currentColor" ry=".05" transform="translate(-.06 8.276)"/><a color="inherit"><path fill="currentColor" d="M9.572 4.732c.22 0 .432.112.432.356 0 .284-.22.484-.408.596a.908.908 0 0 1-.464.136c-.22 0-.432-.112-.432-.356 0-.284.22-.484.408-.596.14-.084.3-.136.464-.136z"/></a><rect width=".13" height="3.314" x="-.065" y="-3" fill="currentColor" ry=".04" transform="translate(13.662 3.776)"/><a color="inherit"><path fill="currentColor" d="M6.436 3.668a.301.301 0 0 1-.3-.3c0-.152.108-.308.288-.308.016 0 .036 0 .056.004A.599.599 0 0 0 6 2.828c-.424 0-.452.292-.452.744v.408c0 .452.028.748.452.748.32 0 .556-.28.632-.604.008-.028.028-.04.048-.04.024 0 .052.016.052.048 0 .376-.42.696-.732.696-.272 0-.548-.084-.736-.28C5.068 4.344 5 4.06 5 3.776s.068-.568.264-.772c.188-.196.464-.276.736-.276.348 0 .64.256.7.6.004.02.004.036.004.052 0 .16-.12.288-.268.288z"/></a><a color="inherit"><path fill="currentColor" d="M8.988 13.776l.468-1.304a1.272 1.272 0 0 1-.42.088c-.184 0-.348-.132-.348-.316a.29.29 0 0 1 .292-.288c.1 0 .192.06.224.156.04.112.024.236.14.236.064 0 .216-.192.244-.252.024-.048.092-.048.112 0l-.492 1.68c-.032.028-.068.04-.108.04s-.08-.012-.112-.04z"/></a><path fill="currentColor" d="M3.028 12.276c0-.112.092-.204.204-.204s.204.092.204.204-.092.204-.204.204-.204-.092-.204-.204zm0-1c0-.112.092-.204.204-.204s.204.092.204.204-.092.204-.204.204-.204-.092-.204-.204zm-1.3-.552c.688 0 1.172.352 1.172 1.004 0 1.052-1.052 1.656-2.064 2.084a.049.049 0 0 1-.036.016.053.053 0 0 1-.052-.052c0-.012.004-.024.016-.036.808-.472 1.648-1.06 1.648-1.972 0-.48-.252-.94-.684-.94-.296 0-.516.216-.616.504a.323.323 0 0 1 .136-.032c.22 0 .4.18.4.4 0 .232-.176.424-.4.424-.24 0-.448-.188-.448-.424 0-.532.408-.976.928-.976z"/><a color="inherit"><path fill="currentColor" d="M6.436 12.668a.301.301 0 0 1-.3-.3c0-.152.108-.308.288-.308.016 0 .036 0 .056.004a.599.599 0 0 0-.48-.236c-.424 0-.452.292-.452.744v.408c0 .452.028.748.452.748.32 0 .556-.28.632-.604.008-.028.028-.04.048-.04.024 0 .052.016.052.048 0 .376-.42.696-.732.696-.272 0-.548-.084-.736-.28-.196-.204-.264-.488-.264-.772s.068-.568.264-.772c.188-.196.464-.276.736-.276.348 0 .64.256.7.6.004.02.004.036.004.052 0 .16-.12.288-.268.288z"/></a><rect width=".13" height="3.314" x="-.065" y="-2" fill="currentColor" ry=".04" transform="translate(9.94 3.776)"/><path fill="currentColor" d="M10.004 1.816c0 .788.828 1.344.828 2.132 0 .284-.06.564-.164.828a.097.097 0 0 1-.08.048c-.052 0-.104-.044-.092-.108.104-.244.168-.504.168-.768 0-.412-.376-.832-.66-1.132H9.94v-1h.064z"/><a color="inherit"><path fill="currentColor" d="M20.403 17.027c-.15 0-.16.119-.16.282v.173c0 .163.01.281.16.281.179 0 .185-.16.185-.368s-.006-.368-.185-.368zm-.16-.041a.396.396 0 0 1 .16-.042c.33 0 .553.144.553.451s-.224.452-.553.452c-.362 0-.554-.397-.554-.8 0-.413.24-.8.62-.8.231 0 .446.128.446.339 0 .112-.093.205-.205.205s-.205-.093-.205-.205c0-.074.122-.08.122-.154 0-.07-.077-.102-.157-.102-.202 0-.234.189-.234.416 0 .077.007.16.007.24z"/></a><a color="inherit"><path fill="currentColor" d="M17.017 3.232c.22 0 .432.112.432.356 0 .284-.22.484-.408.596a.908.908 0 0 1-.464.136c-.22 0-.432-.112-.432-.356 0-.284.22-.484.408-.596.14-.084.3-.136.464-.136z"/></a><a color="inherit"><path fill="currentColor" d="M15.818 17.2c.011-.005.022-.01.035-.01a.08.08 0 0 1 .08.08v.09a.08.08 0 0 1-.049.072l-.066.03v.316c0 .03-.024.057-.055.057s-.057-.026-.057-.057v-.273l-.152.064v.319c0 .03-.026.055-.057.055s-.055-.024-.055-.055v-.273c-.011.004-.022.009-.035.009a.08.08 0 0 1-.08-.08v-.092c0-.03.02-.061.049-.072l.066-.027v-.317c-.011.005-.022.01-.035.01a.08.08 0 0 1-.08-.08v-.09c0-.03.02-.062.049-.073l.066-.028v-.317c0-.03.024-.057.055-.057s.057.026.057.057v.273l.152-.064v-.32c0-.03.026-.054.057-.054s.055.024.055.055v.273c.011-.005.022-.01.035-.01a.08.08 0 0 1 .08.08v.092a.08.08 0 0 1-.049.073l-.066.026v.317zm-.264-.21v.317l.152-.062v-.316zM16.788 17.013c.074-.048.147-.093.198-.164.039-.05.064-.112.09-.166a.035.035 0 0 1 .032-.02c.022 0 .045.017.045.049v.745h.243c.035 0 .051.026.051.051s-.016.052-.05.052h-.244v.006c0 .16.096.31.246.31.03 0 .039.023.039.042s-.01.042-.039.042c-.147 0-.294-.042-.441-.042s-.298.042-.445.042c-.029 0-.039-.023-.039-.042s.01-.041.039-.041c.15 0 .246-.15.246-.31v-.007h-.512c-.083 0-.109-.048-.109-.08 0-.01.004-.02.007-.023.253-.29.42-.656.42-1.04 0-.032.021-.057.047-.057h.01c.076.022.156.041.236.041s.16-.019.237-.041c.007-.003.01-.003.016-.003.03 0 .048.022.048.041 0 .007 0 .013-.006.02l-.906 1.04h.512v-.369c0-.028.003-.06.03-.076z"/></a><a color="inherit"><path fill="currentColor" d="M16.228 19.692a.041.041 0 0 1-.042.038.04.04 0 0 1-.041-.041c0-.557.749-.525.749-1.095 0-.185-.051-.38-.211-.38-.09 0-.176.041-.176.121 0 .086.112.128.112.214 0 .119-.1.215-.218.215s-.214-.096-.214-.214c0-.247.233-.42.495-.42.31 0 .605.18.605.464 0 .474-.46.506-.774.682.02-.003.035-.003.054-.003.11 0 .23.038.346.121.064.045.138.07.202.07.07 0 .128-.031.144-.095.006-.023.022-.032.038-.032a.04.04 0 0 1 .041.041v.013a.47.47 0 0 1-.454.34.394.394 0 0 1-.314-.145.19.19 0 0 0-.147-.073.194.194 0 0 0-.195.179z"/><path stroke="currentColor" stroke-linecap="round" stroke-linejoin="round" stroke-width=".127" d="M15.947 19.104l1.59-.635"/></a><rect width=".13" height="3.147" x="-.065" y=".186" fill="currentColor" ry=".04" transform="translate(16.21 3.776)"/><a color="inherit"><path fill="currentColor" d="M20.721 2.732c.22 0 .432.112.432.356 0 .284-.22.484-.408.596a.908.908 0 0 1-.464.136c-.22 0-.432-.112-.432-.356 0-.284.22-.484.408-.596.14-.084.3-.136.464-.136z"/></a><a color="inherit"><path fill="currentColor" d="M21.105 13.016a.168.168 0 0 0-.168-.164c-.016 0-.032 0-.048.004-.124.036-.312.16-.46.256s-.336.212-.416.312a.168.168 0 0 0 .128.276c.016 0 .032 0 .048-.004.124-.036.308-.16.456-.256s.336-.212.416-.312a.172.172 0 0 0 .044-.112zm-.208-.284c.184 0 .328.084.328.284a.739.739 0 0 1-.04.228.71.71 0 0 1-.256.376c-.212.144-.452.2-.748.2-.184 0-.332-.084-.332-.284 0-.076.02-.156.044-.228a.703.703 0 0 1 .252-.376c.212-.144.456-.2.752-.2z"/></a><a color="inherit"><path fill="currentColor" d="M19.281 19.214l-.004.121v.022c0 .047.004.093.011.137.088-.084.183-.174.183-.295 0-.066-.029-.134-.086-.134-.068 0-.101.075-.104.15zm-.123.383l-.035-1.276a.16.16 0 0 1 .154 0l-.02.726a.288.288 0 0 1 .218-.101c.108 0 .165.119.165.238 0 .165-.165.257-.284.371-.044.044-.061.126-.127.126-.042 0-.07-.04-.07-.084zM20.01 18.017c.143.026.29.042.437.042s.295-.016.439-.042h.013c.032 0 .054.023.054.042 0 .006 0 .01-.006.016-.218.217-.528.31-.835.31a.057.057 0 0 0-.058.058v.275a.466.466 0 0 1 .336-.128c.371 0 .598.163.598.515 0 .304-.294.512-.617.512-.266 0-.522-.134-.522-.371 0-.112.093-.205.205-.205s.205.093.205.205c0 .077-.125.093-.125.17 0 .099.122.118.237.118.179 0 .227-.22.227-.429 0-.195-.038-.413-.208-.413-.134 0-.269.03-.346.135a.047.047 0 0 1-.041.022c-.026 0-.055-.019-.055-.051v-.723c0-.032.023-.058.051-.058h.01z"/></a><rect width=".13" height="3.314" x="-.065" y="-.314" fill="currentColor" ry=".04" transform="translate(19.914 3.776)"/><rect width=".13" height="3.241" x="-.065" y="-3" fill="currentColor" ry=".04" transform="translate(21.162 12.776)"/><rect width=".13" height="3.241" x="-.065" y="-2" fill="currentColor" ry=".04" transform="translate(13.735 12.776)"/></svg>